<svg width="199" height="20" viewBox="0 0 199 20" fill="none" xmlns="http://www.w3.org/2000/svg">
<rect width="199" height="20" fill="white"/>
<path d="M27.2807 0.416016H30.2157V19.5846H27.2807V0.416016Z" fill="#11227E"/>
<path d="M15.7653 19.5846H18.7324L10.7615 0.416016H7.97087L0 19.5846H2.9991L4.1378 16.7978L5.80575 12.4868H5.77367C6.97652 9.49993 8.17937 6.51301 9.36618 3.5261C10.2643 5.72779 11.1464 7.94488 12.0445 10.1774C12.1568 10.4545 12.2691 10.7316 12.3813 11.0088C12.5738 11.5015 12.7823 11.9942 12.9747 12.4868H12.9426L14.4502 16.4129L15.7653 19.5846Z" fill="#11227E"/>
<path d="M45.1315 2.77167H38.9409V0.416016H54.2732V2.77167H48.0825V19.5846H45.1476V2.77167H45.1315Z" fill="#11227E"/>
<path d="M66.0276 18.7375C64.4238 17.9061 63.1729 16.736 62.2587 15.2117C61.3446 13.6875 60.8955 11.963 60.8955 10.0077C60.8955 8.05235 61.3446 6.31255 62.2587 4.8037C63.1729 3.27945 64.4238 2.10931 66.0276 1.26251C67.6314 0.415704 69.4117 0 71.4004 0C73.373 0 75.1693 0.415704 76.7731 1.26251C78.3769 2.10931 79.6278 3.27945 80.542 4.8037C81.4562 6.32794 81.9052 8.05235 81.9052 10.0077C81.9052 11.963 81.4562 13.7028 80.542 15.2117C79.6278 16.736 78.3769 17.9061 76.7731 18.7375C75.1693 19.5689 73.3891 19.9846 71.4004 19.9846C69.4117 19.9846 67.6314 19.5689 66.0276 18.7375ZM75.2334 16.5512C76.3882 15.9353 77.3023 15.0731 77.9599 13.9492C78.6335 12.8253 78.9542 11.5166 78.9542 10.0077C78.9542 8.52964 78.6335 7.22094 77.9759 6.097C77.3184 4.97306 76.4202 4.11085 75.2815 3.495C74.1429 2.87914 72.8598 2.57121 71.4485 2.57121C70.0211 2.57121 68.7381 2.87914 67.5833 3.4796C66.4286 4.08006 65.5144 4.95766 64.8408 6.0816C64.1672 7.22094 63.8304 8.52964 63.8304 10.0077C63.8304 11.5012 64.1672 12.8253 64.8248 13.9492C65.4984 15.0731 66.3965 15.9353 67.5512 16.5512C68.706 17.1671 69.989 17.475 71.4004 17.475C72.8117 17.4596 74.0787 17.1671 75.2334 16.5512Z" fill="#11227E"/>
<path d="M91.8975 0.416016H94.8164L101.921 15.366L109.026 0.416016H111.945V19.5846H109.122V5.94334L102.643 19.5846H101.2L94.6881 5.95874V19.5846H91.8975V0.416016Z" fill="#11227E"/>
<path d="M135.458 19.5846H138.425L130.47 0.416016H127.663L119.692 19.5846H122.692L123.83 16.7978L125.498 12.4868H125.466C126.669 9.49993 127.872 6.51301 129.059 3.5261C129.957 5.74319 130.839 7.96028 131.737 10.1928C131.849 10.4699 131.961 10.747 132.074 11.0242C132.266 11.5169 132.475 12.0095 132.667 12.5022H132.635L134.143 16.4283L135.458 19.5846Z" fill="#11227E"/>
<path d="M149.65 2.77167H143.459V0.416016H158.792V2.77167H152.601V19.5846H149.666V2.77167H149.65Z" fill="#11227E"/>
<path d="M167.502 0.416016H170.437V19.5846H167.502V0.416016Z" fill="#11227E"/>
<path d="M186.265 18.7529C184.661 17.9369 183.41 16.7667 182.528 15.2579C181.63 13.749 181.181 11.9938 181.181 10.0077C181.181 8.02156 181.63 6.26636 182.528 4.74211C183.426 3.21786 184.677 2.04773 186.265 1.23172C187.869 0.415704 189.697 0 191.75 0C194.492 0 196.786 0.662048 198.63 2.00154V4.69592C196.978 3.29484 194.765 2.58661 192.006 2.58661C190.467 2.58661 189.103 2.89453 187.901 3.495C186.714 4.09546 185.784 4.95766 185.11 6.0816C184.436 7.20554 184.116 8.51424 184.116 10.0231C184.116 11.5166 184.452 12.8406 185.126 13.9646C185.8 15.1039 186.73 15.9661 187.933 16.5666C189.119 17.1671 190.483 17.475 192.006 17.475C193.418 17.475 194.685 17.2902 195.791 16.9361C196.898 16.582 197.94 16.0123 198.887 15.2271V17.9369C197.171 19.3072 194.797 20 191.75 20C189.697 19.9846 187.869 19.5843 186.265 18.7529Z" fill="#11227E"/>
</svg>
