<svg width="1362" height="1063" viewBox="0 0 1362 1063" fill="none" xmlns="http://www.w3.org/2000/svg">
<path d="M504.7 303.4H276V195.6C276 138.4 322.4 92 379.6 92H504.7V303.4Z" fill="#4D67CA"/>
<path d="M373.7 92C373.7 92 449.4 96.8 476.3 171.8C481.6 186.5 484 202 484 217.6V709.7C484 709.7 478.8 830.4 604.1 839.6H897.1V212.1C897.1 212.1 901 126.1 810.4 98.6C797 94.5 782.9 92.6 768.9 92.7L373.7 92Z" fill="white"/>
<path d="M898.6 841H603.9C575 838.9 550.7 830.7 531.5 816.5C516.1 805.2 504.1 790.1 495.6 771.7C481.3 740.4 482.4 709.8 482.4 709.5V217.5C482.4 201.6 479.8 186.3 474.8 172.2C461.1 133.9 434.3 114.6 414.2 105C392.4 94.7 373.7 93.4 373.5 93.4L373.6 90.4L768.9 91C769 91 769 91 769.1 91C783.7 91 797.7 93 810.8 97C858.1 111.4 879.5 141.9 889 165C899.4 190 898.5 211.2 898.5 212.1L898.6 841ZM604.1 838H895.6V212C895.6 211.7 896.4 190.4 886.3 166C877 143.6 856.2 113.9 810 99.9C797.2 96 783.4 94 769.1 94C769 94 769 94 768.9 94L390.9 93.4C397.8 95.2 406.4 97.9 415.5 102.3C436.1 112.1 463.6 131.9 477.7 171.2C482.9 185.7 485.5 201.2 485.5 217.5V709.6C485.5 710 484.4 739.9 498.5 770.6C517.3 811.6 552.9 834.3 604.1 838Z" fill="#4D67CA"/>
<path d="M705.2 655.7V751.3C705.2 773.8 697.8 795.8 683.5 813.2C673.8 825 660.3 835.7 641.8 839.6H912.4C915.2 839.6 918 839.4 920.8 839C938.9 836.5 997.1 823.3 1012.6 758.3C1014.6 750.1 1015.4 741.6 1015.4 733.1V655.7H705.2Z" fill="white"/>
<path d="M912.5 841H627.4L641.5 838C657.2 834.7 671 826 682.3 812.2C696.1 795.4 703.7 773.8 703.7 751.2V654.1H1017V733C1017 742 1016 750.6 1014.1 758.5C998.4 824.5 938.9 837.8 921.1 840.3C918.3 840.8 915.4 841 912.5 841ZM652.3 838H912.4C915.2 838 918 837.8 920.6 837.4C938 835 995.9 822 1011.1 757.9C1012.9 750.1 1013.9 741.8 1013.9 733V657.1H706.6V751.2C706.6 774.4 698.8 796.8 684.6 814.1C675.4 825.5 664.5 833.5 652.3 838Z" fill="#4D67CA"/>
<path d="M862.3 169.2C909.023 169.2 946.9 131.323 946.9 84.6C946.9 37.8767 909.023 0 862.3 0C815.577 0 777.7 37.8767 777.7 84.6C777.7 131.323 815.577 169.2 862.3 169.2Z" fill="#4D67CA"/>
<path d="M851.5 118.1L816.5 83C813.6 80.1 813.6 75.4 816.5 72.5C819.4 69.6 824.1 69.6 827 72.5L851.7 97.2L897.5 53.2C900.5 50.3 905.2 50.4 908 53.4C910.9 56.4 910.8 61.1 907.8 63.9L851.5 118.1Z" fill="white"/>
<path d="M1108 973L1101.2 1013.1L1097 1037.7H1058.9L1060.2 1015.8L1062.7 973.6L1108 973Z" fill="white"/>
<path d="M1098.3 1039.2H1057.3L1061.4 972.2L1109.8 971.5L1098.3 1039.2ZM1060.4 1036.2H1095.7L1106.1 974.6L1064.1 975.2L1060.4 1036.2Z" fill="#4D67CA"/>
<path d="M1099.5 1024.6C1096.2 1028.1 1082.6 1039.5 1060.1 1023.9C1059.9 1023.8 1059.6 1023.7 1059.4 1023.9L997.4 1057.1C994.5 1058.7 995.6 1063 998.9 1063H1100.1C1104.8 1063 1108.2 1058.7 1107.2 1054.1L1100.6 1024.9C1100.4 1024.4 1099.8 1024.2 1099.5 1024.6Z" fill="#4D67CA"/>
<path d="M1108 973L1101.2 1013.1L1060.2 1015.8L1062.7 973.6L1108 973Z" fill="#4D67CA"/>
<path d="M1268.5 1037.7H1230.3L1226.5 1015.8L1218.9 973.6L1264.2 973L1266.8 1013.2L1268.5 1037.7Z" fill="white"/>
<path d="M1270.1 1039.2H1229.1L1217.1 972.2L1265.5 971.5L1270.1 1039.2ZM1231.6 1036.2H1266.9L1262.8 974.6L1220.8 975.2L1231.6 1036.2Z" fill="#4D67CA"/>
<path d="M1267.1 1024.6C1263.8 1028.1 1250.2 1039.5 1227.7 1023.9C1227.5 1023.8 1227.2 1023.7 1227 1023.9L1165 1057.1C1162.1 1058.7 1163.2 1063 1166.5 1063H1267.7C1272.4 1063 1275.8 1058.7 1274.8 1054.1L1268.2 1024.9C1268.1 1024.4 1267.5 1024.2 1267.1 1024.6Z" fill="#4D67CA"/>
<path d="M1266.8 1013.2L1226.5 1015.8L1218.9 973.6L1264.2 973L1266.8 1013.2Z" fill="#4D67CA"/>
<path d="M1047.2 285.6C1043.9 288.6 1038.7 288.3 1035.8 284.9L977.9 218.2L977.8 218L970.6 200L988.1 209.8L1047.5 274.1C1050.8 277.5 1050.5 282.6 1047.2 285.6Z" fill="white"/>
<path d="M1041.9 289.2C1041.7 289.2 1041.5 289.2 1041.3 289.2C1038.7 289 1036.4 287.9 1034.7 285.9L976.7 219L976.5 218.6L967.8 196.7L989.2 208.7L989.4 208.9L1048.8 273.2C1050.5 275.1 1051.4 277.5 1051.3 280.1C1051.2 282.7 1050.1 285 1048.2 286.7C1046.5 288.3 1044.2 289.2 1041.9 289.2ZM979.3 217.4L1037 283.9C1038.2 285.2 1039.8 286 1041.5 286.1C1043.3 286.2 1044.9 285.6 1046.3 284.4C1047.6 283.2 1048.4 281.6 1048.4 279.9C1048.5 278.1 1047.9 276.5 1046.7 275.2L987.4 211L973.7 203.3L979.3 217.4Z" fill="#4D67CA"/>
<path d="M988.3 209.9C988.3 209.9 988.6 213.3 984.7 216.2C981.4 218.7 977.9 218.1 977.9 218.1L970.7 200.1L988.3 209.9Z" fill="#4D67CA"/>
<path d="M1268.4 556.8C1268.4 556.8 1272.9 585.3 1267.3 635.8C1261.5 688.4 1252.6 748 1252.6 748L1275 1006H1211.6L1173 756L1155.1 546.3L1268.4 556.8Z" fill="#4D67CA"/>
<path d="M1255.1 516L1157 756L1107.7 1006H1045.5L1073.5 744.1L1124.2 511.5L1255.1 516Z" fill="white"/>
<path d="M1108.9 1007.5H1043.8L1072 743.8L1123 510L1257.3 514.7L1158.4 756.5L1108.9 1007.5ZM1047.1 1004.5H1106.4L1155.5 755.6L1155.6 755.5L1252.9 517.5L1125.4 513.1L1075 744.4L1047.1 1004.5Z" fill="#7590ED"/>
<path d="M1097.5 407.5L1085.5 416.8L1083.4 418.5L1052.8 442.4C1039.4 452.9 1019.7 445.7 1016.2 429L985.6 299.6L972.5 269.1C971.9 267.6 971.6 266 971.8 264.4C972.4 259 974.4 258.7 974.4 258.7C974.8 252.9 979.2 251.2 979.2 251.2C981.9 244.8 986 243.7 986 243.7C989 236.4 995.6 239.8 995.6 239.8L994.8 229.9C992.6 219.2 998.4 216.7 998.4 216.7L1009.3 239.9L1008.8 253.7L1018.5 264.7L1011.9 290.2L1046.6 388.4L1069.2 363.8L1075.6 356.9L1097.5 407.5Z" fill="white"/>
<path d="M1038.7 448.8C1035.9 448.8 1033 448.3 1030.3 447.3C1022.3 444.4 1016.5 437.7 1014.8 429.3L984.3 300.1L971.3 269.7C970.6 268 970.3 266.1 970.5 264.3C971 260.2 972.2 258.5 973.2 257.8C973.9 253.1 977 250.9 978.3 250.2C980.6 245.2 983.7 243.3 985.1 242.6C986.2 240.3 987.7 238.8 989.7 238C991.3 237.4 992.9 237.5 994.2 237.7L993.6 230.1C991.3 218.4 997.8 215.4 998.1 215.3L999.4 214.7L1011.1 239.6L1010.6 253.1L1020.4 264.3L1013.7 290.1L1047.4 385.5L1076.2 354.1L1099.4 407.9L1053.8 443.6C1049.4 447.1 1044.1 448.8 1038.7 448.8ZM974.9 260.3C974.6 260.5 973.7 261.7 973.4 264.7C973.2 266 973.4 267.4 974 268.6L987.1 299.4L1017.7 428.8C1019.2 436.1 1024.3 442 1031.3 444.6C1038.3 447.2 1046 445.9 1051.9 441.3L1095.7 407.1L1075.2 359.7L1046.1 391.3L1010.4 290.4L1017 265.2L1007.4 254.3L1007.9 240.3L997.9 219.1C996.7 220.4 995.1 223.5 996.4 229.7V229.9L997.5 242.4L995.1 241.2C995.1 241.2 992.8 240.1 990.6 240.9C989.3 241.4 988.2 242.6 987.5 244.4L987.2 245.1L986.5 245.3C986.4 245.3 983 246.4 980.6 252L980.4 252.6L979.8 252.8C979.7 252.9 976.3 254.3 975.9 259L975.8 260.2L974.9 260.3Z" fill="#4D67CA"/>
<path d="M1165.7 298.5L1163.9 271.7C1163.9 271.7 1119.8 283.1 1140.7 199.8C1140.7 199.8 1168.9 170.2 1203.9 199.8V260.3L1209.8 291.2L1165.7 298.5Z" fill="white"/>
<path d="M1164.3 300.2L1162.5 273.4C1158.7 273.9 1149.7 274.3 1142.6 267.3C1131.7 256.5 1130.6 233.7 1139.2 199.4L1139.3 199L1139.6 198.7C1139.9 198.4 1169.2 168.5 1204.9 198.6L1205.4 199V260.1L1211.6 292.4L1164.3 300.2ZM1165.3 269.8L1167.1 296.8L1208.1 290L1202.4 260.3V200.5C1188.5 189 1174.1 185.5 1159.7 190.1C1149.9 193.2 1143.4 199.2 1142 200.6C1131.8 241.5 1137.8 258.3 1144.7 265.2C1152.5 272.9 1163.4 270.3 1163.5 270.3L1165.3 269.8Z" fill="#4D67CA"/>
<path d="M1353.4 441.5L1283.3 514L1278.7 518.6L1281 539.3L1276.4 556.6L1269.5 564.7L1265.2 523.8V499.6L1276.4 489.8L1312 424.7L1304.1 416.5L1289.4 401.3L1310.1 353.4L1330.1 379.3L1355.1 411.8C1361.9 420.8 1361.2 433.4 1353.4 441.5Z" fill="white"/>
<path d="M1268.3 568.4L1263.6 523.9V499L1275.1 488.9L1310 425L1287.5 401.6L1309.6 350.5L1356.1 410.9C1363.4 420.3 1362.6 433.9 1354.3 442.5L1284.2 515L1280.1 519.1L1282.4 539.4L1277.6 557.3L1268.3 568.4ZM1266.6 523.8L1270.5 561.2L1274.9 556L1279.3 539.3L1277 518.1L1282.1 513L1352.2 440.5C1359.5 433 1360.1 421.1 1353.8 412.8L1310.4 356.4L1291.1 401L1313.8 424.5L1277.6 490.8L1266.7 500.3V523.8H1266.6Z" fill="#4D67CA"/>
<path d="M1330 379.4L1304 416.6L1289.3 401.3L1310 353.5L1330 379.4Z" fill="#4D67CA"/>
<path d="M1097.5 407.5L1085.6 416.8L1069.3 363.8L1075.7 356.9L1097.5 407.5Z" fill="#4D67CA"/>
<path d="M1273.2 396.9C1272.9 405.3 1272.7 428.8 1272.9 456.4C1273.3 495.7 1274.5 543.2 1277.6 567.6C1277.6 567.6 1205.9 584.2 1158.9 579C1122.9 575 1109 570.1 1109 570.1L1109.1 568.4L1117.9 400.2L1097.6 414.8L1073.4 356.3L1108.6 314.6C1115.6 306.3 1124.8 300.2 1135.1 297L1152.9 291.4L1156.3 289.1C1158.3 287.7 1160.8 287.2 1163.2 287.5C1170.7 288.6 1189.2 290.1 1210.4 283.8C1213.5 282.9 1216.9 283.6 1219.4 285.7L1222.2 288L1255.8 299C1268.2 303.1 1279.3 310.6 1287.6 320.6L1329 370.4L1292.2 413L1273.2 393.6C1273.3 394.2 1273.2 395.2 1273.2 396.9Z" fill="white"/>
<path d="M1179.1 581.5C1172 581.5 1165.2 581.2 1158.8 580.5C1123 576.5 1109.1 571.7 1108.5 571.5L1107.4 571.1L1107.5 568.3L1116.1 403.2L1096.8 417.1L1071.6 356L1107.3 313.6C1114.5 305.1 1123.9 298.9 1134.5 295.5L1152.1 290L1155.3 287.9C1157.6 286.3 1160.4 285.7 1163.2 286.1C1170.2 287.1 1188.6 288.7 1209.8 282.5C1213.4 281.4 1217.3 282.3 1220.2 284.7L1222.7 286.8L1256.1 297.7C1268.8 301.9 1280.1 309.5 1288.6 319.8L1330.8 370.6L1292.1 415.4L1274.3 397.2C1274 405.8 1273.8 429.2 1274.1 456.4C1274.4 486.2 1275.3 540.2 1278.8 567.4L1279 568.7L1277.7 569C1277.4 569.3 1223.8 581.5 1179.1 581.5ZM1110.6 569C1114.5 570.2 1129.2 574.2 1159.1 577.5C1201.8 582.2 1266 568.7 1275.9 566.5C1272.5 538.7 1271.6 485.8 1271.3 456.5C1271.1 429 1271.2 405.3 1271.6 396.9C1271.7 394.5 1271.8 393.9 1271.8 393.5L1272.3 390.6L1292.2 410.9L1327.1 370.5L1286.5 321.7C1278.3 311.8 1267.5 304.5 1255.3 300.5L1221.4 289.4L1218.4 286.9C1216.3 285.1 1213.4 284.5 1210.8 285.3C1189.1 291.7 1170.1 290 1163 289C1160.9 288.7 1158.9 289.2 1157.2 290.3L1153.7 292.7L1135.7 298.3C1125.6 301.4 1116.7 307.4 1109.9 315.4L1075.3 356.4L1098.4 412.3L1119.7 397L1110.6 569Z" fill="#4D67CA"/>
<path d="M1226.8 200.1C1230.5 166.2 1211.7 170.3 1211.7 170.3C1192.9 143.4 1183.4 159.4 1183.4 159.4C1167.5 145.3 1162.6 158.9 1162.6 158.9C1147 152.5 1144.3 166.2 1144.3 166.2C1129.7 163.5 1130.6 177.2 1130.6 177.2C1125.1 178.1 1124 185.3 1124.2 188.2C1125.5 206.6 1138.6 208 1145.9 207.4L1147.6 229.8C1147.8 231.9 1149.8 233.3 1151.9 232.7C1153.1 232.3 1154 231.3 1154.2 230.1C1154.2 229.8 1154.3 229.6 1154.3 229.4C1155.9 221.4 1168.9 215.3 1170.7 229.4C1170.7 229.4 1172.1 247.6 1162.5 248C1162.5 248 1172.8 269.7 1197.4 265.2C1201.5 264.4 1228.4 257.7 1226.3 210.9C1227 204.5 1226.8 200.1 1226.8 200.1Z" fill="#4D67CA"/>
<path d="M975.773 258.893L973.946 259.705L977.926 268.661L979.753 267.848L975.773 258.893Z" fill="#4D67CA"/>
<path d="M980.774 250.894L978.946 251.706L982.926 260.661L984.754 259.849L980.774 250.894Z" fill="#4D67CA"/>
<path d="M986.665 243.757L984.792 244.459L987.776 252.418L989.649 251.715L986.665 243.757Z" fill="#4D67CA"/>
<path d="M630.803 435C630.803 435 573.903 488.8 572.003 612.5C571.903 620.3 581.503 624.2 586.803 618.4C605.103 598.6 636.102 566.2 653.702 555.7L630.803 435Z" fill="white"/>
<path d="M580.503 623.2C579.203 623.2 577.803 622.9 576.603 622.4C572.503 620.8 569.903 616.9 570.003 612.5C571.003 548.2 587.103 503.1 600.403 476.5C614.903 447.6 628.903 434.1 629.503 433.6L632.202 431.1L656.003 556.8L654.803 557.5C637.203 568 605.603 601 588.303 619.8C586.203 622 583.403 623.2 580.503 623.2ZM629.503 439.2C624.803 444.5 614.302 457.4 603.702 478.5C590.602 504.7 574.903 549.2 573.903 612.5C573.803 615.8 576.003 617.9 578.003 618.7C580.003 619.5 583.002 619.5 585.202 617.1C602.302 598.6 633.203 566.3 651.403 554.8L629.503 439.2Z" fill="#7590ED"/>
<path d="M752.803 435C752.803 435 809.703 488.8 811.603 612.5C811.703 620.3 802.103 624.2 796.803 618.4C778.503 598.6 747.503 566.2 729.903 555.7L752.803 435Z" fill="white"/>
<path d="M803.103 623.2C800.203 623.2 797.403 622 795.403 619.8C778.103 601 746.503 568 728.903 557.5L727.703 556.8L751.503 431.1L754.203 433.6C754.803 434.2 768.903 447.6 783.303 476.5C796.603 503.1 812.703 548.2 813.703 612.5C813.803 616.9 811.203 620.8 807.103 622.4C805.703 622.9 804.403 623.2 803.103 623.2ZM732.103 554.8C750.303 566.3 781.203 598.6 798.303 617.1C800.603 619.5 803.503 619.5 805.503 618.7C807.503 617.9 809.703 615.9 809.603 612.5C808.603 549.1 792.803 504.6 779.803 478.5C769.303 457.4 758.803 444.5 754.003 439.2L732.103 554.8Z" fill="#7590ED"/>
<path d="M748.203 529.3H635.203C598.703 366.6 619.203 270.8 645.103 217.6H737.803C763.903 270.9 784.603 366.7 748.203 529.3Z" fill="#E1E8FF"/>
<path d="M749.803 531.3H633.603L633.203 529.7C596.103 364.4 618.203 268.3 643.203 216.7L643.703 215.6H738.903L739.403 216.7C764.603 268.3 786.903 364.5 749.903 529.7L749.803 531.3ZM636.803 527.3H746.603C782.603 365.3 761.203 270.7 736.603 219.6H646.403C621.903 270.8 600.803 365.4 636.803 527.3Z" fill="#7590ED"/>
<path d="M691.503 356.2C712.821 356.2 730.103 338.918 730.103 317.6C730.103 296.282 712.821 279 691.503 279C670.185 279 652.903 296.282 652.903 317.6C652.903 338.918 670.185 356.2 691.503 356.2Z" fill="white"/>
<path d="M691.503 358.2C669.103 358.2 650.903 340 650.903 317.6C650.903 295.2 669.103 277 691.503 277C713.903 277 732.103 295.2 732.103 317.6C732.103 340 713.903 358.2 691.503 358.2ZM691.503 281C671.303 281 654.903 297.4 654.903 317.6C654.903 337.8 671.303 354.2 691.503 354.2C711.703 354.2 728.103 337.8 728.103 317.6C728.103 297.4 711.703 281 691.503 281Z" fill="#7590ED"/>
<path d="M737.803 217.6H645.103C666.203 174.1 690.903 159 690.903 159H691.703C691.703 159 716.503 174.1 737.803 217.6Z" fill="white"/>
<path d="M741.003 219.6H641.903L643.303 216.7C664.403 173.2 688.803 157.9 689.903 157.3L690.403 157H692.303L692.803 157.3C693.803 157.9 718.403 173.2 739.703 216.7L741.003 219.6ZM648.303 215.6H734.603C716.103 179.1 695.203 163.8 691.303 161.1C687.403 163.8 666.703 179.2 648.303 215.6Z" fill="#7590ED"/>
<path d="M748.203 529.3C745.803 540 743.203 551 740.203 562.3H643.103C640.203 551 637.503 540 635.103 529.3H748.203Z" fill="white"/>
<path d="M741.803 564.3H641.603L641.203 562.8C638.303 551.7 635.603 540.6 633.203 529.7L632.703 527.3H750.703L750.203 529.7C747.803 540.6 745.103 551.7 742.203 562.8L741.803 564.3ZM644.703 560.3H738.603C741.103 550.6 743.403 540.9 745.603 531.3H637.603C639.903 540.9 642.203 550.6 644.703 560.3Z" fill="#7590ED"/>
<path d="M689.603 437.7C695.003 437.7 699.503 441.8 700.003 447.2L705.803 510.1C707.003 523 707.003 536.1 705.803 549L700.003 611.9C699.503 617.3 695.003 621.4 689.603 621.4C684.203 621.4 679.703 617.3 679.203 611.9L673.403 549C672.203 536.1 672.203 523 673.403 510.1L679.203 447.2C679.703 441.8 684.203 437.7 689.603 437.7Z" fill="white"/>
<path d="M689.603 623.3C683.103 623.3 677.803 618.4 677.203 612L671.403 549.1C670.203 536.1 670.203 522.8 671.403 509.8L677.203 446.9C677.803 440.5 683.103 435.6 689.603 435.6C696.103 435.6 701.403 440.5 702.003 446.9L707.803 509.8C709.003 522.8 709.003 536 707.803 549.1L702.003 612C701.403 618.5 696.003 623.3 689.603 623.3ZM689.603 439.7C685.203 439.7 681.603 443 681.203 447.4L675.403 510.3C674.203 523.1 674.203 536.1 675.403 548.8L681.203 611.7C681.603 616.1 685.203 619.4 689.603 619.4C694.003 619.4 697.603 616.1 698.003 611.7L703.803 548.8C705.003 536 705.003 523 703.803 510.3L698.003 447.4C697.603 443 694.003 439.7 689.603 439.7Z" fill="#7590ED"/>
<path d="M1.6001 301.8V397.9C1.6001 407.4 9.30039 415.2 18.9004 415.2H371.4C380.9 415.2 388.7 407.5 388.7 397.9V301.8C388.7 292.3 381 284.5 371.4 284.5H18.9004C9.30039 284.6 1.6001 292.3 1.6001 301.8Z" fill="white"/>
<path d="M371.3 416.7H18.8003C8.50029 416.7 0 408.3 0 397.9V301.8C0 291.5 8.40029 283 18.8003 283H371.3C381.6 283 390.1 291.4 390.1 301.8V397.9C390 408.3 381.6 416.7 371.3 416.7ZM18.8003 286.1C10.1003 286.1 3 293.2 3 301.9V398C3 406.7 10.1003 413.8 18.8003 413.8H371.3C380 413.8 387.1 406.7 387.1 398V301.9C387.1 293.2 380 286.1 371.3 286.1H18.8003Z" fill="#4D67CA"/>
<path d="M91.5 384.4C110.554 384.4 126 368.954 126 349.9C126 330.846 110.554 315.4 91.5 315.4C72.4462 315.4 57 330.846 57 349.9C57 368.954 72.4462 384.4 91.5 384.4Z" fill="white"/>
<path d="M91.5 385.9C71.6 385.9 55.5 369.7 55.5 349.9C55.5 330 71.7 313.9 91.5 313.9C111.4 313.9 127.5 330.1 127.5 349.9C127.6 369.7 111.4 385.9 91.5 385.9ZM91.5 316.9C73.3 316.9 58.5 331.7 58.5 349.9C58.5 368.1 73.3 382.9 91.5 382.9C109.7 382.9 124.5 368.1 124.5 349.9C124.5 331.7 109.7 316.9 91.5 316.9Z" fill="#4D67CA"/>
<path d="M240.7 320.2H156.9V330.2H240.7V320.2Z" fill="white"/>
<path d="M242.2 331.7H155.4V318.7H242.2V331.7ZM158.4 328.7H239.2V321.7H158.4V328.7Z" fill="#4D67CA"/>
<path d="M354.7 348H157.5V358H354.7V348Z" fill="white"/>
<path d="M356.2 359.5H156V346.5H356.2V359.5ZM159 356.5H353.2V349.5H159V356.5Z" fill="#4D67CA"/>
<path d="M354.7 375.1H157.5V385.1H354.7V375.1Z" fill="white"/>
<path d="M356.2 386.6H156V373.6H356.2V386.6ZM159 383.6H353.2V376.6H159V383.6Z" fill="#4D67CA"/>
<path d="M1.6001 470.6V714C1.6001 723.5 9.30039 731.3 18.9004 731.3H371.4C380.9 731.3 388.7 723.6 388.7 714V470.6C388.7 461.1 381 453.3 371.4 453.3H18.9004C9.30039 453.4 1.6001 461.1 1.6001 470.6Z" fill="white"/>
<path d="M371.3 732.8H18.8003C8.50029 732.8 0 724.4 0 714V470.6C0 460.3 8.40029 451.8 18.8003 451.8H371.3C381.6 451.8 390.1 460.2 390.1 470.6V714C390 724.4 381.6 732.8 371.3 732.8ZM18.8003 454.9C10.1003 454.9 3 462 3 470.7V714.1C3 722.8 10.1003 729.9 18.8003 729.9H371.3C380 729.9 387.1 722.8 387.1 714.1V470.7C387.1 462 380 454.9 371.3 454.9H18.8003V454.9Z" fill="#4D67CA"/>
<path d="M97.7002 510.5V676.1C97.7002 680.4 94.2004 683.9 89.9004 683.9H73.5C69.2 683.9 65.7002 680.4 65.7002 676.1V510.5C65.7002 506.2 69.2 502.7 73.5 502.7H89.9004C94.2004 502.7 97.7002 506.2 97.7002 510.5Z" fill="white"/>
<path d="M89.9004 685.3H73.5C68.4 685.3 64.2002 681.1 64.2002 676V510.4C64.2002 505.3 68.4 501.1 73.5 501.1H89.9004C95.0004 501.1 99.2002 505.3 99.2002 510.4V676C99.2002 681.2 95.0004 685.3 89.9004 685.3ZM73.5 504.2C70 504.2 67.2002 507 67.2002 510.5V676.1C67.2002 679.6 70 682.4 73.5 682.4H89.9004C93.4004 682.4 96.2002 679.6 96.2002 676.1V510.5C96.2002 507 93.4004 504.2 89.9004 504.2H73.5Z" fill="#4D67CA"/>
<path d="M155.6 510.5V676.1C155.6 680.4 152.1 683.9 147.8 683.9H131.4C127.1 683.9 123.6 680.4 123.6 676.1V510.5C123.6 506.2 127.1 502.7 131.4 502.7H147.8C152.1 502.7 155.6 506.2 155.6 510.5Z" fill="white"/>
<path d="M147.8 685.3H131.4C126.3 685.3 122.1 681.1 122.1 676V510.4C122.1 505.3 126.3 501.1 131.4 501.1H147.8C152.9 501.1 157.1 505.3 157.1 510.4V676C157.1 681.2 153 685.3 147.8 685.3ZM131.4 504.2C127.9 504.2 125.1 507 125.1 510.5V676.1C125.1 679.6 127.9 682.4 131.4 682.4H147.8C151.3 682.4 154.1 679.6 154.1 676.1V510.5C154.1 507 151.3 504.2 147.8 504.2H131.4Z" fill="#4D67CA"/>
<path d="M214.8 510.5V676.1C214.8 680.4 211.3 683.9 207 683.9H190.6C186.3 683.9 182.8 680.4 182.8 676.1V510.5C182.8 506.2 186.3 502.7 190.6 502.7H207C211.3 502.7 214.8 506.2 214.8 510.5Z" fill="white"/>
<path d="M207 685.3H190.6C185.5 685.3 181.3 681.1 181.3 676V510.4C181.3 505.3 185.5 501.1 190.6 501.1H207C212.1 501.1 216.3 505.3 216.3 510.4V676C216.3 681.2 212.1 685.3 207 685.3ZM190.5 504.2C187 504.2 184.2 507 184.2 510.5V676.1C184.2 679.6 187 682.4 190.5 682.4H206.9C210.4 682.4 213.2 679.6 213.2 676.1V510.5C213.2 507 210.4 504.2 206.9 504.2H190.5Z" fill="#4D67CA"/>
<path d="M272.7 510.5V676.1C272.7 680.4 269.2 683.9 264.9 683.9H248.5C244.2 683.9 240.7 680.4 240.7 676.1V510.5C240.7 506.2 244.2 502.7 248.5 502.7H264.9C269.2 502.7 272.7 506.2 272.7 510.5Z" fill="white"/>
<path d="M264.9 685.3H248.5C243.4 685.3 239.2 681.1 239.2 676V510.4C239.2 505.3 243.4 501.1 248.5 501.1H264.9C270 501.1 274.2 505.3 274.2 510.4V676C274.2 681.2 270 685.3 264.9 685.3ZM248.5 504.2C245 504.2 242.2 507 242.2 510.5V676.1C242.2 679.6 245 682.4 248.5 682.4H264.9C268.4 682.4 271.2 679.6 271.2 676.1V510.5C271.2 507 268.4 504.2 264.9 504.2H248.5Z" fill="#4D67CA"/>
<path d="M329.4 510.5V676.1C329.4 680.4 325.9 683.9 321.6 683.9H305.2C300.9 683.9 297.4 680.4 297.4 676.1V510.5C297.4 506.2 300.9 502.7 305.2 502.7H321.6C325.9 502.7 329.4 506.2 329.4 510.5Z" fill="white"/>
<path d="M321.6 685.3H305.2C300.1 685.3 295.9 681.1 295.9 676V510.4C295.9 505.3 300.1 501.1 305.2 501.1H321.6C326.7 501.1 330.9 505.3 330.9 510.4V676C330.9 681.2 326.7 685.3 321.6 685.3ZM305.2 504.2C301.7 504.2 298.9 507 298.9 510.5V676.1C298.9 679.6 301.7 682.4 305.2 682.4H321.6C325.1 682.4 327.9 679.6 327.9 676.1V510.5C327.9 507 325.1 504.2 321.6 504.2H305.2Z" fill="#4D67CA"/>
<path d="M97.7002 565.5V676C97.7002 680.3 94.2004 683.8 89.9004 683.8H73.5C69.2 683.8 65.7002 680.3 65.7002 676V565.5H97.7002Z" fill="#4D67CA"/>
<path d="M155.6 532.3V676.1C155.6 680.4 152.1 683.9 147.8 683.9H131.4C127.1 683.9 123.6 680.4 123.6 676.1V532.3H155.6Z" fill="#4D67CA"/>
<path d="M214.8 598.8V676C214.8 680.3 211.3 683.8 207 683.8H190.6C186.3 683.8 182.8 680.3 182.8 676V598.8H214.8Z" fill="#4D67CA"/>
<path d="M272.7 521.2V676.1C272.7 680.4 269.2 683.9 264.9 683.9H248.5C244.2 683.9 240.7 680.4 240.7 676.1V521.2H272.7Z" fill="#4D67CA"/>
<path d="M329.4 547V676C329.4 680.3 325.9 683.8 321.6 683.8H305.2C300.9 683.8 297.4 680.3 297.4 676V547H329.4Z" fill="#4D67CA"/>
</svg>