<svg width="451" height="284" viewBox="0 0 451 284" fill="none" xmlns="http://www.w3.org/2000/svg">
<path d="M399.166 17.7866H344.018V86.4053H399.166V17.7866Z" fill="white"/>
<path d="M399.628 86.8677H343.556V17.3242H399.628V86.8677ZM344.48 85.9429H398.703V18.249H344.48V85.9429Z" fill="#4365DC"/>
<path d="M357.797 39.0874C361.798 39.0874 365.042 35.8441 365.042 31.8433C365.042 27.8425 361.798 24.5992 357.797 24.5992C353.797 24.5992 350.553 27.8425 350.553 31.8433C350.553 35.8441 353.797 39.0874 357.797 39.0874Z" fill="white"/>
<path d="M357.798 39.5806C353.544 39.5806 350.091 36.1281 350.091 31.8741C350.091 27.6201 353.544 24.1676 357.798 24.1676C359.863 24.1676 361.805 24.9691 363.254 26.4179C364.703 27.8667 365.504 29.8088 365.504 31.8741C365.504 33.9394 364.703 35.8815 363.254 37.3303C361.774 38.7791 359.863 39.5806 357.798 39.5806ZM357.798 25.0616C354.068 25.0616 351.016 28.1133 351.016 31.8433C351.016 35.5732 354.068 38.625 357.798 38.625C359.617 38.625 361.312 37.916 362.607 36.6521C363.901 35.3574 364.61 33.662 364.61 31.8433C364.61 30.0245 363.901 28.3291 362.637 27.0344C361.312 25.7706 359.617 25.0616 357.798 25.0616Z" fill="#4365DC"/>
<path d="M356.873 34.7409L353.882 31.7508C353.636 31.5042 353.636 31.1034 353.882 30.8568C354.129 30.6102 354.53 30.6102 354.776 30.8568L356.903 32.9838L360.818 29.2231C361.065 28.9764 361.466 28.9764 361.712 29.2539C361.959 29.5005 361.959 29.9012 361.681 30.1478L356.873 34.7409Z" fill="#4365DC"/>
<path d="M379.561 29.0998H368.248V30.5486H379.561V29.0998Z" fill="white"/>
<path d="M379.869 30.8568H367.939V28.7915H379.869V30.8568ZM368.556 30.2403H379.252V29.408H368.556V30.2403Z" fill="#4365DC"/>
<path d="M392.199 33.4462H368.248V34.895H392.199V33.4462Z" fill="white"/>
<path d="M392.507 35.2033H367.939V33.138H392.507V35.2033ZM368.556 34.5868H391.891V33.7545H368.556V34.5868Z" fill="#4365DC"/>
<path d="M357.797 59.4017C361.798 59.4017 365.042 56.1584 365.042 52.1576C365.042 48.1568 361.798 44.9135 357.797 44.9135C353.797 44.9135 350.553 48.1568 350.553 52.1576C350.553 56.1584 353.797 59.4017 357.797 59.4017Z" fill="white"/>
<path d="M357.798 59.8949C353.544 59.8949 350.091 56.4424 350.091 52.1884C350.091 47.9344 353.544 44.4819 357.798 44.4819C362.052 44.4819 365.504 47.9344 365.504 52.1884C365.504 54.2538 364.703 56.1958 363.254 57.6446C361.774 59.0934 359.863 59.8949 357.798 59.8949ZM357.798 45.3759C354.068 45.3759 351.016 48.4276 351.016 52.1576C351.016 55.8875 354.068 58.9393 357.798 58.9393C359.617 58.9393 361.312 58.2303 362.607 56.9665C363.901 55.6718 364.61 53.9763 364.61 52.1576C364.579 48.4276 361.559 45.3759 357.798 45.3759Z" fill="#4365DC"/>
<path d="M356.873 55.0553L353.882 52.0652C353.636 51.8186 353.636 51.4178 353.882 51.1712C354.129 50.9246 354.53 50.9246 354.776 51.1712L356.903 53.2982L360.818 49.5374C361.065 49.2908 361.466 49.2908 361.712 49.5683C361.959 49.8149 361.959 50.2156 361.681 50.4622L356.873 55.0553Z" fill="#4365DC"/>
<path d="M379.561 49.4141H368.248V50.8629H379.561V49.4141Z" fill="white"/>
<path d="M379.869 51.1712H367.939V49.1058H379.869V51.1712ZM368.556 50.5547H379.252V49.7224H368.556V50.5547Z" fill="#4365DC"/>
<path d="M392.199 53.7606H368.248V55.2094H392.199V53.7606Z" fill="white"/>
<path d="M392.507 55.5177H367.939V53.4523H392.507V55.5177ZM368.556 54.9011H391.891V54.0688H368.556V54.9011Z" fill="#4365DC"/>
<path d="M357.797 79.716C361.798 79.716 365.042 76.4727 365.042 72.4719C365.042 68.4711 361.798 65.2278 357.797 65.2278C353.797 65.2278 350.553 68.4711 350.553 72.4719C350.553 76.4727 353.797 79.716 357.797 79.716Z" fill="white"/>
<path d="M357.798 80.2092C353.544 80.2092 350.091 76.7567 350.091 72.5027C350.091 68.2487 353.544 64.7962 357.798 64.7962C359.863 64.7962 361.805 65.5977 363.254 67.0465C364.703 68.4954 365.504 70.4374 365.504 72.5027C365.504 74.5681 364.703 76.5101 363.254 77.9589C361.774 79.4078 359.863 80.2092 357.798 80.2092ZM357.798 65.6902C354.068 65.6902 351.016 68.742 351.016 72.4719C351.016 76.2019 354.068 79.2536 357.798 79.2536C359.617 79.2536 361.312 78.5446 362.607 77.2808C363.901 75.9861 364.61 74.2906 364.61 72.4719C364.61 70.6532 363.901 68.9578 362.637 67.6631C361.374 66.3684 359.617 65.6902 357.798 65.6902Z" fill="#4365DC"/>
<path d="M356.873 75.3387L353.882 72.3486C353.636 72.102 353.636 71.7013 353.882 71.4547C354.129 71.208 354.53 71.208 354.776 71.4547L356.903 73.5816L360.818 69.8209C361.065 69.5743 361.466 69.5743 361.712 69.8517C361.959 70.0983 361.959 70.4991 361.681 70.7457L356.873 75.3387Z" fill="#4365DC"/>
<path d="M379.561 69.7284H368.248V71.1772H379.561V69.7284Z" fill="white"/>
<path d="M379.869 71.4855H367.939V69.4202H379.869V71.4855ZM368.556 70.869H379.252V70.0367H368.556V70.869Z" fill="#4365DC"/>
<path d="M392.199 74.0749H368.248V75.5237H392.199V74.0749Z" fill="white"/>
<path d="M392.507 75.8319H367.939V73.7666H392.507V75.8319ZM368.556 75.2154H391.891V74.3831H368.556V75.2154Z" fill="#4365DC"/>
<path d="M321.978 9.64856H83.8779V176.417H321.978V9.64856Z" fill="white"/>
<path d="M322.44 176.88H83.4153V9.18614H322.44V176.88ZM84.3401 175.955H321.515V10.1109H84.3401V175.955Z" fill="#4365DC"/>
<path d="M321.978 9.64856H83.8779V26.3254H321.978V9.64856Z" fill="#5C74CF"/>
<path d="M322.44 26.7878H83.4153V9.18614H322.44V26.7878ZM84.3401 25.863H321.515V10.1109H84.3401V25.863Z" fill="#5C74CF"/>
<path d="M94.3891 21.085C95.9213 21.085 97.1634 19.8429 97.1634 18.3106C97.1634 16.7784 95.9213 15.5363 94.3891 15.5363C92.8569 15.5363 91.6147 16.7784 91.6147 18.3106C91.6147 19.8429 92.8569 21.085 94.3891 21.085Z" fill="white"/>
<path d="M105.178 21.085C106.71 21.085 107.952 19.8429 107.952 18.3106C107.952 16.7784 106.71 15.5363 105.178 15.5363C103.646 15.5363 102.404 16.7784 102.404 18.3106C102.404 19.8429 103.646 21.085 105.178 21.085Z" fill="white"/>
<path d="M115.998 21.085C117.53 21.085 118.772 19.8429 118.772 18.3106C118.772 16.7784 117.53 15.5363 115.998 15.5363C114.466 15.5363 113.224 16.7784 113.224 18.3106C113.224 19.8429 114.466 21.085 115.998 21.085Z" fill="white"/>
<path d="M121.393 102.712C121.393 94.7283 114.919 88.2549 106.905 88.2549C98.9515 88.2549 92.4164 94.8825 92.4781 102.836C92.5089 107.09 94.4201 110.912 97.3794 113.532C97.811 113.933 98.2425 114.334 98.6124 114.796C99.7838 116.245 101.233 118.803 101.233 122.503H105.456H108.384H112.607C112.607 118.588 114.241 115.967 115.443 114.549C115.752 114.18 116.091 113.871 116.43 113.563C119.451 110.974 121.393 107.059 121.393 102.712Z" fill="#FFEED6"/>
<path d="M113.07 123.027H100.77V122.564C100.77 119.019 99.3829 116.584 98.2424 115.135C97.9033 114.704 97.5333 114.334 97.0709 113.933C93.8958 111.128 92.0463 107.12 92.0155 102.897C91.9846 98.9207 93.526 95.1599 96.362 92.2931C99.198 89.4262 102.928 87.8541 106.904 87.8541H106.935C110.912 87.8541 114.642 89.3954 117.478 92.2006C120.314 95.0058 121.855 98.7665 121.855 102.743C121.855 107.059 119.975 111.159 116.738 113.995C116.368 114.303 116.06 114.611 115.782 114.95C114.549 116.399 113.07 118.927 113.07 122.595V123.027ZM101.695 122.102H112.145C112.268 118.403 113.779 115.844 115.073 114.334C115.382 113.995 115.721 113.625 116.121 113.286C119.173 110.635 120.93 106.781 120.93 102.743C120.93 99.0131 119.481 95.499 116.83 92.8479C114.179 90.1969 110.665 88.7481 106.935 88.7481H106.904C103.174 88.7481 99.6604 90.2277 97.0093 92.9096C94.3583 95.5914 92.9094 99.1364 92.9402 102.866C92.9711 106.843 94.6973 110.604 97.6874 113.224C98.1806 113.655 98.6123 114.087 98.9822 114.549C100.184 116.029 101.602 118.526 101.695 122.102Z" fill="#4365DC"/>
<path d="M113.871 107.644C113.378 106.843 112.268 105.672 110.079 106.843C109.895 106.75 109.555 106.565 109.124 106.473C108.322 106.288 107.521 106.381 106.812 106.75C106.627 106.658 106.349 106.535 106.01 106.473C105.178 106.288 104.377 106.381 103.637 106.781C101.51 105.702 100.431 106.843 99.9377 107.644C99.5987 108.23 99.5678 109.34 99.9069 111.004C100.154 112.299 100.585 113.902 101.171 115.844C102.188 119.112 103.421 122.133 103.421 122.163L103.976 121.948C103.976 121.917 102.774 118.927 101.726 115.69C99.9377 110.08 100.153 108.446 100.431 107.953C101.017 106.935 101.911 106.689 103.082 107.182C102.989 107.305 102.866 107.459 102.805 107.614C102.62 108.014 102.527 108.538 102.527 109.093C102.527 109.648 102.62 110.172 102.805 110.573C103.02 111.035 103.328 111.313 103.668 111.313C104.007 111.313 104.315 111.066 104.531 110.573C104.716 110.172 104.808 109.648 104.808 109.093C104.808 108.538 104.716 108.014 104.531 107.614C104.438 107.398 104.315 107.244 104.192 107.12C105.055 106.781 105.795 106.966 106.257 107.151C106.134 107.274 106.041 107.429 105.98 107.614C105.795 108.014 105.702 108.538 105.702 109.093C105.702 109.648 105.795 110.172 105.98 110.573C106.195 111.035 106.504 111.313 106.843 111.313C107.182 111.313 107.49 111.066 107.706 110.573C107.891 110.172 107.983 109.648 107.983 109.093C107.983 108.538 107.891 108.014 107.706 107.614C107.613 107.398 107.49 107.213 107.336 107.09C108.168 106.781 108.908 106.966 109.37 107.151C109.278 107.274 109.185 107.429 109.093 107.583C108.908 107.983 108.816 108.508 108.816 109.062C108.816 109.617 108.908 110.141 109.093 110.542C109.309 111.004 109.617 111.282 109.956 111.282C110.295 111.282 110.603 111.035 110.819 110.542C111.004 110.141 111.097 109.617 111.097 109.062C111.097 108.508 111.004 107.983 110.819 107.583C110.727 107.398 110.665 107.274 110.542 107.151C111.744 106.627 112.638 106.874 113.254 107.891C113.532 108.384 113.748 110.018 111.96 115.628C110.943 118.865 109.74 121.886 109.71 121.917L110.264 122.133C110.264 122.102 111.497 119.081 112.515 115.813C113.131 113.902 113.563 112.268 113.779 110.974C114.241 109.34 114.21 108.23 113.871 107.644ZM103.729 110.758C103.544 110.758 103.174 110.172 103.174 109.124C103.174 108.076 103.544 107.49 103.729 107.49C103.914 107.49 104.284 108.076 104.284 109.124C104.284 110.172 103.914 110.758 103.729 110.758ZM107.521 109.124C107.521 110.172 107.151 110.758 106.966 110.758C106.781 110.758 106.411 110.172 106.411 109.124C106.411 108.076 106.781 107.49 106.966 107.49C107.12 107.49 107.521 108.076 107.521 109.124ZM110.079 110.758C109.895 110.758 109.525 110.172 109.525 109.124C109.525 108.076 109.895 107.49 110.079 107.49C110.264 107.49 110.634 108.076 110.634 109.124C110.634 110.172 110.264 110.758 110.079 110.758Z" fill="#4365DC"/>
<path d="M104.377 127.342V128.236C104.377 129.654 105.518 130.795 106.936 130.795C108.354 130.795 109.494 129.654 109.494 128.236V127.342H104.377Z" fill="#4365DC"/>
<path d="M112.854 121.794H101.11V127.435H112.854V121.794Z" fill="white"/>
<path d="M113.316 127.897H100.647V121.331H113.316V127.897ZM101.572 126.972H112.392V122.256H101.572V126.972Z" fill="#869DED"/>
<path d="M101.849 128.945H111.991C112.731 128.945 113.316 128.359 113.316 127.62C113.316 126.88 112.731 126.294 111.991 126.294H101.849C101.109 126.294 100.524 126.88 100.524 127.62C100.554 128.359 101.14 128.945 101.849 128.945Z" fill="white"/>
<path d="M111.991 129.408H101.849C100.863 129.408 100.062 128.606 100.062 127.62C100.062 126.633 100.863 125.832 101.849 125.832H111.991C112.978 125.832 113.779 126.633 113.779 127.62C113.779 128.606 112.978 129.408 111.991 129.408ZM101.849 126.787C101.387 126.787 100.986 127.157 100.986 127.65C100.986 128.144 101.356 128.514 101.849 128.514H111.991C112.453 128.514 112.854 128.144 112.854 127.65C112.854 127.157 112.484 126.787 111.991 126.787H101.849Z" fill="#4365DC"/>
<path d="M101.202 122.441H112.7C113.44 122.441 114.026 121.855 114.026 121.115C114.026 120.376 113.44 119.79 112.7 119.79H101.202C100.462 119.79 99.8765 120.376 99.8765 121.115C99.8765 121.855 100.462 122.441 101.202 122.441Z" fill="white"/>
<path d="M112.7 122.903H101.202C100.215 122.903 99.4138 122.102 99.4138 121.115C99.4138 120.129 100.215 119.327 101.202 119.327H112.7C113.686 119.327 114.488 120.129 114.488 121.115C114.488 122.102 113.686 122.903 112.7 122.903ZM101.202 120.283C100.739 120.283 100.339 120.653 100.339 121.146C100.339 121.639 100.708 122.009 101.202 122.009H112.7C113.162 122.009 113.563 121.639 113.563 121.146C113.563 120.653 113.193 120.283 112.7 120.283H101.202Z" fill="#4365DC"/>
<path d="M101.202 125.678H112.7C113.44 125.678 114.026 125.092 114.026 124.352C114.026 123.612 113.44 123.027 112.7 123.027H101.202C100.462 123.027 99.8765 123.612 99.8765 124.352C99.8765 125.092 100.462 125.678 101.202 125.678Z" fill="white"/>
<path d="M112.7 126.14H101.202C100.215 126.14 99.4138 125.339 99.4138 124.352C99.4138 123.366 100.215 122.564 101.202 122.564H112.7C113.686 122.564 114.488 123.366 114.488 124.352C114.488 125.339 113.686 126.14 112.7 126.14ZM101.202 123.52C100.739 123.52 100.339 123.89 100.339 124.383C100.339 124.876 100.708 125.246 101.202 125.246H112.7C113.162 125.246 113.563 124.876 113.563 124.383C113.563 123.89 113.193 123.52 112.7 123.52H101.202Z" fill="#4365DC"/>
<path d="M336.312 44.4819H293.155V74.3831H336.312V44.4819Z" fill="white"/>
<path d="M336.774 74.8455H292.693V44.0195H336.774V74.8455ZM293.617 73.9208H335.849V44.9443H293.617V73.9208Z" fill="#4365DC"/>
<path d="M315.072 51.0479H298.241V52.8974H315.072V51.0479Z" fill="white"/>
<path d="M315.381 53.2057H297.934V50.7396H315.381V53.2057ZM298.55 52.5891H314.765V51.3561H298.55V52.5891Z" fill="#4365DC"/>
<path d="M331.194 56.1342H298.241V57.9837H331.194V56.1342Z" fill="white"/>
<path d="M331.534 58.292H297.964V55.8259H331.534V58.292ZM298.55 57.6754H330.887V56.4424H298.55V57.6754Z" fill="#4365DC"/>
<path d="M331.194 61.2204H298.241V63.07H331.194V61.2204Z" fill="white"/>
<path d="M331.534 63.3783H297.964V60.9122H331.534V63.3783ZM298.55 62.7617H330.887V61.5287H298.55V62.7617Z" fill="#4365DC"/>
<path d="M331.194 66.3375H298.241V68.1871H331.194V66.3375Z" fill="white"/>
<path d="M331.534 68.4954H297.964V66.0293H331.534V68.4954ZM298.55 67.8789H330.887V66.6458H298.55V67.8789Z" fill="#4365DC"/>
<path d="M122.379 44.4819H79.223V66.6766H122.379V44.4819Z" fill="#E1E8FF"/>
<path d="M122.842 67.139H78.7604V44.0195H122.842V67.139ZM79.6852 66.2143H121.917V44.9443H79.6852V66.2143Z" fill="#869DED"/>
<path d="M101.14 49.5066H84.3091V51.3561H101.14V49.5066Z" fill="white"/>
<path d="M101.448 51.6644H84.0006V49.1983H101.448V51.6644ZM84.6171 51.0478H100.832V49.8148H84.6171V51.0478Z" fill="#4365DC"/>
<path d="M117.262 54.5928H84.3091V56.4424H117.262V54.5928Z" fill="white"/>
<path d="M117.601 56.7507H84.0315V54.2846H117.601V56.7507ZM84.6172 56.1342H116.954V54.9011H84.6172V56.1342Z" fill="#4365DC"/>
<path d="M117.262 59.6791H84.3091V61.5287H117.262V59.6791Z" fill="white"/>
<path d="M117.601 61.837H84.0315V59.3709H117.601V61.837ZM84.6172 61.2205H116.954V59.9874H84.6172V61.2205Z" fill="#4365DC"/>
<path d="M182.613 85.6963C182.613 85.6963 165.073 102.281 164.488 140.412C164.457 142.817 167.416 144.019 169.05 142.231C174.691 136.128 184.247 126.14 189.673 122.903L182.613 85.6963Z" fill="white"/>
<path d="M167.108 143.711C166.707 143.711 166.275 143.618 165.906 143.464C164.642 142.971 163.84 141.769 163.871 140.412C164.179 120.591 169.142 106.689 173.242 98.4891C177.712 89.5804 182.027 85.4188 182.212 85.2647L183.045 84.4941L190.381 123.242L190.011 123.458C184.586 126.695 174.845 136.867 169.512 142.663C168.865 143.341 168.002 143.711 167.108 143.711ZM182.212 86.991C180.764 88.6248 177.527 92.6013 174.259 99.1056C170.221 107.182 165.381 120.9 165.073 140.412C165.042 141.43 165.721 142.077 166.337 142.324C166.954 142.57 167.878 142.57 168.556 141.83C173.828 136.128 183.353 126.171 188.963 122.626L182.212 86.991Z" fill="#4365DC"/>
<path d="M220.221 85.6963C220.221 85.6963 237.761 102.281 238.347 140.412C238.378 142.817 235.418 144.019 233.784 142.231C228.143 136.128 218.587 126.14 213.162 122.903L220.221 85.6963Z" fill="white"/>
<path d="M235.726 143.711C234.832 143.711 233.969 143.341 233.353 142.663C228.02 136.867 218.279 126.695 212.853 123.458L212.483 123.242L219.82 84.4941L220.652 85.2647C220.837 85.4497 225.184 89.5804 229.623 98.4891C233.722 106.689 238.685 120.591 238.994 140.412C239.024 141.769 238.223 142.971 236.959 143.464C236.528 143.618 236.127 143.711 235.726 143.711ZM213.84 122.626C219.45 126.171 228.975 136.128 234.246 141.83C234.955 142.57 235.849 142.57 236.466 142.324C237.083 142.077 237.761 141.461 237.73 140.412C237.422 120.869 232.551 107.151 228.544 99.1056C225.307 92.6013 222.07 88.6248 220.591 86.991L213.84 122.626Z" fill="#4365DC"/>
<path d="M218.803 114.765H183.97C172.718 64.6113 179.038 35.08 187.022 18.6806H215.597C223.643 35.1108 230.024 64.6421 218.803 114.765Z" fill="#E1E8FF"/>
<path d="M219.296 115.382H183.476L183.353 114.889C171.917 63.9331 178.729 34.3093 186.436 18.4031L186.59 18.064H215.936L216.09 18.4031C223.858 34.3093 230.733 63.964 219.327 114.889L219.296 115.382ZM184.463 114.149H218.31C229.407 64.2106 222.81 35.0492 215.227 19.2971H187.422C179.87 35.08 173.365 64.2414 184.463 114.149Z" fill="#4365DC"/>
<path d="M201.325 61.4054C207.896 61.4054 213.224 56.0781 213.224 49.5066C213.224 42.935 207.896 37.6077 201.325 37.6077C194.753 37.6077 189.426 42.935 189.426 49.5066C189.426 56.0781 194.753 61.4054 201.325 61.4054Z" fill="white"/>
<path d="M201.324 62.0219C194.419 62.0219 188.809 56.4116 188.809 49.5066C188.809 42.6015 194.419 36.9912 201.324 36.9912C208.229 36.9912 213.84 42.6015 213.84 49.5066C213.84 56.4116 208.229 62.0219 201.324 62.0219ZM201.324 38.2243C195.097 38.2243 190.042 43.2797 190.042 49.5066C190.042 55.7334 195.097 60.7889 201.324 60.7889C207.551 60.7889 212.607 55.7334 212.607 49.5066C212.607 43.2797 207.551 38.2243 201.324 38.2243Z" fill="#4365DC"/>
<path d="M215.597 18.6805H187.021C193.526 5.27121 201.139 0.616486 201.139 0.616486H201.386C201.386 0.616486 209.031 5.27121 215.597 18.6805Z" fill="white"/>
<path d="M216.584 19.2971H186.035L186.466 18.4031C192.971 4.99381 200.492 0.277435 200.831 0.092479L200.986 0H201.571L201.725 0.092479C202.034 0.277435 209.617 4.99381 216.183 18.4031L216.584 19.2971ZM188.008 18.064H214.611C208.908 6.81254 202.465 2.09617 201.263 1.26387C200.061 2.09617 193.68 6.84337 188.008 18.064Z" fill="#4365DC"/>
<path d="M218.803 114.765C218.063 118.064 217.262 121.454 216.337 124.938H186.405C185.511 121.454 184.679 118.064 183.939 114.765H218.803Z" fill="white"/>
<path d="M216.83 125.554H185.943L185.819 125.092C184.925 121.67 184.093 118.249 183.353 114.889L183.199 114.149H219.574L219.42 114.889C218.68 118.249 217.848 121.67 216.954 125.092L216.83 125.554ZM186.898 124.321H215.844C216.615 121.331 217.324 118.341 218.002 115.382H184.71C185.419 118.341 186.128 121.331 186.898 124.321Z" fill="#4365DC"/>
<path d="M201.386 1.29466H196.762V0.061615H201.386V1.29466ZM192.139 1.29466H187.515V0.061615H192.139V1.29466ZM182.891 1.29466H178.267V0.061615H182.891V1.29466ZM173.643 1.29466H169.019V0.061615H173.643V1.29466ZM164.395 1.29466H159.771V0.061615H164.395V1.29466ZM155.147 1.29466H150.523V0.061615H155.147V1.29466ZM145.9 1.29466H141.276V0.061615H145.9V1.29466ZM136.652 1.29466H132.028V0.061615H136.652V1.29466Z" fill="#4365DC"/>
<path d="M200.739 86.5286C202.403 86.5286 203.791 87.7925 203.945 89.4571L205.733 108.847C206.102 112.823 206.102 116.861 205.733 120.838L203.945 140.227C203.791 141.892 202.403 143.156 200.739 143.156C199.074 143.156 197.687 141.892 197.533 140.227L195.745 120.838C195.375 116.861 195.375 112.823 195.745 108.847L197.533 89.4571C197.687 87.7925 199.074 86.5286 200.739 86.5286Z" fill="white"/>
<path d="M200.739 143.742C198.735 143.742 197.102 142.231 196.917 140.258L195.129 120.869C194.759 116.861 194.759 112.762 195.129 108.754L196.917 89.3646C197.102 87.3917 198.735 85.8813 200.739 85.8813C202.743 85.8813 204.377 87.3917 204.562 89.3646L206.349 108.754C206.719 112.762 206.719 116.831 206.349 120.869L204.562 140.258C204.377 142.262 202.712 143.742 200.739 143.742ZM200.739 87.1451C199.383 87.1451 198.273 88.1624 198.15 89.5187L196.362 108.908C195.992 112.854 195.992 116.861 196.362 120.776L198.15 140.166C198.273 141.522 199.383 142.539 200.739 142.539C202.095 142.539 203.205 141.522 203.328 140.166L205.116 120.776C205.486 116.831 205.486 112.823 205.116 108.908L203.328 89.5187C203.205 88.1624 202.095 87.1451 200.739 87.1451Z" fill="#4365DC"/>
<path d="M165.597 125.369H160.974V124.136H165.597V125.369ZM156.35 125.369H151.726V124.136H156.35V125.369ZM147.102 125.369H142.478V124.136H147.102V125.369ZM137.854 125.369H133.23V124.136H137.854V125.369Z" fill="#4365DC"/>
<path d="M271.269 38.2243H266.645V36.9912H271.269V38.2243ZM262.021 38.2243H257.397V36.9912H262.021V38.2243ZM252.773 38.2243H248.149V36.9912H252.773V38.2243ZM243.525 38.2243H238.901V36.9912H243.525V38.2243ZM234.277 38.2243H229.653V36.9912H234.277V38.2243ZM225.03 38.2243H220.406V36.9912H225.03V38.2243ZM215.782 38.2243H211.158V36.9912H215.782V38.2243ZM206.534 38.2243H202.958V36.9912H206.534V38.2243Z" fill="#4365DC"/>
<path d="M271.269 62.0219H266.645V60.7888H271.269V62.0219ZM262.021 62.0219H257.397V60.7888H262.021V62.0219ZM252.773 62.0219H248.149V60.7888H252.773V62.0219ZM243.525 62.0219H238.901V60.7888H243.525V62.0219ZM234.277 62.0219H229.653V60.7888H234.277V62.0219ZM225.03 62.0219H220.406V60.7888H225.03V62.0219ZM215.782 62.0219H211.158V60.7888H215.782V62.0219ZM206.534 62.0219H202.958V60.7888H206.534V62.0219Z" fill="#4365DC"/>
<path d="M270.282 87.1451H265.658V85.9121H270.282V87.1451ZM261.034 87.1451H256.411V85.9121H261.034V87.1451ZM251.787 87.1451H247.163V85.9121H251.787V87.1451ZM242.539 87.1451H237.915V85.9121H242.539V87.1451ZM233.291 87.1451H228.667V85.9121H233.291V87.1451ZM224.043 87.1451H219.419V85.9121H224.043V87.1451ZM214.795 87.1451H210.172V85.9121H214.795V87.1451ZM205.548 87.1451H200.924V85.9121H205.548V87.1451Z" fill="#4365DC"/>
<path d="M270.282 143.742H265.658V142.509H270.282V143.742ZM261.034 143.742H256.411V142.509H261.034V143.742ZM251.787 143.742H247.163V142.509H251.787V143.742ZM242.539 143.742H237.915V142.509H242.539V143.742ZM233.291 143.742H228.667V142.509H233.291V143.742ZM224.043 143.742H219.419V142.509H224.043V143.742ZM214.795 143.742H210.172V142.509H214.795V143.742ZM205.548 143.742H200.924V142.509H205.548V143.742Z" fill="#4365DC"/>
<path d="M165.043 165.32H163.81V160.696H165.043V165.32ZM165.043 156.072H163.81V151.448H165.043V156.072ZM165.043 146.824H163.81V142.2H165.043V146.824Z" fill="#4365DC"/>
<path d="M238.963 165.32H237.73V160.696H238.963V165.32ZM238.963 156.072H237.73V151.448H238.963V156.072ZM238.963 146.824H237.73V142.2H238.963V146.824Z" fill="#4365DC"/>
<path d="M238.377 164.703H164.426V165.936H238.377V164.703Z" fill="#4365DC"/>
<path d="M133.168 0.709015H131.935V125.554H133.168V0.709015Z" fill="#4365DC"/>
<path d="M271.886 37.0837H270.652V62.0528H271.886V37.0837Z" fill="#4365DC"/>
<path d="M271.269 85.7888H270.036V143.742H271.269V85.7888Z" fill="#4365DC"/>
<path d="M135.942 62.361H129.469V63.5941H135.942V62.361Z" fill="#4365DC"/>
<path d="M274.66 48.7976H268.186V50.0306H274.66V48.7976Z" fill="#4365DC"/>
<path d="M274.043 114.149H267.57V115.382H274.043V114.149Z" fill="#4365DC"/>
<path d="M64.9811 240.227H36.6212V243.341H64.9811V240.227Z" fill="#4365DC"/>
<path d="M52.9591 213.131L52.0343 283.075H49.5682L48.6434 213.131H52.9591Z" fill="white"/>
<path d="M52.4964 283.538H49.1056L48.1808 212.669H53.4212V213.131L52.4964 283.538ZM50.0303 282.613H51.5716L52.4964 213.593H49.1056L50.0303 282.613Z" fill="#4365DC"/>
<path d="M63.1319 213.131L71.1467 283.075H68.6806L58.8163 213.131H63.1319Z" fill="white"/>
<path d="M71.6703 283.538H68.2795L68.2178 283.137L58.2919 212.669H63.5631L71.6703 283.538ZM69.081 282.613H70.6223L62.6999 213.593H59.3399L69.081 282.613Z" fill="#4365DC"/>
<path d="M38.4709 213.131L30.4562 283.075H32.9223L42.7866 213.131H38.4709Z" fill="white"/>
<path d="M33.3227 283.538H29.9319L38.0391 212.669H43.3103L33.3227 283.538ZM30.9799 282.613H32.5212L42.2623 213.593H38.9023L30.9799 282.613Z" fill="#4365DC"/>
<path d="M71.4548 210.326H30.4562V215.936H71.4548V210.326Z" fill="white"/>
<path d="M71.9169 216.399H29.9935V209.863H71.9169V216.399ZM30.9183 215.474H70.9921V210.788H30.9183V215.474Z" fill="#4365DC"/>
<path d="M374.042 240.073H345.682V243.156H374.042V240.073Z" fill="#4365DC"/>
<path d="M357.705 213.254L358.629 282.459H361.096L362.02 213.254H357.705Z" fill="white"/>
<path d="M361.558 282.921H358.167L357.243 212.792H362.483L361.558 282.921ZM359.092 281.996H360.634L361.558 213.717H358.167L359.092 281.996Z" fill="#4365DC"/>
<path d="M347.532 213.254L339.518 282.459H341.984L351.848 213.254H347.532Z" fill="white"/>
<path d="M342.385 282.921H338.994L347.101 212.792H352.372L352.311 213.316L342.385 282.921ZM340.042 281.996H341.583L351.324 213.717H347.964L340.042 281.996Z" fill="#4365DC"/>
<path d="M372.193 213.254L380.208 282.459H377.742L367.878 213.254H372.193Z" fill="white"/>
<path d="M380.732 282.921H377.341L367.354 212.792H372.625L372.687 213.193L380.732 282.921ZM378.143 281.996H379.684L371.793 213.717H368.433L378.143 281.996Z" fill="#4365DC"/>
<path d="M380.208 210.48H339.209V216.029H380.208V210.48Z" fill="white"/>
<path d="M380.67 216.491H338.747V210.018H380.67V216.491ZM339.672 215.566H379.746V210.942H339.672V215.566Z" fill="#4365DC"/>
<path d="M416.737 182.706C415.627 192.817 413.253 205.178 408.753 220.036L405.331 219.604C405.331 219.604 405.454 214.826 405.793 207.706C406.626 188.778 408.814 153.082 413.469 144.697C413.469 144.697 419.696 155.671 416.737 182.706Z" fill="white"/>
<path d="M409.092 220.56L404.869 220.036V219.604C404.869 219.543 404.992 214.765 405.331 207.675C406.225 187.669 408.414 152.835 413.069 144.451L413.469 143.742L413.87 144.451C414.117 144.913 420.159 155.887 417.199 182.737C415.966 194.081 413.254 206.688 409.185 220.159L409.092 220.56ZM405.794 219.204L408.414 219.543C412.421 206.257 415.041 193.834 416.275 182.644C418.741 160.172 414.764 148.766 413.439 145.745C409.154 155.24 407.088 188.409 406.225 207.736C405.979 213.593 405.855 217.878 405.794 219.204Z" fill="#4365DC"/>
<path d="M407.52 224.537H406.595C407.027 179.007 412.976 144.728 413.038 144.389L413.962 144.543C413.87 144.882 407.92 179.068 407.52 224.537Z" fill="#4365DC"/>
<path d="M416.737 182.706C415.627 192.817 413.253 205.178 408.753 220.036L405.331 219.604C405.331 219.604 405.454 214.826 405.793 207.706C409.338 197.163 413.746 188.224 416.737 182.706Z" fill="#4365DC"/>
<path d="M405.979 218.556C405.979 218.556 417.97 185.788 425.461 177.681C425.461 177.681 430.393 197.81 408.537 219.635L405.979 218.556Z" fill="white"/>
<path d="M408.66 220.159L405.393 218.803L405.547 218.402C406.04 217.046 417.661 185.48 425.121 177.373L425.707 176.725L425.923 177.558C425.984 177.774 427.156 182.767 425.645 190.536C424.258 197.687 420.251 208.569 408.876 219.944L408.66 220.159ZM406.564 218.279L408.444 219.05C419.48 207.921 423.395 197.317 424.751 190.351C425.861 184.679 425.46 180.455 425.183 178.667C418.278 187.145 407.951 214.58 406.564 218.279Z" fill="#4365DC"/>
<path d="M386.065 156.658C386.065 156.658 404.468 183.415 406.195 219.604H405.547C405.547 219.604 382.212 180.64 386.065 156.658Z" fill="white"/>
<path d="M406.657 220.067H405.27L405.146 219.851C405.085 219.759 399.228 209.925 393.926 197.317C389.024 185.634 383.599 169.111 385.603 156.596L385.788 155.456L386.435 156.411C386.497 156.473 391.12 163.255 395.898 174.383C400.307 184.648 405.763 200.831 406.626 219.574L406.657 220.067ZM386.342 157.952C383.661 180.209 403.235 214.703 405.67 218.926C404.006 187.576 389.641 163.162 386.342 157.952Z" fill="#4365DC"/>
<path d="M405.085 219.697C399.598 183.6 385.788 157.151 385.664 156.904L386.497 156.473C386.651 156.75 400.523 183.291 406.04 219.574L405.085 219.697Z" fill="#4365DC"/>
<path d="M405.886 223.519L405.023 223.211C414.548 196.084 424.968 177.619 425.06 177.435L425.862 177.897C425.738 178.051 415.381 196.454 405.886 223.519Z" fill="#4365DC"/>
<path d="M419.018 217.262L417.631 234.493L413.685 282.767H398.488L393.124 217.262H419.018Z" fill="white"/>
<path d="M414.116 283.229H398.056L392.631 216.799H419.542L414.116 283.229ZM398.919 282.305H413.253L418.525 217.724H393.617L398.919 282.305Z" fill="#869DED"/>
<path d="M417.63 234.493L413.685 282.767H403.111L417.63 234.493Z" fill="#4365DC"/>
<path d="M21.0544 127.157C21.1469 126.88 23.4897 120.283 31.5969 116.491L31.8435 116.368C33.3231 115.69 34.9878 114.919 35.4502 111.251C35.8201 108.323 37.7005 104.161 38.8411 101.849C42.047 92.3547 50.0001 92.5705 54.8706 93.4028C66.1221 95.314 63.2244 106.997 63.2244 106.997C61.8373 112.422 62.2689 116.615 63.5636 118.896C71.5475 133.199 62.6695 136.467 62.6695 136.467C62.2996 136.652 61.9605 136.837 61.5906 137.022C58.6005 140.474 52.9902 142.786 44.8213 143.927C40.5673 144.512 36.4057 144.666 33.5389 144.666C31.1653 144.666 30.2097 144.297 30.1789 144.297C29.1617 144.019 27.8979 143.711 26.11 142.2C22.8424 139.395 18.65 134.216 21.0544 127.157ZM24.4761 139.395C25.1851 140.197 25.9249 140.906 26.6031 141.522C28.0827 142.786 30.1173 143.125 30.4872 143.248C31.9668 143.68 50.524 144.697 59.1245 138.101C48.9211 142.108 36.3133 141.985 36.3133 141.985C25.37 141.245 23.613 130.918 23.613 130.918C21.9484 123.982 32.46 118.31 32.46 118.31C38.2553 115.752 37.3922 112.762 37.4539 110.419C37.5155 108.877 37.6389 107.49 37.8239 106.226C37.1149 107.984 36.4982 109.864 36.3133 111.344C35.7892 115.505 33.8164 116.43 32.2135 117.17L31.9669 117.293C24.1988 120.9 21.9176 127.373 21.8868 127.435C20.4379 131.689 21.301 135.696 24.4761 139.395Z" fill="#4C64BC"/>
<path d="M43.1871 133.446L45.9923 111.621C45.9923 111.621 43.557 107.922 45.5915 105.887C46.393 105.086 48.4892 104.716 49.2291 107.336C49.2291 107.336 53.3905 104.315 53.7912 100.524C53.7912 100.524 56.319 104.963 62.6999 104.069C62.6999 104.069 65.536 121.146 56.0108 121.023V134.001L43.1871 133.446Z" fill="white"/>
<path d="M56.4736 134.494L42.6635 133.877L45.5304 111.713C45.068 110.943 43.2183 107.583 45.2837 105.548C45.7769 105.055 46.7326 104.654 47.6882 104.901C48.243 105.055 48.9828 105.456 49.4452 106.535C50.5241 105.61 53.021 103.205 53.3293 100.431L53.4834 99.0132L54.1923 100.246C54.2848 100.4 56.6585 104.377 62.6388 103.575L63.0703 103.514L63.1319 103.945C63.1935 104.377 64.8583 114.734 60.9434 119.297C59.8028 120.622 58.2923 121.331 56.4736 121.424V134.494ZM43.7115 133.014L55.5488 133.538V120.561H56.0112C57.7683 120.591 59.1862 119.975 60.2343 118.742C63.471 114.981 62.5463 106.566 62.2997 104.562C57.7991 105.024 55.1788 102.866 54.0382 101.603C53.1134 105.024 49.661 107.583 49.5069 107.675L48.9828 108.076L48.7978 107.429C48.5512 106.504 48.0889 105.949 47.4723 105.795C46.8866 105.641 46.2702 105.887 45.9619 106.196C44.2356 107.922 46.3935 111.313 46.4243 111.344L46.5167 111.498L43.7115 133.014Z" fill="#4365DC"/>
<path d="M49.3831 106.072L51.6642 106.134V105.086H51.8491H52.3422H57.4594H57.9835H58.1376V106.103H59.1548V105.086H59.3398H59.833H64.9502H65.4741H65.6283L65.6591 107.614C65.6591 109.402 64.2412 110.85 62.4533 110.881C62.2991 110.881 62.145 110.881 61.9909 110.85C60.4187 110.635 59.2165 109.278 59.1857 107.675V106.812H58.1685V107.644C58.1685 109.432 56.7504 110.881 54.9624 110.912C54.8083 110.912 54.6542 110.912 54.5001 110.881C52.9279 110.665 51.7258 109.309 51.695 107.706V106.874L49.4446 106.812L49.3831 106.072ZM59.833 107.614C59.833 109.032 61.0044 110.172 62.3915 110.141C63.8095 110.141 64.9502 108.97 64.9193 107.583V105.733H59.8022L59.833 107.614ZM52.3422 107.614C52.3422 109.032 53.5137 110.172 54.9009 110.141C56.3189 110.141 57.4594 108.97 57.4285 107.583V105.733H52.3115V106.473V106.781L52.3422 107.614Z" fill="#4365DC"/>
<path d="M60.1108 115.382H55.4869C55.4869 115.382 59.1861 118.773 60.1108 115.382Z" fill="#4365DC"/>
<path d="M94.0196 171.793L73.3662 166.245L66.8927 130.795L62.8545 128.483L62.0839 180.856H91.5227L94.0196 171.793Z" fill="#3F58B2"/>
<path d="M84.278 275.369L77.9586 269.327L78.8526 267.354L82.5517 259.031L71.701 255.363L69.2041 262.514L66.5839 270.098L84.278 275.369Z" fill="white"/>
<path d="M85.9737 276.386L65.9985 270.406L71.4546 254.808L83.1994 258.754L78.5446 269.234L85.9737 276.386ZM67.1699 269.789L82.552 274.382L77.4042 269.45L81.9048 259.308L71.9788 255.979L67.1699 269.789Z" fill="#4365DC"/>
<path d="M67.817 266.398C70.5605 271.947 79.0068 272.718 81.5037 272.81C81.9661 272.841 82.4285 273.026 82.7676 273.334L91.368 281.349C91.9845 281.935 91.4297 282.952 90.5974 282.736L65.1044 276.016C63.933 275.708 63.3472 274.382 63.902 273.303L67.5087 266.398C67.5704 266.275 67.7553 266.275 67.817 266.398Z" fill="#4365DC"/>
<path d="M69.2043 262.514L78.8528 267.354L82.5519 259.031L71.7013 255.363L69.2043 262.514Z" fill="#4365DC"/>
<path d="M56.1341 177.527L101.541 197.256C106.257 199.29 108.446 204.746 106.473 209.494L82.8294 265.874L68.9269 261.096L83.1068 208.785L36.6829 186.189V176.818L56.1341 177.527Z" fill="#3F58B2"/>
<path d="M90.6899 261.959L91.5839 268.957L92.5395 276.694L110.172 277.249L102.527 272.995L102.126 270.344L100.955 262.483L90.6899 261.959Z" fill="white"/>
<path d="M112.053 277.773L92.1391 277.157L90.1663 261.497L101.356 262.083L102.959 272.749L112.053 277.773ZM92.9406 276.232L108.261 276.725L102.096 273.303L100.555 262.946L91.2143 262.453L92.9406 276.232Z" fill="#4365DC"/>
<path d="M91.9539 272.749C96.0229 277.434 104.377 275.985 106.843 275.461C107.305 275.369 107.768 275.43 108.199 275.646L118.557 281.195C119.327 281.596 119.019 282.736 118.156 282.736H91.7997C90.5975 282.736 89.6727 281.596 89.9502 280.424L91.6765 272.81C91.7073 272.687 91.8614 272.656 91.9539 272.749Z" fill="#4365DC"/>
<path d="M90.6899 261.959L91.5839 268.957L102.126 270.344L100.955 262.483L90.6899 261.959Z" fill="#4365DC"/>
<path d="M32.5832 177.65C32.5832 177.65 23.5512 197.04 36.0973 206.966C38.81 209.093 42.17 210.233 45.6225 210.233H81.0725L90.4127 266.953H105.887L101.171 195.56C100.924 192.909 99.568 190.536 97.5335 188.963C96.3621 188.069 94.9749 187.515 93.4953 187.268L48.2428 179.962L32.5832 177.65Z" fill="#5C74CF"/>
<path d="M106.411 267.416H90.0427L80.7023 210.696H45.5915C42.0157 210.696 38.5324 209.494 35.7889 207.336C30.5176 203.174 28.2365 196.67 29.1613 188.532C29.8703 182.428 32.0589 177.65 32.1513 177.465L32.3055 177.157L48.3658 179.561L93.6185 186.867C95.2215 187.114 96.6702 187.73 97.8724 188.624C100.03 190.289 101.417 192.817 101.695 195.529L106.411 267.416ZM90.8133 266.491H105.394L100.708 195.591C100.493 193.125 99.2288 190.844 97.2559 189.333C96.2078 188.532 94.8823 187.977 93.4335 187.73L48.1809 180.425L32.8296 178.143C31.7507 180.671 25.0922 197.687 36.3437 206.596C38.9331 208.63 42.2006 209.771 45.5606 209.771H81.4422L90.8133 266.491Z" fill="#4365DC"/>
<path d="M84.5558 183.816H60.8198L62.0837 177.959H70.6841L73.0578 177.311C73.736 177.126 74.4142 177.126 75.0924 177.28L81.4732 178.883L84.5558 183.816Z" fill="white"/>
<path d="M85.3878 184.278H60.2338L61.7135 177.496H70.6222L72.9341 176.88C73.674 176.664 74.4446 176.664 75.2152 176.849L81.7811 178.483L85.3878 184.278ZM61.4052 183.353H83.7232L81.1954 179.284L74.9994 177.743C74.4137 177.589 73.7972 177.589 73.1807 177.774L70.7455 178.452H62.4533L61.4052 183.353Z" fill="#4365DC"/>
<path d="M68.4339 177.959V183.815H60.8198L62.0837 177.959H68.4339Z" fill="#4365DC"/>
<path d="M67.8171 154.839L67.0773 175.677L67.6938 175.924L66.6458 179.901L65.6593 184.124L63.4706 184.216L46.6089 185.018L29.5929 185.819L30.7335 180.332L31.5041 176.541V176.356V176.325L25.7088 175.184C23.366 174.722 21.8247 172.533 22.1329 170.19L27.1576 132.089C27.4659 129.685 29.2229 127.712 31.5657 127.126L43.8961 123.921C54.2228 133.477 56.1032 124.013 56.1032 124.013L64.9811 127.866C66.06 128.329 66.8615 129.284 67.1697 130.394C68.5877 135.85 74.5988 152.989 67.8171 154.839Z" fill="#FFEED6"/>
<path d="M29.0071 186.312L30.9799 176.695L25.6162 175.616C23.0577 175.123 21.3313 172.687 21.6704 170.098L26.6951 131.997C27.0342 129.408 28.9146 127.281 31.4423 126.633L44.0192 123.366L44.2042 123.551C47.7492 126.818 50.7085 128.205 52.8047 127.527C55.055 126.787 55.6407 123.921 55.6407 123.89L55.764 123.335L65.1659 127.435C66.3681 127.959 67.2621 129.007 67.6011 130.271C67.7861 130.918 68.0019 131.72 68.2794 132.675C70.0365 138.686 72.965 148.797 70.4989 153.236C69.9749 154.192 69.235 154.839 68.2794 155.178L67.5704 175.369L68.2794 175.647L67.108 180.024L66.0291 184.555L29.0071 186.312ZM43.7727 124.414L31.6888 127.558C29.5002 128.113 27.9282 129.932 27.6199 132.151L22.5952 170.252C22.3177 172.348 23.7359 174.321 25.8012 174.753L31.9664 175.986L31.9355 176.664L30.1475 185.357L65.2892 183.692L66.214 179.839L67.1696 176.232L66.6148 176.017L67.3546 154.5L67.6937 154.408C68.5568 154.161 69.2042 153.637 69.6974 152.805C72.0093 148.705 69.0193 138.47 67.4163 132.953C67.1389 131.997 66.8922 131.196 66.7381 130.548C66.4606 129.531 65.7824 128.729 64.8268 128.329L56.4422 124.66C56.134 125.678 55.2399 127.743 53.1129 128.452C50.6777 129.223 47.5335 127.866 43.7727 124.414Z" fill="#4365DC"/>
<path d="M55.8262 121.701C52.2504 121.701 50.2466 118.834 50.1849 118.711L50.9556 118.187C50.9864 118.218 52.8669 120.9 56.1036 120.776L56.1344 121.701C56.0111 121.701 55.9187 121.701 55.8262 121.701Z" fill="#4365DC"/>
<path d="M67.509 176.386L36.8063 164.395L38.995 147.996L39.9197 148.119L37.7928 163.779L67.8173 175.523L67.509 176.386Z" fill="#4365DC"/>
<path d="M67.9713 167.94H67.0465V154.407L67.478 154.377C68.3412 154.315 68.9885 153.914 69.4509 153.205C72.2869 148.89 67.7247 135.172 67.6939 135.018L68.557 134.71C68.7419 135.295 73.2733 149.013 70.2215 153.698C69.6667 154.531 68.9269 155.055 67.9713 155.24V167.94Z" fill="#4365DC"/>
<path d="M31.4624 175.987L31.267 176.89L65.4939 184.29L65.6893 183.386L31.4624 175.987Z" fill="#4365DC"/>
<path d="M81.2879 183.569H52.4963V186.59H81.2879V183.569Z" fill="white"/>
<path d="M81.7507 187.052H52.0343V183.106H81.7507V187.052ZM52.9591 186.127H80.8259V184.031H52.9591V186.127Z" fill="#4365DC"/>
<path d="M122.718 156.627L116.152 185.357C115.998 186.097 115.32 186.621 114.58 186.621H77.9281C76.8801 186.621 76.1404 185.665 76.3561 184.648L82.922 155.918C83.0761 155.178 83.7544 154.654 84.4942 154.654H121.146C122.194 154.654 122.965 155.61 122.718 156.627Z" fill="white"/>
<path d="M114.58 187.052H77.9278C77.2805 187.052 76.6948 186.775 76.2941 186.282C75.8933 185.788 75.7393 185.141 75.8934 184.524L82.4593 155.795C82.6751 154.839 83.5074 154.192 84.4938 154.192H121.146C121.793 154.192 122.379 154.469 122.78 154.962C123.18 155.456 123.335 156.103 123.18 156.719L116.614 185.449C116.399 186.405 115.566 187.052 114.58 187.052ZM84.4938 155.116C83.939 155.116 83.4765 155.486 83.3841 156.01L76.8182 184.74C76.7257 185.079 76.8181 185.418 77.0339 185.696C77.2497 185.973 77.5887 186.127 77.9278 186.127H114.58C115.135 186.127 115.597 185.758 115.69 185.233L122.256 156.504C122.348 156.165 122.256 155.825 122.04 155.548C121.824 155.271 121.485 155.116 121.146 155.116H84.4938Z" fill="#4365DC"/>
<path d="M124.907 156.504L118.341 185.326C118.187 186.066 117.509 186.59 116.769 186.59H80.1478C79.0997 186.59 78.3598 185.634 78.5756 184.617L85.1416 155.795C85.2958 155.055 85.9738 154.531 86.7137 154.531H123.366C124.383 154.531 125.123 155.486 124.907 156.504Z" fill="#4C64BC"/>
<path d="M116.769 187.052H80.1474C79.5001 187.052 78.9144 186.775 78.5137 186.282C78.113 185.788 77.9587 185.141 78.1129 184.524L84.6789 155.702C84.8947 154.747 85.7269 154.099 86.7133 154.099H123.366C124.013 154.099 124.599 154.377 124.999 154.87C125.4 155.363 125.554 156.01 125.4 156.627L118.834 185.449C118.587 186.374 117.755 187.052 116.769 187.052ZM86.6826 154.993C86.1277 154.993 85.6653 155.363 85.5728 155.887L79.0068 184.709C78.9143 185.049 79.0068 185.418 79.2226 185.696C79.4384 185.973 79.7775 186.127 80.1166 186.127H116.769C117.324 186.127 117.786 185.757 117.878 185.233L124.444 156.411C124.537 156.072 124.444 155.702 124.229 155.425C124.013 155.147 123.674 154.993 123.335 154.993H86.6826Z" fill="#4365DC"/>
<path d="M104.889 171.225C105.252 169.648 104.591 168.151 103.414 167.879C102.236 167.608 100.986 168.666 100.623 170.242C100.26 171.818 100.921 173.316 102.099 173.587C103.277 173.858 104.526 172.801 104.889 171.225Z" fill="white"/>
<path d="M102.497 174.136C102.343 174.136 102.188 174.105 102.003 174.074C101.294 173.92 100.709 173.396 100.37 172.626C100.061 171.917 99.9689 171.023 100.185 170.19C100.37 169.327 100.832 168.587 101.418 168.063C102.065 167.508 102.805 167.324 103.514 167.478C104.223 167.632 104.809 168.156 105.148 168.926C105.456 169.635 105.549 170.499 105.333 171.362C105.148 172.225 104.685 172.965 104.1 173.489C103.606 173.92 103.052 174.136 102.497 174.136ZM103.051 168.372C102.712 168.372 102.343 168.526 102.034 168.803C101.572 169.173 101.264 169.759 101.11 170.406C100.955 171.053 101.017 171.732 101.233 172.256C101.449 172.749 101.819 173.088 102.219 173.18C102.651 173.273 103.113 173.15 103.514 172.78C103.976 172.41 104.285 171.824 104.439 171.177C104.593 170.529 104.531 169.851 104.315 169.327C104.1 168.834 103.73 168.495 103.329 168.402C103.237 168.402 103.144 168.372 103.051 168.372Z" fill="#4365DC"/>
<path d="M304.283 134.247L301.047 141.43L296.33 137.823L295.59 137.268L284.647 135.819L279.53 131.812C278.39 130.949 279.006 130.332 279.006 130.332C276.016 128.267 278.236 128.113 278.236 128.113C277.835 127.003 279.838 127.342 279.838 127.342C279.191 126.109 281.071 126.695 281.071 126.695L287.792 129.315L294.08 128.976L292.323 127.774C290.936 126.109 290.997 124.599 291.244 123.797C291.336 123.489 291.737 123.396 291.922 123.643C292.539 124.445 293.895 125.462 296.145 126.972C299.382 129.161 298.457 131.38 298.457 131.38L300.399 132.336L304.283 134.247Z" fill="white"/>
<path d="M301.232 142.17L295.405 137.731L284.462 136.282L279.222 132.213C278.698 131.812 278.39 131.38 278.359 130.918C278.359 130.764 278.359 130.641 278.39 130.517C277.249 129.685 276.817 129.038 276.972 128.483C277.064 128.113 277.403 127.897 277.68 127.805C277.711 127.558 277.804 127.404 277.896 127.311C278.205 126.942 278.729 126.88 279.191 126.88C279.222 126.695 279.283 126.572 279.376 126.479C279.807 125.986 280.763 126.202 281.164 126.325L287.822 128.914L292.662 128.637L291.953 128.144L291.922 128.082C290.35 126.202 290.504 124.506 290.751 123.674C290.843 123.366 291.09 123.119 291.398 123.057C291.706 122.996 292.045 123.119 292.23 123.366C292.785 124.044 294.018 125.03 296.361 126.602C299.074 128.421 299.105 130.332 298.95 131.165L304.869 134.031L301.232 142.17ZM284.832 135.388L295.775 136.806L300.862 140.69L303.667 134.463L297.81 131.627L297.995 131.226C298.026 131.165 298.735 129.284 295.868 127.373C293.525 125.801 292.261 124.814 291.614 124.044C291.429 124.845 291.491 126.048 292.6 127.435L295.405 129.377L287.668 129.808L280.856 127.157C280.64 127.096 280.332 127.034 280.147 127.034C280.147 127.065 280.177 127.096 280.208 127.126L280.64 127.959L279.715 127.805C279.253 127.743 278.729 127.743 278.605 127.866C278.605 127.866 278.605 127.897 278.636 127.959L278.821 128.544L278.205 128.575C278.081 128.575 277.927 128.637 277.835 128.668C277.865 128.76 278.051 129.161 279.191 129.932L279.653 130.24L279.284 130.641C279.284 130.641 279.253 130.702 279.253 130.795C279.253 130.887 279.345 131.103 279.746 131.411L284.832 135.388Z" fill="#4365DC"/>
<path d="M369.295 105.887L368.186 110.48C368.186 110.48 367.384 111.652 366.49 111.868L366.983 106.905L369.295 105.887Z" fill="#4365DC"/>
<path d="M356.04 115.104L355.424 118.403L354.345 124.198L368.062 124.568L367.323 111.467L367.292 108.292C368.001 107.829 368.586 107.398 369.049 106.997C370.683 105.579 371.083 104.408 370.96 103.514V103.483C370.744 102.096 369.357 101.356 369.357 101.356L368.494 93.0329L351.94 94.4201C351.848 94.7591 351.786 95.0982 351.694 95.4065V95.4681C351.293 97.1636 351.016 98.7357 350.831 100.154V100.185C348.611 116.122 356.04 115.104 356.04 115.104Z" fill="white"/>
<path d="M368.556 124.999L353.79 124.599L355.486 115.536C354.777 115.474 353.574 115.228 352.465 114.118C350.122 111.775 349.413 107.028 350.399 100.061V99.9996C350.615 98.5508 350.892 96.9786 351.293 95.2832V95.2524C351.386 94.9133 351.447 94.5742 351.54 94.2351L351.632 93.896L368.956 92.4472L369.82 100.986C370.251 101.294 371.238 102.065 371.423 103.329V103.36C371.577 104.623 370.899 105.918 369.357 107.244C368.895 107.644 368.371 108.045 367.754 108.446L367.785 111.374L368.556 124.999ZM354.9 123.736L367.569 124.075L366.86 111.467L366.829 107.984L367.045 107.86C367.693 107.459 368.278 107.028 368.771 106.596C370.066 105.487 370.652 104.469 370.529 103.514V103.483C370.374 102.342 369.172 101.695 369.172 101.695L368.956 101.572L368.124 93.4645L352.372 94.79C352.31 95.0058 352.28 95.2215 352.218 95.4373V95.4682C351.848 97.1328 351.54 98.7049 351.355 100.123V100.185C350.214 108.477 351.694 111.991 353.143 113.44C354.499 114.796 355.979 114.642 356.04 114.611L356.719 114.519L356.564 115.197L354.9 123.736Z" fill="#4365DC"/>
<path d="M365.905 95.0982L364.98 104.099L366.737 103.668C366.737 103.668 367.662 101.448 369.327 101.633C370.066 101.695 371.084 102.99 370.991 104.038C370.991 104.038 377.403 92.9096 371.639 92.3239C371.639 92.3239 362.545 77.7124 358.137 87.1759C358.137 87.1759 351.324 83.7543 352.742 89.7037C352.742 89.7037 347.471 87.7925 349.413 95.5298L350.739 100.524L351.694 95.4065C351.694 95.4065 355.732 97.1944 362.113 95.1291C362.113 95.1291 360.541 97.0094 357.736 97.7493C357.767 97.6876 363.285 97.2252 365.905 95.0982Z" fill="#0A206F"/>
<path d="M304.284 134.247L301.047 141.43L296.33 137.823L300.369 132.367L304.284 134.247Z" fill="#4365DC"/>
<path d="M355.424 118.372C361.558 117.54 363.192 111.436 363.253 111.251C361.989 113.039 358.352 114.056 356.04 114.796L355.424 118.372Z" fill="#4365DC"/>
<path d="M389.702 177.589L380.084 176.941L379.098 176.88L379.406 184.031L379.684 190.289C379.684 190.289 355.115 189.056 337.236 187.206L339.517 159.494L335.695 162.546C332.921 165.012 327.803 163.871 324.967 162.114L295.929 143.033L302.125 131.997L325.954 146.639L337.668 128.02C338.808 126.171 340.504 124.753 342.507 123.982L354.869 119.143C354.869 119.143 359.431 126.14 368.309 118.865L383.29 127.527C385.849 128.914 387.76 131.257 388.623 134.062L396.237 169.543C397.1 175.03 393.74 177.157 389.702 177.589Z" fill="#E1E8FF"/>
<path d="M380.177 190.782L379.684 190.751C379.437 190.751 354.9 189.487 337.206 187.669L336.743 187.607L338.963 160.511L336.003 162.885C332.982 165.566 327.588 164.272 324.721 162.484L295.313 143.156L301.941 131.319L325.8 145.992L337.267 127.774C338.47 125.832 340.227 124.383 342.323 123.551L355.054 118.557L355.27 118.865C355.27 118.896 356.811 121.177 359.739 121.609C362.267 121.979 365.042 120.93 368.062 118.495L368.309 118.279L383.568 127.096C386.25 128.544 388.223 130.98 389.117 133.877V133.908L396.731 169.389C397.101 171.824 396.731 173.766 395.59 175.215C394.419 176.756 392.384 177.681 389.764 177.959H389.733L379.622 177.28L380.177 190.782ZM337.73 186.806C353.944 188.47 375.615 189.642 379.222 189.827L378.636 176.386L389.702 177.126C391.367 176.941 393.586 176.386 394.85 174.753C395.806 173.52 396.145 171.793 395.806 169.636L388.223 134.186C387.39 131.504 385.572 129.284 383.136 127.959L368.402 119.451C365.288 121.948 362.329 122.996 359.616 122.564C356.934 122.163 355.331 120.437 354.746 119.728L342.693 124.445C340.751 125.184 339.179 126.541 338.069 128.298L326.108 147.287L302.28 132.644L296.546 142.879L325.214 161.744C327.742 163.316 332.736 164.58 335.387 162.237L340.042 158.507L337.73 186.806Z" fill="#4365DC"/>
<path d="M347.625 149.938L352.896 165.659C353.112 166.275 352.65 166.923 352.002 166.923H319.142C318.803 166.923 318.495 166.738 318.34 166.46L308.753 150.739C308.353 150.092 308.815 149.29 309.555 149.29H346.731C347.132 149.29 347.471 149.537 347.625 149.938Z" fill="#4365DC"/>
<path d="M346.268 150.369L351.54 165.967C351.755 166.584 351.293 167.231 350.646 167.231H317.785C317.446 167.231 317.138 167.046 316.984 166.769L307.397 151.171C306.996 150.523 307.458 149.722 308.198 149.722H345.374C345.775 149.722 346.145 149.999 346.268 150.369Z" fill="white"/>
<path d="M350.646 167.693H317.785C317.292 167.693 316.83 167.447 316.583 167.015L306.996 151.417C306.719 150.986 306.719 150.431 306.965 149.999C307.212 149.537 307.674 149.29 308.198 149.29H345.374C345.991 149.29 346.515 149.691 346.7 150.246L351.971 165.844C352.125 166.275 352.064 166.738 351.786 167.108C351.509 167.478 351.108 167.693 350.646 167.693ZM308.198 150.184C307.952 150.184 307.828 150.369 307.767 150.431C307.736 150.493 307.643 150.708 307.767 150.924L317.354 166.522C317.446 166.676 317.6 166.769 317.754 166.769H350.615C350.769 166.769 350.923 166.707 351.016 166.553C351.108 166.399 351.139 166.275 351.077 166.121L345.806 150.523C345.744 150.338 345.559 150.184 345.344 150.184H308.198Z" fill="#4365DC"/>
<path d="M357.89 162.484L357.612 168.927L355.269 168.618L354.036 168.464C354.036 168.464 350.337 169.389 348.241 169.081C348.118 169.05 347.964 169.019 347.84 168.988L342.6 167.046C342.199 166.892 341.891 166.553 341.829 166.121C341.798 165.813 341.922 165.474 342.477 165.351L341.552 165.042C341.552 165.042 340.011 163.809 341.244 163.193C341.244 163.193 339.702 161.343 341.86 161.035C341.86 161.035 340.935 160.11 342.477 159.494L347.193 160.511L350.461 161.128L351.293 161.282L350.152 158.076L356.348 162.145L356.595 162.206L357.89 162.484Z" fill="white"/>
<path d="M349.228 169.574C348.858 169.574 348.519 169.543 348.211 169.512C348.056 169.481 347.902 169.451 347.717 169.389L342.477 167.447C341.891 167.231 341.491 166.707 341.398 166.152C341.367 165.906 341.398 165.659 341.521 165.474L341.336 165.412L341.275 165.351C341.09 165.197 340.227 164.457 340.319 163.655C340.35 163.47 340.412 163.255 340.627 163.008C340.381 162.607 340.134 161.991 340.35 161.405C340.473 161.066 340.781 160.788 341.182 160.634C341.121 160.48 341.121 160.295 341.151 160.079C341.244 159.617 341.645 159.216 342.323 158.939L342.446 158.877L347.317 159.925L350.615 160.542L349.29 156.781L356.595 161.559L358.414 162.052L358.106 169.358L354.129 168.834C353.574 169.019 351.17 169.574 349.228 169.574ZM341.799 164.58L344.142 165.382L342.6 165.751C342.292 165.844 342.292 165.936 342.323 166.029C342.354 166.275 342.539 166.491 342.785 166.584L348.026 168.526C348.149 168.557 348.241 168.587 348.334 168.618C350.307 168.896 353.913 168.033 353.944 168.002L354.037 167.971L357.212 168.402L357.458 162.854L356.195 162.515L356.133 162.484L351.077 159.155L352.033 161.837L347.132 160.912L342.539 159.925C342.261 160.049 342.076 160.203 342.076 160.326C342.045 160.449 342.2 160.634 342.2 160.665L342.847 161.312L341.922 161.436C341.521 161.497 341.244 161.621 341.182 161.775C341.09 162.052 341.398 162.607 341.583 162.854L341.953 163.316L341.429 163.563C341.336 163.594 341.213 163.686 341.213 163.779C341.213 163.964 341.49 164.333 341.799 164.58Z" fill="#4365DC"/>
<path d="M357.89 162.484L357.613 168.926L355.27 168.618L356.595 162.145L357.89 162.484Z" fill="#4365DC"/>
<path d="M358.198 173.489H357.274L357.397 161.867L378.328 162.792L373.92 146.608L374.814 146.362L379.561 163.748L358.322 162.854L358.198 173.489Z" fill="#4365DC"/>
<path d="M296.67 260.387L296.731 271.269L296.762 276.417H306.318L307.027 269.388L308.014 260.233L296.67 260.387Z" fill="white"/>
<path d="M306.719 276.879H296.3L296.207 259.925L308.507 259.74L306.719 276.879ZM297.224 275.954H305.917L307.52 260.696L297.163 260.85L297.224 275.954Z" fill="#4365DC"/>
<path d="M306.534 273.149C305.702 274.012 302.28 276.879 296.67 272.964C296.608 272.933 296.546 272.933 296.516 272.964L280.979 281.287C280.239 281.688 280.517 282.767 281.349 282.767H306.719C307.89 282.767 308.753 281.688 308.507 280.548L306.842 273.242C306.781 273.088 306.626 273.057 306.534 273.149Z" fill="#4365DC"/>
<path d="M326.201 260.387L327.681 270.714L328.513 276.417H338.069L337.822 268.71L337.545 260.233L326.201 260.387Z" fill="white"/>
<path d="M338.531 276.879H328.081L325.646 259.925L337.946 259.74L338.531 276.879ZM328.914 275.954H337.607L337.113 260.696L326.756 260.85L328.914 275.954Z" fill="#4365DC"/>
<path d="M326.201 260.387L327.681 270.714L337.822 268.71L337.545 260.233L326.201 260.387Z" fill="#4365DC"/>
<path d="M296.67 260.387L296.731 271.269L307.027 269.388L308.014 260.233L296.67 260.387Z" fill="#4365DC"/>
<path d="M309.555 267.662L292.293 267.354L290.566 194.358C290.289 188.285 295.129 183.199 301.201 183.199L328.575 183.815L316.707 204.623L309.555 267.662Z" fill="#3F58B2"/>
<path d="M309.093 195.622L322.286 267.046H339.857L336.158 210.788H364.055C383.63 209.555 379.623 186.127 379.623 186.127L377.557 186.004L318.032 182.644C311.405 182.829 306.904 189.395 309.093 195.622Z" fill="#5C74CF"/>
<path d="M340.319 267.508H321.885L321.824 267.138L308.661 195.776C307.582 192.663 308.044 189.333 309.894 186.651C311.774 183.939 314.734 182.305 318.032 182.213H318.063H318.094L380.023 185.696L380.085 186.066C380.177 186.559 382.058 198.088 376.231 205.455C373.457 208.97 369.357 210.912 364.086 211.251H336.651L340.319 267.508ZM322.656 266.583H339.363L335.664 210.326H364.055C369.018 210.018 372.871 208.168 375.492 204.87C380.516 198.519 379.499 188.563 379.222 186.559L377.557 186.467L318.063 183.106C315.073 183.199 312.391 184.679 310.695 187.145C309 189.611 308.599 192.663 309.586 195.499L309.616 195.56L322.656 266.583Z" fill="#4365DC"/>
<path d="M337.976 273.149C337.144 274.012 333.722 276.879 328.112 272.964C328.05 272.933 327.988 272.933 327.958 272.964L312.421 281.287C311.681 281.688 311.959 282.767 312.791 282.767H338.161C339.332 282.767 340.195 281.688 339.949 280.548L338.284 273.242C338.223 273.088 338.068 273.057 337.976 273.149Z" fill="#4365DC"/>
<path d="M341.876 160.81L341.669 161.391L345.994 162.935L346.202 162.355L341.876 160.81Z" fill="#4365DC"/>
<path d="M341.259 162.968L341.052 163.549L345.377 165.093L345.585 164.513L341.259 162.968Z" fill="#4365DC"/>
<path d="M344.82 166.214L342.354 165.597L342.6 165.042L345.067 165.659L344.82 166.214Z" fill="#4365DC"/>
<path d="M379.098 176.849L379.407 184.031L357.428 173.489L380.085 176.941L379.098 176.849Z" fill="#4365DC"/>
<path d="M357.582 109.525L352.958 108.908C352.958 108.908 352.65 112.607 357.582 109.525Z" fill="#4365DC"/>
<path d="M324.555 145.312L324.089 146.11L329.198 149.098L329.664 148.3L324.555 145.312Z" fill="#4365DC"/>
<path d="M328.451 159.925C329.813 159.925 330.917 159.304 330.917 158.538C330.917 157.772 329.813 157.151 328.451 157.151C327.089 157.151 325.985 157.772 325.985 158.538C325.985 159.304 327.089 159.925 328.451 159.925Z" fill="white"/>
<path d="M328.451 160.388C326.817 160.388 325.523 159.586 325.523 158.538C325.523 157.49 326.817 156.689 328.451 156.689C330.085 156.689 331.38 157.49 331.38 158.538C331.38 159.586 330.085 160.388 328.451 160.388ZM328.451 157.613C327.31 157.613 326.447 158.107 326.447 158.538C326.447 158.97 327.31 159.463 328.451 159.463C329.592 159.463 330.455 158.97 330.455 158.538C330.455 158.107 329.592 157.613 328.451 157.613Z" fill="#4365DC"/>
<path d="M450.368 282.767H0V284H450.368V282.767Z" fill="#4365DC"/>
</svg>
