<svg width="467" height="300" viewBox="0 0 467 300" fill="none" xmlns="http://www.w3.org/2000/svg">
<path d="M277.662 183.906L268.219 298.493H272.472L281.915 183.906H277.662Z" fill="#3F58B2"/>
<path d="M204.998 183.906L195.555 298.493H199.808L209.251 183.906H204.998Z" fill="#3F58B2"/>
<path d="M226.496 183.906L235.939 298.493H231.72L222.277 183.906H226.496Z" fill="white"/>
<path d="M236.475 298.995H231.251L231.218 298.527L221.741 183.37H226.965L226.998 183.839L236.475 298.995ZM232.155 297.991H235.37L226.027 184.408H222.813L232.155 297.991Z" fill="#3F58B2"/>
<path d="M296.816 183.906L306.259 298.493H302.04L292.597 183.906H296.816Z" fill="white"/>
<path d="M306.794 298.995H301.571L301.537 298.527L292.061 183.37H297.285L297.318 183.839L306.794 298.995ZM302.475 297.991H305.689L296.347 184.408H293.132L302.475 297.991Z" fill="#3F58B2"/>
<path d="M284.527 62.4536H216.417C212.834 62.4536 209.887 65.2329 209.653 68.7823L202.085 183.504C201.817 187.422 204.931 190.737 208.849 190.737H276.992C280.575 190.737 283.522 187.957 283.756 184.408L291.324 69.6864C291.559 65.7686 288.444 62.4536 284.527 62.4536Z" fill="#3F58B2"/>
<path d="M218.259 62.2861H286.402C289.985 62.2861 292.931 65.0654 293.166 68.6149L300.733 183.336C301.001 187.254 297.887 190.569 293.969 190.569H225.826C222.243 190.569 219.297 187.79 219.062 184.24L211.494 69.519C211.26 65.6012 214.341 62.2861 218.259 62.2861Z" fill="white"/>
<path d="M293.969 191.072H225.826C222.009 191.072 218.828 188.091 218.56 184.274L210.992 69.5525C210.858 67.5099 211.562 65.5677 212.934 64.0944C214.307 62.621 216.216 61.7839 218.259 61.7839H286.402C290.219 61.7839 293.4 64.7641 293.668 68.5814L301.236 183.303C301.37 185.346 300.667 187.288 299.294 188.761C297.921 190.234 296.012 191.072 293.969 191.072ZM218.259 62.7884C216.517 62.7884 214.877 63.4916 213.671 64.7641C212.466 66.0365 211.863 67.7108 211.997 69.4521L219.565 184.174C219.765 187.455 222.545 190.033 225.826 190.033H293.969C295.711 190.033 297.351 189.33 298.557 188.058C299.762 186.785 300.365 185.111 300.231 183.37L292.663 68.6484C292.463 65.3668 289.683 62.7884 286.402 62.7884H218.259Z" fill="#3F58B2"/>
<path d="M221.808 67.6439H283.656C286.904 67.6439 289.583 70.1553 289.784 73.4034L296.648 177.543C296.883 181.093 294.07 184.107 290.52 184.107H228.672C225.424 184.107 222.746 181.595 222.545 178.347L215.68 74.207C215.412 70.6576 218.258 67.6439 221.808 67.6439Z" fill="white"/>
<path d="M290.52 184.609H228.673C225.19 184.609 222.277 181.863 222.042 178.381L215.178 74.2405C215.044 72.3988 215.68 70.624 216.953 69.2511C218.225 67.8782 219.966 67.1415 221.808 67.1415H283.656C287.138 67.1415 290.052 69.8874 290.286 73.3699L297.151 177.51C297.285 179.352 296.648 181.126 295.376 182.499C294.103 183.872 292.396 184.609 290.52 184.609ZM221.808 68.1461C220.234 68.1461 218.761 68.7823 217.689 69.9208C216.618 71.0593 216.082 72.5662 216.183 74.14L223.047 178.28C223.248 181.227 225.726 183.571 228.673 183.571H290.52C292.094 183.571 293.568 182.935 294.639 181.796C295.711 180.658 296.246 179.151 296.146 177.577L289.281 73.4368C289.081 70.4901 286.603 68.1461 283.656 68.1461H221.808Z" fill="#3F58B2"/>
<path d="M240.158 62.2861C240.158 64.6971 242.134 66.6728 244.545 66.6728H262.125C264.536 66.6728 266.511 64.6971 266.511 62.2861C266.511 59.8752 264.536 57.8995 262.125 57.8995H244.545C242.134 57.8995 240.158 59.8752 240.158 62.2861Z" fill="#3F58B2"/>
<path d="M281.68 127.215L228.606 126.645L225.291 98.0823C225.291 98.0823 231.285 96.3075 238.718 105.951C240.393 108.094 244.11 109.534 248.831 109.97C253.553 110.405 257.403 112.581 261.154 116.399C261.154 116.399 263.498 118.542 269.257 118.006C272.874 117.638 279.504 118.475 281.68 127.215Z" fill="white"/>
<path d="M282.116 127.549L228.338 126.98L224.956 97.8478L225.224 97.7808C225.492 97.7139 231.519 96.0396 239.02 105.75C240.594 107.793 244.21 109.199 248.898 109.635C253.452 110.037 257.437 112.113 261.455 116.164C261.455 116.164 263.799 118.174 269.291 117.671C272.338 117.37 279.671 117.738 282.015 127.148L282.116 127.549ZM228.941 126.311L281.278 126.88C278.968 118.374 272.204 118.073 269.391 118.341C263.565 118.91 261.12 116.767 261.02 116.667C257.068 112.648 253.318 110.706 248.864 110.304C243.976 109.869 240.192 108.362 238.517 106.152C232.222 97.9817 226.965 98.1827 225.726 98.3501L228.941 126.311Z" fill="#5B74CF"/>
<path d="M278.107 95.2978L277.208 95.3966L280.714 127.283L281.613 127.184L278.107 95.2978Z" fill="#3F58B2"/>
<path d="M260.428 94.4587L259.53 94.5604L263.21 127.066L264.108 126.965L260.428 94.4587Z" fill="#3F58B2"/>
<path d="M241.282 93.5606L240.383 93.6539L243.828 126.862L244.727 126.769L241.282 93.5606Z" fill="#3F58B2"/>
<path d="M225.142 92.7669L224.243 92.8658L227.965 126.683L228.864 126.584L225.142 92.7669Z" fill="#3F58B2"/>
<path d="M255.696 105.148C248.931 104.645 243.172 103.54 230.447 93.7625L231.352 92.624L226.865 91.8539L228.773 95.9391L229.677 94.8006C242.67 104.813 248.63 105.951 255.629 106.454C271.702 107.626 281.513 119.647 281.613 119.781L282.651 118.944C282.517 118.843 272.371 106.387 255.696 105.148Z" fill="#5B74CF"/>
<path d="M245.851 135.854L246.654 149.248L232.322 148.578C232.289 148.545 231.753 136.591 245.851 135.854Z" fill="white"/>
<path d="M247.157 149.75L231.82 149.014L231.787 148.545C231.787 148.411 231.385 136.088 245.817 135.318L246.319 135.285L247.157 149.75ZM232.791 148.076L246.085 148.712L245.348 136.39C233.796 137.227 232.858 145.933 232.791 148.076Z" fill="#3F58B2"/>
<path d="M248.262 139.035L249.333 152.53L259.747 143.823C259.781 143.823 255.361 138.466 248.262 139.035Z" fill="white"/>
<path d="M248.931 153.534L247.726 138.566L248.228 138.533C255.494 137.93 259.982 143.288 260.149 143.489L260.45 143.857L248.931 153.534ZM248.797 139.504L249.768 151.525L259.044 143.756C257.939 142.651 254.222 139.303 248.797 139.504Z" fill="#3F58B2"/>
<path d="M251.242 166.292L249.366 152.563L259.78 143.857C259.78 143.857 266.511 151.157 262.694 159.26C261.287 162.207 256.934 165.723 251.242 166.292Z" fill="white"/>
<path d="M250.806 166.828L248.831 152.329L259.814 143.12L260.149 143.455C260.216 143.522 267.08 151.09 263.163 159.428C261.656 162.642 257.068 166.225 251.309 166.761L250.806 166.828ZM249.869 152.764L251.644 165.756C256.834 165.087 260.852 161.939 262.225 159.059C265.373 152.362 260.953 146.134 259.714 144.56L249.869 152.764Z" fill="#3F58B2"/>
<path d="M235.403 152.295L249.333 152.53L251.208 166.259C251.242 166.292 236.876 166.426 235.403 152.295Z" fill="white"/>
<path d="M251.242 166.794C250.874 166.794 236.408 166.661 234.934 152.362L234.867 151.793L249.802 152.061L251.811 166.794H251.242ZM235.972 152.798C236.676 158.155 239.388 161.973 244.042 164.116C246.822 165.388 249.501 165.689 250.639 165.756L248.898 153.032L235.972 152.798Z" fill="#3F58B2"/>
<path d="M281.981 144.661L282.484 148.511L270.596 147.976L270.061 144.091L281.981 144.661Z" fill="white"/>
<path d="M283.087 149.047L270.161 148.444L269.491 143.556L282.417 144.158L283.087 149.047ZM271.032 147.473L281.915 147.976L281.513 145.129L270.63 144.627L271.032 147.473Z" fill="#3F58B2"/>
<path d="M242.803 78.0243L243.306 81.8752L222.712 81.3394L222.176 77.4551L242.803 78.0243Z" fill="white"/>
<path d="M243.909 82.4109L222.277 81.8082L221.607 76.9193L243.239 77.5221L243.909 82.4109ZM223.148 80.8371L242.737 81.3729L242.335 78.5266L222.746 77.9909L223.148 80.8371Z" fill="#3F58B2"/>
<path d="M282.819 154.807L283.321 158.658L271.433 158.122L270.898 154.237L282.819 154.807Z" fill="white"/>
<path d="M283.924 159.193L270.998 158.591L270.329 153.702L283.254 154.304L283.924 159.193ZM271.869 157.619L282.752 158.122L282.35 155.275L271.467 154.773L271.869 157.619Z" fill="#3F58B2"/>
<path d="M178.445 189.632C177.239 200.615 174.661 214.043 169.772 230.183L166.055 229.714C166.055 229.714 166.189 224.524 166.557 216.788C167.461 196.228 169.839 157.452 174.895 148.344C174.895 148.344 181.659 160.265 178.445 189.632Z" fill="white"/>
<path d="M170.14 230.752L165.552 230.183V229.714C165.552 229.647 165.686 224.457 166.055 216.755C167.026 195.023 169.403 157.184 174.46 148.076L174.895 147.306L175.33 148.076C175.598 148.578 182.161 160.499 178.947 189.665C177.607 201.988 174.661 215.683 170.24 230.317L170.14 230.752ZM166.557 229.279L169.403 229.647C173.756 215.215 176.603 201.72 177.942 189.565C180.621 165.154 176.301 152.764 174.861 149.482C170.207 159.796 167.963 195.826 167.026 216.822C166.758 223.184 166.624 227.839 166.557 229.279Z" fill="#3F58B2"/>
<path d="M168.432 235.072H167.428C167.897 185.613 174.359 148.377 174.426 148.009L175.431 148.177C175.33 148.545 168.868 185.68 168.432 235.072Z" fill="#3F58B2"/>
<path d="M178.445 189.632C177.239 200.615 174.661 214.043 169.772 230.183L166.055 229.714C166.055 229.714 166.189 224.524 166.557 216.788C170.408 205.336 175.196 195.626 178.445 189.632Z" fill="#3F58B2"/>
<path d="M166.758 228.575C166.758 228.575 179.784 192.98 187.921 184.173C187.921 184.173 193.279 206.04 169.537 229.747L166.758 228.575Z" fill="white"/>
<path d="M169.671 230.317L166.122 228.843L166.289 228.408C166.825 226.935 179.449 192.645 187.553 183.839L188.189 183.135L188.423 184.04C188.49 184.274 189.763 189.699 188.122 198.137C186.615 205.906 182.262 217.726 169.906 230.082L169.671 230.317ZM167.394 228.274L169.437 229.111C181.425 217.023 185.677 205.504 187.151 197.936C188.356 191.775 187.921 187.187 187.62 185.245C180.119 194.454 168.901 224.256 167.394 228.274Z" fill="#3F58B2"/>
<path d="M145.126 161.336C145.126 161.336 165.117 190.402 166.992 229.714H166.289C166.289 229.714 140.941 187.388 145.126 161.336Z" fill="white"/>
<path d="M167.495 230.216H165.988L165.854 229.982C165.787 229.881 159.425 219.199 153.665 205.504C148.341 192.813 142.448 174.864 144.624 161.269L144.825 160.03L145.528 161.068C145.562 161.135 150.618 168.502 155.808 180.591C160.597 191.741 166.524 209.321 167.461 229.68L167.495 230.216ZM145.428 162.743C142.514 186.919 163.778 224.39 166.423 228.977C164.615 194.922 149.011 168.402 145.428 162.743Z" fill="#3F58B2"/>
<path d="M165.787 229.814C159.827 190.569 144.825 161.872 144.691 161.604L145.595 161.135C145.763 161.437 160.831 190.268 166.825 229.68L165.787 229.814Z" fill="#3F58B2"/>
<path d="M166.658 233.966L165.72 233.632C176.067 204.164 187.385 184.106 187.486 183.906L188.356 184.408C188.222 184.575 176.971 204.566 166.658 233.966Z" fill="#3F58B2"/>
<path d="M180.923 227.169L179.416 245.887L175.13 298.326H158.621L152.795 227.169H180.923Z" fill="white"/>
<path d="M175.598 298.828H158.152L152.259 226.667H181.492L175.598 298.828ZM159.09 297.823H174.661L180.387 227.671H153.33L159.09 297.823Z" fill="#3F58B2"/>
<path d="M179.415 245.887L175.129 298.326H163.644L179.415 245.887Z" fill="#3F58B2"/>
<path d="M59.5036 275.053L57.4945 284.027L55.7198 291.963H45.6406L46.7456 282.219L47.5493 274.886L59.5036 275.053Z" fill="white"/>
<path d="M56.1218 292.466H45.0715L47.0807 274.384L60.1065 274.551L56.1218 292.466ZM46.21 291.461H55.3181L58.8676 275.556L47.9848 275.388L46.21 291.461Z" fill="#3F58B2"/>
<path d="M46.076 288.514C46.9466 289.419 50.5631 292.466 56.49 288.347C56.557 288.314 56.6239 288.314 56.6574 288.347L73.0319 297.12C73.802 297.522 73.5007 298.694 72.63 298.694H45.8751C44.6361 298.694 43.732 297.556 43.9999 296.35L45.7411 288.648C45.8416 288.481 46.009 288.414 46.076 288.514Z" fill="#3F58B2"/>
<path d="M90.9802 275.053L89.1719 284.932L87.866 291.963H77.7869L78.5236 282.052L79.0258 274.886L90.9802 275.053Z" fill="white"/>
<path d="M88.3014 292.466H77.2512L78.5572 274.384L91.583 274.551L88.3014 292.466ZM78.3228 291.461H87.4308L90.3441 275.556L79.4613 275.388L78.3228 291.461Z" fill="#3F58B2"/>
<path d="M59.5038 275.053L57.4947 284.027L46.7458 282.219L47.5495 274.886L59.5038 275.053Z" fill="#3F58B2"/>
<path d="M90.9803 275.053L89.1721 284.932L78.5237 282.052L79.026 274.886L90.9803 275.053Z" fill="#3F58B2"/>
<path d="M77.8873 288.514C78.7579 289.419 82.3743 292.466 88.3013 288.347C88.3683 288.314 88.4352 288.314 88.4687 288.347L104.843 297.12C105.613 297.522 105.312 298.694 104.441 298.694H77.6864C76.4474 298.694 75.5433 297.556 75.8112 296.35L77.5524 288.648C77.6529 288.481 77.8203 288.414 77.8873 288.514Z" fill="#3F58B2"/>
<path d="M70.0852 23.2085C70.0852 23.2085 71.0563 26.758 71.8934 29.0685C72.7306 31.379 75.0746 30.5419 75.0746 30.5419L75.0411 24.481L70.0852 23.2085Z" fill="#3F58B2"/>
<path d="M85.7229 35.6986C85.7229 35.7321 85.7229 35.7321 85.7229 35.6986C85.8903 37.2055 86.0242 38.4444 86.1582 39.4825C86.6939 43.5008 87.1962 45.2085 88.5356 50.4657L71.0897 52.14L72.7974 27.3272C72.3621 26.758 65.6315 20.0609 71.2236 18.4536C71.2236 18.4536 69.3819 5.62861 79.3941 6.13089C89.4063 6.63318 93.1232 13.0289 93.1232 13.0289C93.1232 13.0289 99.1171 38.4779 85.7229 35.6986Z" fill="white"/>
<path d="M70.5539 52.7093L72.2952 27.4947C72.2617 27.4612 72.2282 27.3942 72.1612 27.3607C71.1232 26.1887 67.9085 22.6058 68.6452 20.0609C68.9131 19.1568 69.5828 18.5205 70.6878 18.0852C70.5204 16.5114 70.219 11.0868 73.1323 7.90563C74.6391 6.26484 76.7487 5.49466 79.4611 5.6286C89.6407 6.16437 93.458 12.4931 93.592 12.761L93.6254 12.828L93.6589 12.895C93.8264 13.5647 97.4428 29.2024 92.1856 34.5936C90.7457 36.067 88.77 36.6362 86.3256 36.3014C86.4595 37.5403 86.5935 38.5449 86.6939 39.4155C87.1627 43.0654 87.6315 44.8402 88.77 49.0928L89.2388 50.8676L70.5539 52.7093ZM78.8248 6.63317C76.7152 6.63317 75.041 7.30288 73.8355 8.60882C70.8218 11.9239 71.6924 18.3196 71.6924 18.3866L71.7594 18.8219L71.3241 18.9559C70.3195 19.2572 69.7503 19.6925 69.5493 20.3622C69.181 21.7017 70.286 23.8113 72.8644 26.691C72.9984 26.8584 73.1323 26.9589 73.1658 27.0259L73.2662 27.1933L71.592 51.6043L87.8659 50.0304L87.6985 49.3942C86.56 45.0746 86.1247 43.2998 85.6224 39.5829C85.4885 38.5784 85.3545 37.3729 85.1871 35.8326V35.7321V35.1294L85.7898 35.2633C88.2343 35.7656 90.0425 35.3303 91.3819 33.9574C96.0699 29.1355 92.8888 14.4688 92.6209 13.2633C92.2191 12.6271 88.4352 7.13546 79.3271 6.66666C79.1597 6.63317 78.9923 6.63317 78.8248 6.63317Z" fill="#3F58B2"/>
<path d="M71.1234 5.36073C71.1234 5.36073 77.0838 -5.75647 90.8129 4.72451C92.0183 5.6621 93.2238 5.49467 95.9027 6.73364C98.2132 7.80518 98.481 11.0533 96.3714 12.4597C93.1903 14.6027 89.2725 15.8082 81.2695 12.3927C84.7855 15.7078 90.5785 15.5738 90.5785 15.5738C79.1599 16.7123 76.8159 12.1248 76.682 12.0244C76.682 12.0244 77.8874 17.2146 74.4719 21.2664C74.4719 21.2664 74.2375 19.9939 73.3334 19.2907C72.1614 18.3866 70.1523 18.1522 69.0807 20.1613C69.0472 20.1948 62.7855 8.4414 71.1234 5.36073Z" fill="#3F58B2"/>
<path d="M74.6057 19.9604L79.5616 19.4581C80.0304 18.2192 81.1689 17.315 82.5418 17.1476C84.417 16.9467 86.0913 18.2192 86.4261 20.0274L88.4018 19.8265C88.3683 17.9848 89.7747 16.4109 91.6164 16.21C93.592 16.0091 95.3668 17.449 95.5677 19.4246C95.7686 21.4003 94.3287 23.175 92.3531 23.3759C90.4779 23.5768 88.8036 22.3044 88.4687 20.4962L86.4931 20.6971C86.5266 22.5388 85.1202 24.1126 83.2785 24.3135C81.3028 24.5144 79.5281 23.0746 79.3272 21.0989C79.2937 20.7641 79.2937 20.4292 79.3607 20.1278L74.6727 20.5966L74.6057 19.9604ZM92.3196 22.7397C93.9269 22.5723 95.0989 21.1324 94.9314 19.5251C94.764 17.9178 93.3241 16.7458 91.7168 16.9132C90.1095 17.0807 88.9375 18.5205 89.105 20.1278C89.2389 21.7351 90.7123 22.9071 92.3196 22.7397ZM83.2115 23.6773C84.8188 23.5099 85.9908 22.07 85.8234 20.4627C85.6559 18.8554 84.2161 17.6834 82.6088 17.8508C81.0015 18.0182 79.8295 19.4581 79.9969 21.0654C80.1308 22.6727 81.6042 23.8447 83.2115 23.6773Z" fill="#3F58B2"/>
<path d="M115.525 136.591L114.052 149.081L112.846 159.327L109.799 184.977L94.7641 280.578H73.6682C73.6682 279.976 76.5815 247.093 78.6576 221.108C80.3318 200.18 81.3029 152.831 81.3029 152.831L81.2359 148.645L80.8341 126.478V125.54L84.3501 126.645L99.586 131.501L115.525 136.591Z" fill="#3F58B2"/>
<path d="M100.624 125.54L100.289 127.483L99.586 131.501L96.9406 146.603L96.8402 147.105L95.1324 156.883L91.4155 180.791C91.2481 181.662 88.9711 189.933 88.7367 190.804L64.6941 280.578H42.9285L60.6088 186.819L60.7093 146.837V146.77V140.642L62.0487 125.54H100.624Z" fill="#5B74CF"/>
<path d="M65.0959 281.081H42.3257L60.1065 186.785L60.2404 140.609L61.6468 125.038H101.227L95.6347 156.95L91.9178 180.858C91.8173 181.528 90.6453 185.714 89.5403 189.732C89.3729 190.335 89.2724 190.737 89.2054 190.904L65.0959 281.081ZM43.5312 280.076H64.2922L88.2009 190.67C88.2344 190.502 88.3683 190.067 88.5357 189.464C89.2054 187.053 90.7793 181.394 90.8797 180.691L94.5966 156.782L99.9878 126.043H62.5509L61.245 140.676L61.1111 186.919L43.5312 280.076Z" fill="#5B74CF"/>
<path d="M116.798 140.508L116.865 140.91C116.563 140.977 116.262 141.044 115.994 141.078C105.68 143.087 98.481 134.581 86.4597 137.763C85.3547 138.064 84.2497 138.432 83.0442 138.935C67.306 145.632 56.2557 136.925 56.2557 136.925L57.6287 120.216L58.0305 113.586L58.3988 107.559L58.5662 104.545L58.9346 98.2162L59.035 96.4414L59.5373 88.4049L59.2694 78.3257L50.9985 79.3303L48.2862 60.3105C47.9513 56.1918 50.0944 52.2405 53.7778 50.2983L71.5252 41.5921C83.5799 49.5282 86.4932 40.7885 86.4932 40.7885L103.537 44.5388C106.685 45.1751 109.33 47.2512 110.77 50.1309L119.845 71.93L107.02 74.5754L109.062 88.4384L110.034 94.9011L111.909 107.559L114.855 128.889L115.86 134.883L116.798 140.408V140.508Z" fill="white"/>
<path d="M71.2238 141.948C61.9818 141.948 56.0214 137.394 55.9544 137.327L55.7535 137.16L57.1264 120.183L59.0351 88.4049L58.7672 78.8615L50.5633 79.8661L47.784 60.344C47.4156 55.9574 49.6926 51.8387 53.5435 49.7961L71.5587 40.9559L71.7931 41.1233C76.1462 44.0031 79.7292 44.9741 82.475 44.0365C85.1203 43.1324 85.9909 40.621 85.9909 40.5875L86.1249 40.1522L86.5602 40.2527L103.604 44.0031C106.919 44.6728 109.665 46.8158 111.172 49.863L120.481 72.2314L107.522 74.9102L112.344 107.425L115.291 128.788L117.367 141.245L116.865 141.346C116.597 141.412 116.295 141.446 116.027 141.513C111.105 142.484 106.986 141.145 102.633 139.705C97.8113 138.131 92.822 136.524 86.5267 138.198C85.4217 138.499 84.2832 138.868 83.1782 139.37C78.825 141.279 74.7733 141.948 71.2238 141.948ZM56.7916 136.691C58.3989 137.83 68.7794 144.46 82.8433 138.466C83.9818 137.963 85.1538 137.562 86.3258 137.26C92.889 135.519 98.0457 137.193 103.002 138.801C107.254 140.174 111.239 141.479 115.894 140.575C116.027 140.542 116.161 140.508 116.295 140.508V140.475L114.387 128.989L111.44 107.626L106.484 74.1735L119.175 71.5617L110.335 50.3318C108.996 47.586 106.484 45.6439 103.47 45.0411L86.8281 41.3912C86.4263 42.2618 85.2878 44.204 82.8768 45.0411C79.8966 46.0792 76.0792 45.1081 71.5587 42.1948L54.0792 50.7671C50.5967 52.6088 48.5541 56.3592 48.889 60.3105L51.5343 78.828L59.8722 77.8235L60.1736 88.5054V88.5388L58.2314 120.35L56.7916 136.691Z" fill="#3F58B2"/>
<path d="M111.339 103.808L81.5373 99.2542L79.2938 98.9193L73.4673 98.0152L75.175 89.4094L84.3501 89.5099H84.4171L104.977 89.7778L102.767 76.6514L102.466 74.9772L116.195 72.6332L116.396 76.0487L117.601 97.9482C117.903 101.464 114.822 104.31 111.339 103.808Z" fill="white"/>
<path d="M112.177 104.377C111.875 104.377 111.574 104.344 111.272 104.31L72.8645 98.417L74.7397 88.8736L104.341 89.242L101.863 74.5753L116.63 72.0639L118.07 97.9482C118.204 99.7564 117.534 101.531 116.195 102.77C115.123 103.808 113.683 104.377 112.177 104.377ZM111.406 103.306C112.913 103.54 114.42 103.072 115.525 102.033C116.63 100.995 117.199 99.522 117.099 98.0152L115.726 73.2359L103.035 75.4125L105.546 90.28L75.5768 89.9117L74.07 97.6134L111.406 103.306Z" fill="#3F58B2"/>
<path d="M84.3836 89.4764L81.5373 99.2207L79.2938 98.8859L73.4673 97.9818L75.175 89.376L84.3166 89.4764H84.3836Z" fill="#3F58B2"/>
<path d="M111.473 50.3318L100.724 57.1963C100.356 57.4307 99.8873 57.5647 99.452 57.5647H94.764C94.764 57.5647 81.8051 100.728 71.659 104.143C64.8614 106.42 56.0882 89.175 52.8066 82.1096C52.003 80.3348 51.5342 79.2298 51.5342 79.2298L65.6316 76.6849L66.0669 77.5221L70.9893 86.7306L85.3881 61.2481C85.3881 61.2481 88.0669 56.761 88.4018 56.2253C89.3394 54.6849 90.3774 52.8432 91.4155 51.5373C93.2572 49.2603 96.5387 49.0259 98.1126 49.1933C98.5479 49.2268 98.8158 50.2983 98.4474 50.5327L96.1034 51.5373C96.1034 51.5373 103.169 51.3364 107.489 49.1933C109.498 48.1887 110.603 48.758 111.473 49.3272C111.842 49.5616 111.842 50.0974 111.473 50.3318Z" fill="white"/>
<path d="M70.3866 104.846C63.8235 104.846 56.3897 91.0167 52.3714 82.344C51.5677 80.5692 51.0655 79.4307 51.0655 79.4307L50.8311 78.8615L65.8995 76.1491L71.0228 85.726L84.9528 61.0472C84.9528 61.0472 87.6652 56.5601 87.9665 56.0243L88.3014 55.4551C89.1385 54.0487 90.0761 52.4414 91.0137 51.2694C93.3912 48.3227 97.6773 48.691 98.1461 48.7245C98.6484 48.7915 98.9498 49.2937 99.0502 49.7625C99.1507 50.2313 99.0837 50.5997 98.8493 50.8676C101.26 50.5997 104.743 50.0304 107.254 48.7915C109.431 47.7199 110.703 48.2892 111.708 48.9254C112.043 49.1263 112.21 49.4612 112.21 49.863C112.21 50.2313 112.043 50.5662 111.708 50.8006L100.925 57.6651C100.457 57.9665 99.9209 58.1339 99.3516 58.1339H95.0655C93.6926 62.5875 81.6378 101.364 71.7595 104.679C71.3577 104.779 70.8554 104.846 70.3866 104.846ZM52.2375 79.6316C52.4384 80.1339 52.8067 80.9376 53.2755 81.9421C55.8874 87.6012 64.9285 105.918 71.4916 103.708C81.2694 100.426 94.1614 57.8995 94.2618 57.4642L94.3623 57.0959H99.3851C99.7534 57.0959 100.088 56.9954 100.39 56.7945L111.139 49.93C111.139 49.93 111.172 49.8965 111.172 49.863C111.172 49.8295 111.172 49.796 111.105 49.7625C110.368 49.2937 109.464 48.7245 107.623 49.6621C103.269 51.8386 96.3044 52.0396 96.0365 52.073L93.4247 52.14L98.0457 50.1644C98.0457 50.0304 97.9787 49.8295 97.9117 49.7291C96.3379 49.5951 93.3577 49.863 91.7169 51.9056C90.8128 53.0106 89.9087 54.5845 89.0715 55.9574L88.7367 56.5266C88.4018 57.0624 85.723 61.5494 85.723 61.5494L70.9894 87.7686L65.3303 77.2207L52.2375 79.6316Z" fill="#3F58B2"/>
<path d="M70.8554 83.7503C70.8554 82.4109 69.6499 82.0426 69.6499 82.0426C70.0518 80.8371 68.4444 80.3348 68.4444 80.3348C67.105 78.9954 62.3166 78.761 60.6088 79.9665C58.9011 81.1719 61.6804 82.0761 61.6804 82.0761C61.1111 84.2526 63.6225 84.0182 63.6225 84.0182C63.6225 84.0182 62.5845 85.8264 65.2968 86.0273C65.0959 86.2283 65.1294 86.9649 65.9665 87.3668C67.4399 88.1035 70.9894 85.6925 70.9894 85.6925C72.1613 84.7214 70.8554 83.7503 70.8554 83.7503Z" fill="white"/>
<path d="M66.6698 88.003C66.3349 88.003 66.0335 87.936 65.7657 87.8021C65.1964 87.5342 64.8281 87.0654 64.7276 86.5631C64.7276 86.5296 64.7276 86.4962 64.6941 86.4292C63.8905 86.2953 63.3547 85.9604 63.0868 85.4581C62.9194 85.1233 62.8859 84.7549 62.9194 84.4535C62.4506 84.3866 61.8479 84.2191 61.4795 83.7504C61.1781 83.382 61.0442 82.9132 61.1112 82.344C60.5419 82.1096 59.6713 81.6073 59.5708 80.8706C59.5039 80.5357 59.6043 80 60.341 79.4977C62.2162 78.1917 67.1386 78.4261 68.7459 79.8325C68.9133 79.8995 69.2482 80.0335 69.5495 80.3013C70.0518 80.7032 70.2862 81.2054 70.2527 81.7077C70.688 81.9756 71.2908 82.4779 71.3912 83.4825C71.6256 83.7169 72.0275 84.1522 72.0275 84.7549C72.0275 85.0898 71.927 85.5921 71.3578 86.0609L71.3243 86.0943C70.755 86.4627 68.3775 88.003 66.6698 88.003ZM65.6987 86.3287C65.6987 86.4292 65.7657 86.6971 66.201 86.9315C67.0381 87.3668 69.3151 86.2283 70.688 85.2907C70.889 85.1233 70.9894 84.9558 70.9894 84.8219C70.9894 84.5205 70.6546 84.2191 70.5541 84.1857L70.3532 84.0517V83.7838C70.3532 82.8462 69.583 82.5784 69.4826 82.5449L69.0138 82.3774L69.1477 81.9086C69.3821 81.2055 68.3106 80.8371 68.2771 80.8036L68.1766 80.7701L68.0762 80.7032C66.9042 79.5312 62.3836 79.3303 60.8768 80.4018C60.5754 80.6027 60.5084 80.7366 60.5419 80.8036C60.5754 81.038 61.2786 81.4733 61.8144 81.6408L62.2497 81.7747L62.1492 82.2435C62.0488 82.6788 62.0823 82.9802 62.2497 83.2146C62.5511 83.5829 63.3212 83.6164 63.5891 83.5829L64.5602 83.5159L64.0914 84.3531C64.0914 84.3531 63.857 84.7884 64.0244 85.0898C64.1584 85.3577 64.6606 85.5586 65.3638 85.5921L66.4019 85.659L65.6987 86.3287Z" fill="#3F58B2"/>
<path d="M66.0669 77.5221L52.8066 82.1096C52.003 80.3349 51.5342 79.2298 51.5342 79.2298L65.6316 76.6849L66.0669 77.5221Z" fill="#3F58B2"/>
<path d="M116.396 76.0487L102.734 76.618L102.466 74.9772L116.195 72.6332L116.396 76.0487Z" fill="#3F58B2"/>
<path d="M86.1583 39.4825C80.5997 37.172 78.4232 30.9772 78.3562 30.7762C80.0974 33.1537 84.0487 35.1294 86.7276 35.3972C86.7946 35.9665 86.0244 35.866 85.9239 36.4353C85.6895 37.3394 86.0579 38.8463 86.1583 39.4825Z" fill="#3F58B2"/>
<path d="M91.0807 29.102H86.0579C86.0579 29.102 89.4064 33.1203 91.0807 29.102Z" fill="#3F58B2"/>
<path d="M66.5357 88.003C65.9664 88.003 65.5311 87.8356 65.1963 87.5342C64.8949 87.2329 64.7609 86.831 64.7609 86.4627C63.9908 86.3622 63.455 86.0943 63.1536 85.6255C62.9192 85.2237 62.8858 84.7884 62.9527 84.4536C62.216 84.3531 61.6803 84.0852 61.3789 83.6164C61.044 83.1476 61.0106 82.6453 61.044 82.277C60.073 81.7747 59.6042 81.2389 59.6377 80.6362C59.6711 79.6986 60.8097 79.2298 60.9436 79.1628L61.3119 80.1004C61.0106 80.2344 60.6422 80.5023 60.6422 80.6362C60.6422 80.7701 60.8766 81.105 61.8142 81.5068L62.216 81.7077L62.0821 82.1431C62.0821 82.1431 61.9147 82.6788 62.1826 83.0472C62.4504 83.4155 63.1202 83.516 63.6224 83.516H64.4261L64.0577 84.2526C64.0577 84.2526 63.7899 84.8219 63.9908 85.1568C64.1582 85.4246 64.5935 85.5586 65.2632 85.5586H65.8995L65.732 86.1948C65.732 86.1948 65.6316 86.6636 65.866 86.8645C65.9999 86.965 66.4017 87.1994 67.6742 86.831L67.9421 87.8021C67.4398 87.936 66.971 88.003 66.5357 88.003Z" fill="#3F58B2"/>
<path d="M64.4366 70.1561L63.4707 70.4321L65.476 77.4509L66.4419 77.1749L64.4366 70.1561Z" fill="#3F58B2"/>
<path d="M102.29 68.5549L101.293 68.6793L102.438 77.8501L103.434 77.7257L102.29 68.5549Z" fill="#3F58B2"/>
<path d="M408.423 78.7276C408.323 78.4262 405.778 71.2603 396.971 67.1416L396.703 67.0076C395.096 66.2709 393.288 65.4338 392.785 61.449C392.384 58.2679 390.341 53.7473 389.102 51.2359C385.62 40.9224 376.98 41.1568 371.69 42.0609C359.467 44.137 362.615 56.828 362.615 56.828C364.122 62.7215 363.653 67.2755 362.247 69.7534C353.574 85.2907 363.218 88.8402 363.218 88.8402C363.62 89.0411 363.988 89.242 364.39 89.4429C367.638 93.1933 373.732 95.7047 382.606 96.9437C387.227 97.5799 391.747 97.7473 394.862 97.7473C397.44 97.7473 398.478 97.3455 398.511 97.3455C399.616 97.0441 400.989 96.7093 402.932 95.0685C406.481 92.0213 411.035 86.3957 408.423 78.7276ZM404.706 92.0213C403.936 92.8919 403.132 93.6621 402.396 94.3318C400.788 95.7047 398.578 96.0731 398.177 96.207C396.569 96.6758 376.411 97.7808 367.069 90.6149C378.152 94.968 391.848 94.8341 391.848 94.8341C403.735 94.0304 405.644 82.8128 405.644 82.8128C407.452 75.2785 396.034 69.1172 396.034 69.1172C389.738 66.3379 390.676 63.0898 390.609 60.5449C390.542 58.8706 390.408 57.3638 390.207 55.9909C390.977 57.8995 391.647 59.9422 391.848 61.5495C392.417 66.07 394.56 67.0746 396.301 67.8782L396.569 68.0122C405.008 71.93 407.486 78.962 407.519 79.0289C409.093 83.6499 408.155 88.0031 404.706 92.0213Z" fill="#3F58B2"/>
<path d="M384.381 85.5586L381.333 61.8508C381.333 61.8508 383.979 57.8326 381.769 55.6225C380.898 54.7519 378.621 54.3501 377.817 57.1963C377.817 57.1963 373.297 53.9147 372.862 49.796C372.862 49.796 370.116 54.6179 363.184 53.6469C363.184 53.6469 360.104 72.1978 370.451 72.0639V86.1613L384.381 85.5586Z" fill="white"/>
<path d="M369.948 86.6971V72.5662C367.973 72.4658 366.332 71.6956 365.093 70.2557C360.807 65.2664 362.615 54.0487 362.715 53.5799L362.782 53.1111L363.251 53.1781C369.781 54.0822 372.393 49.5951 372.426 49.5617L373.196 48.2222L373.364 49.7626C373.699 52.7763 376.411 55.3881 377.583 56.3927C378.085 55.2207 378.889 54.7519 379.492 54.618C380.53 54.3501 381.568 54.7854 382.104 55.3212C384.314 57.5312 382.338 61.1811 381.836 62.0183L384.95 86.0944L369.948 86.6971ZM370.953 71.5616V85.6591L383.811 85.0898L380.798 61.7169L380.898 61.5495C380.932 61.516 383.276 57.8326 381.4 55.9574C381.065 55.6225 380.396 55.3546 379.76 55.5221C379.09 55.6895 378.588 56.3257 378.32 57.2968L378.119 58L377.55 57.5647C377.382 57.4308 373.632 54.6849 372.627 50.968C371.388 52.3409 368.575 54.6849 363.653 54.1827C363.352 56.3592 362.381 65.5008 365.897 69.586C367.035 70.9254 368.575 71.5951 370.484 71.5616H370.953Z" fill="#3F58B2"/>
<path d="M373.598 291.963H363.519L362.146 283.626L360.74 275.053L372.694 274.886L373.062 282.286L373.598 291.963Z" fill="white"/>
<path d="M374.1 292.466H363.084L360.17 274.551L373.196 274.384L374.1 292.466ZM363.921 291.461H373.029L372.192 275.388L361.309 275.556L363.921 291.461Z" fill="#3F58B2"/>
<path d="M373.464 288.514C372.593 289.419 368.977 292.466 363.05 288.347C362.983 288.314 362.916 288.314 362.883 288.347L346.508 297.12C345.738 297.522 346.039 298.694 346.91 298.694H373.665C374.904 298.694 375.808 297.556 375.54 296.35L373.799 288.648C373.732 288.481 373.565 288.414 373.464 288.514Z" fill="#3F58B2"/>
<path d="M373.062 282.286L362.146 283.626L360.74 275.053L372.694 274.886L373.062 282.286Z" fill="#3F58B2"/>
<path d="M353.54 139.169L348.183 201.151C348.015 203.193 348.082 205.202 348.384 207.245L359.434 280.244H377.784L372.326 210.091L381.534 139.169H353.54Z" fill="#3F58B2"/>
<path d="M408.088 291.963H398.009L396.033 283.826L393.89 275.053L405.845 274.886L406.816 282.286L408.088 291.963Z" fill="white"/>
<path d="M408.657 292.466H397.607L393.254 274.551L406.28 274.384L408.657 292.466ZM398.377 291.461H407.486L405.376 275.388L394.493 275.556L398.377 291.461Z" fill="#3F58B2"/>
<path d="M406.816 282.286L396.033 283.826L393.89 275.053L405.845 274.886L406.816 282.286Z" fill="#3F58B2"/>
<path d="M407.619 288.514C406.749 289.419 403.132 292.466 397.205 288.347C397.138 288.314 397.071 288.314 397.038 288.347L380.663 297.12C379.893 297.522 380.195 298.694 381.065 298.694H407.82C409.059 298.694 409.963 297.556 409.695 296.35L407.954 288.648C407.887 288.481 407.72 288.414 407.619 288.514Z" fill="#3F58B2"/>
<path d="M363.218 137.963L372.091 196.329C372.292 197.568 372.527 198.773 372.828 199.979L393.79 280.244H410.533L395.096 195.056C395.096 195.056 400.42 156.146 393.555 140.575L363.218 137.963Z" fill="#5B74CF"/>
<path d="M411.136 280.746H393.388L372.359 200.113C372.058 198.907 371.79 197.668 371.589 196.396L362.615 137.394L393.89 140.073L394.024 140.341C400.788 155.644 395.933 192.511 395.598 195.023L411.136 280.746ZM394.192 279.741H409.93L394.56 195.056V194.989C394.627 194.588 399.75 156.481 393.187 141.044L363.787 138.533L372.56 196.262C372.728 197.467 372.996 198.673 373.297 199.878L394.192 279.741Z" fill="#5B74CF"/>
<path d="M377.65 55.8234L375.172 55.8904V54.7519H374.971H374.435H368.877H368.307H368.14V55.8569H367.035V54.7519H366.834H366.298H360.74H360.17H360.003L359.969 57.4977C359.969 59.4399 361.51 61.0137 363.452 61.0472C363.619 61.0472 363.787 61.0472 363.954 61.0137C365.662 60.7793 366.968 59.3059 367.001 57.5647V56.6271H368.106V57.5312C368.106 59.4733 369.647 61.0472 371.589 61.0807C371.756 61.0807 371.924 61.0807 372.091 61.0472C373.799 60.8128 375.105 59.3394 375.138 57.5982V56.694L377.583 56.6271L377.65 55.8234ZM366.298 57.4977C366.298 59.038 365.026 60.277 363.519 60.2435C361.979 60.2435 360.74 58.9711 360.773 57.4642V55.4551H366.332L366.298 57.4977ZM374.435 57.4977C374.435 59.038 373.163 60.277 371.656 60.2435C370.116 60.2435 368.877 58.9711 368.91 57.4642V55.4551H374.469V56.2587V56.5936L374.435 57.4977Z" fill="#3F58B2"/>
<path d="M356.521 101.766L349.589 111.443L345.269 117.47C344.298 118.843 342.457 119.312 340.95 118.609L307.062 103.473L304.752 102.703L300.466 102.904C299.16 102.971 297.921 102.301 297.218 101.196L294.304 96.4414L294.941 92.6241L302.81 92.0548L312.119 96.1735L314.396 97.3455L339.543 105.449L341.72 102.402L347.346 94.5662L356.521 101.766Z" fill="white"/>
<path d="M342.423 119.446C341.854 119.446 341.284 119.312 340.749 119.078L306.895 103.942L304.685 103.205L300.499 103.406C298.992 103.473 297.586 102.737 296.816 101.464L293.802 96.5754L294.539 92.1888L302.91 91.586L312.353 95.7382L314.597 96.8767L339.376 104.88L347.278 93.8295L357.224 101.699L345.705 117.805C344.901 118.843 343.662 119.446 342.423 119.446ZM304.819 102.201L307.263 103.038L341.117 118.174C342.423 118.776 343.997 118.374 344.834 117.202L355.817 101.9L347.446 95.2694L339.744 106.052L314.931 98.0487V98.1827L314.195 97.8143L311.918 96.6423L302.743 92.5906L295.409 93.1263L294.874 96.3409L297.686 100.928C298.289 101.9 299.327 102.469 300.466 102.402L304.819 102.201Z" fill="#3F58B2"/>
<path d="M253.05 84.4536L302.341 97.4795C303.178 97.7139 304.015 97.2116 304.25 96.3744C304.484 95.5373 303.982 94.7002 303.145 94.4658L253.82 81.4399C252.983 81.2055 252.146 81.7078 251.912 82.5449C251.711 83.382 252.213 84.2192 253.05 84.4536Z" fill="#3F58B2"/>
<path d="M292.63 95.5708C292.563 96.207 292.664 97.0777 293.367 97.6469C293.367 97.6469 292.797 99.1203 293.936 99.8235C293.936 99.8235 293.233 100.962 294.505 102C294.505 102 294.472 102.837 295.443 103.206L302.676 102.804L302.642 98.0822C302.642 97.2786 302.073 96.5754 301.269 96.408L293.601 94.8341C293.132 94.7002 292.664 95.0685 292.63 95.5708Z" fill="white"/>
<path d="M295.409 103.708L295.309 103.674C294.438 103.339 294.137 102.703 294.07 102.268C293.233 101.464 293.199 100.594 293.367 99.9909C292.697 99.3547 292.697 98.4171 292.831 97.8143C292.295 97.2451 292.061 96.4749 292.161 95.5708C292.195 95.169 292.396 94.8341 292.697 94.5997C292.999 94.3653 293.4 94.2649 293.769 94.3653L301.437 95.9391C302.475 96.14 303.212 97.0776 303.212 98.1157L303.245 103.306L295.409 103.708ZM293.132 95.6378C293.066 96.3745 293.266 96.9102 293.702 97.2786L293.97 97.513L293.836 97.8478C293.836 97.8813 293.434 98.9528 294.204 99.4216L294.639 99.6895L294.371 100.125C294.304 100.259 293.97 100.928 294.84 101.632L295.041 101.799V102.034C295.041 102.067 295.075 102.469 295.577 102.703L302.207 102.335L302.174 98.0822C302.174 97.513 301.772 97.0107 301.202 96.8767L293.534 95.3029C293.4 95.2694 293.3 95.3364 293.266 95.3699C293.166 95.4369 293.132 95.5038 293.132 95.6378Z" fill="#3F58B2"/>
<path d="M356.521 101.766L349.589 111.443L341.72 102.402L347.346 94.5327L356.521 101.766Z" fill="#3F58B2"/>
<path d="M412.207 96.4079L403.4 107.324L401.157 110.137L393.79 104.277L393.589 105.248L393.455 105.817L391.111 116.332L391.412 118.207L393.455 131.065L395.096 141.379L395.464 143.756C385.419 140.91 376.779 143.556 370.551 145.364C357.291 149.282 352.603 139.403 352.603 139.403L352.67 139.202L352.737 139.035L359.668 114.959L357.659 104.076L354.31 109.266L342.189 100.56L353.741 82.9802C354.88 81.2389 356.588 79.9665 358.563 79.3303L370.618 75.5464C375.708 82.5114 382.639 74.9437 382.639 74.9437L398.913 81.4733C399.75 81.8082 400.487 82.344 401.09 83.0472L412.207 96.4079Z" fill="#FFEED6"/>
<path d="M364.725 146.837C355.683 146.837 352.201 139.738 352.167 139.671L352.1 139.504L352.268 138.935L359.166 114.992L357.391 105.482L354.444 110.037L341.486 100.761L353.306 82.7793C354.511 80.9376 356.32 79.5647 358.396 78.9285L370.785 75.0442L370.986 75.3455C372.225 77.0533 373.699 77.9909 375.373 78.0913C378.889 78.2922 382.204 74.7428 382.237 74.7093L382.472 74.4414L382.807 74.5753L399.081 81.105C399.985 81.4734 400.822 82.0761 401.458 82.8128L412.877 96.4749L401.257 110.907L394.125 105.248L393.957 106.018L391.647 116.432L396.101 144.56L395.33 144.359C385.586 141.613 377.181 144.091 371.02 145.9L370.685 146C368.475 146.536 366.499 146.837 364.725 146.837ZM353.139 139.37C353.808 140.642 358.496 148.411 370.417 144.928L370.752 144.828C376.846 143.02 385.151 140.575 394.862 143.087L390.609 116.298L393.489 103.373L401.09 109.434L411.571 96.4079L400.655 83.382C400.119 82.7458 399.449 82.2435 398.679 81.9422L382.706 75.5464C381.836 76.4171 378.755 79.1964 375.306 78.9954C373.431 78.895 371.79 77.9239 370.384 76.1492L358.664 79.8326C356.788 80.4018 355.181 81.6408 354.11 83.2816L342.825 100.46L354.143 108.563L357.894 102.737L360.171 114.992L360.137 115.093L353.139 139.37Z" fill="#3F58B2"/>
<path d="M423.492 120.919L397.105 140.006L395.464 142.618L391.814 143.924C391.345 144.158 390.843 144.292 390.341 144.326L385.418 143.957C384.079 143.288 385.084 142.618 385.084 142.618C383.376 142.551 383.443 141.212 383.744 140.944C382.405 139.604 384.079 138.6 384.079 138.6C383.075 137.26 384.414 136.591 384.414 136.591L387.762 135.251L393.79 133.912C393.522 132.606 393.489 131.501 393.455 131.065C393.455 130.965 393.455 130.898 393.455 130.898L395.464 133.242L412.642 115.662L406.447 110.07L403.4 107.324L411.604 97.1446L412.676 98.3166L424.496 111.376C427.041 114.222 426.572 118.676 423.492 120.919Z" fill="white"/>
<path d="M390.308 144.828L385.285 144.426L385.184 144.393C384.582 144.091 384.247 143.69 384.213 143.254C384.213 143.154 384.213 143.053 384.247 142.953C383.51 142.685 383.242 142.183 383.175 141.915C383.075 141.613 383.075 141.279 383.142 140.977C382.74 140.475 382.706 139.973 382.74 139.671C382.807 139.135 383.142 138.7 383.41 138.466C383.209 138.064 383.142 137.662 383.242 137.294C383.41 136.524 384.113 136.189 384.18 136.122L384.213 136.088L387.629 134.715L393.187 133.476C393.02 132.405 392.953 131.501 392.919 131.032C392.919 130.898 392.919 130.831 392.919 130.831V129.492L395.464 132.438L411.906 115.629L402.697 107.358L411.571 96.3409L424.865 111.008C426.171 112.481 426.807 114.423 426.606 116.399C426.405 118.341 425.367 120.149 423.76 121.288L397.44 140.307L395.766 142.986L391.982 144.359C391.48 144.661 390.944 144.795 390.308 144.828ZM385.553 143.455L390.308 143.823C390.743 143.79 391.178 143.689 391.547 143.489L391.613 143.455L395.096 142.183L396.67 139.638L396.737 139.571L423.123 120.484C424.496 119.513 425.367 117.973 425.534 116.298C425.702 114.624 425.166 112.95 424.061 111.711L411.571 97.9148L404.037 107.257L413.312 115.595L395.364 133.945L393.991 132.338C394.024 132.773 394.125 133.242 394.225 133.778L394.326 134.247L387.863 135.686L384.582 136.992C384.481 137.059 384.247 137.227 384.18 137.495C384.146 137.696 384.213 137.963 384.448 138.265L384.782 138.7L384.314 139.002C384.146 139.102 383.744 139.437 383.711 139.805C383.677 140.04 383.811 140.307 384.079 140.575L384.448 140.944L384.079 141.279C384.046 141.346 384.046 141.513 384.146 141.68C384.28 141.915 384.615 142.082 385.084 142.082L386.624 142.149L385.352 142.986C385.285 143.02 385.218 143.12 385.218 143.154C385.218 143.187 385.251 143.321 385.553 143.455Z" fill="#3F58B2"/>
<path d="M412.676 98.3501L406.448 110.07L403.4 107.324L411.604 97.1446L412.676 98.3501Z" fill="#3F58B2"/>
<path d="M365.997 65.9361H371.02C371.02 65.9361 367.002 69.6195 365.997 65.9361Z" fill="#3F58B2"/>
<path d="M387.609 97.872L386.956 98.6359L400.833 110.489L401.486 109.725L387.609 97.872Z" fill="#3F58B2"/>
<path d="M301.504 103.205C301.37 103.205 301.236 103.205 301.203 103.205L301.269 102.536C301.604 102.569 302.341 102.536 302.542 102.234C302.676 102.034 302.542 101.665 302.408 101.431L302.308 101.263L302.441 101.096C302.475 101.062 302.944 100.393 302.508 99.9574L302.308 99.7565L302.475 99.5221C302.508 99.4886 302.977 98.7854 302.508 98.3166L302.374 98.1827L302.441 97.9818C302.441 97.9818 302.542 97.5799 302.341 97.2451C302.14 96.9437 301.738 96.7428 301.102 96.6758L301.203 96.0061C302.04 96.1066 302.609 96.4079 302.91 96.9102C303.178 97.312 303.178 97.7474 303.145 97.9818C303.58 98.551 303.413 99.2207 303.212 99.656C303.58 100.192 303.413 100.862 303.178 101.263C303.413 101.799 303.446 102.234 303.212 102.603C302.743 103.139 301.973 103.205 301.504 103.205Z" fill="#3F58B2"/>
<path d="M359.132 114.591C355.482 98.2496 356.587 92.6575 356.621 92.4566L357.592 92.6575L357.09 92.5571L357.592 92.6575C357.592 92.7245 356.487 98.3501 360.103 114.39L359.132 114.591Z" fill="#3F58B2"/>
<path d="M370.618 72.6332L370.417 71.6621C374.837 70.7245 376.746 67.2755 376.779 67.2085L377.65 67.6773C377.583 67.8447 375.473 71.5951 370.618 72.6332Z" fill="#3F58B2"/>
<path d="M388.418 137.941L384.078 138.275L384.129 138.942L388.47 138.609L388.418 137.941Z" fill="#3F58B2"/>
<path d="M388.421 140.285L383.745 140.619L383.793 141.287L388.469 140.953L388.421 140.285Z" fill="#3F58B2"/>
<path d="M388.379 141.944L385.047 142.278L385.114 142.944L388.446 142.611L388.379 141.944Z" fill="#3F58B2"/>
<path d="M466.119 298.661H0V300H466.119V298.661Z" fill="#3F58B2"/>
</svg>
