<svg width="374" height="256" viewBox="0 0 374 256" fill="none" xmlns="http://www.w3.org/2000/svg">
<path d="M274.241 0.383972H76.8738V138.618H274.241V0.383972Z" fill="white"/>
<path d="M274.625 139.002H76.4897V0H274.625V139.002ZM77.2577 138.234H273.857V0.767967H77.2577V138.234Z" fill="#3F58B3"/>
<path d="M274.241 0.383972H76.8738V14.2074H274.241V0.383972Z" fill="white"/>
<path d="M274.625 14.5914H76.4897V0H274.625V14.5914ZM77.2577 13.8234H273.857V0.767967H77.2577V13.8234Z" fill="#3F58B3"/>
<path d="M87.881 7.55164C87.881 8.83159 87.5226 9.85554 85.5771 9.85554C84.2971 9.85554 83.2732 8.83159 83.2732 7.55164C83.2732 6.2717 84.2971 5.24774 85.5771 5.24774C86.857 5.24774 87.881 6.2717 87.881 7.55164Z" fill="#374FAC"/>
<path d="M96.8402 7.55164C96.8402 8.83159 95.8163 9.85554 94.5363 9.85554C93.9475 9.85554 92.2324 8.83159 92.2324 7.55164C92.2324 6.2717 93.2564 5.24774 94.5363 5.24774C95.8163 5.24774 96.8402 6.2717 96.8402 7.55164Z" fill="#374FAC"/>
<path d="M105.8 7.55164C105.8 8.83159 104.776 9.85554 103.496 9.85554C102.908 9.85554 101.192 8.83159 101.192 7.55164C101.192 6.2717 102.216 5.24774 103.496 5.24774C104.776 5.24774 105.8 6.2717 105.8 7.55164Z" fill="#374FAC"/>
<path d="M365.783 170.975C364.862 179.372 362.891 189.637 359.153 201.975L356.312 201.617C356.312 201.617 356.414 197.649 356.696 191.736C357.387 176.018 359.204 146.375 363.07 139.412C363.07 139.412 368.241 148.525 365.783 170.975Z" fill="white"/>
<path d="M359.435 202.411L355.928 201.975V201.617C355.928 201.566 356.03 197.598 356.312 191.71C357.054 175.096 358.872 146.17 362.737 139.207L363.07 138.618L363.403 139.207C363.608 139.591 368.625 148.704 366.168 171.001C365.144 180.421 362.891 190.891 359.512 202.078L359.435 202.411ZM356.696 201.284L358.872 201.566C362.2 190.533 364.376 180.216 365.4 170.924C367.447 152.262 364.145 142.791 363.045 140.282C359.486 148.166 357.771 175.711 357.054 191.761C356.85 196.625 356.747 200.183 356.696 201.284Z" fill="#374FAC"/>
<path d="M358.129 205.713H357.361C357.72 167.903 362.66 139.437 362.711 139.156L363.479 139.284C363.403 139.565 358.462 167.954 358.129 205.713Z" fill="#374FAC"/>
<path d="M365.784 170.975C364.862 179.372 362.891 189.637 359.154 201.975L356.312 201.617C356.312 201.617 356.414 197.649 356.696 191.736C359.64 182.981 363.301 175.557 365.784 170.975Z" fill="#374FAC"/>
<path d="M356.849 200.747C356.849 200.747 366.807 173.535 373.028 166.802C373.028 166.802 377.123 183.519 358.974 201.643L356.849 200.747Z" fill="white"/>
<path d="M359.076 202.078L356.363 200.951L356.491 200.619C356.9 199.492 366.551 173.279 372.746 166.546L373.232 166.009L373.412 166.7C373.463 166.879 374.436 171.026 373.181 177.477C372.029 183.416 368.701 192.453 359.255 201.899L359.076 202.078ZM357.336 200.516L358.897 201.156C368.061 191.915 371.313 183.109 372.439 177.324C373.36 172.613 373.028 169.106 372.797 167.622C367.063 174.661 358.487 197.444 357.336 200.516Z" fill="#374FAC"/>
<path d="M340.313 149.344C340.313 149.344 355.596 171.564 357.029 201.617H356.492C356.492 201.617 337.113 169.26 340.313 149.344Z" fill="white"/>
<path d="M357.413 202.001H356.261L356.158 201.822C356.107 201.745 351.243 193.579 346.84 183.109C342.77 173.407 338.265 159.686 339.929 149.293L340.082 148.346L340.62 149.139C340.671 149.19 344.511 154.822 348.479 164.063C352.139 172.588 356.67 186.027 357.387 201.591L357.413 202.001ZM340.543 150.419C338.316 168.902 354.571 197.547 356.593 201.054C355.211 175.02 343.282 154.745 340.543 150.419Z" fill="#374FAC"/>
<path d="M356.107 201.694C351.55 171.717 340.082 149.754 339.979 149.549L340.671 149.19C340.799 149.421 352.318 171.461 356.9 201.591L356.107 201.694Z" fill="#374FAC"/>
<path d="M356.773 204.868L356.056 204.612C363.966 182.085 372.619 166.751 372.695 166.598L373.361 166.982C373.259 167.11 364.657 182.392 356.773 204.868Z" fill="#374FAC"/>
<path d="M367.678 199.671L366.526 213.981L363.25 254.069H350.63L346.175 199.671H367.678Z" fill="white"/>
<path d="M363.608 254.453H350.271L345.765 199.287H368.113L363.608 254.453ZM350.988 253.685H362.891L367.268 200.055H346.584L350.988 253.685Z" fill="#374FAC"/>
<path d="M366.526 213.981L363.249 254.069H354.469L366.526 213.981Z" fill="#374FAC"/>
<path d="M210.133 55.1884C210.133 35.1675 193.898 18.9324 173.843 18.9665C153.89 19.0007 137.519 35.5767 137.689 55.5294C137.791 66.205 142.532 75.7891 149.968 82.3718C151.093 83.3609 152.116 84.4182 153.037 85.5779C155.936 89.1932 159.654 95.6395 159.654 104.917H170.227H177.56H188.134C188.134 95.1279 192.226 88.5111 195.194 85.0322C195.944 84.1454 196.797 83.3268 197.684 82.5423C205.324 75.8573 210.133 66.0686 210.133 55.1884Z" fill="white"/>
<path d="M188.646 105.394H159.177V104.883C159.177 95.8442 155.664 89.5685 152.697 85.8849C151.844 84.8276 150.855 83.8044 149.662 82.7471C141.851 75.8574 137.315 65.9322 137.212 55.5295C137.11 45.7408 140.896 36.4636 147.888 29.4034C154.846 22.3432 164.089 18.455 173.878 18.455C173.912 18.455 173.912 18.455 173.946 18.455C183.735 18.455 192.944 22.275 199.901 29.1988C206.859 36.1225 210.679 45.3656 210.679 55.1884C210.679 65.7958 206.075 75.8915 198.06 82.8835C197.139 83.7021 196.32 84.4865 195.638 85.3051C192.466 89.0569 188.68 95.469 188.68 104.883V105.394H188.646ZM160.201 104.371H187.657C187.793 94.9233 191.613 88.443 194.854 84.6571C195.57 83.8044 196.422 82.9517 197.377 82.099C205.154 75.3117 209.622 65.4888 209.622 55.1884C209.622 45.6384 205.904 36.6683 199.151 29.915C192.398 23.1959 183.462 19.4782 173.946 19.4782C173.912 19.4782 173.912 19.4782 173.878 19.4782C164.362 19.5123 155.392 23.2641 148.638 30.1197C141.851 36.9752 138.167 45.9795 138.27 55.4954C138.372 65.6253 142.772 75.2435 150.378 81.9285C151.606 82.9858 152.629 84.0772 153.516 85.1687C156.483 88.9546 160.064 95.2985 160.201 104.371Z" fill="#4D67CA"/>
<path d="M191.34 67.5693C190.146 65.5229 187.315 62.6238 181.824 65.557C181.381 65.2841 180.528 64.8748 179.437 64.6361C177.458 64.1586 175.446 64.4315 173.638 65.3523C173.161 65.1136 172.479 64.8407 171.66 64.6361C169.614 64.1586 167.567 64.4314 165.726 65.4206C160.405 62.692 157.676 65.557 156.483 67.5693C155.63 69.0359 155.596 71.7645 156.38 76.0279C156.96 79.2681 158.051 83.3268 159.586 88.1359C162.178 96.2876 165.214 103.859 165.214 103.962L166.578 103.416C166.544 103.348 163.543 95.8101 160.985 87.6926C156.551 73.6404 157.062 69.5134 157.779 68.3197C159.279 65.7957 161.53 65.1477 164.464 66.4097C164.191 66.7166 163.952 67.0918 163.747 67.5352C163.304 68.5243 163.065 69.8545 163.065 71.2188C163.065 72.6172 163.304 73.9132 163.747 74.9024C164.293 76.0961 165.043 76.7441 165.93 76.7441C166.817 76.7441 167.601 76.0961 168.113 74.9024C168.556 73.9132 168.795 72.5831 168.795 71.2188C168.795 69.8204 168.556 68.5243 168.113 67.5352C167.874 67.0236 167.601 66.6143 167.294 66.3073C169.443 65.4888 171.353 65.9322 172.479 66.4097C172.206 66.7166 171.967 67.0918 171.763 67.5352C171.319 68.5243 171.08 69.8545 171.08 71.2188C171.08 72.6172 171.319 73.9132 171.763 74.9024C172.308 76.0961 173.059 76.7441 173.945 76.7441C174.832 76.7441 175.617 76.0961 176.128 74.9024C176.572 73.9132 176.81 72.5831 176.81 71.2188C176.81 69.8204 176.572 68.5243 176.128 67.5352C175.889 66.9895 175.583 66.5461 175.242 66.2391C177.322 65.4888 179.198 65.9663 180.289 66.4438C180.017 66.7166 179.778 67.0918 179.573 67.5352C179.13 68.5243 178.891 69.8545 178.891 71.2188C178.891 72.6172 179.13 73.9132 179.573 74.9024C180.119 76.0961 180.869 76.7441 181.756 76.7441C182.643 76.7441 183.427 76.0961 183.939 74.9024C184.382 73.9132 184.621 72.5831 184.621 71.2188C184.621 69.8204 184.382 68.5243 183.939 67.5352C183.734 67.0918 183.53 66.7507 183.257 66.4438C186.224 65.1136 188.509 65.7275 190.01 68.2856C190.726 69.4793 191.238 73.6063 186.804 87.6243C184.246 95.7418 181.244 103.28 181.21 103.348L182.575 103.893C182.609 103.825 185.644 96.2535 188.202 88.0677C189.737 83.2586 190.794 79.1999 191.408 75.9597C192.227 71.7645 192.193 69.0018 191.34 67.5693ZM165.896 75.2775C165.419 75.2775 164.464 73.845 164.464 71.2188C164.464 68.5925 165.419 67.16 165.896 67.16C166.374 67.16 167.329 68.5925 167.329 71.2188C167.329 73.845 166.374 75.2775 165.896 75.2775ZM175.378 71.2188C175.378 73.845 174.423 75.2775 173.945 75.2775C173.468 75.2775 172.513 73.845 172.513 71.2188C172.513 68.5925 173.468 67.16 173.945 67.16C174.423 67.16 175.378 68.5925 175.378 71.2188ZM181.79 75.2775C181.313 75.2775 180.358 73.845 180.358 71.2188C180.358 68.5925 181.313 67.16 181.79 67.16C182.268 67.16 183.223 68.5925 183.223 71.2188C183.223 73.845 182.268 75.2775 181.79 75.2775Z" fill="#4D67CA"/>
<path d="M167.533 116.854V119.105C167.533 122.652 170.432 125.552 173.979 125.552C177.526 125.552 180.425 122.652 180.425 119.105V116.854H167.533Z" fill="#4D67CA"/>
<path d="M188.714 102.938H159.314V117.093H188.714V102.938Z" fill="#4D67CA"/>
<path d="M161.224 120.845H186.634C188.441 120.845 189.908 119.378 189.908 117.571C189.908 115.763 188.441 114.296 186.634 114.296H161.224C159.416 114.296 157.949 115.763 157.949 117.571C157.949 119.378 159.416 120.845 161.224 120.845Z" fill="white"/>
<path d="M186.634 121.356H161.224C159.143 121.356 157.438 119.651 157.438 117.571C157.438 115.49 159.143 113.785 161.224 113.785H186.634C188.714 113.785 190.419 115.49 190.419 117.571C190.419 119.651 188.714 121.356 186.634 121.356ZM161.224 114.808C159.689 114.808 158.461 116.07 158.461 117.571C158.461 119.071 159.723 120.333 161.224 120.333H186.634C188.168 120.333 189.396 119.071 189.396 117.571C189.396 116.07 188.134 114.808 186.634 114.808H161.224Z" fill="#4D67CA"/>
<path d="M159.552 104.61H188.373C190.18 104.61 191.647 103.143 191.647 101.335C191.647 99.5276 190.18 98.061 188.373 98.061H159.552C157.744 98.061 156.278 99.5276 156.278 101.335C156.244 103.109 157.71 104.61 159.552 104.61Z" fill="white"/>
<path d="M188.373 105.121H159.552C157.472 105.121 155.766 103.416 155.766 101.335C155.766 99.2548 157.472 97.5494 159.552 97.5494H188.373C190.453 97.5494 192.159 99.2548 192.159 101.335C192.159 103.416 190.453 105.121 188.373 105.121ZM159.552 98.5386C158.017 98.5386 156.79 99.8005 156.79 101.301C156.79 102.802 158.052 104.064 159.552 104.064H188.373C189.908 104.064 191.135 102.802 191.135 101.301C191.135 99.8005 189.874 98.5386 188.373 98.5386H159.552Z" fill="#4D67CA"/>
<path d="M159.552 112.727H188.373C190.18 112.727 191.647 111.261 191.647 109.453C191.647 107.645 190.18 106.179 188.373 106.179H159.552C157.744 106.179 156.278 107.645 156.278 109.453C156.244 111.261 157.71 112.727 159.552 112.727Z" fill="white"/>
<path d="M188.373 113.239H159.552C157.472 113.239 155.766 111.533 155.766 109.453C155.766 107.372 157.472 105.667 159.552 105.667H188.373C190.453 105.667 192.159 107.372 192.159 109.453C192.159 111.533 190.453 113.239 188.373 113.239ZM159.552 106.656C158.017 106.656 156.79 107.918 156.79 109.419C156.79 110.954 158.052 112.181 159.552 112.181H188.373C189.908 112.181 191.135 110.919 191.135 109.419C191.135 107.884 189.874 106.656 188.373 106.656H159.552Z" fill="#4D67CA"/>
<path d="M351.933 20.0952H318.808C317.835 20.0952 317.042 20.8887 317.042 21.8615V36.2737C317.042 37.2464 317.835 38.04 318.808 38.04H321.035V43.8509L326.36 38.04H351.933C352.906 38.04 353.699 37.2464 353.699 36.2737V21.8615C353.699 20.8887 352.906 20.0952 351.933 20.0952Z" fill="white"/>
<path d="M320.652 44.8493V38.4496H318.809C317.631 38.4496 316.658 37.4768 316.658 36.2992V21.8871C316.658 20.7095 317.631 19.7368 318.809 19.7368H351.934C353.111 19.7368 354.084 20.7095 354.084 21.8871V36.2992C354.084 37.4768 353.111 38.4496 351.934 38.4496H326.54L320.652 44.8493ZM318.809 20.4791C318.041 20.4791 317.426 21.0935 317.426 21.8615V36.2736C317.426 37.0416 318.041 37.656 318.809 37.656H321.42V42.8782L326.207 37.6816H351.934C352.702 37.6816 353.316 37.0672 353.316 36.2992V21.8871C353.316 21.1191 352.702 20.5047 351.934 20.5047H318.809V20.4791Z" fill="#2241B0"/>
<path d="M333.554 24.0892H320.678V25.5739H333.554V24.0892Z" fill="white"/>
<path d="M333.81 25.8293H320.422V23.8326H333.81V25.8293ZM320.934 25.3173H333.298V24.3446H320.934V25.3173Z" fill="#4D67CA"/>
<path d="M350.065 28.2362H320.678V29.7209H350.065V28.2362Z" fill="white"/>
<path d="M350.321 29.9763H320.422V27.9796H350.321V29.9763ZM320.934 29.4644H349.809V28.4916H320.934V29.4644Z" fill="#4D67CA"/>
<path d="M350.065 32.4088H320.678V33.8935H350.065V32.4088Z" fill="white"/>
<path d="M350.321 34.1489H320.422V32.1522H350.321V34.1489ZM320.934 33.637H349.809V32.6642H320.934V33.637Z" fill="#4D67CA"/>
<path d="M20.9658 74.9024H54.0907C55.0635 74.9024 55.8571 75.696 55.8571 76.6687V91.0809C55.8571 92.0537 55.0635 92.8472 54.0907 92.8472H51.8637V98.6838L46.539 92.8728H20.9658C19.993 92.8728 19.1995 92.0793 19.1995 91.1065V76.6943C19.1995 75.696 19.993 74.9024 20.9658 74.9024Z" fill="white"/>
<path d="M52.2474 99.6821L46.3596 93.2824H20.9655C19.7879 93.2824 18.8152 92.3096 18.8152 91.1321V76.7199C18.8152 75.5423 19.7879 74.5696 20.9655 74.5696H54.0904C55.268 74.5696 56.2408 75.5423 56.2408 76.7199V91.1321C56.2408 92.3096 55.268 93.2824 54.0904 93.2824H52.2474V99.6821ZM20.9655 75.2864C20.1975 75.2864 19.5832 75.9007 19.5832 76.6687V91.0809C19.5832 91.8488 20.1975 92.4632 20.9655 92.4632H46.6924L51.4794 97.6598V92.4632H54.0904C54.8584 92.4632 55.4729 91.8488 55.4729 91.0809V76.6687C55.4729 75.9007 54.8584 75.2864 54.0904 75.2864H20.9655Z" fill="#4D67CA"/>
<path d="M29.8228 85.6022C30.7701 85.6022 31.538 84.8344 31.538 83.8871C31.538 82.9399 30.7701 82.172 29.8228 82.172C28.8756 82.172 28.1077 82.9399 28.1077 83.8871C28.1077 84.8344 28.8756 85.6022 29.8228 85.6022Z" fill="white"/>
<path d="M29.8222 85.8843C28.7215 85.8843 27.8511 84.9883 27.8511 83.9132C27.8511 82.838 28.7471 81.9421 29.8222 81.9421C30.8974 81.9421 31.7934 82.838 31.7934 83.9132C31.7934 84.9883 30.8974 85.8843 29.8222 85.8843ZM29.8222 82.4285C29.0031 82.4285 28.3631 83.094 28.3631 83.8876C28.3631 84.6812 29.0287 85.3467 29.8222 85.3467C30.6414 85.3467 31.2814 84.6812 31.2814 83.8876C31.2814 83.094 30.6158 82.4285 29.8222 82.4285Z" fill="#4D67CA"/>
<path d="M37.2462 85.6032C38.1934 85.6032 38.9614 84.8353 38.9614 83.8881C38.9614 82.9409 38.1934 82.173 37.2462 82.173C36.2989 82.173 35.531 82.9409 35.531 83.8881C35.531 84.8353 36.2989 85.6032 37.2462 85.6032Z" fill="white"/>
<path d="M37.2461 85.8843C36.1453 85.8843 35.2749 84.9883 35.2749 83.9132C35.2749 82.838 36.1709 81.9421 37.2461 81.9421C38.3212 81.9421 39.2172 82.838 39.2172 83.9132C39.2172 84.9883 38.3468 85.8843 37.2461 85.8843ZM37.2461 82.4285C36.4269 82.4285 35.7869 83.094 35.7869 83.8876C35.7869 84.6812 36.4525 85.3467 37.2461 85.3467C38.0396 85.3467 38.7053 84.6812 38.7053 83.8876C38.7053 83.094 38.0652 82.4285 37.2461 82.4285Z" fill="#4D67CA"/>
<path d="M44.8745 85.6027C45.8217 85.6027 46.5897 84.8349 46.5897 83.8876C46.5897 82.9404 45.8217 82.1725 44.8745 82.1725C43.9272 82.1725 43.1594 82.9404 43.1594 83.8876C43.1594 84.8349 43.9272 85.6027 44.8745 85.6027Z" fill="white"/>
<path d="M44.8746 85.8843C43.7739 85.8843 42.9036 84.9883 42.9036 83.9132C42.9036 82.838 43.7995 81.9421 44.8746 81.9421C45.9498 81.9421 46.8458 82.838 46.8458 83.9132C46.8458 84.9883 45.9754 85.8843 44.8746 85.8843ZM44.8746 82.4285C44.0554 82.4285 43.4155 83.094 43.4155 83.8876C43.4155 84.6812 44.081 85.3467 44.8746 85.3467C45.6682 85.3467 46.3338 84.6812 46.3338 83.8876C46.3338 83.094 45.6938 82.4285 44.8746 82.4285Z" fill="#4D67CA"/>
<path d="M225.525 69.1171C225.525 68.8867 225.576 68.6563 225.653 68.4515C225.679 68.4003 225.679 68.3491 225.704 68.3235C225.807 67.9651 225.832 67.7092 225.832 67.5044C225.832 67.3508 225.704 67.2228 225.551 67.2228L221.378 67.2484C220.994 67.2484 220.687 67.5556 220.687 67.9395L220.712 72.1122C220.712 72.2658 220.584 72.3937 220.431 72.3937C220.252 72.3937 219.996 72.3681 219.663 72.2914C219.586 72.2658 219.509 72.2402 219.432 72.2146C219.228 72.1378 218.997 72.0866 218.792 72.0866C217.717 72.0866 216.847 73.1617 216.847 74.4417C216.847 75.7472 217.743 76.7968 218.818 76.7968C219.048 76.7968 219.279 76.7456 219.484 76.6688C219.535 76.6432 219.586 76.6176 219.612 76.6176C219.97 76.5152 220.252 76.4896 220.456 76.4896C220.61 76.4896 220.738 76.6176 220.738 76.7712L220.764 80.9694C220.764 81.3534 221.071 81.6606 221.455 81.6606L225.627 81.635C225.781 81.635 225.909 81.507 225.909 81.3534C225.909 81.1486 225.883 80.8926 225.781 80.5342C225.755 80.483 225.755 80.4318 225.73 80.4062C225.627 80.2014 225.602 79.971 225.576 79.7406C225.576 78.6655 226.626 77.7695 227.931 77.7695C229.237 77.7695 230.286 78.6399 230.312 79.715C230.312 79.9454 230.261 80.1758 230.184 80.355C230.158 80.4318 230.133 80.5086 230.107 80.5854C230.03 80.8926 230.005 81.1486 230.005 81.3278C230.005 81.4814 230.133 81.6094 230.286 81.6094L234.459 81.5838C234.843 81.5838 235.15 81.2766 235.15 80.8926L235.125 76.6944C235.125 76.5408 234.997 76.4128 234.869 76.4128C234.664 76.3872 234.357 76.4128 233.947 76.5408C233.896 76.5664 233.845 76.5664 233.819 76.592C233.614 76.6688 233.384 76.72 233.153 76.72C232.078 76.72 231.182 75.6704 231.182 74.3649C231.182 73.0593 232.053 72.0098 233.128 72.0098C233.358 72.0098 233.563 72.061 233.768 72.1378C233.845 72.1634 233.921 72.189 233.998 72.2146C234.357 72.317 234.612 72.317 234.817 72.317C234.971 72.2914 235.073 72.189 235.073 72.0354L235.048 67.8627C235.048 67.4788 234.741 67.1716 234.357 67.1716L230.184 67.1972C230.03 67.1972 229.902 67.3252 229.902 67.4788C229.902 67.658 229.928 67.9139 230.005 68.2211C230.03 68.2979 230.056 68.3747 230.081 68.4515C230.158 68.6563 230.209 68.8611 230.209 69.0915C230.209 70.1666 229.16 71.0626 227.854 71.0626C226.6 71.0626 225.525 70.1922 225.525 69.1171Z" fill="white"/>
<path d="M221.455 82.0445C221.173 82.0445 220.892 81.9421 220.713 81.7373C220.508 81.5325 220.405 81.2765 220.405 80.9693L220.38 76.8479C220.201 76.8479 219.996 76.8991 219.74 76.9759C219.714 76.9759 219.689 77.0015 219.637 77.0015C219.381 77.1039 219.1 77.1807 218.818 77.1807C217.538 77.1807 216.489 75.952 216.489 74.4416C216.489 73.7248 216.719 73.0337 217.129 72.5217C217.564 71.9841 218.153 71.6769 218.793 71.6769C219.049 71.6769 219.33 71.7281 219.586 71.8305C219.637 71.8561 219.689 71.8817 219.765 71.8817C219.97 71.9329 220.149 71.9585 220.303 71.9585L220.277 67.8627C220.277 67.2739 220.764 66.7875 221.353 66.7875L225.525 66.7619C225.884 66.7619 226.191 67.0435 226.191 67.4019C226.191 67.6579 226.165 67.9907 226.063 68.3491C226.037 68.4003 226.011 68.4771 225.986 68.5283C225.909 68.6819 225.883 68.8611 225.883 69.0403C225.883 69.9106 226.78 70.6018 227.855 70.6018C227.855 70.6018 227.855 70.6018 227.88 70.6018C228.418 70.6018 228.93 70.4226 229.288 70.1154C229.647 69.8082 229.826 69.4242 229.826 69.0147C229.826 68.8355 229.8 68.6819 229.723 68.5027C229.698 68.4259 229.647 68.3235 229.621 68.2211C229.544 67.8883 229.493 67.6067 229.493 67.3763C229.493 67.0179 229.8 66.7364 230.159 66.7364L234.331 66.7108C234.92 66.7108 235.406 67.1971 235.406 67.7859L235.432 71.9585C235.432 72.3169 235.176 72.5985 234.817 72.6241C234.561 72.6497 234.229 72.5985 233.87 72.5217C233.768 72.4961 233.666 72.4705 233.589 72.4193C233.435 72.3425 233.256 72.3169 233.102 72.3169C232.693 72.3169 232.309 72.5217 232.027 72.8801C231.72 73.2641 231.541 73.776 231.541 74.3136C231.541 74.8512 231.72 75.3632 232.027 75.7216C232.334 76.0799 232.718 76.2591 233.128 76.2591C233.307 76.2591 233.461 76.2335 233.64 76.1567C233.691 76.1311 233.768 76.1056 233.819 76.08C234.229 75.952 234.587 75.9264 234.869 75.952C235.227 75.9776 235.483 76.2591 235.483 76.6175L235.509 80.8158C235.509 81.4045 235.022 81.8909 234.434 81.8909L230.261 81.9165C229.903 81.9165 229.595 81.6349 229.595 81.2765C229.595 81.0205 229.621 80.739 229.698 80.4318C229.723 80.3294 229.749 80.227 229.8 80.1502C229.877 79.9966 229.903 79.8174 229.903 79.6382C229.903 78.7678 229.007 78.0767 227.931 78.0767C227.931 78.0767 227.931 78.0767 227.906 78.0767C227.368 78.0767 226.856 78.2559 226.498 78.563C226.139 78.8702 225.96 79.2542 225.96 79.6638C225.96 79.843 225.986 79.9966 226.063 80.1758C226.088 80.227 226.114 80.3038 226.139 80.355C226.242 80.7134 226.293 81.0205 226.293 81.3021C226.293 81.6605 225.986 81.9421 225.628 81.9421L221.455 82.0445C221.481 82.0445 221.455 82.0445 221.455 82.0445ZM220.405 76.1055C220.431 76.1055 220.456 76.1055 220.482 76.1055C220.84 76.1311 221.122 76.4127 221.122 76.7711L221.148 80.9693C221.148 81.0461 221.173 81.1229 221.25 81.1741C221.327 81.2253 221.378 81.2765 221.455 81.2509L225.525 81.2253C225.525 81.0461 225.474 80.8413 225.397 80.611C225.397 80.5854 225.372 80.5598 225.372 80.5086C225.269 80.2526 225.192 79.971 225.192 79.6894C225.192 79.0494 225.474 78.4607 226.011 77.9999C226.523 77.5647 227.189 77.3343 227.931 77.3343H227.957C229.467 77.3343 230.696 78.3839 230.696 79.6638C230.696 79.9454 230.645 80.2014 230.543 80.4574C230.517 80.5086 230.491 80.5854 230.491 80.6366C230.44 80.8413 230.415 81.0205 230.415 81.1741L234.485 81.1485C234.664 81.1485 234.792 81.0205 234.792 80.8413L234.766 76.7199C234.613 76.7199 234.408 76.7455 234.075 76.8479C234.05 76.8479 234.024 76.8735 233.973 76.8735C233.717 76.9759 233.435 77.0527 233.154 77.0527C232.514 77.0527 231.925 76.7711 231.49 76.2335C231.054 75.7216 230.824 75.056 230.824 74.3136C230.824 73.5969 231.055 72.9057 231.464 72.3937C231.899 71.8561 232.488 71.5489 233.128 71.5489C233.41 71.5489 233.666 71.6001 233.922 71.7025C233.973 71.7281 234.024 71.7537 234.101 71.7537C234.331 71.8049 234.536 71.8561 234.715 71.8561L234.689 67.7603C234.689 67.5811 234.562 67.4531 234.382 67.4531L230.312 67.4787C230.312 67.6323 230.363 67.8115 230.415 68.0163C230.44 68.0675 230.44 68.1443 230.466 68.1955C230.568 68.4515 230.645 68.7331 230.645 68.9891C230.645 69.629 230.363 70.2178 229.826 70.6786C229.314 71.1138 228.648 71.3442 227.906 71.3442H227.88C226.37 71.3442 225.141 70.2946 225.141 69.0147C225.141 68.7331 225.192 68.4771 225.295 68.1955C225.32 68.1699 225.32 68.1443 225.32 68.0931C225.397 67.8627 225.423 67.6579 225.423 67.4787L221.353 67.5043C221.173 67.5043 221.045 67.6323 221.045 67.8115L221.071 71.9841C221.071 72.3425 220.789 72.6497 220.431 72.6497C220.175 72.6497 219.893 72.6241 219.561 72.5473C219.458 72.5217 219.356 72.4961 219.279 72.4449C219.125 72.3681 218.946 72.3425 218.793 72.3425C218.383 72.3425 217.999 72.5473 217.717 72.9057C217.41 73.2897 217.231 73.8016 217.231 74.3392C217.231 75.4144 217.948 76.3103 218.793 76.3103C218.972 76.3103 219.125 76.2847 219.305 76.2079C219.356 76.1823 219.433 76.1567 219.484 76.1311C219.868 76.1567 220.149 76.1055 220.405 76.1055Z" fill="#4D67CA"/>
<path d="M144.171 114.99C144.479 114.99 144.76 115.067 145.042 115.169C145.093 115.195 145.17 115.221 145.221 115.246C145.682 115.374 146.04 115.425 146.296 115.425C146.501 115.425 146.654 115.246 146.654 115.041V109.563C146.654 109.051 146.245 108.667 145.758 108.667H140.255C140.05 108.667 139.896 108.514 139.871 108.309C139.871 108.053 139.896 107.746 139.999 107.311C140.024 107.208 140.05 107.106 140.101 107.003C140.229 106.747 140.28 106.44 140.28 106.159C140.28 104.751 138.898 103.599 137.183 103.573C135.468 103.548 134.085 104.725 134.085 106.133C134.085 106.44 134.137 106.722 134.265 107.003C134.29 107.055 134.316 107.131 134.341 107.183C134.469 107.669 134.52 108.027 134.495 108.309C134.495 108.514 134.316 108.667 134.111 108.667H128.582C128.07 108.667 127.686 109.077 127.686 109.563V115.041C127.686 115.246 127.839 115.425 128.044 115.425C128.326 115.425 128.658 115.4 129.119 115.246C129.17 115.221 129.247 115.195 129.298 115.169C129.58 115.041 129.862 114.99 130.169 114.99C131.577 114.99 132.729 116.373 132.729 118.088C132.729 119.803 131.577 121.185 130.169 121.185C129.862 121.185 129.58 121.134 129.324 121.006C129.222 120.955 129.119 120.929 129.017 120.904C128.607 120.801 128.274 120.75 128.044 120.776C127.839 120.776 127.686 120.955 127.686 121.16V126.638C127.686 127.15 128.095 127.534 128.582 127.534H134.111C134.316 127.534 134.469 127.38 134.495 127.201C134.52 126.919 134.495 126.535 134.341 125.998C134.316 125.947 134.29 125.87 134.265 125.819C134.137 125.537 134.085 125.255 134.085 124.948C134.085 123.54 135.468 122.388 137.183 122.388C138.898 122.388 140.28 123.54 140.28 124.974C140.28 125.281 140.229 125.563 140.101 125.819C140.05 125.921 140.024 126.023 139.999 126.126C139.871 126.587 139.845 126.945 139.871 127.201C139.896 127.406 140.05 127.559 140.255 127.559H145.758C146.27 127.559 146.654 127.15 146.654 126.663V121.185C146.654 120.98 146.501 120.801 146.296 120.801C146.04 120.801 145.733 120.827 145.323 120.929C145.221 120.955 145.118 120.98 145.016 121.032C144.76 121.134 144.453 121.211 144.171 121.211C142.763 121.211 141.611 119.828 141.611 118.113C141.611 116.373 142.763 114.99 144.171 114.99Z" fill="white"/>
<path d="M145.734 127.892H140.23C139.846 127.892 139.513 127.585 139.462 127.201C139.436 126.868 139.488 126.459 139.616 125.998C139.641 125.87 139.692 125.767 139.744 125.639C139.846 125.409 139.897 125.179 139.897 124.948C139.897 124.385 139.616 123.848 139.129 123.438C138.617 123.003 137.926 122.772 137.184 122.772C136.441 122.772 135.75 123.003 135.238 123.438C134.752 123.848 134.47 124.385 134.47 124.948C134.47 125.179 134.521 125.435 134.624 125.665C134.649 125.742 134.675 125.819 134.701 125.895C134.854 126.407 134.905 126.868 134.88 127.227C134.854 127.611 134.521 127.918 134.112 127.918H128.582C127.866 127.918 127.302 127.329 127.302 126.638V121.16C127.302 120.75 127.635 120.417 128.045 120.392C128.352 120.392 128.71 120.443 129.12 120.545C129.248 120.571 129.35 120.622 129.478 120.673C129.709 120.776 129.939 120.801 130.195 120.827C130.758 120.827 131.296 120.545 131.706 120.059C132.141 119.547 132.371 118.856 132.371 118.113C132.371 116.629 131.398 115.4 130.195 115.4C129.965 115.4 129.709 115.451 129.478 115.554C129.402 115.579 129.325 115.605 129.248 115.63C128.787 115.758 128.378 115.81 128.045 115.81C127.635 115.81 127.302 115.451 127.302 115.042V109.563C127.302 108.847 127.891 108.283 128.582 108.283H134.112C134.112 108.027 134.061 107.695 133.958 107.311C133.933 107.259 133.933 107.208 133.907 107.183C133.779 106.85 133.702 106.517 133.702 106.159C133.702 104.546 135.264 103.215 137.184 103.215C139.104 103.215 140.665 104.546 140.665 106.184C140.665 106.517 140.588 106.875 140.46 107.183C140.435 107.259 140.409 107.336 140.384 107.439C140.281 107.797 140.256 108.079 140.256 108.309H145.759C146.092 108.309 146.425 108.437 146.681 108.693C146.937 108.949 147.065 109.256 147.065 109.615V115.093C147.065 115.502 146.732 115.835 146.323 115.861C145.99 115.861 145.58 115.81 145.119 115.682C145.043 115.656 144.966 115.63 144.889 115.605C144.659 115.502 144.428 115.451 144.172 115.451C142.969 115.451 141.996 116.654 141.996 118.165C141.996 118.907 142.227 119.598 142.662 120.11C143.071 120.597 143.609 120.878 144.172 120.878C144.403 120.878 144.659 120.827 144.863 120.724C144.966 120.673 145.094 120.648 145.222 120.596C145.631 120.494 145.99 120.443 146.323 120.443C146.732 120.443 147.065 120.801 147.065 121.211V126.689C147.065 127.022 146.937 127.355 146.681 127.611C146.425 127.764 146.092 127.892 145.734 127.892ZM137.184 121.979C137.184 121.979 137.209 121.979 137.184 121.979C138.105 121.979 138.976 122.286 139.616 122.824C140.281 123.387 140.665 124.129 140.665 124.948C140.665 125.281 140.588 125.639 140.46 125.947C140.435 126.023 140.409 126.1 140.384 126.203C140.281 126.587 140.23 126.894 140.256 127.15H145.734C145.862 127.15 146.015 127.099 146.092 126.996C146.195 126.894 146.246 126.766 146.246 126.638V121.16C146.015 121.16 145.734 121.211 145.401 121.288C145.299 121.313 145.222 121.339 145.145 121.364C144.812 121.492 144.479 121.569 144.147 121.569C143.353 121.569 142.585 121.185 142.047 120.52C141.51 119.854 141.203 119.009 141.203 118.088C141.203 116.168 142.534 114.606 144.147 114.606C144.505 114.606 144.838 114.683 145.171 114.811C145.222 114.837 145.273 114.837 145.299 114.862C145.683 114.965 146.015 115.016 146.271 115.016V109.538C146.271 109.41 146.22 109.256 146.118 109.179C146.015 109.077 145.887 109.026 145.759 109.026H140.256C139.846 109.026 139.513 108.693 139.488 108.283C139.488 107.976 139.539 107.592 139.641 107.183C139.667 107.055 139.718 106.952 139.769 106.824C139.872 106.594 139.923 106.364 139.923 106.108C139.923 104.904 138.72 103.932 137.209 103.906C135.725 103.906 134.496 104.879 134.496 106.082C134.496 106.312 134.547 106.568 134.649 106.799C134.675 106.875 134.701 106.952 134.726 107.029C134.854 107.515 134.931 107.925 134.905 108.258C134.88 108.667 134.547 108.975 134.137 108.975H128.608C128.326 108.975 128.096 109.205 128.096 109.487V114.965C128.352 114.965 128.659 114.914 129.043 114.811C129.094 114.786 129.146 114.786 129.171 114.76C129.504 114.632 129.837 114.555 130.195 114.555C131.834 114.555 133.139 116.117 133.139 118.037C133.139 118.958 132.832 119.829 132.294 120.468C131.731 121.134 130.989 121.518 130.195 121.518C129.862 121.518 129.504 121.441 129.197 121.313C129.12 121.288 129.043 121.262 128.941 121.236C128.608 121.134 128.301 121.108 128.07 121.108V126.587C128.07 126.868 128.301 127.099 128.582 127.099H134.112C134.137 126.843 134.086 126.484 133.958 126.049C133.933 125.998 133.933 125.947 133.907 125.921C133.779 125.588 133.702 125.256 133.702 124.897C133.702 124.104 134.086 123.336 134.752 122.798C135.417 122.26 136.288 121.979 137.184 121.979Z" fill="#4D67CA"/>
<path d="M102.369 71.6002C102.369 71.8818 102.42 72.1377 102.523 72.3681C102.548 72.4193 102.574 72.4705 102.574 72.5217C102.702 72.9313 102.727 73.2385 102.727 73.4945C102.727 73.6737 102.574 73.8273 102.395 73.8273L97.5307 73.8529C97.0955 73.8529 96.7115 74.2113 96.7371 74.672L96.7628 79.587C96.7628 79.7662 96.6347 79.9198 96.4555 79.9198C96.2251 79.9198 95.9435 79.8942 95.5596 79.7918C95.4572 79.7662 95.3804 79.7406 95.3036 79.715C95.0732 79.6126 94.8172 79.5614 94.5356 79.5614C93.2813 79.5614 92.2573 80.8158 92.2573 82.3261C92.2573 83.862 93.2813 85.0908 94.5612 85.0908C94.8428 85.0908 95.0988 85.0396 95.3292 84.9372C95.3804 84.9116 95.4316 84.886 95.4828 84.886C95.918 84.758 96.2252 84.7324 96.4811 84.7324C96.6603 84.7324 96.7884 84.886 96.7884 85.0652L96.814 90.0058C96.814 90.441 97.1723 90.8249 97.6331 90.7993L102.497 90.7737C102.676 90.7737 102.83 90.9017 102.83 91.0809C102.855 91.3369 102.804 91.6441 102.676 92.0793C102.651 92.1305 102.65 92.1817 102.625 92.2329C102.522 92.4633 102.471 92.7449 102.471 93.0008C102.471 94.2552 103.726 95.2792 105.236 95.2792C106.772 95.2792 108.001 94.2296 108.001 92.9752C108.001 92.7193 107.949 92.4377 107.847 92.2073C107.821 92.1305 107.77 92.0281 107.745 91.9513C107.642 91.5673 107.617 91.2601 107.617 91.0297C107.617 90.8505 107.77 90.7225 107.95 90.7225L112.864 90.6969C113.3 90.6969 113.684 90.3386 113.658 89.8778L113.632 84.9372C113.632 84.758 113.504 84.63 113.325 84.6044C113.069 84.5788 112.736 84.6044 112.25 84.758C112.199 84.7836 112.148 84.7836 112.096 84.8092C111.866 84.9116 111.61 84.9628 111.329 84.9628C110.074 84.9628 109.025 83.734 109.025 82.1981C109.025 80.6622 110.049 79.4334 111.303 79.4334C111.559 79.4334 111.815 79.4846 112.071 79.587C112.148 79.6126 112.25 79.6638 112.352 79.6894C112.762 79.7918 113.095 79.8174 113.325 79.8174C113.504 79.7918 113.632 79.6638 113.632 79.4846L113.607 74.5696C113.607 74.1345 113.248 73.7505 112.788 73.7761L107.898 73.8017C107.719 73.8017 107.566 73.6737 107.566 73.4689C107.566 73.2385 107.591 72.9569 107.694 72.5985C107.719 72.4961 107.745 72.4193 107.77 72.3425C107.873 72.1121 107.924 71.8562 107.924 71.5746C107.924 70.3202 106.669 69.2963 105.159 69.2963C103.598 69.2963 102.343 70.3458 102.369 71.6002Z" fill="white"/>
<path d="M105.185 95.6631C104.366 95.6631 103.598 95.4071 103.009 94.9207C102.395 94.4088 102.062 93.7432 102.062 93.0008C102.062 92.6936 102.113 92.3865 102.241 92.0793C102.267 92.0537 102.267 92.0025 102.292 91.9513C102.395 91.6185 102.42 91.3369 102.42 91.1065L97.6078 91.1321C96.9422 91.1321 96.4303 90.5945 96.4047 89.9546L96.3791 85.0652C96.1487 85.0652 95.867 85.1164 95.5598 85.1932C95.5087 85.1932 95.4831 85.2188 95.4319 85.2444C95.1247 85.3724 94.8176 85.4491 94.5104 85.4491C93.7936 85.4491 93.1025 85.1164 92.5905 84.502C92.1041 83.9132 91.8225 83.1452 91.8225 82.3005C91.8225 80.5598 93.0256 79.1518 94.4848 79.1518C94.792 79.1518 95.0992 79.203 95.4064 79.331C95.4576 79.3566 95.5343 79.3822 95.6111 79.4078C95.8927 79.4846 96.123 79.5102 96.3278 79.5102L96.3023 74.6464C96.3023 74.3392 96.4303 74.032 96.6351 73.8016C96.8398 73.5713 97.147 73.4433 97.4798 73.4433L102.318 73.4177C102.318 73.1873 102.267 72.9313 102.19 72.6241C102.19 72.5729 102.164 72.5473 102.139 72.4961C102.011 72.1889 101.934 71.8817 101.934 71.5745C101.934 70.0898 103.342 68.8867 105.057 68.8867C105.057 68.8867 105.057 68.8867 105.083 68.8867C105.902 68.8867 106.67 69.1426 107.259 69.629C107.873 70.141 108.206 70.8066 108.206 71.5489C108.206 71.8561 108.155 72.1633 108.027 72.4705C108.001 72.5217 107.975 72.5985 107.95 72.6753C107.873 72.9569 107.847 73.1873 107.847 73.3921L112.686 73.3665C112.993 73.3665 113.3 73.4945 113.53 73.6992C113.761 73.9296 113.889 74.2112 113.889 74.544L113.914 79.459C113.914 79.843 113.633 80.1502 113.249 80.1758C112.942 80.2014 112.583 80.1502 112.148 80.0478C112.046 80.0222 111.918 79.971 111.815 79.9454C111.61 79.8686 111.406 79.8174 111.201 79.8174C110.151 79.8174 109.307 80.8925 109.307 82.1981C109.307 82.8381 109.511 83.4524 109.895 83.9132C110.254 84.3484 110.714 84.5788 111.226 84.5788C111.431 84.5788 111.636 84.5276 111.841 84.4508C111.918 84.4252 111.969 84.3996 112.046 84.374C112.506 84.246 112.916 84.1948 113.249 84.2204C113.633 84.246 113.914 84.5532 113.914 84.9372L113.94 89.8778C113.94 90.5433 113.402 91.0809 112.762 91.0809L107.899 91.1065C107.899 91.3113 107.924 91.5673 108.001 91.8489C108.027 91.9257 108.052 92.0025 108.078 92.0537C108.206 92.3353 108.283 92.6424 108.283 92.9752C108.334 94.46 106.951 95.6631 105.185 95.6631C105.211 95.6631 105.185 95.6631 105.185 95.6631ZM102.446 90.3641C102.83 90.3641 103.137 90.6713 103.163 91.0297C103.188 91.3369 103.137 91.7209 103.009 92.1561C102.984 92.2329 102.958 92.3097 102.932 92.3608C102.856 92.5656 102.804 92.7704 102.804 92.9752C102.804 93.4616 103.035 93.948 103.47 94.3064C103.931 94.6904 104.519 94.8951 105.185 94.8695C106.491 94.8695 107.566 93.9992 107.566 92.9496C107.566 92.7448 107.515 92.54 107.438 92.3353C107.387 92.2329 107.361 92.1305 107.335 92.0281C107.233 91.6441 107.182 91.2857 107.207 91.0041C107.233 90.6201 107.54 90.3129 107.924 90.3129L112.839 90.2873C113.069 90.2873 113.274 90.0825 113.274 89.8522L113.249 84.9628C113.018 84.9628 112.711 84.9884 112.353 85.0908C112.302 85.0908 112.276 85.1164 112.225 85.142C111.918 85.27 111.61 85.3468 111.303 85.3468C110.586 85.3468 109.895 85.014 109.383 84.3996C108.897 83.8108 108.615 83.0173 108.615 82.1981C108.615 80.4574 109.819 79.0494 111.278 79.0494C111.585 79.0494 111.892 79.1006 112.174 79.2286C112.25 79.2542 112.302 79.2798 112.404 79.3054C112.711 79.3822 112.993 79.4334 113.198 79.4078L113.172 74.544C113.172 74.4416 113.121 74.3136 113.044 74.2368C112.967 74.16 112.865 74.1088 112.737 74.1088L107.847 74.1344C107.463 74.1344 107.131 73.8272 107.131 73.4433C107.131 73.1617 107.156 72.8289 107.259 72.4705C107.284 72.3681 107.335 72.2401 107.361 72.1633C107.438 71.9585 107.489 71.7537 107.489 71.5489C107.489 71.0626 107.259 70.5762 106.823 70.2178C106.363 69.8594 105.774 69.6546 105.134 69.6546C105.134 69.6546 105.134 69.6546 105.108 69.6546C103.803 69.6546 102.728 70.525 102.728 71.5745C102.728 71.7793 102.779 71.9841 102.856 72.1889C102.881 72.2657 102.907 72.3169 102.932 72.3937C103.06 72.8033 103.112 73.1617 103.112 73.4689C103.112 73.8528 102.779 74.16 102.395 74.16L97.5054 74.1856C97.403 74.1856 97.2751 74.2368 97.1983 74.3136C97.1215 74.3904 97.0703 74.4928 97.0703 74.6208L97.0958 79.5358C97.0958 79.9198 96.7887 80.2526 96.4047 80.2526C96.1231 80.2526 95.7903 80.227 95.4064 80.1246C95.2784 80.099 95.1759 80.0478 95.0991 80.0222C94.8943 79.9454 94.6896 79.8942 94.4848 79.8942C93.4352 79.8942 92.5905 80.9693 92.5905 82.2749C92.5905 82.9149 92.7952 83.5292 93.1792 83.99C93.5376 84.4252 93.9984 84.6556 94.5104 84.6556C94.7152 84.6556 94.92 84.6044 95.1247 84.5276C95.2015 84.502 95.2527 84.4764 95.3295 84.4508C95.7647 84.3228 96.123 84.2716 96.4558 84.2716C96.8398 84.2972 97.147 84.6044 97.147 84.9884L97.1727 89.929C97.1727 90.1593 97.3774 90.3385 97.6078 90.3641H102.446Z" fill="#4D67CA"/>
<path d="M137.721 53.9369L132.422 51.3514L132.755 50.6602L138.054 53.2457L137.721 53.9369ZM127.149 48.7659L121.85 46.1804L122.182 45.4892L127.481 48.0747L127.149 48.7659ZM116.551 43.5949L116.295 43.4669L116.628 42.7758L116.884 42.9038L116.551 43.5949Z" fill="#4D67CA"/>
<path d="M212.547 49.7643L212.214 49.0731L217.538 46.5901L217.871 47.2812L212.547 49.7643ZM223.221 44.7725L222.889 44.0814L228.213 41.5983L228.546 42.2894L223.221 44.7725Z" fill="#4D67CA"/>
<path d="M212.137 105.058L207.939 100.911L208.476 100.373L212.674 104.52L212.137 105.058ZM203.766 96.7895L199.568 92.6424L200.105 92.1049L204.304 96.2519L203.766 96.7895Z" fill="#4D67CA"/>
<path d="M230.646 129.658H202.743C201.463 129.658 200.439 128.634 200.439 127.355V109.435C200.439 108.155 201.463 107.131 202.743 107.131H230.646C231.926 107.131 232.95 108.155 232.95 109.435V127.355C232.95 128.634 231.926 129.658 230.646 129.658Z" fill="white"/>
<path d="M230.646 130.042H202.743C201.258 130.042 200.055 128.839 200.055 127.355V109.435C200.055 107.951 201.258 106.747 202.743 106.747H230.646C232.13 106.747 233.334 107.951 233.334 109.435V127.355C233.334 128.839 232.13 130.042 230.646 130.042ZM202.743 107.515C201.693 107.515 200.823 108.386 200.823 109.435V127.355C200.823 128.404 201.693 129.274 202.743 129.274H230.646C231.695 129.274 232.566 128.404 232.566 127.355V109.435C232.566 108.386 231.695 107.515 230.646 107.515H202.743Z" fill="#4D67CA"/>
<path d="M216.949 111.995H204.278V113.531H216.949V111.995Z" fill="white"/>
<path d="M217.206 113.787H204.022V111.739H217.206V113.787ZM204.534 113.275H216.694V112.251H204.534V113.275Z" fill="#4D67CA"/>
<path d="M229.109 115.835H204.278V117.37H229.109V115.835Z" fill="white"/>
<path d="M229.365 117.627H204.022V115.579H229.365V117.627ZM204.534 117.115H228.853V116.091H204.534V117.115Z" fill="#4D67CA"/>
<path d="M229.11 119.675H204.279V121.211H229.11V119.675Z" fill="white"/>
<path d="M229.365 121.467H204.022V119.419H229.365V121.467ZM204.534 120.955H228.853V119.931H204.534V120.955Z" fill="#4D67CA"/>
<path d="M229.11 123.515H204.279V125.051H229.11V123.515Z" fill="white"/>
<path d="M229.365 125.307H204.022V123.259H229.365V125.307ZM204.534 124.795H228.853V123.771H204.534V124.795Z" fill="#4D67CA"/>
<path d="M262.899 51.0698H234.997C233.717 51.0698 232.693 50.0459 232.693 48.7659V30.8467C232.693 29.5667 233.717 28.5428 234.997 28.5428H262.899C264.179 28.5428 265.203 29.5667 265.203 30.8467V48.7659C265.203 50.0459 264.179 51.0698 262.899 51.0698Z" fill="white"/>
<path d="M262.9 51.4538H234.997C233.512 51.4538 232.309 50.2507 232.309 48.7659V30.8467C232.309 29.362 233.512 28.1588 234.997 28.1588H262.9C264.385 28.1588 265.588 29.362 265.588 30.8467V48.7659C265.588 50.2507 264.385 51.4538 262.9 51.4538ZM234.997 28.9268C233.947 28.9268 233.077 29.7971 233.077 30.8467V48.7659C233.077 49.8155 233.947 50.6859 234.997 50.6859H262.9C263.949 50.6859 264.82 49.8155 264.82 48.7659V30.8467C264.82 29.7971 263.949 28.9268 262.9 28.9268H234.997Z" fill="#4D67CA"/>
<path d="M249.204 33.4072H236.533V34.9431H249.204V33.4072Z" fill="white"/>
<path d="M249.46 35.1985H236.277V33.1506H249.46V35.1985ZM236.789 34.6865H248.948V33.6626H236.789V34.6865Z" fill="#4D67CA"/>
<path d="M261.364 37.2469H236.533V38.7829H261.364V37.2469Z" fill="white"/>
<path d="M261.62 39.0383H236.277V36.9904H261.62V39.0383ZM236.789 38.5264H261.108V37.5024H236.789V38.5264Z" fill="#4D67CA"/>
<path d="M261.364 41.0868H236.533V42.6227H261.364V41.0868Z" fill="white"/>
<path d="M261.62 42.8782H236.277V40.8303H261.62V42.8782ZM236.789 42.3662H261.108V41.3422H236.789V42.3662Z" fill="#4D67CA"/>
<path d="M261.364 44.9267H236.533V46.4626H261.364V44.9267Z" fill="white"/>
<path d="M261.62 46.718H236.277V44.6701H261.62V46.718ZM236.789 46.206H261.108V45.1821H236.789V46.206Z" fill="#4D67CA"/>
<path d="M115.45 54.3977H87.5471C86.2671 54.3977 85.2432 53.3737 85.2432 52.0938V34.1746C85.2432 32.8946 86.2671 31.8707 87.5471 31.8707H115.45C116.73 31.8707 117.754 32.8946 117.754 34.1746V52.0938C117.754 53.3737 116.73 54.3977 115.45 54.3977Z" fill="white"/>
<path d="M115.45 54.7816H87.5473C86.0625 54.7816 84.8594 53.5785 84.8594 52.0938V34.1745C84.8594 32.6898 86.0625 31.4866 87.5473 31.4866H115.45C116.935 31.4866 118.138 32.6898 118.138 34.1745V52.0938C118.138 53.5785 116.935 54.7816 115.45 54.7816ZM87.5473 32.2546C86.4977 32.2546 85.6273 33.125 85.6273 34.1745V52.0938C85.6273 53.1433 86.4977 54.0137 87.5473 54.0137H115.45C116.5 54.0137 117.37 53.1433 117.37 52.0938V34.1745C117.37 33.125 116.5 32.2546 115.45 32.2546H87.5473Z" fill="#4D67CA"/>
<path d="M101.754 36.735H89.083V38.2709H101.754V36.735Z" fill="white"/>
<path d="M102.01 38.5264H88.8267V36.4785H102.01V38.5264ZM89.3386 38.0144H101.498V36.9904H89.3386V38.0144Z" fill="#4D67CA"/>
<path d="M113.914 40.5749H89.083V42.1108H113.914V40.5749Z" fill="white"/>
<path d="M114.17 42.3662H88.8267V40.3183H114.17V42.3662ZM89.3386 41.8542H113.658V40.8303H89.3386V41.8542Z" fill="#4D67CA"/>
<path d="M113.914 44.4147H89.083V45.9506H113.914V44.4147Z" fill="white"/>
<path d="M114.17 46.2061H88.8267V44.1581H114.17V46.2061ZM89.3386 45.6941H113.658V44.6701H89.3386V45.6941Z" fill="#4D67CA"/>
<path d="M113.914 48.2545H89.083V49.7905H113.914V48.2545Z" fill="white"/>
<path d="M114.17 50.0458H88.8267V47.9979H114.17V50.0458ZM89.3386 49.5339H113.658V48.5099H89.3386V49.5339Z" fill="#4D67CA"/>
<path d="M67.4012 106.978C67.4012 106.978 72.6746 104.572 73.9802 110.127C75.2857 115.681 74.8761 122.132 74.8761 122.132C74.8761 122.132 75.0297 125.639 77.4104 128.379C77.4104 128.379 67.734 129.658 64.9949 125.742L61.0015 109.666L67.4012 106.978Z" fill="#4D67CA"/>
<path d="M72.7769 139.744L69.2443 124.846C69.2443 124.846 78.4088 124.769 70.7035 109.282C70.7035 109.282 66.5821 106.901 63.0238 110.101C59.4656 113.301 59.5424 117.243 59.5424 117.243L61.5903 141.485L72.7769 139.744Z" fill="white"/>
<path d="M61.2066 141.946L59.1331 117.294C59.1331 117.089 59.1075 113.122 62.7425 109.845C66.4544 106.491 70.8317 108.949 70.8829 108.975L70.9853 109.026L71.0366 109.128C74.2108 115.528 74.9787 120.161 73.2892 122.9C72.2397 124.616 70.5245 125.076 69.7054 125.204L73.2381 140.077L61.2066 141.946ZM67.2735 108.821C66.0447 108.821 64.6113 109.179 63.2545 110.408C59.8755 113.454 59.901 117.217 59.901 117.269L61.8977 141.076L72.2909 139.463L68.7327 124.513H69.219C69.3214 124.513 71.4462 124.462 72.6237 122.542C73.6733 120.827 74.134 117.192 70.3966 109.615C70.0382 109.384 68.8094 108.821 67.2735 108.821Z" fill="#4D67CA"/>
<path d="M70.3708 108.77C70.3708 108.77 69.4236 111.381 67.8365 113.07C66.5054 114.504 64.5598 114.965 63.9454 115.579C63.9454 115.579 64.0735 123.745 70.0124 129.607C70.0124 129.607 64.3038 131.246 58.7489 126.996C58.7489 126.996 59.8753 128.174 60.9504 129.044C60.9504 129.044 54.0899 131.246 54.0131 114.453C53.9619 103.599 67.3501 105.212 69.6028 106.415L70.3708 108.77Z" fill="#4D67CA"/>
<path d="M143.533 250.562C143.533 250.562 141.69 250.844 138.362 251.279C138.234 251.304 138.106 251.304 137.978 251.33C124.538 252.968 88.5462 256.322 51.4278 250.588C51.4278 250.588 7.65374 246.671 0.562845 188.357V188.331C0.383653 186.642 -1.35712 149.267 29.6943 135.495C30.4367 135.162 31.2047 134.855 31.9726 134.548C31.9726 134.548 32.2286 134.42 32.715 134.215C34.3789 133.498 38.7564 131.911 44.721 131.527C49.8919 131.194 56.2916 131.809 63.1777 134.701C64.0224 135.06 64.8928 135.444 65.7632 135.879C68.5791 137.287 71.4718 139.104 74.3901 141.408C85.5512 150.266 98.325 164.294 125.639 166.342C138.797 167.34 162.348 172.434 171.18 193.041C177.502 207.71 181.419 241.346 143.533 250.562Z" fill="white"/>
<path d="M96.1746 254.197C82.5047 254.197 67.043 253.378 51.3765 250.972C51.2997 250.972 40.2153 249.897 28.4398 241.654C21.5281 236.815 15.7172 230.493 11.1862 222.864C5.52884 213.341 1.8169 201.745 0.204168 188.382V188.331C0.178569 187.845 -0.486952 178.04 3.0713 166.316C5.06801 159.763 7.96064 153.977 11.7237 149.088C16.3827 143.021 22.3984 138.311 29.5405 135.162C30.2829 134.829 31.0508 134.522 31.8188 134.215C31.8956 134.189 32.1517 134.061 32.5613 133.882C34.174 133.191 38.6282 131.553 44.6951 131.169C51.0693 130.759 57.3153 131.86 63.3055 134.369C64.227 134.753 65.0718 135.137 65.9166 135.572C68.8861 137.057 71.83 138.925 74.6202 141.152C76.1562 142.381 77.7177 143.661 79.356 145.043C89.5444 153.593 102.216 164.243 125.664 166.009C136.339 166.802 162.143 171.052 171.538 192.939C175.608 202.462 178.091 218.103 171.691 230.953C166.7 240.937 157.253 247.669 143.584 250.997H143.558C143.532 250.997 141.664 251.304 138.387 251.714H138.336C138.233 251.714 138.131 251.74 138.003 251.765C130.119 252.687 114.836 254.197 96.1746 254.197ZM0.972135 188.306C4.60718 218.256 18.1491 233.488 28.8494 240.988C40.4713 249.129 51.3765 250.178 51.4788 250.204C88.4693 255.938 124.282 252.636 137.952 250.946C138.054 250.921 138.182 250.92 138.285 250.895H138.336C141.459 250.511 143.276 250.229 143.456 250.204C156.869 246.927 166.162 240.323 171.026 230.569C177.323 217.975 174.866 202.564 170.846 193.221C161.631 171.717 136.134 167.545 125.613 166.751C101.934 164.959 89.1348 154.233 78.8697 145.607C77.2313 144.224 75.6954 142.944 74.1595 141.716C71.4204 139.54 68.5276 137.697 65.6094 136.237C64.7902 135.828 63.9454 135.444 63.0495 135.06C57.1617 132.577 51.018 131.527 44.7719 131.911C38.8073 132.295 34.4812 133.882 32.894 134.548C32.4332 134.753 32.1773 134.881 32.1773 134.881L32.1517 134.906C31.3837 135.213 30.6158 135.521 29.8734 135.853C17.0227 141.536 8.26785 151.878 3.81364 166.547C0.664974 176.888 0.792943 186.462 0.972135 188.28V188.306Z" fill="#4D67CA"/>
<path d="M171.41 229.11L176.632 222.301L173.074 218.256L166.93 211.293L160.633 219.28L168.159 226.166L171.41 229.11Z" fill="white"/>
<path d="M171.461 229.673L160.12 219.306L166.93 210.679L177.144 222.275L171.461 229.673ZM161.144 219.229L171.358 228.547L176.12 222.327L166.93 211.882L161.144 219.229Z" fill="#4D67CA"/>
<path d="M169.285 227.062C170.361 226.934 174.277 226.09 174.559 219.92C174.559 219.869 174.584 219.818 174.636 219.792L189.048 213.264C189.713 212.957 190.353 213.751 189.918 214.34L176.069 232.412C175.429 233.257 174.175 233.283 173.509 232.464L169.209 227.293C169.132 227.19 169.183 227.062 169.285 227.062Z" fill="#4D67CA"/>
<path d="M168.158 226.166L173.073 218.256L166.93 211.293L160.632 219.28L168.158 226.166Z" fill="#4D67CA"/>
<path d="M76.9756 172.434H124.974C126.433 172.434 127.815 172.997 128.864 173.996L173.125 216.106L160.786 226.243L117.396 184.235L76.95 184.824V172.434H76.9756Z" fill="#4D67CA"/>
<path d="M83.9892 171.257L84.5268 175.071L56.6495 177.631L55.9327 161.913L55.856 160.172H43.082L45.1299 143.251C45.5395 139.898 47.7923 137.082 50.9666 135.93L60.5662 132.474C68.2202 140.128 71.5737 132.474 71.5737 132.474L76.6678 133.012C79.3813 133.294 82.2484 134.881 83.5795 137.261L92.8464 149.651L83.3492 153.133C83.3492 153.133 83.2724 154.489 83.0932 154.95C82.914 155.36 81.89 156.589 81.89 156.589L83.9892 171.257Z" fill="#4D67CA"/>
<path d="M163.5 239.222L169.72 233.308L166.828 228.752L161.861 220.919L154.386 227.83L160.761 235.792L163.5 239.222Z" fill="white"/>
<path d="M163.474 239.785L153.875 227.779L161.938 220.304L170.207 233.36L163.474 239.785ZM154.924 227.856L163.551 238.659L169.234 233.257L161.785 221.507L154.924 227.856Z" fill="#4D67CA"/>
<path d="M161.759 236.841C162.834 236.892 166.827 236.662 168.082 230.621C168.082 230.569 168.133 230.518 168.184 230.518L183.441 226.294C184.158 226.09 184.644 226.986 184.132 227.498L167.646 243.19C166.878 243.906 165.65 243.753 165.112 242.831L161.656 237.046C161.554 236.969 161.631 236.841 161.759 236.841Z" fill="#4D67CA"/>
<path d="M160.761 235.792L166.828 228.752L161.862 220.919L154.387 227.83L160.761 235.792Z" fill="#4D67CA"/>
<path d="M57.4179 174.303C57.4179 174.303 51.7349 194.526 61.1553 199.825C61.1553 199.825 75.1067 206.302 109.64 198.264C109.64 198.264 116.116 196.881 118.267 198.059L152.057 236.918L166.776 226.909L125.639 178.015C124.692 176.888 123.335 176.223 121.876 176.146L80.2009 174.277H57.4179V174.303Z" fill="#5B74CF"/>
<path d="M152.006 237.43L118.062 198.34C116.347 197.47 111.483 198.238 109.742 198.596C91.8485 202.769 79.5609 202.974 72.4189 202.411C64.6368 201.796 61.1297 200.209 61.0017 200.132L60.9762 200.107C56.9828 197.854 55.0628 192.632 55.37 185.003C55.626 179.295 57.0339 174.201 57.0595 174.149L57.1364 173.868H80.2009L121.902 175.737C123.463 175.813 124.948 176.53 125.946 177.733L167.34 226.96L152.006 237.43ZM115.451 197.188C116.654 197.188 117.78 197.316 118.471 197.7L118.523 197.726L118.574 197.777L152.134 236.406L166.213 226.832L125.357 178.271C124.487 177.247 123.207 176.607 121.85 176.556L80.1754 174.687H57.6995C57.0595 177.119 52.8613 194.705 61.309 199.492C61.7953 199.697 76.0027 205.713 109.537 197.88C109.768 197.828 112.814 197.188 115.451 197.188Z" fill="#4D67CA"/>
<path d="M138.362 251.279C138.234 251.304 138.106 251.305 137.978 251.33C124.538 252.968 88.5462 256.322 51.4278 250.588C51.4278 250.588 7.65374 246.671 0.562845 188.357V188.331C0.383653 186.642 -1.35712 149.267 29.6943 135.495C41.5722 137.953 36.6316 150.24 35.4285 157.049C33.5086 167.801 37.9116 176.709 44.2601 182.879C49.0215 187.512 55.0628 190.584 59.1075 191.761C65.7888 193.681 69.9358 194.398 75.0044 195.601C118.983 206.02 123.31 210.73 129.12 216.183C138.362 224.81 138.95 241.423 138.362 251.279Z" fill="white"/>
<path d="M96.1746 254.197C82.5047 254.197 67.043 253.378 51.3765 250.972C51.2997 250.972 40.2153 249.897 28.4398 241.654C21.5281 236.816 15.7172 230.493 11.1862 222.864C5.52884 213.341 1.8169 201.745 0.204168 188.382V188.331C0.178569 187.845 -0.486952 178.04 3.0713 166.316C5.06801 159.763 7.96064 153.977 11.7237 149.088C16.3827 143.021 22.3984 138.311 29.5405 135.162L29.6429 135.111L29.7709 135.137C32.8428 135.777 35.07 137.133 36.3755 139.156C38.961 143.175 37.6042 149.114 36.5035 153.901C36.2475 155.053 35.9915 156.153 35.8123 157.126C33.5596 169.721 40.3177 178.501 44.5159 182.623C49.4309 187.41 55.4978 190.328 59.2096 191.403C63.8686 192.734 67.3246 193.502 70.678 194.245C72.1116 194.552 73.5707 194.885 75.1066 195.243C118.266 205.457 123.258 210.141 129.044 215.568L129.402 215.901C138.822 224.733 139.309 241.884 138.745 251.305L138.72 251.637L138.361 251.688C138.259 251.688 138.157 251.714 138.029 251.74C130.119 252.687 114.836 254.197 96.1746 254.197ZM0.972135 188.306C4.60718 218.256 18.1491 233.488 28.8494 240.988C40.4713 249.129 51.3765 250.178 51.4788 250.204C88.4693 255.938 124.282 252.636 137.952 250.946C137.977 250.946 137.978 250.946 138.003 250.946C138.515 241.577 137.977 224.989 128.864 216.464L128.506 216.132C122.797 210.781 117.882 206.148 74.9275 195.985C73.4171 195.627 71.9324 195.294 70.5244 194.987C67.171 194.245 63.6895 193.477 59.0049 192.145C55.2163 191.045 48.9957 188.05 44.0039 183.186C36.529 175.916 33.3548 166.623 35.0699 157.024C35.2491 156.025 35.5052 154.925 35.7611 153.747C36.8363 149.114 38.1674 143.354 35.7355 139.591C34.5324 137.722 32.5869 136.545 29.7454 135.93C16.9716 141.639 8.24222 151.93 3.78801 166.572C0.63935 176.914 0.767444 186.488 0.946637 188.306H0.972135Z" fill="#4D67CA"/>
<path d="M94.4849 151.469L87.4196 158.124L85.6277 156.025L83.1445 153.107L88.4692 143.943L88.8019 144.352L94.4849 151.469Z" fill="white"/>
<path d="M87.3943 158.688L82.6841 153.158L88.4438 143.277L89.1094 144.122L95.0228 151.52L87.3943 158.688ZM83.6057 153.056L87.4455 157.561L93.9476 151.443L88.4951 144.634L83.6057 153.056Z" fill="#4D67CA"/>
<path d="M94.4852 151.469L87.4199 158.124L85.628 156.025C85.244 153.286 85.7815 149.446 88.8022 144.352L94.4852 151.469Z" fill="#4D67CA"/>
<path d="M95.6882 155.769C95.253 157.612 93.3588 161.094 89.135 159.532C86.5239 158.56 86.1655 154.771 87.0871 150.65C88.5718 143.968 92.13 127.278 92.13 127.278C92.13 127.278 90.8245 124.283 90.6709 122.363C90.6453 121.876 90.7989 121.416 91.1316 121.083C91.3108 120.904 91.5924 120.571 92.002 120.033L93.7939 111.739C93.8963 111.227 94.613 111.15 94.7922 111.662C95.0738 112.405 95.3043 113.352 95.2275 114.274L95.0739 118.856C95.0739 118.856 96.8146 119.086 96.7122 120.084C96.7122 120.084 97.9665 120.187 97.8641 121.16C97.8641 121.16 98.2481 120.955 98.5553 121.39C98.7857 121.697 98.8113 122.081 98.6577 122.44C98.4017 123.105 97.8386 125.102 97.301 126.894L96.3538 128.404C96.3538 128.404 97.2497 148.986 95.6882 155.769Z" fill="white"/>
<path d="M91.1316 160.326C90.466 160.326 89.7493 160.198 88.9813 159.916C86.447 158.995 85.6023 155.488 86.703 150.598C88.111 144.301 91.3875 128.865 91.7203 127.355C91.4643 126.766 90.4149 124.18 90.2869 122.44C90.2357 121.851 90.4404 121.288 90.85 120.852C91.0292 120.648 91.3108 120.34 91.6436 119.905L93.4099 111.714C93.4867 111.304 93.8195 111.022 94.2291 110.997C94.6387 110.971 94.9971 111.202 95.1507 111.586C95.5347 112.61 95.6882 113.531 95.6114 114.376L95.4578 118.6C96.1234 118.753 96.917 119.112 97.0706 119.803C97.3522 119.88 97.7106 120.008 97.9666 120.315C98.0946 120.443 98.1713 120.622 98.1969 120.801C98.4017 120.827 98.6577 120.955 98.8625 121.211C99.1441 121.595 99.2208 122.132 99.016 122.619C98.8368 123.08 98.4784 124.257 98.1201 125.486C97.9665 125.998 97.8129 126.535 97.6593 127.022L97.6337 127.073L96.7377 128.532C96.8145 130.401 97.557 149.318 96.0466 155.897C95.7395 157.228 94.8434 158.969 93.2563 159.814C92.6163 160.147 91.8996 160.326 91.1316 160.326ZM94.3058 111.739C94.2546 111.739 94.1778 111.765 94.1522 111.867L92.3603 120.238L92.3092 120.315C91.9252 120.801 91.6436 121.185 91.4132 121.416C91.1572 121.672 91.0293 122.03 91.0549 122.414C91.2085 124.232 92.4628 127.175 92.4628 127.201L92.5139 127.303L92.4883 127.431C92.4627 127.611 88.9301 144.199 87.4454 150.803C86.447 155.309 87.1126 158.457 89.2373 159.251C90.6197 159.763 91.8483 159.737 92.8723 159.174C94.229 158.432 95.0227 156.87 95.2787 155.744L95.6627 155.821L95.2787 155.744C96.8146 149.062 95.9441 128.66 95.9441 128.455V128.327L96.917 126.766C97.0706 126.279 97.2241 125.767 97.3521 125.281C97.7361 123.976 98.0689 122.849 98.2737 122.363C98.3761 122.132 98.3505 121.876 98.1969 121.697C98.0689 121.544 97.9921 121.595 97.9921 121.595L97.3777 121.902L97.4546 121.211C97.4802 121.057 97.4289 120.955 97.3521 120.852C97.1729 120.622 96.7634 120.571 96.661 120.545L96.277 120.52L96.3026 120.136C96.3538 119.624 95.2787 119.368 94.9971 119.342L94.6387 119.291L94.8178 114.376C94.8946 113.634 94.741 112.789 94.4082 111.918C94.4082 111.739 94.357 111.739 94.3058 111.739Z" fill="#4D67CA"/>
<path d="M96.1488 173.561C93.2561 172.588 89.6211 175.66 89.6211 175.66C88.6483 177.221 83.7333 177.042 83.7333 177.042L50.4548 178.629C45.5398 177.656 45.7446 173.33 45.7446 173.33L45.6421 161.376V160.147H56.4449L56.5729 162.579L56.8545 168.185L84.3477 171.334C86.498 169.362 88.8531 168.185 88.8531 168.185C92.5905 167.212 95.3296 168.978 95.3296 168.978C96.3023 169.567 96.3024 170.54 96.3024 170.54C97.2752 171.129 96.8911 172.101 96.8911 172.101C97.3775 172.69 97.2752 173.074 97.0704 173.33C96.84 173.612 96.4816 173.663 96.1488 173.561Z" fill="white"/>
<path d="M50.4293 179.013H50.3781C45.2071 177.989 45.3608 173.356 45.3608 173.33L45.2583 159.788H56.8034L57.1874 167.878L84.1686 170.975C86.2933 169.081 88.546 167.929 88.6484 167.878L88.7253 167.852C92.5652 166.828 95.381 168.62 95.509 168.697C96.3794 169.209 96.5842 170.002 96.661 170.361C97.3521 170.873 97.4033 171.615 97.3009 172.076C97.8641 172.869 97.5314 173.433 97.3266 173.637C97.0194 173.996 96.4818 174.124 95.9954 173.945C93.4867 173.1 90.2868 175.634 89.8773 175.941C88.7509 177.58 84.2967 177.452 83.7079 177.452L50.4293 179.013ZM46.0263 160.531L46.1288 173.33C46.1288 173.509 46.0264 177.324 50.4806 178.245L83.7335 176.658H83.7592C85.5767 176.735 88.6741 176.479 89.314 175.455L89.3397 175.404L89.3909 175.353C89.5445 175.225 93.2051 172.153 96.277 173.177C96.4818 173.253 96.6866 173.202 96.789 173.074C96.8402 172.997 97.0193 172.818 96.6097 172.357L96.4561 172.178L96.533 171.973C96.5842 171.871 96.7633 171.257 96.0978 170.873L95.9186 170.77V170.566C95.9186 170.54 95.893 169.798 95.125 169.311C95.0994 169.286 92.4628 167.647 88.9813 168.569C88.6741 168.722 86.5494 169.849 84.5782 171.641L84.4502 171.769L56.4707 168.569L56.0867 160.556H46.0263V160.531Z" fill="#4D67CA"/>
<path d="M138.848 251.279L138.08 251.228C138.899 237.609 136.595 229.11 134.496 224.4C132.243 219.306 129.76 217.412 129.734 217.386L129.683 217.36L129.658 217.309C124.077 209.246 95.9183 199.8 78.9718 196.856C50.0963 191.838 44.6949 184.671 40.3431 178.911C40.0615 178.552 39.8055 178.194 39.5239 177.836C35.2233 172.255 34.737 164.268 35.121 158.56C35.5049 152.646 36.836 147.859 36.9384 147.45C37.3992 143.892 36.7848 141.05 35.1721 139.002C32.9706 136.237 29.6428 135.879 29.6172 135.879L29.6939 135.111C29.8475 135.137 33.3801 135.521 35.7864 138.541C37.5527 140.768 38.2183 143.815 37.732 147.578V147.629C37.6808 147.834 32.177 167.033 40.1639 177.375C40.4454 177.733 40.7015 178.092 40.9831 178.45C45.2325 184.107 50.5315 191.121 79.1254 196.088C96.1743 199.057 124.512 208.58 130.272 216.797C130.656 217.104 133.011 219.101 135.187 224.016C137.337 228.829 139.692 237.455 138.848 251.279Z" fill="#4D67CA"/>
<path d="M134.522 150.189L130.835 173.509C130.733 174.098 130.247 174.559 129.632 174.585L100.322 176.556C99.5023 176.607 98.8368 175.89 98.9648 175.071L102.651 151.75C102.753 151.162 103.24 150.701 103.854 150.675L133.165 148.704C133.984 148.653 134.65 149.37 134.522 150.189Z" fill="#4D67CA"/>
<path d="M103.086 173.97L81.2759 175.429C80.6103 175.48 80.0983 176.044 80.1495 176.735C80.2007 177.4 80.7639 177.912 81.4551 177.861L103.265 176.402L103.086 173.97Z" fill="#4D67CA"/>
<path d="M136.262 149.984L132.576 173.407C132.474 173.996 131.987 174.457 131.399 174.508L102.088 176.479C101.269 176.53 100.603 175.813 100.731 174.994L104.417 151.571C104.52 150.982 105.006 150.522 105.595 150.47L134.906 148.499C135.725 148.422 136.39 149.165 136.262 149.984Z" fill="white"/>
<path d="M101.985 176.837C101.525 176.837 101.064 176.632 100.757 176.3C100.398 175.916 100.27 175.404 100.347 174.917L104.033 151.494C104.161 150.726 104.801 150.138 105.569 150.086L134.88 148.115C135.392 148.09 135.878 148.269 136.237 148.653C136.595 149.037 136.723 149.549 136.646 150.035L132.96 173.458C132.832 174.226 132.192 174.815 131.424 174.866L102.113 176.837C102.062 176.837 102.037 176.837 101.985 176.837ZM134.982 148.883C134.957 148.883 134.931 148.883 134.931 148.883L105.621 150.854C105.185 150.88 104.852 151.187 104.776 151.622L101.089 175.045C101.038 175.327 101.141 175.583 101.32 175.788C101.499 175.992 101.781 176.095 102.062 176.069L131.373 174.098C131.808 174.073 132.141 173.765 132.218 173.33L135.904 149.907C135.955 149.626 135.853 149.37 135.674 149.165C135.494 148.986 135.238 148.883 134.982 148.883Z" fill="#4D67CA"/>
<path d="M120.965 162.937C121.169 161.667 120.565 160.514 119.616 160.361C118.667 160.209 117.732 161.115 117.528 162.385C117.324 163.655 117.928 164.809 118.877 164.961C119.826 165.113 120.761 164.207 120.965 162.937Z" fill="white"/>
<path d="M119.163 165.318C119.06 165.318 118.983 165.318 118.881 165.292C118.292 165.19 117.806 164.806 117.499 164.217C117.191 163.654 117.115 162.963 117.217 162.272C117.447 160.787 118.599 159.737 119.751 159.916C120.34 160.019 120.827 160.403 121.134 160.992C121.441 161.555 121.518 162.246 121.415 162.937C121.313 163.628 120.98 164.268 120.545 164.703C120.135 165.113 119.675 165.318 119.163 165.318ZM119.495 160.659C118.804 160.659 118.139 161.401 117.985 162.374C117.908 162.911 117.96 163.423 118.19 163.859C118.395 164.243 118.676 164.473 119.035 164.524C119.367 164.575 119.726 164.447 120.033 164.14C120.366 163.807 120.596 163.347 120.699 162.809C120.775 162.271 120.724 161.76 120.494 161.324C120.289 160.94 120.007 160.71 119.649 160.659C119.598 160.684 119.547 160.659 119.495 160.659Z" fill="#4D67CA"/>
<path d="M83.8361 171.436L81.5066 156.384L81.6602 156.256C85.2184 152.928 79.6122 144.301 79.561 144.199L80.201 143.789C80.457 144.173 86.0888 152.851 82.3258 156.691L84.6041 171.334L83.8361 171.436Z" fill="#4D67CA"/>
<path d="M56.5729 162.604L45.6677 161.376L45.6421 160.147H56.4449L56.5729 162.604Z" fill="#4D67CA"/>
<path d="M96.9426 172.383C94.7411 171.641 93.0259 172.127 93.0003 172.127L92.8723 171.641C92.9491 171.615 94.7667 171.103 97.1218 171.897L96.9426 172.383Z" fill="#4D67CA"/>
<path d="M96.149 170.847C94.9202 170.361 92.1811 170.361 92.1555 170.361V169.849C92.2835 169.849 95.0482 169.849 96.3537 170.386L96.149 170.847Z" fill="#4D67CA"/>
<path d="M95.1761 123.412L94.7666 123.105L96.0209 121.595L96.5329 120.11L96.9936 120.264L96.4817 121.851L95.1761 123.412Z" fill="#4D67CA"/>
<path d="M96.4559 124.436L96.0464 124.129L97.3007 122.388L97.6847 121.083L98.1967 121.236L97.7614 122.593L96.4559 124.436Z" fill="#4D67CA"/>
<path d="M93.6402 122.388L93.2307 122.081L94.229 120.596L94.7154 118.83L95.2274 118.984L94.6642 120.852L93.6402 122.388Z" fill="#4D67CA"/>
<path d="M93.9219 124.129C93.4356 124.129 92.7444 123.95 91.9764 123.182L92.3349 122.824C93.0773 123.566 93.6915 123.643 94.0243 123.617L91.9764 120.724L90.9013 121.8L90.543 121.441L92.0277 119.956L94.8179 123.899L94.5619 124.027C94.5619 124.001 94.3059 124.129 93.9219 124.129Z" fill="#4D67CA"/>
<path d="M72.7003 120.187L69.1165 120.955C69.1165 120.955 72.1883 123.259 72.7003 120.187Z" fill="#4D67CA"/>
<path d="M56.1714 148.634L55.8501 160.379L56.6178 160.4L56.939 148.655L56.1714 148.634Z" fill="#4D67CA"/>
<path d="M312.281 248.361H303.705L302.656 243.087L300.864 233.974L311.027 233.82L311.923 244.009L312.281 248.361Z" fill="white"/>
<path d="M312.716 248.745H303.398L300.403 233.59L311.385 233.436L312.716 248.745ZM304.038 247.977H311.872L310.694 234.204L301.351 234.332L304.038 247.977Z" fill="#364EA5"/>
<path d="M311.923 245.442C311.18 246.236 308.108 248.796 303.065 245.289C303.014 245.263 302.963 245.263 302.912 245.289L288.96 252.738C288.32 253.096 288.551 254.069 289.293 254.069H312.051C313.1 254.069 313.868 253.096 313.638 252.072L312.153 245.494C312.153 245.391 312.025 245.366 311.923 245.442Z" fill="#364EA5"/>
<path d="M311.922 244.009L302.655 243.087L300.863 233.974L311.026 233.82L311.922 244.009Z" fill="#364EA5"/>
<path d="M344.536 248.361H335.96L334.603 243.932L334.322 242.985L331.583 233.974L341.745 233.82L343.563 243.292L343.742 244.239L344.536 248.361Z" fill="white"/>
<path d="M345.022 248.745H335.704L331.096 233.59L342.103 233.436L345.022 248.745ZM336.241 247.977H344.075L341.438 234.204L332.094 234.332L336.241 247.977Z" fill="#364EA5"/>
<path d="M343.921 245.442C343.179 246.236 340.107 248.796 335.064 245.289C335.013 245.263 334.961 245.263 334.91 245.289L320.959 252.738C320.319 253.096 320.549 254.069 321.292 254.069H344.049C345.099 254.069 345.867 253.096 345.636 252.072L344.151 245.494C344.151 245.391 344.023 245.366 343.921 245.442Z" fill="#364EA5"/>
<path d="M343.563 243.292L334.603 243.932L334.322 242.985L331.583 233.974L341.745 233.82L343.563 243.292Z" fill="#364EA5"/>
<path d="M289.14 140.282V180.984L301.171 241.398H315.763L308.595 180.984L312.179 142.842L289.14 140.282Z" fill="#364EA5"/>
<path d="M260.852 96.9687L257.191 103.496L253.07 100.655L251.431 99.5286C249.947 99.5542 245.441 96.5079 244.673 95.7911C243.931 95.0744 244.596 94.1016 244.596 94.1016C243.982 92.9497 244.929 92.3609 244.929 92.3609C244.596 91.5673 245.723 90.7482 245.723 90.7482C245.748 89.6986 246.926 89.0586 246.926 89.0586L242.6 85.9868C239.656 83.5293 240.654 81.8909 240.654 81.8909L249.588 87.3691C254.862 89.8522 255.553 94.716 255.553 94.716L257.14 95.3815L260.852 96.9687Z" fill="white"/>
<path d="M257.32 104.06L251.304 99.9125C249.512 99.7845 245.058 96.6871 244.418 96.0727C243.727 95.4327 243.932 94.588 244.188 94.1016C243.829 93.2312 244.162 92.5913 244.521 92.2329C244.418 91.5673 244.93 90.9273 245.365 90.5689C245.468 89.9034 245.903 89.3914 246.261 89.0842L242.37 86.2939C239.196 83.6572 240.271 81.7629 240.322 81.6861L240.527 81.3533L249.794 87.0107C254.607 89.289 255.707 93.4104 255.912 94.4088L261.416 96.7383L257.32 104.06ZM251.535 99.1446L257.064 102.959L260.315 97.1735L255.195 95.0232L255.17 94.8184C255.17 94.7672 254.427 90.1338 249.436 87.7787L249.41 87.7531L240.886 82.5309C240.834 83.0941 241.039 84.2204 242.857 85.7563L247.669 89.1866L247.132 89.4682C247.132 89.4682 246.159 90.0058 246.133 90.8249V91.0041L245.98 91.1065C245.749 91.2857 245.135 91.8489 245.314 92.2585L245.442 92.5656L245.161 92.7448C245.058 92.8216 244.546 93.2056 244.956 93.9736L245.058 94.1784L244.93 94.3832C244.879 94.46 244.469 95.0999 244.956 95.5607C245.775 96.3287 250.152 99.1958 251.432 99.1702L251.535 99.1446Z" fill="#364EA5"/>
<path d="M301.3 147.066L310.004 179.32L329.203 241.782H344.818L330.483 176.76L326.899 145.786L301.3 147.066Z" fill="#5B74CF"/>
<path d="M345.304 242.166H328.92L328.844 241.884L309.644 179.423L300.813 146.707L327.256 145.376L327.308 145.735L330.891 176.684L345.304 242.166ZM329.484 241.398H344.331L330.098 176.812L326.565 146.17L301.811 147.399L310.387 179.192L329.484 241.398Z" fill="#364EA5"/>
<path d="M317.682 71.9841L316.71 76.0288C316.71 76.0288 315.993 77.0527 315.199 77.2575L315.66 72.8801L317.682 71.9841Z" fill="#364EA5"/>
<path d="M305.959 80.099L305.421 82.9917L304.474 88.1115L316.582 88.4187L315.942 76.848L315.916 74.0321C316.531 73.6481 317.068 73.2641 317.478 72.8802C318.912 71.6514 319.27 70.6018 319.167 69.8083V69.7827C318.988 68.5795 317.76 67.914 317.76 67.914L317.017 60.5671L302.4 61.7958C302.323 62.103 302.272 62.3846 302.195 62.6662V62.7174C301.863 64.2277 301.607 65.5845 301.427 66.8388V66.89C299.405 81.0206 305.959 80.099 305.959 80.099Z" fill="white"/>
<path d="M316.991 88.8282L304.012 88.4954L305.497 80.5086C304.883 80.4574 303.807 80.2526 302.809 79.2542C300.735 77.1807 300.121 73.0081 300.991 66.8644V66.8132C301.171 65.5332 301.427 64.1509 301.759 62.6661V62.6405C301.836 62.3334 301.887 62.0518 301.964 61.7446L302.041 61.463L317.298 60.183L318.066 67.7091C318.45 67.9651 319.32 68.6563 319.5 69.757V69.7826C319.653 70.8834 319.039 72.0353 317.682 73.1873C317.272 73.5457 316.786 73.9041 316.248 74.2368L316.274 76.8479L316.991 88.8282ZM304.934 87.7531L316.172 88.0346L315.557 76.8735L315.532 73.8273L315.711 73.7249C316.3 73.3665 316.786 72.9825 317.221 72.6241C318.348 71.6514 318.885 70.7298 318.783 69.9106V69.885C318.629 68.8611 317.58 68.2979 317.58 68.2979L317.4 68.1955L316.658 61.0278L302.707 62.2054C302.655 62.4101 302.604 62.6149 302.579 62.7941V62.8197C302.246 64.3045 301.99 65.6612 301.811 66.9412V66.9924C300.787 74.3136 302.118 77.4111 303.398 78.7167C304.601 79.9198 305.907 79.7662 305.958 79.7662L306.521 79.6894L306.393 80.2526L304.934 87.7531Z" fill="#364EA5"/>
<path d="M314.687 62.4613L313.868 70.397L315.43 70.013C315.43 70.013 316.223 68.0675 317.734 68.2211C318.374 68.2979 319.295 69.3986 319.193 70.3458C319.193 70.3458 324.85 60.5158 319.781 60.0038C319.781 60.0038 311.743 47.102 307.878 55.4728C307.878 55.4728 301.862 52.4522 303.117 57.6999C303.117 57.6999 298.458 56.0104 300.173 62.8197L301.35 67.2227L302.195 62.7173C302.195 62.7173 305.779 64.3045 311.385 62.4613C311.385 62.4613 310.003 64.1253 307.519 64.7908C307.494 64.7396 312.383 64.3301 314.687 62.4613Z" fill="#364EA5"/>
<path d="M260.853 96.9687L257.192 103.496L253.071 100.655L257.141 95.3815L260.853 96.9687Z" fill="#364EA5"/>
<path d="M305.42 83.0173C310.822 82.3005 312.281 76.8992 312.332 76.72C311.206 78.2815 307.955 79.4846 305.958 79.8686L305.42 83.0173Z" fill="#364EA5"/>
<path d="M335.704 135.265L326.335 134.65V134.676L326.77 138.029L327.231 141.536L327.948 147.04C327.948 147.04 308.185 155.181 288.244 147.578L290.573 119.316L286.298 120.443C284.353 122.696 281.05 123.182 278.542 121.62L252.917 104.751L258.395 94.9975L279.438 107.925L289.78 91.4905C290.778 89.8777 292.288 88.6234 294.055 87.9322L304.985 83.6572C304.985 83.6572 309.03 89.8265 316.863 83.4268L330.098 91.0809C332.351 92.3096 334.04 94.3831 334.808 96.8406L341.515 128.174C342.232 133.038 339.262 134.906 335.704 135.265Z" fill="#FFEED6"/>
<path d="M306.675 151.187C301.069 151.187 294.592 150.394 288.116 147.936L287.834 147.834L290.138 119.829L286.503 120.801C284.404 123.131 280.999 123.617 278.337 121.953L252.405 104.879L258.242 94.4856L279.31 107.439L289.447 91.3369C290.496 89.6474 292.083 88.3419 293.901 87.6251L305.113 83.2477L305.292 83.5037C305.318 83.5293 306.675 85.5516 309.26 85.9356C311.487 86.2684 313.97 85.3468 316.607 83.1709L316.812 82.9917L330.277 90.7738C332.632 92.0537 334.373 94.1784 335.166 96.7639V96.7895L341.873 128.123C342.206 130.247 341.873 131.988 340.875 133.268C339.825 134.625 338.059 135.444 335.729 135.674H335.704L326.77 135.085L328.357 147.322L328.075 147.424C328.024 147.45 323.007 149.498 315.609 150.573C313.074 150.906 310.028 151.187 306.675 151.187ZM288.653 147.322C306.88 154.131 325.106 147.731 327.538 146.81L325.9 134.241L335.678 134.906C337.137 134.753 339.109 134.266 340.261 132.782C341.105 131.681 341.412 130.145 341.105 128.251L334.398 96.9687C333.656 94.588 332.069 92.6425 329.893 91.4393L316.863 83.9133C314.098 86.1148 311.487 87.0363 309.107 86.6779C306.726 86.3196 305.318 84.7836 304.832 84.1692L294.182 88.3419C292.493 89.0074 291.034 90.2106 290.087 91.7465L279.54 108.514L258.498 95.5864L253.403 104.674L278.746 121.339C281.127 122.824 284.173 122.363 286.016 120.238L286.093 120.161L291.008 118.856L288.653 147.322Z" fill="#364EA5"/>
<path d="M298.534 111.253L303.193 125.025C303.373 125.563 302.963 126.126 302.4 126.126H273.396C273.115 126.126 272.833 125.972 272.679 125.716L264.206 111.944C263.873 111.381 264.257 110.664 264.923 110.664H297.741C298.099 110.69 298.432 110.92 298.534 111.253Z" fill="#364EA5"/>
<path d="M297.358 111.254L302.017 125.026C302.196 125.563 301.786 126.127 301.223 126.127H272.219C271.938 126.127 271.656 125.973 271.503 125.717L263.029 111.945C262.697 111.382 263.081 110.665 263.746 110.665H296.564C296.922 110.69 297.23 110.921 297.358 111.254Z" fill="white"/>
<path d="M301.222 126.51H272.219C271.809 126.51 271.399 126.279 271.169 125.921L262.696 112.149C262.466 111.765 262.44 111.304 262.67 110.92C262.901 110.536 263.285 110.306 263.745 110.306H296.563C297.075 110.306 297.562 110.638 297.715 111.125L302.374 124.897C302.502 125.281 302.451 125.665 302.221 125.998C301.99 126.331 301.632 126.51 301.222 126.51ZM263.745 111.074C263.515 111.074 263.387 111.227 263.361 111.304C263.31 111.381 263.233 111.56 263.361 111.765L271.835 125.537C271.911 125.665 272.065 125.742 272.219 125.742H301.222C301.376 125.742 301.504 125.665 301.581 125.563C301.657 125.435 301.683 125.281 301.632 125.153L296.973 111.381C296.922 111.202 296.742 111.074 296.538 111.074H263.745Z" fill="#364EA5"/>
<path d="M307.903 127.636L306.163 127.431L304.243 127.201C304.243 127.201 300.966 128.02 299.123 127.739C299.021 127.713 298.893 127.687 298.79 127.636L294.157 125.921C293.824 125.793 293.568 125.537 293.491 125.204C293.414 124.897 293.491 124.564 294.029 124.411L293.21 124.129C293.21 124.129 291.853 123.028 292.928 122.491C292.928 122.491 291.546 120.852 293.466 120.571C293.466 120.571 292.851 119.956 293.594 119.419C293.824 119.265 294.08 119.214 294.362 119.265L298.201 120.11L301.094 120.648L301.836 120.776L300.813 117.653L306.291 121.518L307.135 121.748L307.622 121.876L307.903 127.636Z" fill="white"/>
<path d="M299.968 128.199C299.635 128.199 299.328 128.174 299.047 128.148C298.919 128.123 298.765 128.097 298.637 128.046L294.004 126.331C293.543 126.151 293.184 125.793 293.082 125.332C293.031 125.051 293.056 124.795 293.184 124.59L293.005 124.539L292.954 124.487C292.8 124.359 292.032 123.72 292.109 123.003C292.135 122.849 292.186 122.644 292.391 122.44C292.186 122.081 291.93 121.544 292.135 121.032C292.263 120.724 292.493 120.494 292.877 120.366C292.852 120.238 292.826 120.11 292.826 119.982C292.852 119.752 292.954 119.444 293.364 119.163C293.671 118.958 294.055 118.881 294.413 118.958L298.253 119.803L301.222 120.366L300.045 116.757L306.419 121.236L307.981 121.646L308.288 128.071L304.243 127.611C303.834 127.713 301.683 128.199 299.968 128.199ZM293.389 123.822L295.386 124.487L294.106 124.795C293.773 124.871 293.824 124.999 293.85 125.127C293.901 125.332 294.055 125.486 294.285 125.588L298.919 127.303C299.021 127.329 299.098 127.355 299.175 127.38C300.915 127.636 304.115 126.843 304.141 126.843L304.217 126.817L307.494 127.201L307.264 122.26L306.112 121.953L301.53 118.702L302.374 121.339L298.125 120.545L294.285 119.7C294.132 119.675 293.952 119.7 293.824 119.777C293.722 119.828 293.62 119.931 293.62 120.033C293.62 120.161 293.722 120.315 293.748 120.34L294.285 120.878L293.517 120.98C293.312 121.006 292.928 121.083 292.852 121.313C292.749 121.595 293.056 122.081 293.21 122.286L293.517 122.67L293.082 122.875C292.98 122.926 292.877 123.003 292.877 123.08C292.852 123.284 293.159 123.643 293.389 123.822Z" fill="#364EA5"/>
<path d="M327.231 141.536L307.955 133.242L307.699 121.723L308.595 132.346L326.335 134.676L326.77 138.029L327.231 141.536Z" fill="#364EA5"/>
<path d="M245.978 90.5795L245.638 90.9621L247.934 93.0031L248.274 92.6204L245.978 90.5795Z" fill="#364EA5"/>
<path d="M245.148 92.0576L244.811 92.4429L246.853 94.2297L247.19 93.8444L245.148 92.0576Z" fill="#364EA5"/>
<path d="M244.704 94.0849L244.401 94.4979L245.888 95.5873L246.19 95.1744L244.704 94.0849Z" fill="#364EA5"/>
<path d="M293.403 120.417L293.302 120.919L297.143 121.687L297.243 121.185L293.403 120.417Z" fill="#364EA5"/>
<path d="M292.867 122.057L292.8 122.565L295.821 122.961L295.887 122.453L292.867 122.057Z" fill="#364EA5"/>
<path d="M293.854 124.132L293.812 124.642L295.649 124.792L295.691 124.281L293.854 124.132Z" fill="#364EA5"/>
<path d="M307.903 127.636L306.163 127.431L307.11 121.825L307.622 121.953L307.903 127.636Z" fill="#364EA5"/>
<path d="M308.415 132.423L307.263 121.569L326.539 122.465L323.57 109.128L324.338 108.975L327.512 123.284L308.134 122.388L309.183 132.321L308.415 132.423Z" fill="#364EA5"/>
<path d="M279.634 107.375L279.208 108.014L281.508 109.547L281.934 108.908L279.634 107.375Z" fill="#364EA5"/>
<path d="M306.419 74.6208L302.323 74.1088C302.323 74.1088 302.579 77.9487 306.419 74.6208Z" fill="#364EA5"/>
<path d="M281.715 119.035C282.846 119.035 283.763 118.519 283.763 117.883C283.763 117.247 282.846 116.731 281.715 116.731C280.584 116.731 279.667 117.247 279.667 117.883C279.667 118.519 280.584 119.035 281.715 119.035Z" fill="white"/>
<path d="M281.716 119.419C280.359 119.419 279.284 118.753 279.284 117.883C279.284 117.013 280.359 116.347 281.716 116.347C283.072 116.347 284.147 117.013 284.147 117.883C284.147 118.753 283.072 119.419 281.716 119.419ZM281.716 117.115C280.768 117.115 280.052 117.525 280.052 117.883C280.052 118.241 280.768 118.651 281.716 118.651C282.663 118.651 283.38 118.241 283.38 117.883C283.38 117.525 282.663 117.115 281.716 117.115Z" fill="#364EA5"/>
<path d="M374 254.069H0V255.093H374V254.069Z" fill="#4D67CA"/>
</svg>
