<svg width="592" height="420" viewBox="0 0 592 420" fill="none" xmlns="http://www.w3.org/2000/svg">
<path d="M557.14 263.28C555.442 278.994 551.704 298.192 544.739 321.296L539.43 320.616C539.43 320.616 539.642 313.226 540.109 302.099C541.426 272.666 544.824 217.241 552.044 204.202C552.044 204.245 561.727 221.318 557.14 263.28Z" fill="white"/>
<path d="M545.163 321.976L538.75 321.169V320.574C538.75 320.489 538.963 313.057 539.43 302.057C540.831 270.968 544.229 216.902 551.449 203.905L552.001 202.928L552.553 203.905C552.936 204.627 562.279 221.658 557.735 263.323C555.824 280.949 551.619 300.485 545.291 321.424L545.163 321.976ZM540.067 320.065L544.272 320.574C550.472 299.891 554.592 280.609 556.503 263.195C560.368 227.859 553.998 210.106 552.044 205.647C545.333 220.214 542.105 271.987 540.746 302.099C540.322 311.401 540.109 318.111 540.067 320.065Z" fill="#A6B9FF"/>
<path d="M542.615 328.304H541.511C542.148 257.589 551.407 204.373 551.492 203.863L552.596 204.075C552.511 204.543 543.295 257.674 542.615 328.304Z" fill="#A6B9FF"/>
<path d="M557.14 263.281C555.441 278.995 551.704 298.192 544.739 321.297L539.43 320.617C539.43 320.617 539.642 313.227 540.109 302.1C545.631 285.748 552.468 271.902 557.14 263.281Z" fill="#284FDB"/>
<path d="M540.406 318.961C540.406 318.961 559.009 268.08 570.646 255.466C570.646 255.466 578.291 286.725 544.356 320.659L540.406 318.961Z" fill="white"/>
<path d="M544.526 321.381L539.6 319.3L539.812 318.748C540.576 316.667 558.627 267.612 570.222 255.041L571.028 254.149L571.326 255.295C571.411 255.635 573.237 263.365 570.901 275.427C568.777 286.512 562.492 303.416 544.866 321.084L544.526 321.381ZM541.214 318.62L544.229 319.894C561.387 302.609 567.503 286.13 569.584 275.299C571.326 266.253 570.689 259.543 570.264 256.909C559.476 269.906 543.252 313.142 541.214 318.62Z" fill="#A6B9FF"/>
<path d="M509.487 222.89C509.487 222.89 538.07 264.47 540.746 320.659H539.769C539.727 320.617 503.499 260.095 509.487 222.89Z" fill="white"/>
<path d="M541.383 321.254H539.345L539.175 320.956C539.09 320.787 530.001 305.582 521.761 285.96C514.159 267.825 505.707 242.172 508.85 222.763L509.105 221.191L509.997 222.508C510.082 222.593 517.26 233.168 524.692 250.411C531.53 266.338 539.982 291.481 541.383 320.574V321.254ZM509.869 224.631C505.495 259.798 537.094 314.84 540.067 319.937C538.58 291.311 530.298 266.678 523.545 250.963C517.727 237.415 512.036 228.029 509.869 224.631Z" fill="#A6B9FF"/>
<path d="M539.175 320.702C530.638 264.597 509.19 223.527 508.978 223.102L509.954 222.593C510.167 223.017 531.7 264.215 540.279 320.532L539.175 320.702Z" fill="#A6B9FF"/>
<path d="M540.109 326.648L539.047 326.265C553.87 284.134 570.009 255.465 570.179 255.168L571.156 255.72C570.986 256.018 554.847 284.601 540.109 326.648Z" fill="#A6B9FF"/>
<path d="M560.665 316.964L558.499 343.764L552.383 418.726H528.769L520.445 316.964H560.665Z" fill="white"/>
<path d="M552.978 419.363H528.175L519.765 316.327H561.387L552.978 419.363ZM529.364 418.089H551.789L559.986 317.601H521.124L529.364 418.089Z" fill="#A6B9FF"/>
<path d="M558.499 343.764L552.383 418.726H535.947L558.499 343.764Z" fill="#284FDB"/>
<path d="M320.235 20.0892V158.843C320.235 161.392 318.153 163.473 315.605 163.473H93.6069C91.0586 163.473 88.9775 161.392 88.9775 158.843V20.0892C88.9775 17.5409 91.0586 15.4598 93.6069 15.4598H315.648C318.153 15.4598 320.235 17.5409 320.235 20.0892Z" fill="#FFEED6"/>
<path d="M315.605 164.11H93.607C90.719 164.11 88.3406 161.731 88.3406 158.843V20.089C88.3406 17.201 90.719 14.8226 93.607 14.8226H315.648C318.536 14.8226 320.914 17.201 320.914 20.089V158.843C320.872 161.731 318.493 164.11 315.605 164.11ZM93.607 16.0968C91.3985 16.0968 89.6147 17.8805 89.6147 20.089V158.843C89.6147 161.052 91.3985 162.836 93.607 162.836H315.648C317.856 162.836 319.64 161.052 319.64 158.843V20.089C319.64 17.8805 317.856 16.0968 315.648 16.0968H93.607Z" fill="#374FAC"/>
<path d="M320.235 20.0892V39.4987H88.9775V20.0892C88.9775 17.5409 91.0586 15.4598 93.6069 15.4598H315.648C318.153 15.4598 320.235 17.5409 320.235 20.0892Z" fill="#4D67CA"/>
<path d="M320.872 40.1356H88.3406V20.089C88.3406 17.201 90.719 14.8226 93.607 14.8226H315.648C318.536 14.8226 320.914 17.201 320.914 20.089V40.1356H320.872ZM89.6147 38.8615H319.598V20.089C319.598 17.8805 317.814 16.0968 315.605 16.0968H93.607C91.3985 16.0968 89.6147 17.8805 89.6147 20.089V38.8615Z" fill="#374FAC"/>
<path d="M277.126 129.92V179.017C277.126 181.141 278.825 182.84 280.949 182.84H332.764C334.887 182.84 336.586 181.141 336.586 179.017V129.92C336.586 127.797 334.887 126.098 332.764 126.098H280.949C278.825 126.098 277.126 127.839 277.126 129.92Z" fill="#E1E8FF"/>
<path d="M332.764 183.476H280.949C278.485 183.476 276.489 181.48 276.489 179.017V129.92C276.489 127.457 278.485 125.46 280.949 125.46H332.764C335.227 125.46 337.223 127.457 337.223 129.92V179.017C337.223 181.48 335.185 183.476 332.764 183.476ZM280.949 126.735C279.207 126.735 277.763 128.179 277.763 129.92V179.017C277.763 180.758 279.207 182.202 280.949 182.202H332.764C334.505 182.202 335.949 180.758 335.949 179.017V129.92C335.949 128.179 334.505 126.735 332.764 126.735H280.949Z" fill="#A6B9FF"/>
<path d="M323.845 154.724C323.675 164.11 315.945 171.712 306.516 171.712C297.088 171.712 289.358 164.11 289.188 154.724H283.327C283.412 161.476 286.385 167.72 291.609 172.179C295.261 175.237 299.806 177.106 304.52 177.531C311.443 178.083 318.026 175.662 322.868 170.82C327.157 166.531 329.578 160.839 329.663 154.766H323.845V154.724Z" fill="white"/>
<path d="M306.474 178.21C305.837 178.21 305.157 178.168 304.52 178.125C299.678 177.743 294.964 175.789 291.227 172.646C285.833 168.102 282.817 161.731 282.732 154.723V154.086H289.867V154.723C290.037 163.77 297.512 171.117 306.559 171.117C315.605 171.117 323.08 163.77 323.25 154.723V154.086H330.385V154.723C330.3 160.967 327.837 166.828 323.42 171.245C318.875 175.747 312.802 178.21 306.474 178.21ZM283.964 155.36C284.219 161.731 287.064 167.507 291.991 171.669C295.516 174.642 299.976 176.469 304.563 176.851C311.231 177.403 317.729 175.025 322.401 170.31C326.435 166.276 328.729 161.009 328.984 155.318H324.397C323.887 164.747 315.945 172.306 306.431 172.306C296.918 172.306 288.976 164.747 288.466 155.318H283.964V155.36Z" fill="#A6B9FF"/>
<path d="M324.354 139.604L319.725 143.214C316.539 139.476 311.783 137.055 306.516 137.055C305.454 137.055 304.435 137.14 303.458 137.31L302.439 131.534C304.35 131.194 306.346 131.109 308.385 131.237C314.076 131.661 319.343 134.21 323.292 138.329C323.632 138.754 324.014 139.179 324.354 139.604Z" fill="white"/>
<path d="M319.64 144.063L319.258 143.596C316.072 139.858 311.443 137.692 306.516 137.692C305.539 137.692 304.52 137.777 303.543 137.947L302.906 138.075L301.632 131.067L302.269 130.939C304.265 130.6 306.304 130.472 308.385 130.642C314.204 131.067 319.64 133.658 323.717 137.905C324.099 138.33 324.482 138.754 324.864 139.179L325.289 139.689L319.64 144.063ZM306.516 136.418C311.613 136.418 316.412 138.542 319.81 142.322L323.42 139.476C323.208 139.221 322.995 139.009 322.783 138.797C318.918 134.762 313.779 132.341 308.3 131.916C306.559 131.789 304.817 131.831 303.161 132.086L303.968 136.588C304.775 136.503 305.667 136.418 306.516 136.418Z" fill="#A6B9FF"/>
<path d="M329.706 154.723H323.845C323.845 154.595 323.845 154.511 323.845 154.383C323.845 150.136 322.316 146.229 319.725 143.171L324.354 139.561C327.879 143.808 329.748 149.117 329.706 154.723Z" fill="white"/>
<path d="M323.208 155.361V154.723C323.208 154.596 323.208 154.511 323.208 154.384C323.208 150.434 321.806 146.611 319.258 143.596L318.833 143.086L324.439 138.669L324.821 139.136C328.432 143.469 330.385 148.99 330.3 154.681V155.318L323.208 155.361ZM324.482 154.086H329.069C328.984 149.117 327.327 144.318 324.269 140.453L320.659 143.299C323.038 146.399 324.397 150.179 324.482 154.086Z" fill="#A6B9FF"/>
<path d="M289.188 154.384C289.188 154.511 289.188 154.596 289.188 154.723H283.327C283.242 148.395 285.663 142.449 290.122 137.99C293.52 134.592 297.767 132.383 302.397 131.577L303.416 137.353C295.346 138.797 289.188 145.889 289.188 154.384Z" fill="white"/>
<path d="M289.825 155.361H282.69V154.723C282.605 148.225 285.068 142.109 289.655 137.523C293.138 134.04 297.47 131.789 302.269 130.897L302.906 130.77L304.18 137.777L303.543 137.905C295.601 139.349 289.825 146.229 289.825 154.341C289.825 154.469 289.825 154.554 289.825 154.681V155.361ZM283.964 154.086H288.551C288.678 145.72 294.582 138.584 302.694 136.843L301.887 132.341C297.597 133.233 293.69 135.357 290.59 138.457C286.385 142.662 284.049 148.183 283.964 154.086Z" fill="#A6B9FF"/>
<path d="M218.94 200.083V231.851C218.94 234.102 220.767 235.886 222.975 235.886H332.934C335.185 235.886 336.968 234.06 336.968 231.851V200.083C336.968 197.832 335.142 196.048 332.934 196.048H222.975C220.767 196.048 218.94 197.832 218.94 200.083Z" fill="#E1E8FF"/>
<path d="M332.934 236.523H222.975C220.384 236.523 218.303 234.442 218.303 231.851V200.083C218.303 197.492 220.384 195.411 222.975 195.411H332.934C335.524 195.411 337.605 197.492 337.605 200.083V231.851C337.605 234.442 335.524 236.523 332.934 236.523ZM222.975 196.685C221.106 196.685 219.577 198.214 219.577 200.083V231.851C219.577 233.72 221.106 235.249 222.975 235.249H332.934C334.802 235.249 336.331 233.72 336.331 231.851V200.083C336.331 198.214 334.802 196.685 332.934 196.685H222.975Z" fill="#A6B9FF"/>
<path d="M246.377 226.5C252.194 226.5 256.91 221.785 256.91 215.968C256.91 210.15 252.194 205.435 246.377 205.435C240.559 205.435 235.844 210.15 235.844 215.968C235.844 221.785 240.559 226.5 246.377 226.5Z" fill="white"/>
<path d="M246.377 227.137C240.218 227.137 235.207 222.126 235.207 215.967C235.207 209.809 240.218 204.797 246.377 204.797C252.535 204.797 257.547 209.809 257.547 215.967C257.547 222.126 252.535 227.137 246.377 227.137ZM246.377 206.071C240.94 206.071 236.481 210.488 236.481 215.967C236.481 221.446 240.898 225.863 246.377 225.863C251.813 225.863 256.273 221.446 256.273 215.967C256.273 210.488 251.813 206.071 246.377 206.071Z" fill="#A6B9FF"/>
<path d="M291.864 206.921H266.296V209.979H291.864V206.921Z" fill="white"/>
<path d="M292.288 210.404H265.871V206.496H292.288V210.404ZM266.721 209.554H291.439V207.346H266.721V209.554Z" fill="#A6B9FF"/>
<path d="M326.648 215.372H266.508V218.43H326.648V215.372Z" fill="white"/>
<path d="M327.073 218.855H266.084V214.948H327.073V218.855ZM266.933 218.005H326.223V215.797H266.933V218.005Z" fill="#A6B9FF"/>
<path d="M326.648 223.654H266.508V226.712H326.648V223.654Z" fill="white"/>
<path d="M327.073 227.137H266.084V223.23H327.073V227.137ZM266.933 226.288H326.223V224.079H266.933V226.288Z" fill="#A6B9FF"/>
<path d="M242.937 266.975L242.597 281.161L239.454 418.514H233.296V266.975H242.937Z" fill="white"/>
<path d="M242.937 266.975L242.597 281.161L233.296 279.929V266.975H242.937Z" fill="#A6B9FF"/>
<path d="M242.809 281.416L233.083 280.141V266.805H243.149L242.809 281.416ZM233.508 279.759L242.385 280.948L242.682 267.23H233.508V279.759Z" fill="#A6B9FF"/>
<path d="M316.582 267.188V418.726H310.424L307.493 289.613L306.941 267.188H316.582Z" fill="white"/>
<path d="M316.582 267.188V291.481L307.493 289.613L306.941 267.188H316.582Z" fill="#A6B9FF"/>
<path d="M430.236 266.975L429.896 281.161L426.753 418.514H420.637V266.975H430.236Z" fill="white"/>
<path d="M427.39 419.15H419.958V266.338H430.873L427.39 419.15ZM421.274 417.876H426.158L429.599 267.612H421.274V417.876Z" fill="#A6B9FF"/>
<path d="M503.881 267.188V418.726H497.723L494.792 289.613L494.282 267.188H503.881Z" fill="white"/>
<path d="M430.236 266.975L429.896 281.161L420.637 279.929V266.975H430.236Z" fill="#A6B9FF"/>
<path d="M430.108 281.416L420.382 280.141V266.805H430.448L430.108 281.416ZM420.849 279.759L429.726 280.948L430.023 267.23H420.849V279.759V279.759Z" fill="#A6B9FF"/>
<path d="M503.881 267.188V291.481L494.792 289.613L494.282 267.188H503.881Z" fill="#A6B9FF"/>
<path d="M512.927 263.917H224.461V273.898H512.927V263.917Z" fill="white"/>
<path d="M240.091 419.15H232.659V266.338H243.574L240.091 419.15ZM233.933 417.876H238.817L242.257 267.612H233.933V417.876Z" fill="#A6B9FF"/>
<path d="M317.219 419.363H309.787V418.726L306.304 266.551H317.219V419.363ZM311.061 418.089H315.945V267.825H307.621L311.061 418.089Z" fill="#A6B9FF"/>
<path d="M316.795 291.736L307.281 289.74L306.771 266.933H316.837V291.736H316.795ZM307.663 289.443L316.327 291.269V267.442H307.153L307.663 289.443Z" fill="#A6B9FF"/>
<path d="M504.518 419.363H497.128V418.726L493.646 266.551H504.561V419.363H504.518ZM498.36 418.089H503.244V267.825H494.92L498.36 418.089Z" fill="#A6B9FF"/>
<path d="M504.093 291.736L494.58 289.74L494.07 266.933H504.136V291.736H504.093ZM495.005 289.443L503.669 291.269V267.442H494.495L495.005 289.443Z" fill="#A6B9FF"/>
<path d="M513.565 274.536H223.824V263.281H513.565V274.536ZM225.099 273.262H512.29V264.555H225.099V273.262Z" fill="#A6B9FF"/>
<path d="M79.9736 360.115H40.8999V364.362H79.9736V360.115Z" fill="#A6B9FF"/>
<path d="M63.4099 323.165L62.1357 418.513H58.738L57.4639 323.165H63.4099Z" fill="white"/>
<path d="M62.7727 419.15H58.1008L56.8267 322.528H64.0468L62.7727 419.15ZM59.3749 417.876H61.4985L62.7727 323.802H58.1008L59.3749 417.876Z" fill="#A6B9FF"/>
<path d="M77.4255 323.165L88.4681 418.513H85.0704L71.4795 323.165H77.4255Z" fill="white"/>
<path d="M89.1899 419.15H84.5181L70.7573 322.528H78.0199L89.1899 419.15ZM85.6223 417.876H87.7459L76.8732 323.802H72.2438L85.6223 417.876Z" fill="#A6B9FF"/>
<path d="M43.4483 323.165L32.4058 418.513H35.8035L49.3943 323.165H43.4483Z" fill="white"/>
<path d="M36.3557 419.15H31.6838L31.7688 418.428L42.8963 322.528H50.1589L36.3557 419.15ZM33.1279 417.876H35.2514L48.6724 323.802H44.043L33.1279 417.876Z" fill="#A6B9FF"/>
<path d="M88.8928 319.342H32.4058V326.987H88.8928V319.342Z" fill="white"/>
<path d="M89.5297 327.625H31.7686V318.706H89.5297V327.625ZM33.0427 326.35H88.2555V319.98H33.0427V326.35Z" fill="#A6B9FF"/>
<path d="M246.971 4.45964V109.322C246.971 111.445 248.67 113.144 250.794 113.144H333.528C335.652 113.144 337.351 111.445 337.351 109.322V4.45964C337.351 2.33606 335.652 0.637207 333.528 0.637207H250.794C248.67 0.637207 246.971 2.33606 246.971 4.45964Z" fill="#E1E8FF"/>
<path d="M333.528 113.781H250.794C248.33 113.781 246.334 111.785 246.334 109.321V4.4595C246.334 1.99616 248.33 0 250.794 0H333.528C335.991 0 337.988 1.99616 337.988 4.4595V109.321C337.988 111.785 335.991 113.781 333.528 113.781ZM250.794 1.27414C249.052 1.27414 247.608 2.71817 247.608 4.4595V109.321C247.608 111.063 249.052 112.507 250.794 112.507H333.528C335.269 112.507 336.713 111.063 336.713 109.321V4.4595C336.713 2.71817 335.269 1.27414 333.528 1.27414H250.794Z" fill="#A6B9FF"/>
<path d="M269.566 35.5914C276.134 35.5914 281.458 30.2671 281.458 23.6994C281.458 17.1316 276.134 11.8074 269.566 11.8074C262.998 11.8074 257.674 17.1316 257.674 23.6994C257.674 30.2671 262.998 35.5914 269.566 35.5914Z" fill="white"/>
<path d="M269.566 36.2278C266.211 36.2278 263.068 34.9112 260.69 32.5328C258.311 30.1544 257.037 27.0116 257.037 23.6563C257.037 20.3011 258.354 17.1582 260.732 14.8223C263.111 12.4439 266.253 11.1697 269.566 11.1697C276.489 11.1697 282.095 16.8184 282.095 23.6988C282.095 30.6216 276.447 36.2278 269.566 36.2278ZM269.566 12.4438C263.365 12.4438 258.311 17.4979 258.311 23.6988C258.311 26.7142 259.458 29.5174 261.582 31.641C263.705 33.7646 266.551 34.9537 269.524 34.9537C275.725 34.9537 280.779 29.8996 280.779 23.6988H281.416H280.779C280.821 17.4979 275.767 12.4438 269.566 12.4438Z" fill="#A6B9FF"/>
<path d="M269.566 68.8886C276.134 68.8886 281.458 63.5644 281.458 56.9966C281.458 50.4288 276.134 45.1046 269.566 45.1046C262.998 45.1046 257.674 50.4288 257.674 56.9966C257.674 63.5644 262.998 68.8886 269.566 68.8886Z" fill="white"/>
<path d="M269.566 69.5258C266.211 69.5258 263.068 68.2092 260.69 65.8308C258.311 63.4524 257.037 60.3094 257.037 56.9542C257.037 50.0313 262.643 44.4251 269.566 44.4251C276.489 44.4251 282.095 50.0738 282.095 56.9542C282.095 60.3094 280.779 63.4523 278.4 65.7883C276.022 68.2516 272.879 69.5258 269.566 69.5258ZM269.566 45.7418C263.365 45.7418 258.311 50.7959 258.311 56.9967C258.311 63.1975 263.365 68.2516 269.566 68.2516C272.582 68.2516 275.385 67.1049 277.508 64.9813C279.632 62.8578 280.821 60.0121 280.821 57.0391C280.821 50.8383 275.767 45.7842 269.566 45.7418Z" fill="#A6B9FF"/>
<path d="M268.037 61.711L263.111 56.7844C262.686 56.3597 262.686 55.7226 263.111 55.2979C263.535 54.8732 264.172 54.8732 264.597 55.2979L268.08 58.7805L274.535 52.5797C274.96 52.1974 275.597 52.1975 276.022 52.6222C276.404 53.0469 276.404 53.684 275.979 54.1087L268.037 61.711Z" fill="white"/>
<path d="M268.037 62.3055L262.813 57.0815C262.219 56.4869 262.261 55.5526 262.813 55.0004C263.408 54.4058 264.342 54.4483 264.894 55.0004L268.08 58.1858L274.238 52.2822C274.535 52.0274 274.875 51.8575 275.3 51.8575C275.682 51.8575 276.064 52.0274 276.319 52.3247C276.574 52.622 276.744 52.9618 276.744 53.3865C276.744 53.7687 276.574 54.1509 276.277 54.4058L268.037 62.3055ZM263.875 55.4251C263.705 55.4251 263.535 55.51 263.45 55.595C263.195 55.8498 263.195 56.2321 263.45 56.4869L268.08 61.1163L275.682 53.8112C275.937 53.5564 275.937 53.1741 275.682 52.9193C275.555 52.7919 275.427 52.7494 275.257 52.7494C275.087 52.7494 274.917 52.7919 274.833 52.9193L268.08 59.3749L264.3 55.595C264.215 55.51 264.045 55.4251 263.875 55.4251Z" fill="#A6B9FF"/>
<path d="M305.242 52.4948H286.682V54.8732H305.242V52.4948Z" fill="white"/>
<path d="M305.667 55.2979H286.257V52.0701H305.667V55.2979ZM287.107 54.4485H304.817V52.9195H287.107V54.4485Z" fill="#A6B9FF"/>
<path d="M325.926 59.6298H286.682V62.0083H325.926V59.6298Z" fill="white"/>
<path d="M326.393 62.4329H286.3V59.2051H326.393V62.4329ZM287.107 61.5835H325.543V60.0545H287.149V61.5835H287.107Z" fill="#A6B9FF"/>
<path d="M269.566 102.228C276.134 102.228 281.458 96.9042 281.458 90.3365C281.458 83.7687 276.134 78.4445 269.566 78.4445C262.998 78.4445 257.674 83.7687 257.674 90.3365C257.674 96.9042 262.998 102.228 269.566 102.228Z" fill="white"/>
<path d="M269.566 102.866C266.211 102.866 263.068 101.549 260.69 99.1706C258.311 96.7922 257.037 93.6493 257.037 90.294C257.037 83.3712 262.643 77.765 269.566 77.765C272.921 77.765 276.064 79.0815 278.4 81.4599C280.779 83.8383 282.053 86.9813 282.053 90.3365H281.416H282.053C282.053 93.6918 280.736 96.8347 278.358 99.1706C276.022 101.549 272.879 102.866 269.566 102.866ZM269.566 79.0816C263.365 79.0816 258.311 84.1357 258.311 90.3365C258.311 93.352 259.458 96.1551 261.582 98.2787C263.705 100.402 266.551 101.591 269.524 101.591C272.539 101.591 275.342 100.445 277.466 98.3212C279.589 96.1976 280.779 93.3519 280.779 90.3789C280.779 87.3635 279.632 84.5604 277.508 82.4368C275.385 80.2283 272.582 79.0816 269.566 79.0816Z" fill="#A6B9FF"/>
<path d="M268.037 95.0087L263.111 90.0819C262.686 89.6572 262.686 89.0202 263.111 88.5954C263.535 88.1707 264.172 88.1707 264.597 88.5954L268.08 92.0781L274.535 85.8773C274.96 85.4951 275.597 85.495 276.022 85.9197C276.404 86.3444 276.404 86.9815 275.979 87.4062L268.037 95.0087Z" fill="white"/>
<path d="M268.037 95.6031L262.813 90.3791C262.261 89.7845 262.261 88.8501 262.813 88.298C263.408 87.7034 264.342 87.7459 264.894 88.298L268.08 91.4834L274.238 85.5799C274.535 85.325 274.875 85.1552 275.3 85.1552C275.682 85.1552 276.064 85.325 276.319 85.6223C276.871 86.2169 276.871 87.1513 276.277 87.7034L268.037 95.6031ZM263.875 88.7227C263.705 88.7227 263.578 88.7651 263.45 88.8926C263.195 89.1474 263.195 89.5297 263.45 89.7845L268.08 94.4138L275.682 87.1088C275.937 86.8539 275.937 86.4718 275.682 86.2169C275.427 85.9621 275.045 85.9621 274.79 86.2169L268.037 92.6726L264.257 88.8926C264.172 88.8076 264.045 88.7227 263.875 88.7227Z" fill="#A6B9FF"/>
<path d="M305.242 85.7928H286.682V88.1711H305.242V85.7928Z" fill="white"/>
<path d="M305.667 88.5951H286.257V85.3673H305.667V88.5951ZM287.107 87.7456H304.817V86.2167H287.107V87.7456Z" fill="#A6B9FF"/>
<path d="M325.926 92.9274H286.682V95.3059H325.926V92.9274Z" fill="white"/>
<path d="M326.393 95.7306H286.3V92.5027H326.393V95.7306ZM287.107 94.8812H325.543V93.3522H287.149V94.8812H287.107Z" fill="#A6B9FF"/>
<path d="M68.1243 194.944C67.5722 195.114 66.9776 195.199 66.2981 195.241L66.8502 199.446L68.4641 211.465H50.074L52.4524 171.33L74.58 170.226C74.6225 170.226 77.7653 192.183 68.1243 194.944Z" fill="white"/>
<path d="M69.2285 212.102H49.4368L51.9001 170.735L75.2169 169.588L75.3019 170.183C75.4293 171.117 78.4023 192.693 68.3366 195.581C67.9118 195.708 67.5296 195.793 67.0624 195.836L69.2285 212.102ZM50.7959 210.828H67.7844L65.5759 194.646L66.2555 194.604C66.8501 194.562 67.4022 194.477 67.9118 194.349C76.1088 192.013 74.4524 174.345 74.0702 170.905L53.0893 171.924L50.7959 210.828Z" fill="#A6B9FF"/>
<path d="M60.6068 175.959C60.6068 175.959 56.657 172.901 56.2322 175.959C55.8075 179.017 59.2902 181.65 59.2902 181.65C59.2902 181.65 58.2284 187.129 52.4098 187.681C52.4098 187.681 43.4908 182.542 47.4407 170.268C47.4407 170.268 41.2823 172.477 36.483 169.376C36.483 169.376 31.2166 165.426 34.7417 158.843C34.7417 158.843 37.7996 151.835 47.4407 156.21C47.4407 156.21 51.8152 157.951 51.3905 165.851C51.3905 165.851 75.939 154.893 74.6224 165.851C74.6224 165.851 82.1823 166.955 75.0896 175.407L74.7498 171.67C74.7923 171.627 71.9891 175.959 60.6068 175.959Z" fill="#3F58B2"/>
<path d="M145.762 388.995L145.677 403.563L145.635 410.443H132.851L131.874 401.057L130.6 388.783L145.762 388.995Z" fill="white"/>
<path d="M146.272 411.081H132.298L129.92 388.146L146.441 388.359L146.272 411.081ZM133.445 409.807H144.997L145.082 389.633L131.279 389.421L133.445 409.807Z" fill="#A6B9FF"/>
<path d="M132.554 406.069C133.658 407.216 138.245 411.081 145.762 405.857C145.847 405.815 145.932 405.815 145.974 405.857L166.743 416.985C167.72 417.494 167.338 418.981 166.233 418.981H132.299C130.727 418.981 129.581 417.537 129.92 416.008L132.129 406.239C132.256 406.027 132.469 405.942 132.554 406.069Z" fill="#A6B9FF"/>
<path d="M106.264 388.995L104.268 402.799L103.163 410.443H90.3794L90.7192 400.165L91.1014 388.783L106.264 388.995Z" fill="white"/>
<path d="M103.715 411.081H89.7422L90.5067 388.146L107.028 388.359L103.715 411.081ZM91.0588 409.807H102.611L105.499 389.633L91.6959 389.421L91.0588 409.807Z" fill="#A6B9FF"/>
<path d="M106.264 388.995L104.267 402.799L90.719 400.165L91.1012 388.783L106.264 388.995Z" fill="#A6B9FF"/>
<path d="M145.762 388.995L145.677 403.563L131.874 401.057L130.6 388.783L145.762 388.995Z" fill="#A6B9FF"/>
<path d="M129.326 399.401L153.11 398.977L155.913 297.13C156.295 288.763 149.627 281.755 141.26 281.755L103.545 282.605L119.897 311.273L129.326 399.401Z" fill="#4D67CA"/>
<path d="M120.746 263.493L90.2094 254.531L82.1823 208.28L77.0432 207.643L75.9814 279.802H116.542L120.746 263.493Z" fill="#4D67CA"/>
<path d="M106.943 278.783H74.2402L75.9816 270.713H87.8311L91.1014 269.821C92.0358 269.566 92.9701 269.566 93.9045 269.779L102.696 271.987L106.943 278.783Z" fill="white"/>
<path d="M108.09 279.419H73.4331L75.4717 270.076H87.746L90.9313 269.226C91.9507 268.929 93.0124 268.929 94.0742 269.184L103.121 271.435L108.09 279.419ZM75.047 278.145H105.796L102.314 272.539L93.7769 270.415C92.97 270.203 92.0781 270.203 91.2711 270.458L87.9159 271.392H76.4911L75.047 278.145Z" fill="#A6B9FF"/>
<path d="M85.1554 270.713V278.782H74.2402L75.9816 270.713H85.1554Z" fill="#A6B9FF"/>
<path d="M85.028 264.512L82.3098 278.485L81.5029 282.605L80.7384 286.597H33.3403L33.6376 279.335L33.8499 273.771V273.474L25.8653 271.902C22.6799 271.265 20.5139 268.25 20.9386 265.022L27.8615 212.527C28.2862 209.214 30.707 206.496 33.9349 205.689L50.074 201.272C64.3019 214.438 67.7421 201.4 67.7421 201.4L79.3793 204.925C81.4179 205.562 82.8195 207.473 82.8195 209.597L82.3098 263.365L85.028 264.512Z" fill="#EAEEFF"/>
<path d="M81.2479 287.277H32.6606L33.1703 274.068L25.7378 272.582C22.2126 271.902 19.8342 268.547 20.3014 264.979L27.2243 212.485C27.6915 208.917 30.2822 205.987 33.7649 205.095L50.2438 200.593L50.4986 200.848C55.4253 205.392 59.5026 207.261 62.603 206.326C66.0007 205.35 67.1049 201.315 67.1049 201.272L67.2748 200.635L79.5491 204.373C81.8425 205.052 83.4564 207.261 83.414 209.682L82.9043 263.026L85.7074 264.13L81.2479 287.277ZM34.0197 286.003H80.1861L84.3059 264.937L81.6726 263.918L82.1823 209.724C82.1823 207.855 80.9931 206.199 79.2093 205.647L68.1667 202.292C67.6571 203.608 66.213 206.666 62.9852 207.6C59.4601 208.62 55.0855 206.751 49.904 202.037L34.1046 206.369C31.0892 207.133 28.9231 209.639 28.4984 212.697L21.5756 265.192C21.1933 268.08 23.147 270.798 25.9926 271.393L34.5294 273.092L34.4869 273.898L34.0197 286.003Z" fill="#A6B9FF"/>
<path d="M130.387 298.913L112.252 398.976H88.0434L93.14 319.767H54.7033C27.734 318.068 33.2553 285.79 33.2553 285.79L36.1008 285.62L118.113 280.99C127.202 281.288 133.403 290.292 130.387 298.913Z" fill="white"/>
<path d="M112.762 399.614H87.3212L92.4178 320.404H54.6606C47.3556 319.937 41.7493 317.262 37.8844 312.42C29.8573 302.269 32.4481 286.342 32.5755 285.705L32.6604 285.196L36.0157 285.026L118.028 280.396H118.071C122.615 280.524 126.692 282.732 129.283 286.512C131.831 290.25 132.468 294.837 130.982 299.084L112.762 399.614ZM88.7227 398.34H111.7L129.75 298.744V298.702C131.109 294.794 130.557 290.59 128.221 287.192C125.885 283.794 122.19 281.755 118.071 281.628L33.7647 286.385C33.3825 289.145 31.9809 302.864 38.9038 311.613C42.5138 316.157 47.8228 318.663 54.7031 319.13H93.7768L88.7227 398.34Z" fill="#A6B9FF"/>
<path d="M82.3097 278.528L81.5028 282.647L33.6375 279.377L33.8498 273.006L82.3097 278.528Z" fill="#A6B9FF"/>
<path d="M102.951 278.57H60.6494V283.03H102.951V278.57Z" fill="white"/>
<path d="M103.588 283.667H60.0122V277.933H103.588V283.667ZM61.2863 282.392H102.314V279.207H61.2863V282.392V282.392Z" fill="#A6B9FF"/>
<path d="M163.897 238.944L154.256 281.203C154.002 282.265 153.067 283.03 151.963 283.03H98.0666C96.5376 283.03 95.4334 281.628 95.7732 280.141L105.414 237.882C105.669 236.821 106.603 236.056 107.708 236.056H161.604C163.133 236.056 164.237 237.458 163.897 238.944Z" fill="white"/>
<path d="M151.963 283.667H98.0665C97.1321 283.667 96.2827 283.242 95.7306 282.52C95.1784 281.798 94.9661 280.864 95.136 279.972L104.777 237.713C105.074 236.354 106.306 235.377 107.708 235.377H161.604C162.538 235.377 163.388 235.801 163.94 236.523C164.492 237.245 164.704 238.18 164.534 239.072L154.893 281.331C154.596 282.69 153.364 283.667 151.963 283.667ZM107.708 236.693C106.901 236.693 106.179 237.245 106.009 238.052L96.3676 280.312C96.2402 280.821 96.3676 281.373 96.7074 281.755C97.0472 282.18 97.5144 282.393 98.0665 282.393H151.963C152.77 282.393 153.492 281.84 153.662 281.033L163.303 238.774C163.43 238.265 163.303 237.713 162.963 237.33C162.623 236.906 162.156 236.693 161.604 236.693H107.708Z" fill="#A6B9FF"/>
<path d="M167.125 238.774L157.484 281.161C157.229 282.222 156.295 282.987 155.19 282.987H101.294C99.7652 282.987 98.6609 281.585 99.0007 280.099L108.642 237.712C108.897 236.651 109.831 235.886 110.935 235.886H164.831C166.318 235.886 167.465 237.288 167.125 238.774Z" fill="#4C64BC"/>
<path d="M155.191 283.667H101.295C100.36 283.667 99.5107 283.242 98.9586 282.52C98.364 281.798 98.1516 280.864 98.364 279.972L108.005 237.585C108.302 236.226 109.534 235.249 110.936 235.249H164.832C165.766 235.249 166.616 235.674 167.168 236.396C167.762 237.118 167.975 238.052 167.762 238.944L158.121 281.331C157.782 282.69 156.592 283.667 155.191 283.667ZM110.936 236.523C110.129 236.523 109.407 237.076 109.237 237.882L99.5957 280.269C99.4683 280.779 99.5957 281.331 99.9354 281.755C100.275 282.18 100.742 282.393 101.295 282.393H155.191C155.998 282.393 156.72 281.84 156.89 281.033L166.531 238.647C166.658 238.137 166.531 237.585 166.191 237.16C165.851 236.736 165.384 236.523 164.832 236.523H110.936Z" fill="#284FDB"/>
<path d="M137.743 260.497C138.275 258.189 137.298 255.993 135.561 255.593C133.824 255.192 131.984 256.739 131.452 259.048C130.921 261.357 131.898 263.553 133.635 263.953C135.372 264.353 137.212 262.806 137.743 260.497Z" fill="white"/>
<path d="M134.167 264.682C133.955 264.682 133.7 264.64 133.488 264.597C132.468 264.342 131.619 263.62 131.109 262.516C130.642 261.454 130.557 260.18 130.854 258.948C131.152 257.717 131.789 256.612 132.681 255.848C133.615 255.083 134.677 254.744 135.739 254.999C137.82 255.466 139.009 258.014 138.372 260.647C137.777 263.026 135.993 264.682 134.167 264.682ZM134.974 256.23C134.465 256.23 133.912 256.443 133.445 256.867C132.766 257.419 132.298 258.269 132.044 259.246C131.831 260.223 131.874 261.199 132.256 262.006C132.596 262.728 133.105 263.238 133.743 263.365C135.144 263.705 136.631 262.346 137.055 260.392C137.522 258.439 136.758 256.57 135.356 256.273C135.271 256.23 135.102 256.23 134.974 256.23Z" fill="#A6B9FF"/>
<path d="M90.5491 406.026C91.6534 407.216 96.1978 411.038 103.758 405.814C103.843 405.772 103.928 405.772 103.97 405.814L124.739 416.984C125.715 417.494 125.333 418.98 124.229 418.98L90.2943 418.895C88.7229 418.895 87.5761 417.451 87.9159 415.922L90.1669 406.154C90.2093 405.984 90.4217 405.899 90.5491 406.026Z" fill="#A6B9FF"/>
<path d="M83.4991 264.597L42.3867 257.632L45.4447 235.801L46.7188 235.971L43.8307 256.612L83.7114 263.365L83.4991 264.597Z" fill="#A6B9FF"/>
<path d="M66.2983 195.241L66.8504 199.446C60.0549 196.473 58.9932 189.805 58.9932 189.805C61.3716 193.882 65.0241 194.944 68.082 194.944C67.5724 195.114 66.9778 195.199 66.2983 195.241Z" fill="#A6B9FF"/>
<path d="M221.234 65.7032V178.125C221.234 181.183 218.77 183.646 215.712 183.646H118.071C115.013 183.646 112.549 181.183 112.549 178.125V65.7456C112.549 62.6876 115.013 60.2243 118.071 60.2243H215.712C218.77 60.1818 221.234 62.6452 221.234 65.7032Z" fill="white"/>
<path d="M215.712 184.283H118.07C114.673 184.283 111.912 181.523 111.912 178.125V65.7456C111.912 62.3479 114.673 59.5873 118.07 59.5873H215.712C219.11 59.5873 221.871 62.3479 221.871 65.7456V178.125C221.871 181.523 219.11 184.283 215.712 184.283ZM118.07 60.819C115.352 60.819 113.186 63.0275 113.186 65.7032V178.125C113.186 180.843 115.395 183.009 118.07 183.009H215.712C218.43 183.009 220.597 180.801 220.597 178.125V65.7456C220.597 63.0275 218.388 60.8614 215.712 60.8614H118.07V60.819Z" fill="#A6B9FF"/>
<path d="M221.234 65.7035V86.6844H112.549V65.7035C112.549 62.6456 115.013 60.1823 118.071 60.1823H215.712C218.77 60.1823 221.234 62.6456 221.234 65.7035Z" fill="#FFF8EE"/>
<path d="M221.871 87.3213H111.912V65.7034C111.912 62.3057 114.673 59.545 118.07 59.545H215.712C219.11 59.545 221.871 62.3057 221.871 65.7034V87.3213ZM113.186 86.0472H220.597V65.7034C220.597 62.9852 218.388 60.8192 215.712 60.8192H118.07C115.352 60.8192 113.186 63.0277 113.186 65.7034V86.0472Z" fill="#A6B9FF"/>
<path d="M121.723 146.696L118.835 144.785C118.962 144.573 132.511 124.696 151.793 132.723C158.843 135.654 171.967 141.132 182.033 129.835C183.009 128.731 183.944 127.372 184.963 125.885C189.04 119.982 194.604 111.87 208.875 112.464L208.747 115.904C196.345 115.395 191.801 122.02 187.809 127.839C186.747 129.41 185.728 130.854 184.623 132.128C172.901 145.295 157.739 138.966 150.476 135.951C133.743 128.943 121.808 146.526 121.723 146.696Z" fill="#A6B9FF"/>
<path d="M139.561 140.029C142.986 140.029 145.762 137.252 145.762 133.828C145.762 130.403 142.986 127.627 139.561 127.627C136.136 127.627 133.36 130.403 133.36 133.828C133.36 137.252 136.136 140.029 139.561 140.029Z" fill="white"/>
<path d="M139.561 140.665C135.781 140.665 132.723 137.607 132.723 133.827C132.723 130.047 135.781 126.989 139.561 126.989C143.341 126.989 146.399 130.047 146.399 133.827C146.399 137.607 143.341 140.665 139.561 140.665ZM139.561 128.264C136.503 128.264 133.997 130.769 133.997 133.827C133.997 136.885 136.503 139.391 139.561 139.391C142.619 139.391 145.125 136.885 145.125 133.827C145.125 130.769 142.619 128.264 139.561 128.264Z" fill="#A6B9FF"/>
<path d="M193.925 124.611C197.349 124.611 200.125 121.835 200.125 118.411C200.125 114.986 197.349 112.21 193.925 112.21C190.5 112.21 187.724 114.986 187.724 118.411C187.724 121.835 190.5 124.611 193.925 124.611Z" fill="white"/>
<path d="M193.925 125.248C190.145 125.248 187.087 122.19 187.087 118.41C187.087 114.63 190.145 111.573 193.925 111.573C197.705 111.573 200.762 114.63 200.762 118.41C200.762 122.148 197.662 125.248 193.925 125.248ZM193.925 112.804C190.867 112.804 188.361 115.31 188.361 118.368C188.361 121.426 190.867 123.932 193.925 123.932C196.983 123.932 199.488 121.426 199.488 118.368C199.488 115.31 196.983 112.804 193.925 112.804Z" fill="#A6B9FF"/>
<path d="M128.051 75.9812C129.576 75.9812 130.812 74.7453 130.812 73.2206C130.812 71.6959 129.576 70.46 128.051 70.46C126.527 70.46 125.291 71.6959 125.291 73.2206C125.291 74.7453 126.527 75.9812 128.051 75.9812Z" fill="white"/>
<path d="M128.051 76.6181C126.183 76.6181 124.654 75.0891 124.654 73.2203C124.654 71.3516 126.183 69.8226 128.051 69.8226C129.92 69.8226 131.449 71.3516 131.449 73.2203C131.449 75.0891 129.92 76.6181 128.051 76.6181ZM128.051 71.0968C126.862 71.0968 125.928 72.0311 125.928 73.2203C125.928 74.4095 126.862 75.3439 128.051 75.3439C129.24 75.3439 130.175 74.4095 130.175 73.2203C130.175 72.0311 129.24 71.0968 128.051 71.0968Z" fill="#A6B9FF"/>
<path d="M139.094 75.9812C140.619 75.9812 141.855 74.7453 141.855 73.2206C141.855 71.6959 140.619 70.46 139.094 70.46C137.569 70.46 136.333 71.6959 136.333 73.2206C136.333 74.7453 137.569 75.9812 139.094 75.9812Z" fill="white"/>
<path d="M139.094 76.6181C137.225 76.6181 135.696 75.0891 135.696 73.2203C135.696 71.3516 137.225 69.8226 139.094 69.8226C140.963 69.8226 142.492 71.3516 142.492 73.2203C142.492 75.0891 140.963 76.6181 139.094 76.6181ZM139.094 71.0968C137.905 71.0968 136.97 72.0311 136.97 73.2203C136.97 74.4095 137.905 75.3439 139.094 75.3439C140.283 75.3439 141.217 74.4095 141.217 73.2203C141.217 72.0311 140.283 71.0968 139.094 71.0968Z" fill="#A6B9FF"/>
<path d="M150.136 75.9812C151.661 75.9812 152.897 74.7453 152.897 73.2206C152.897 71.6959 151.661 70.46 150.136 70.46C148.612 70.46 147.376 71.6959 147.376 73.2206C147.376 74.7453 148.612 75.9812 150.136 75.9812Z" fill="white"/>
<path d="M150.136 76.6181C148.268 76.6181 146.739 75.0891 146.739 73.2203C146.739 71.3516 148.268 69.8226 150.136 69.8226C152.005 69.8226 153.534 71.3516 153.534 73.2203C153.534 75.0891 152.005 76.6181 150.136 76.6181ZM150.136 71.0968C148.947 71.0968 148.013 72.0311 148.013 73.2203C148.013 74.4095 148.947 75.3439 150.136 75.3439C151.326 75.3439 152.26 74.4095 152.26 73.2203C152.26 72.0311 151.326 71.0968 150.136 71.0968Z" fill="#A6B9FF"/>
<path d="M422.633 387.127L424.374 402.417L425.224 410.147H438.815V400.251L438.772 386.915L422.633 387.127Z" fill="white"/>
<path d="M439.494 410.784H424.672L421.911 386.49L439.367 386.235L439.494 410.784ZM425.819 409.51H438.22L438.135 387.552L423.355 387.764L425.819 409.51Z" fill="#A6B9FF"/>
<path d="M422.633 387.127L424.374 402.417L438.815 400.251L438.772 386.915L422.633 387.127Z" fill="#A6B9FF"/>
<path d="M439.027 405.517C437.838 406.749 432.996 410.826 424.969 405.262C424.884 405.22 424.799 405.22 424.714 405.262L402.587 417.07C401.567 417.622 401.95 419.193 403.139 419.193H439.24C440.896 419.193 442.128 417.664 441.788 416.008L439.452 405.602C439.367 405.432 439.155 405.39 439.027 405.517Z" fill="#284FDB"/>
<path d="M493.603 410.147H480.012L478.143 402.629L474.278 387.127L490.418 386.915L492.286 400.463L493.603 410.147Z" fill="white"/>
<path d="M494.325 410.784H479.502L473.472 386.49L490.97 386.235L494.325 410.784ZM480.479 409.51H492.839L489.823 387.552L475.043 387.764L480.479 409.51Z" fill="#A6B9FF"/>
<path d="M492.286 400.463L478.143 402.629L474.278 387.127L490.418 386.915L492.286 400.463Z" fill="#A6B9FF"/>
<path d="M493.009 405.517C491.819 406.749 486.978 410.826 478.95 405.262C478.865 405.22 478.781 405.22 478.696 405.262L456.568 417.07C455.549 417.622 455.931 419.193 457.12 419.193H493.221C494.877 419.193 496.109 417.664 495.769 416.008L493.433 405.602C493.348 405.432 493.136 405.39 493.009 405.517Z" fill="#284FDB"/>
<path d="M444.039 221.871C444.039 221.871 475.468 230.365 485.236 222.72L482.263 213.376L444.039 221.871Z" fill="#A6B9FF"/>
<path d="M447.012 242.342L443.274 297.725L444.761 397.872H418.938L412.95 295.856L415.201 211.635L453.722 207.515L447.012 242.342Z" fill="#3F58B3"/>
<path d="M477.676 209.384L480.225 287.192L493.051 398.042L469.479 397.915L446.12 297.088L432.189 215.203L477.676 209.384Z" fill="#4D67CA"/>
<path d="M432.911 95.4756C433.294 95.4756 433.506 95.4331 433.506 95.4331L433.378 99.6378L433.039 114.588L452.406 114.46L450.282 86.1318C456.356 82.3944 456.908 75.8963 453 74.1549C449.475 72.5835 443.317 66.0854 443.317 66.0854C424.672 61.8807 424.672 69.3556 424.672 69.3556C420.17 94.2864 430.363 95.5605 432.911 95.4756Z" fill="white"/>
<path d="M432.402 115.225L432.869 96.113C431.637 96.113 428.707 95.8157 426.371 93.0976C422.761 88.8929 421.954 80.8658 424.035 69.3136C424.035 68.9738 424.247 67.4873 425.861 66.2131C428.876 63.7923 434.78 63.5799 443.444 65.5335L443.614 65.5761L443.741 65.7035C443.784 65.7884 449.9 72.1166 453.255 73.6031C454.911 74.3676 455.973 75.8966 456.101 77.8503C456.313 80.9082 454.274 84.2635 450.962 86.472L453.128 115.098L432.402 115.225ZM434.143 94.669L434.016 99.6381L433.676 113.951L451.684 113.824L449.603 85.7925L449.942 85.5801C453.765 83.2442 454.954 79.9739 454.827 77.9353C454.742 76.4488 453.977 75.3021 452.745 74.7499C449.433 73.2634 443.911 67.6572 442.977 66.6804C432.869 64.4294 428.537 65.7035 426.71 67.1475C425.394 68.1668 425.351 69.3135 425.351 69.3985V69.4834C422.846 83.4565 425.054 89.5724 427.39 92.2905C429.471 94.7114 431.977 94.8813 432.996 94.8813H433.039C433.336 94.8813 433.506 94.8388 433.506 94.8388L434.143 94.669Z" fill="#A6B9FF"/>
<path d="M447.479 79.1241C447.479 79.1241 450.919 74.0276 454.104 75.7689C454.699 76.1087 455.124 76.3211 455.464 77.5103C455.464 77.5103 459.881 66.6376 454.274 62.4329C454.274 62.4329 451.174 60.9888 448.371 61.8807C448.371 61.8807 444.633 53.9811 437.201 57.2089C437.201 57.2089 432.062 46.0389 423.695 51.1354C423.695 51.1354 413.459 60.9039 426.965 67.9117C426.965 67.9117 436.734 69.7805 443.741 68.3789C443.741 68.4214 444.209 76.8306 447.479 79.1241Z" fill="#3F58B2"/>
<path d="M396.471 125.248L385.853 132.043L371.413 89.9967L367.166 78.1047L358.247 64.0892C358.247 64.0892 355.274 66.2127 359.945 77.2553C359.945 77.2553 355.698 75.9812 355.274 79.8036C355.274 79.8036 352.725 79.3789 352.725 82.7766C352.725 82.7766 350.602 83.2013 351.026 85.3249L352.725 92.1203C352.725 92.1203 355.698 91.2709 354.849 87.8732C354.849 87.8732 356.972 93.3945 361.22 93.3945L373.621 148.65C374.683 153.024 379.44 155.318 383.517 153.449L404.498 141.387L396.471 125.248Z" fill="white"/>
<path d="M380.544 154.766C379.397 154.766 378.251 154.511 377.189 154.002C375.108 152.982 373.579 151.114 373.027 148.82L360.71 94.0319C358.204 93.8195 356.463 91.9084 355.443 90.3369C354.976 91.7385 353.745 92.5029 352.895 92.7578L352.258 92.9276L350.389 85.4951C350.177 84.3484 350.474 83.414 351.324 82.777C351.579 82.5646 351.876 82.4372 352.088 82.3523C352.173 81.248 352.513 80.3986 353.192 79.8465C353.702 79.4218 354.297 79.2519 354.721 79.2094C354.934 78.275 355.401 77.553 356.123 77.0858C357.015 76.4912 358.077 76.4487 358.926 76.4912C354.806 66.2131 357.567 63.8771 357.864 63.6223L358.416 63.2401L367.76 77.9353L372.007 89.8273L386.193 131.109L396.726 124.356L405.39 141.685L383.814 154.086C382.795 154.511 381.648 154.766 380.544 154.766ZM355.443 87.6612C355.443 87.7037 357.482 92.7578 361.22 92.7578H361.729L374.258 148.523C374.725 150.392 376 152.005 377.741 152.855C379.482 153.704 381.521 153.704 383.262 152.897L403.691 141.133L396.216 126.183L385.513 133.021L370.818 90.2095L366.613 78.4024L358.289 65.2788C357.822 66.5104 357.482 69.6957 360.582 77.0008L361.092 78.2325L359.776 77.8502C359.776 77.8502 357.949 77.3406 356.845 78.0626C356.335 78.4024 355.996 78.9971 355.911 79.8465L355.826 80.526L355.146 80.3985C355.146 80.3985 354.467 80.3136 353.999 80.7383C353.575 81.1206 353.362 81.8001 353.362 82.7345V83.2442L352.853 83.3291C352.598 83.3716 351.366 83.7113 351.663 85.1129L353.15 91.1438C353.83 90.7191 354.679 89.8272 354.212 87.9585L355.443 87.6612Z" fill="#A6B9FF"/>
<path d="M359.393 87.2786C358.629 87.2786 357.779 87.1511 356.76 86.7689L355.826 86.4292L360.965 81.2901H365.891V82.5642H361.474L358.162 85.877C360.455 86.3867 361.559 85.3673 361.602 85.2824L361.814 85.07L362.111 85.1125L365.509 85.5372L365.339 86.8114L362.196 86.4292C361.814 86.7265 360.88 87.2786 359.393 87.2786Z" fill="#A6B9FF"/>
<path d="M432.232 95.0085L433.548 95.9429L433.421 99.5955C440.386 97.4719 443.359 90.4641 443.487 90.2092C439.962 94.2015 432.232 95.0085 432.232 95.0085Z" fill="#A6B9FF"/>
<path d="M390.1 127.159L399.869 147.97L413.247 144.36L412.822 215.712C412.822 215.712 433.421 229.515 451.259 224.419C467.016 219.917 485.236 222.72 485.236 222.72L475.68 151.58H497.765L487.105 120.279C485.534 115.65 481.923 111.997 477.294 110.341L452.321 101.464C452.321 101.464 440.854 120.151 432.359 103.588L412.61 112.719L390.1 127.159Z" fill="#FFEED6"/>
<path d="M442.722 226.203C427.517 226.203 413.162 216.732 412.482 216.265L412.185 216.095L412.61 145.253L399.529 148.778L389.293 126.99L412.355 112.21L432.656 102.824L432.954 103.376C435.12 107.58 437.626 109.746 440.429 109.874C446.29 110.086 451.769 101.295 451.811 101.21L452.066 100.785L477.549 109.831C482.39 111.53 486.086 115.31 487.742 120.152L498.699 152.303H476.445L486.001 223.57L485.151 223.442C484.981 223.4 466.888 220.724 451.429 225.141C448.541 225.863 445.61 226.203 442.722 226.203ZM413.459 215.373C416.008 216.987 434.865 228.454 451.089 223.825C464.892 219.875 480.734 221.531 484.514 221.998L474.958 150.944H496.873L486.51 120.449C484.981 115.99 481.541 112.507 477.124 110.936L452.618 102.229C451.386 104.098 446.205 111.275 440.386 111.063C437.243 110.936 434.44 108.727 432.104 104.395L412.95 113.272L390.949 127.372L400.251 147.206L413.927 143.511L413.459 215.373Z" fill="#A6B9FF"/>
<path d="M403.818 122.063L431.297 119.557C432.444 119.472 433.421 120.322 433.548 121.468L436.946 158.928C437.031 160.075 436.224 161.094 435.077 161.222L407.598 163.728C406.452 163.812 405.475 162.963 405.347 161.816L401.95 124.356C401.865 123.167 402.714 122.148 403.818 122.063Z" fill="#A6B9FF"/>
<path d="M402.204 122.7L429.683 120.194C430.83 120.109 431.807 120.916 431.892 122.063L435.205 158.588C435.29 159.735 434.483 160.712 433.336 160.797L405.857 163.302C404.71 163.387 403.733 162.58 403.648 161.434L400.336 124.908C400.208 123.804 401.058 122.827 402.204 122.7Z" fill="#FFFEFC"/>
<path d="M405.687 163.982C405.05 163.982 404.455 163.77 403.988 163.345C403.436 162.878 403.096 162.241 403.054 161.519L399.741 124.993C399.614 123.507 400.718 122.19 402.162 122.063L429.641 119.557C431.127 119.43 432.444 120.534 432.572 121.978L435.884 158.503C435.969 159.225 435.714 159.905 435.29 160.457C434.823 161.009 434.185 161.349 433.463 161.392L405.984 163.897C405.857 163.94 405.772 163.982 405.687 163.982ZM402.247 123.337C401.865 123.38 401.525 123.549 401.27 123.847C401.015 124.144 400.93 124.484 400.93 124.866L404.243 161.392C404.328 162.156 405.008 162.751 405.772 162.666L433.251 160.16C433.633 160.117 433.973 159.947 434.228 159.65C434.483 159.353 434.568 159.013 434.568 158.631L431.255 122.105C431.17 121.341 430.49 120.746 429.726 120.831L402.247 123.337Z" fill="#A6B9FF"/>
<path d="M434.907 137.99V141.388L423.822 134.677C423.228 134.295 422.421 134.38 421.954 134.932C421.741 135.187 421.529 135.526 421.529 135.951C421.529 136.376 421.741 136.758 422.081 137.013L429.386 143.086L419.533 140.326C418.896 140.156 418.174 140.283 417.707 140.793C417.409 141.133 417.197 141.6 417.452 142.279C417.622 142.747 418.046 143.129 418.513 143.299L426.838 146.484H418.556C417.707 146.484 417.112 147.418 417.579 148.14L417.622 148.183C417.791 148.438 418.046 148.608 418.344 148.65L426.031 150.264L420.892 151.453C420.51 151.538 420.212 151.793 420.042 152.133C419.915 152.388 419.915 152.685 420.085 153.067C420.255 153.449 420.637 153.662 421.019 153.704L427.305 154.469C427.305 154.469 435.799 156.592 440.471 155.743L491.097 183.732C494.877 185.728 499.337 182.712 498.912 178.465L494.452 151.496H474.916L476.614 157.442L443.487 145.974C443.402 146.059 438.305 139.689 434.907 137.99Z" fill="white"/>
<path d="M493.561 185.09C492.584 185.09 491.649 184.835 490.757 184.368L440.344 156.507C435.672 157.229 427.857 155.36 427.178 155.19L420.934 154.426C420.297 154.341 419.745 153.959 419.49 153.406C419.236 152.897 419.236 152.387 419.448 151.92C419.66 151.41 420.17 151.028 420.722 150.901L423.058 150.349L418.174 149.329C417.707 149.244 417.324 148.947 417.069 148.565L417.027 148.48C416.687 147.928 416.687 147.291 417.027 146.738C417.367 146.186 417.961 145.847 418.598 145.847H423.44L418.344 143.893C417.664 143.638 417.154 143.128 416.9 142.491C416.602 141.727 416.772 140.962 417.282 140.368C417.876 139.688 418.853 139.433 419.745 139.688L426.753 141.642L421.741 137.437C421.274 137.012 420.977 136.46 420.977 135.908C420.977 135.399 421.189 134.889 421.529 134.464C422.209 133.7 423.313 133.53 424.205 134.082L434.313 140.24V136.928L435.247 137.395C438.475 139.009 443.02 144.487 443.826 145.507L475.638 156.507L474.024 150.943H494.962L499.507 178.465C499.761 180.716 498.785 182.797 496.916 184.071C495.854 184.75 494.707 185.09 493.561 185.09ZM440.556 155.148L491.352 183.221C492.881 184.071 494.707 183.943 496.151 182.966C497.595 181.99 498.402 180.333 498.19 178.592L493.815 152.175H475.68L477.464 158.503L443.02 146.568L442.892 146.441C442.85 146.399 438.73 141.26 435.545 139.094V142.491L423.483 135.186C423.143 134.974 422.676 135.016 422.421 135.314C422.251 135.526 422.166 135.696 422.166 135.908C422.166 136.121 422.293 136.333 422.463 136.46L432.062 144.445L419.363 140.877C418.896 140.75 418.471 140.877 418.174 141.175C417.961 141.429 417.919 141.684 418.046 141.982C418.174 142.279 418.386 142.534 418.726 142.661L430.278 147.078H418.556C418.386 147.078 418.216 147.163 418.089 147.333C418.046 147.418 417.961 147.588 418.089 147.758L418.131 147.8C418.216 147.885 418.301 147.97 418.429 148.013L428.961 150.221L420.977 152.047C420.807 152.09 420.637 152.217 420.552 152.345C420.51 152.43 420.467 152.557 420.595 152.769C420.68 152.939 420.849 153.024 421.062 153.067L427.433 153.874C427.517 153.874 435.842 155.955 440.344 155.148H440.556Z" fill="#A6B9FF"/>
<path d="M472.468 141.628L471.248 141.994L474.573 153.101L475.794 152.736L472.468 141.628Z" fill="#A6B9FF"/>
<path d="M416.22 131.619C417.393 131.619 418.344 130.668 418.344 129.495C418.344 128.323 417.393 127.372 416.22 127.372C415.047 127.372 414.096 128.323 414.096 129.495C414.096 130.668 415.047 131.619 416.22 131.619Z" fill="white"/>
<path d="M416.22 132.256C414.691 132.256 413.459 131.024 413.459 129.495C413.459 127.966 414.691 126.735 416.22 126.735C417.749 126.735 418.981 127.966 418.981 129.495C418.981 131.024 417.749 132.256 416.22 132.256ZM416.22 128.009C415.413 128.009 414.734 128.688 414.734 129.495C414.734 130.302 415.413 130.982 416.22 130.982C417.027 130.982 417.707 130.302 417.707 129.495C417.707 128.688 417.027 128.009 416.22 128.009Z" fill="#A6B9FF"/>
<path d="M427.05 86.3867C427.05 86.3867 428.324 91.908 434.27 87.2361L427.05 86.3867Z" fill="#A6B9FF"/>
<path d="M591.202 418.301H0V420H591.202V418.301Z" fill="#A6B9FF"/>
</svg>
