<svg width="914" height="593" viewBox="0 0 914 593" fill="none" xmlns="http://www.w3.org/2000/svg">
<path d="M670.923 348.922C668.297 373.217 662.519 402.895 651.75 438.615L643.543 437.564C643.543 437.564 643.871 426.139 644.593 408.936C646.629 363.433 651.881 277.746 663.044 257.588C663.044 257.653 678.014 284.049 670.923 348.922Z" fill="white"/>
<path d="M652.407 439.665L642.492 438.418V437.499C642.492 437.367 642.82 425.877 643.543 408.871C645.71 360.807 650.962 277.22 662.125 257.128L662.978 255.618L663.832 257.128C664.423 258.244 678.868 284.574 671.843 348.988C668.888 376.237 662.387 406.441 652.604 438.812L652.407 439.665ZM644.528 436.711L651.028 437.499C660.614 405.522 666.983 375.712 669.938 348.791C675.913 294.03 666.064 266.715 663.044 259.82C652.669 282.342 647.679 362.383 645.578 408.936C644.922 423.316 644.593 433.69 644.528 436.711Z" fill="#4D67CA"/>
<path d="M648.467 449.449H646.76C647.745 340.124 662.059 257.85 662.19 257.062L663.898 257.391C663.766 258.113 649.518 340.255 648.467 449.449Z" fill="#4D67CA"/>
<path d="M670.923 348.922C668.297 373.217 662.519 402.895 651.75 438.615L643.543 437.564C643.543 437.564 643.871 426.139 644.593 408.936C653.129 383.657 663.7 362.251 670.923 348.922Z" fill="#4D67CA"/>
<path d="M645.053 435.004C645.053 435.004 673.812 356.342 691.803 336.841C691.803 336.841 703.622 385.167 651.159 437.63L645.053 435.004Z" fill="white"/>
<path d="M651.422 438.746L643.805 435.529L644.134 434.675C645.315 431.458 673.221 355.619 691.147 336.184L692.394 334.805L692.854 336.578C692.985 337.103 695.809 349.053 692.198 367.701C688.914 384.839 679.196 410.972 651.947 438.287L651.422 438.746ZM646.3 434.478L650.962 436.448C677.489 409.724 686.945 384.182 690.228 367.373C692.92 353.387 691.869 343.144 691.213 339.007C674.535 359.165 649.452 426.008 646.3 434.478Z" fill="#4D67CA"/>
<path d="M597.252 286.479C597.252 286.479 641.442 350.761 645.578 437.63H644.068C644.002 437.565 587.994 343.998 597.252 286.479Z" fill="white"/>
<path d="M646.563 438.549H643.411L643.149 438.09C643.017 437.827 628.966 414.32 616.228 383.985C604.474 355.948 591.408 316.289 596.267 286.281L596.661 283.852L598.039 285.888C598.171 286.019 609.267 302.368 620.758 329.027C631.329 353.65 644.396 392.521 646.563 437.499V438.549ZM597.842 289.171C591.079 343.538 639.931 428.634 644.527 436.514C642.229 392.258 629.426 354.175 618.985 329.88C609.99 308.935 601.191 294.423 597.842 289.171Z" fill="#4D67CA"/>
<path d="M643.149 437.696C629.951 350.957 596.792 287.463 596.464 286.807L597.974 286.019C598.302 286.675 631.592 350.367 644.856 437.433L643.149 437.696Z" fill="#4D67CA"/>
<path d="M644.593 446.888L642.952 446.297C665.868 381.162 690.819 336.84 691.081 336.381L692.591 337.234C692.329 337.694 667.378 381.884 644.593 446.888Z" fill="#4D67CA"/>
<path d="M676.373 431.918L673.024 473.35L663.569 589.241H627.062L614.192 431.918H676.373Z" fill="white"/>
<path d="M664.488 590.226H626.143L613.141 430.933H677.489L664.488 590.226ZM627.981 588.256H662.65L675.322 432.902H615.243L627.981 588.256Z" fill="#4D67CA"/>
<path d="M673.024 473.35L663.569 589.241H638.158L673.024 473.35Z" fill="#4D67CA"/>
<path d="M767.773 59.5544C767.773 59.5544 767.445 67.0398 766.788 72.03C766.131 77.0859 761.142 76.4293 761.142 76.4293L758.449 64.3476L767.773 59.5544Z" fill="#4D67CA"/>
<path d="M777.359 117.139L747.09 120.75C744.266 107.881 744.726 107.355 743.216 99.4761C742.822 97.3749 742.296 94.8142 741.509 91.3341C741.509 91.2685 741.509 91.2685 741.509 91.2028C718.33 102.168 719.578 49.1799 719.578 49.1799C719.578 49.1799 722.073 35.3254 741.771 29.8099C761.47 24.2944 763.505 50.6244 763.505 50.6244C775.652 50.887 764.95 67.6305 764.359 69.0094L777.359 117.139Z" fill="white"/>
<path d="M746.302 121.867L746.105 121.013C744.398 113.068 743.873 109.785 743.413 106.633C743.085 104.598 742.822 102.759 742.231 99.6732C741.771 97.4407 741.312 95.1425 740.721 92.6474C736.65 94.2889 733.038 94.092 729.952 92.0565C717.805 84.1772 718.461 50.6245 718.527 49.1799V49.0486C718.658 48.4577 721.416 34.4719 741.443 28.8907C746.696 27.4461 751.226 27.9714 754.969 30.5979C762.126 35.5881 763.965 46.5535 764.359 49.7052C766.788 49.9022 768.495 50.8871 769.48 52.5286C771.844 56.6653 768.43 63.7567 765.606 68.7469C765.54 68.8782 765.409 69.0752 765.344 69.1409L778.607 118.058L746.302 121.867ZM742.428 91.2029C743.085 94.1577 743.675 96.7841 744.135 99.2792C744.726 102.365 745.054 104.335 745.317 106.305C745.777 109.325 746.236 112.411 747.812 119.7L776.046 116.351L763.242 68.8782L763.374 68.5499C763.439 68.4186 763.571 68.0902 763.833 67.6963C767.773 60.6706 769.086 55.8773 767.707 53.4479C767.051 52.266 765.606 51.675 763.439 51.6093H762.52L762.455 50.6902C762.455 50.5588 761.338 37.4266 753.787 32.1737C750.57 29.9413 746.564 29.4817 741.902 30.7292C723.714 35.8508 720.629 48.2606 720.432 49.3112C720.432 51.2154 720.038 83.3236 730.937 90.415C733.761 92.2535 737.044 92.1878 740.918 90.3493L742.034 89.824L742.297 91.0059C742.428 91.0716 742.428 91.1372 742.428 91.2029Z" fill="#4D67CA"/>
<path d="M757.793 21.7336C757.793 21.7336 740.918 5.12147 718.33 32.1081C716.36 34.4719 713.865 34.7345 709.072 38.4115C704.935 41.6289 705.855 48.1294 710.714 50.0336C718.002 52.857 726.275 53.5136 740.721 43.1392C735.205 51.3468 723.649 53.6449 723.649 53.6449C746.893 50.7558 749.453 40.5783 749.716 40.3814C749.716 40.3814 749.65 51.2154 758.252 57.7815C758.252 57.7815 758.121 55.1551 759.631 53.3166C761.535 50.9528 764.884 50.8871 768.429 53.1196C768.495 53.0539 775.784 24.0974 757.793 21.7336Z" fill="#3F58B2"/>
<path d="M757.005 53.9734L746.761 55.2209C745.251 52.9228 742.559 51.6096 739.67 51.9379C735.796 52.3975 732.973 55.7463 733.104 59.5546L728.968 60.0142C728.18 56.2715 724.634 53.7107 720.76 54.1703C716.689 54.63 713.734 58.3726 714.259 62.4436C714.719 66.5146 718.462 69.4693 722.533 68.9441C726.407 68.4844 729.23 65.1357 729.099 61.3274L733.236 60.8678C734.023 64.6105 737.569 67.1712 741.443 66.7116C745.514 66.2519 748.469 62.5093 748.009 58.4383C747.944 57.716 747.746 57.0594 747.484 56.4685L757.202 55.2866L757.005 53.9734ZM722.401 67.6308C719.053 68.0248 716.032 65.661 715.638 62.3123C715.244 58.9636 717.608 55.9432 720.957 55.5492C724.305 55.1552 727.326 57.5191 727.72 60.8678C728.114 64.2165 725.75 67.2369 722.401 67.6308ZM741.312 65.3984C737.963 65.7923 734.943 63.4285 734.549 60.0798C734.155 56.7311 736.518 53.7108 739.867 53.3168C743.216 52.9228 746.236 55.2866 746.63 58.6353C747.024 61.9184 744.66 64.9387 741.312 65.3984Z" fill="#4D67CA"/>
<path d="M757.99 76.8232C753.656 90.3494 747.287 96.6528 743.15 99.4763C742.756 97.3751 741.575 94.1577 740.787 90.6777C751.621 85.2935 757.793 77.1515 757.99 76.8232Z" fill="#4D67CA"/>
<path d="M845.187 574.336H821.812L818.332 561.204L811.503 535.071L839.278 534.677L842.692 557.461L845.187 574.336Z" fill="white"/>
<path d="M846.369 575.321H821.09L810.256 534.086L840.132 533.692L846.369 575.321ZM822.535 573.351H844.071L838.424 535.662L812.817 535.99L822.535 573.351Z" fill="#4D67CA"/>
<path d="M842.692 557.461L818.332 561.204L811.503 535.071L839.278 534.677L842.692 557.461Z" fill="#4D67CA"/>
<path d="M843.546 566.326C841.511 568.427 833.171 575.518 819.317 565.932C819.186 565.866 819.054 565.866 818.923 565.932L780.84 586.286C779.067 587.206 779.724 589.964 781.759 589.964H843.874C846.763 589.964 848.864 587.337 848.208 584.514L844.137 566.588C844.137 566.194 843.743 566.129 843.546 566.326Z" fill="#4D67CA"/>
<path d="M734.877 534.677L732.448 559.3L730.938 574.336H707.562L707.431 561.861L707.102 535.071L734.877 534.677Z" fill="white"/>
<path d="M731.857 575.321H706.577L706.117 534.086L735.927 533.692L731.857 575.321ZM708.547 573.351H730.084L733.826 535.662L708.153 535.99L708.547 573.351Z" fill="#4D67CA"/>
<path d="M734.877 534.677L732.448 559.3L707.431 561.86L707.102 535.071L734.877 534.677Z" fill="#4D67CA"/>
<path d="M731.922 566.326C729.887 568.427 721.548 575.518 707.693 565.932C707.562 565.866 707.431 565.866 707.3 565.932L669.216 586.286C667.443 587.206 668.1 589.964 670.135 589.964H732.251C735.14 589.964 737.241 587.337 736.584 584.514L732.513 566.588C732.513 566.194 732.119 566.129 731.922 566.326Z" fill="#4D67CA"/>
<path d="M780.446 305.849L752.08 404.34L736.387 555.163H691.344L702.572 402.502L728.18 257.785L784.911 239.925L780.446 305.849Z" fill="#3F58B2"/>
<path d="M761.076 236.904L770.925 386.677L801.26 554.506H843.349L823.191 396.789C823.191 396.789 831.858 264.876 823.191 230.601L761.076 236.904Z" fill="#4D67CA"/>
<path d="M844.531 555.491H800.538L800.407 554.703L770.071 386.808V386.743L760.157 235.985L824.11 229.55L824.307 230.404C832.843 264.285 824.767 390.157 824.307 396.789L844.531 555.491ZM802.114 553.521H842.233L822.206 396.854V396.789C822.272 395.475 830.611 266.78 822.469 231.717L762.126 237.824L771.91 386.611L802.114 553.521Z" fill="#4D67CA"/>
<path d="M748.535 146.686L737.372 213.661L638.421 190.614C634.941 192.058 621.284 189.038 618.789 188.053C616.294 187.068 617.081 184.113 617.081 184.113C614.521 181.946 616.228 179.648 616.228 179.648C614.652 178.072 616.622 175.052 616.622 175.052C615.703 172.491 617.935 169.93 617.935 169.93L604.737 166.647C595.413 163.496 596.201 158.637 596.201 158.637L622.663 163.299C637.568 164.284 643.74 175.249 643.74 175.249L706.446 176.89L709.467 164.546L716.295 136.181L744.201 145.308L748.535 146.686Z" fill="white"/>
<path d="M738.16 214.842L638.487 191.598C634.088 192.977 620.561 189.76 618.46 188.906C616.228 187.987 615.9 185.82 616.031 184.441C614.324 182.734 614.521 180.83 615.111 179.648C614.258 178.138 614.915 176.168 615.571 174.855C615.177 173.148 615.768 171.506 616.359 170.456L604.475 167.501C594.428 164.152 595.282 158.637 595.282 158.44L595.479 157.455L622.86 162.314C636.451 163.233 642.952 172.032 644.396 174.264L705.789 175.84L715.704 134.867L749.716 145.964L738.16 214.842ZM638.356 189.563L736.584 212.479L747.418 147.343L717.083 137.428L707.3 177.875L643.215 176.168L642.952 175.708C642.886 175.577 636.845 165.203 622.662 164.284H622.531L597.318 159.819C597.712 161.197 599.222 163.693 605 165.662L619.708 169.339L618.657 170.521C618.657 170.521 616.819 172.688 617.541 174.658L617.672 175.118L617.41 175.512C617.016 176.103 616.096 178.072 616.884 178.86L617.475 179.451L616.95 180.108C616.753 180.37 615.9 181.749 617.607 183.259L618.066 183.654L617.935 184.244C617.869 184.441 617.475 186.346 619.117 187.002C621.809 188.118 634.941 190.876 637.962 189.563H638.356Z" fill="#4D67CA"/>
<path d="M744.267 145.308L738.357 169.996L709.532 164.546L716.361 136.181L744.267 145.308Z" fill="#4D67CA"/>
<path d="M819.514 174.921L829.691 276.564C829.691 276.564 772.172 287.858 748.534 283.918C732.251 281.226 725.028 274.529 723.715 273.15C723.583 273.018 723.518 272.887 723.518 272.887L723.78 159.95L703.885 157.849L715.113 122.589C716.623 117.862 719.84 113.791 724.108 111.296L742.362 100.527C742.362 100.527 753 114.25 772.304 93.6985L811.897 101.775C818.463 103.088 823.979 107.619 826.474 113.856L843.874 156.273L818.726 167.764L819.514 174.921Z" fill="#FFEED6"/>
<path d="M761.076 285.756C756.282 285.756 751.949 285.494 748.338 284.903C731.725 282.145 724.306 275.185 722.927 273.872C722.73 273.675 722.664 273.609 722.664 273.609L722.467 273.347V272.953L722.73 160.869L702.572 158.703L714.128 122.326C715.704 117.336 719.053 113.134 723.583 110.442L742.625 99.2138L743.15 99.8704C743.15 99.936 746.236 103.744 751.883 103.941C757.924 104.204 764.556 100.527 771.647 92.976L772.041 92.582L812.16 100.79C819.054 102.234 824.833 106.962 827.459 113.462L845.253 156.733L819.908 168.355L820.565 174.79L830.807 277.286L829.954 277.483C827.853 277.877 787.668 285.756 761.076 285.756ZM724.437 272.559C725.881 274.003 732.973 280.372 748.666 282.999C770.268 286.61 821.221 277.221 828.575 275.776L817.741 167.239L842.626 155.814L825.555 114.25C823.125 108.341 817.938 104.073 811.635 102.759L772.632 94.7489C765.212 102.497 758.186 106.24 751.686 105.911C746.63 105.649 743.413 102.956 742.165 101.709L724.568 112.083C720.497 114.513 717.411 118.321 715.967 122.852L705.132 156.93L724.7 159.031V159.95L724.437 272.559Z" fill="#4D67CA"/>
<path d="M725.291 246.754C725.291 246.754 722.861 202.104 707.168 191.27L734.155 182.8C734.155 182.8 755.691 180.174 763.899 246.754H725.291Z" fill="white"/>
<path d="M765.015 247.738H724.371L724.306 246.819C724.306 246.36 721.745 202.498 706.643 192.058L705.001 190.942L734.089 181.881C735.008 181.749 756.742 179.911 764.884 246.688L765.015 247.738ZM726.21 245.769H762.783C754.969 183.982 735.731 183.719 734.352 183.785L709.269 191.664C722.796 203.352 725.816 239.334 726.21 245.769Z" fill="#4D67CA"/>
<path d="M686.682 193.634H725.291C725.291 193.634 727.72 184.507 734.943 182.143L696.334 182.8C696.334 182.8 690.293 183.982 686.682 193.634Z" fill="#4D67CA"/>
<path d="M845.647 231.192L763.308 230.667C763.308 230.667 755.1 231.323 750.767 230.601L739.407 226.399C738.554 226.07 737.897 225.348 737.766 224.429C737.7 223.772 737.963 223.05 739.079 222.787L737.109 222.131C737.109 222.131 733.892 219.57 736.453 218.257C736.453 218.257 733.235 214.383 737.766 213.726C737.766 213.726 736.059 212.019 738.488 210.771C738.817 210.574 739.276 210.509 739.67 210.64L748.994 212.676L757.53 214.317L755.166 206.963L768.758 214.842L824.569 203.549L815.771 183.391L810.452 171.309L842.561 156.601L844.333 163.299L858.122 215.171C860.289 223.313 854.051 231.258 845.647 231.192Z" fill="white"/>
<path d="M845.713 232.177H845.647L763.308 231.651C762.586 231.717 754.838 232.308 750.57 231.586L750.373 231.52L739.014 227.318C737.766 226.858 736.912 225.808 736.781 224.56C736.715 224.035 736.781 223.575 737.044 223.116L736.715 222.984L736.584 222.853C736.19 222.59 734.417 221.014 734.549 219.307C734.614 218.913 734.746 218.454 735.205 217.994C734.68 217.14 734.154 215.827 734.614 214.645C734.877 213.923 735.468 213.398 736.387 213.004C736.321 212.675 736.256 212.347 736.321 211.953C736.453 211.1 737.044 210.312 738.094 209.786C738.62 209.524 739.276 209.392 739.933 209.524L749.257 211.559L756.151 212.872L753.459 204.665L768.955 213.66L823.191 202.695L809.205 170.652L843.218 155.025L859.042 214.711C860.158 218.913 859.239 223.247 856.612 226.727C853.986 230.273 850.046 232.177 845.713 232.177ZM845.647 230.207H845.713C849.39 230.207 852.804 228.565 855.102 225.611C857.4 222.656 858.122 218.913 857.203 215.302L841.97 157.849L811.831 171.637L826.014 204.14L768.627 215.761L756.939 208.998L759.04 215.499L748.863 213.595L739.539 211.559C739.342 211.494 739.211 211.559 739.079 211.625C738.62 211.888 738.357 212.15 738.291 212.347C738.226 212.61 738.488 212.938 738.554 213.004L739.867 214.383L737.963 214.645C737.109 214.777 736.584 215.039 736.453 215.368C736.256 215.958 736.912 217.075 737.306 217.6L738.094 218.585L736.978 219.11C736.847 219.176 736.519 219.373 736.519 219.504C736.453 219.898 737.044 220.686 737.7 221.211L742.691 222.853L739.408 223.707C738.751 223.838 738.817 224.1 738.817 224.297C738.882 224.757 739.276 225.217 739.802 225.414L751.095 229.55C755.232 230.207 763.177 229.616 763.242 229.55H763.308H763.374L845.647 230.207Z" fill="#4D67CA"/>
<path d="M809.731 171.769L795.942 142.222L797.649 141.302L811.438 170.85L809.731 171.769Z" fill="#4D67CA"/>
<path d="M724.897 160.015L722.927 159.95V133.16L724.897 133.291V160.015Z" fill="#4D67CA"/>
<path d="M844.334 163.233L815.771 183.325L810.453 171.244L842.561 156.536L844.334 163.233Z" fill="#4D67CA"/>
<path d="M630.607 178.204C624.764 177.547 616.884 175.577 616.753 175.577L616.884 174.921C616.95 174.921 624.829 176.89 630.607 177.547V178.204Z" fill="#4D67CA"/>
<path d="M630.017 182.143C622.794 182.143 616.162 179.517 616.096 179.517L616.359 178.926C616.425 178.926 622.925 181.552 630.017 181.552V182.143Z" fill="#4D67CA"/>
<path d="M625.355 186.083C620.758 185.426 616.819 184.113 616.753 184.113L616.95 183.522C617.016 183.522 620.89 184.835 625.42 185.492L625.355 186.083Z" fill="#4D67CA"/>
<path d="M737.614 213.7L737.438 214.333L749.268 217.618L749.444 216.986L737.614 213.7Z" fill="#4D67CA"/>
<path d="M736.629 217.968L736.453 218.6L748.283 221.886L748.459 221.253L736.629 217.968Z" fill="#4D67CA"/>
<path d="M738.861 222.435L738.697 223.07L745.625 224.864L745.79 224.228L738.861 222.435Z" fill="#4D67CA"/>
<path d="M738.029 79.0557L726.21 80.3689C726.21 80.3689 728.836 89.5614 738.029 79.0557Z" fill="#4D67CA"/>
<path d="M287.201 589.438H519.575C536.647 589.438 550.501 575.583 550.501 558.511V31.9109C550.501 14.8391 536.647 0.984619 519.575 0.984619H287.201C270.129 0.984619 256.274 14.8391 256.274 31.9109V558.511C256.274 575.583 270.063 589.438 287.201 589.438Z" fill="white"/>
<path d="M519.509 590.423H287.135C269.538 590.423 255.224 576.109 255.224 558.512V31.9112C255.224 14.3141 269.538 0 287.135 0H519.509C537.106 0 551.42 14.3141 551.42 31.9112V558.512C551.486 576.043 537.172 590.423 519.509 590.423ZM287.201 1.90418C270.654 1.90418 257.259 15.3647 257.259 31.8455V558.446C257.259 574.993 270.72 588.387 287.201 588.387H519.575C536.121 588.387 549.516 574.927 549.516 558.446V31.8455C549.516 15.299 536.056 1.90418 519.575 1.90418H287.201Z" fill="#4D67CA"/>
<path d="M295.474 575.321H511.302C526.075 575.321 538.025 563.371 538.025 548.597V41.7601C538.025 26.9864 526.075 15.0361 511.302 15.0361H295.474C280.7 15.0361 268.75 26.9864 268.75 41.7601V548.597C268.75 563.305 280.7 575.321 295.474 575.321Z" fill="#4D67CA"/>
<path d="M505.326 25.4763H473.218C472.693 35.5881 464.354 43.6644 454.045 43.6644H351.286C341.043 43.6644 332.638 35.5881 332.113 25.4763H300.005C288.054 25.4763 278.337 35.1941 278.337 47.1444V544.526C278.337 556.476 288.054 566.194 300.005 566.194H505.326C517.277 566.194 526.995 556.476 526.995 544.526V47.1444C526.995 35.1941 517.277 25.4763 505.326 25.4763Z" fill="#FEFEFE"/>
<path d="M505.327 566.522H300.005C287.857 566.522 278.008 556.673 278.008 544.526V47.1444C278.008 34.9971 287.857 25.1479 300.005 25.1479H332.441V25.4763C332.966 35.5224 341.24 43.336 351.286 43.336H454.045C464.091 43.336 472.365 35.4567 472.89 25.4763V25.1479H505.327C517.474 25.1479 527.323 34.9971 527.323 47.1444V544.526C527.323 556.673 517.474 566.522 505.327 566.522ZM300.005 25.8046C288.251 25.8046 278.665 35.3911 278.665 47.1444V544.526C278.665 556.279 288.251 565.866 300.005 565.866H505.327C517.08 565.866 526.666 556.279 526.666 544.526V47.1444C526.666 35.3911 517.08 25.8046 505.327 25.8046H473.547C472.89 36.0477 464.354 43.9926 454.111 43.9926H351.286C340.977 43.9926 332.507 36.0477 331.85 25.8046H300.005Z" fill="#4D67CA"/>
<path d="M415.043 27.5774H376.762V32.699H415.043V27.5774Z" fill="white"/>
<path d="M424.958 34.2748C427.206 34.2748 429.028 32.4521 429.028 30.2038C429.028 27.9554 427.206 26.1328 424.958 26.1328C422.709 26.1328 420.886 27.9554 420.886 30.2038C420.886 32.4521 422.709 34.2748 424.958 34.2748Z" fill="white"/>
<path d="M318.39 94.4207V157.521C318.39 163.759 323.446 168.88 329.749 168.88H561.204C567.442 168.88 572.563 163.824 572.563 157.521V94.4207C572.563 88.1829 567.507 83.0613 561.204 83.0613H329.749C323.446 83.1269 318.39 88.1829 318.39 94.4207Z" fill="white"/>
<path d="M561.138 169.865H329.684C322.92 169.865 317.339 164.349 317.339 157.521V94.4205C317.339 87.6574 322.855 82.0762 329.684 82.0762H561.138C567.901 82.0762 573.482 87.5917 573.482 94.4205V157.521C573.417 164.349 567.901 169.865 561.138 169.865ZM329.684 84.1116C323.971 84.1116 319.309 88.7736 319.309 94.4861V157.586C319.309 163.299 323.971 167.961 329.684 167.961H561.138C566.851 167.961 571.513 163.299 571.513 157.586V94.4861C571.513 88.7736 566.851 84.1116 561.138 84.1116H329.684Z" fill="#4D67CA"/>
<path d="M377.419 148.656C389.93 148.656 400.072 138.514 400.072 126.003C400.072 113.492 389.93 103.35 377.419 103.35C364.908 103.35 354.766 113.492 354.766 126.003C354.766 138.514 364.908 148.656 377.419 148.656Z" fill="white"/>
<path d="M377.419 149.641C364.352 149.641 353.781 139.004 353.781 126.003C353.781 112.937 364.418 102.365 377.419 102.365C390.485 102.365 401.057 113.003 401.057 126.003C401.122 139.004 390.485 149.641 377.419 149.641ZM377.419 104.335C365.469 104.335 355.751 114.053 355.751 126.003C355.751 137.954 365.469 147.672 377.419 147.672C389.369 147.672 399.087 137.954 399.087 126.003C399.087 114.053 389.369 104.335 377.419 104.335Z" fill="#4D67CA"/>
<path d="M475.385 106.502H420.361V113.069H475.385V106.502Z" fill="white"/>
<path d="M476.37 114.053H419.376V105.518H476.37V114.053ZM421.346 112.084H474.4V107.487H421.346V112.084Z" fill="#4D67CA"/>
<path d="M550.239 124.756H420.755V131.322H550.239V124.756Z" fill="white"/>
<path d="M551.223 132.307H419.77V123.771H551.223V132.307ZM421.74 130.337H549.254V125.741H421.74V130.337Z" fill="#4D67CA"/>
<path d="M550.239 142.55H420.755V149.116H550.239V142.55Z" fill="white"/>
<path d="M551.223 150.101H419.77V141.565H551.223V150.101ZM421.74 148.131H549.254V143.535H421.74V148.131Z" fill="#4D67CA"/>
<path d="M318.39 205.256V365.074C318.39 371.312 323.446 376.434 329.749 376.434H561.204C567.442 376.434 572.563 371.378 572.563 365.074V205.256C572.563 199.018 567.507 193.896 561.204 193.896H329.749C323.446 193.962 318.39 199.018 318.39 205.256Z" fill="white"/>
<path d="M561.138 377.419H329.684C322.92 377.419 317.339 371.903 317.339 365.075V205.256C317.339 198.493 322.855 192.912 329.684 192.912H561.138C567.901 192.912 573.482 198.427 573.482 205.256V365.075C573.417 371.903 567.901 377.419 561.138 377.419ZM329.684 194.947C323.971 194.947 319.309 199.609 319.309 205.322V365.14C319.309 370.853 323.971 375.515 329.684 375.515H561.138C566.851 375.515 571.513 370.853 571.513 365.14V205.322C571.513 199.609 566.851 194.947 561.138 194.947H329.684V194.947Z" fill="#4D67CA"/>
<path d="M381.49 231.454V340.189C381.49 343.012 379.192 345.31 376.368 345.31H365.6C362.776 345.31 360.478 343.012 360.478 340.189V231.454C360.478 228.631 362.776 226.333 365.6 226.333H376.368C379.192 226.333 381.49 228.631 381.49 231.454Z" fill="white"/>
<path d="M376.369 346.23H365.6C362.251 346.23 359.494 343.472 359.494 340.123V231.389C359.494 228.04 362.251 225.282 365.6 225.282H376.369C379.717 225.282 382.475 228.04 382.475 231.389V340.123C382.475 343.538 379.717 346.23 376.369 346.23ZM365.6 227.318C363.302 227.318 361.463 229.156 361.463 231.454V340.189C361.463 342.487 363.302 344.326 365.6 344.326H376.369C378.667 344.326 380.505 342.487 380.505 340.189V231.454C380.505 229.156 378.667 227.318 376.369 227.318H365.6Z" fill="#4D67CA"/>
<path d="M419.507 231.454V340.189C419.507 343.012 417.209 345.31 414.386 345.31H403.618C400.794 345.31 398.496 343.012 398.496 340.189V231.454C398.496 228.631 400.794 226.333 403.618 226.333H414.386C417.209 226.333 419.507 228.631 419.507 231.454Z" fill="white"/>
<path d="M414.386 346.23H403.618C400.269 346.23 397.511 343.472 397.511 340.123V231.389C397.511 228.04 400.269 225.282 403.618 225.282H414.386C417.735 225.282 420.492 228.04 420.492 231.389V340.123C420.492 343.538 417.8 346.23 414.386 346.23ZM403.618 227.318C401.32 227.318 399.481 229.156 399.481 231.454V340.189C399.481 342.487 401.32 344.326 403.618 344.326H414.386C416.684 344.326 418.523 342.487 418.523 340.189V231.454C418.523 229.156 416.684 227.318 414.386 227.318H403.618Z" fill="#4D67CA"/>
<path d="M458.379 231.454V340.189C458.379 343.012 456.081 345.31 453.257 345.31H442.489C439.665 345.31 437.367 343.012 437.367 340.189V231.454C437.367 228.631 439.665 226.333 442.489 226.333H453.257C456.081 226.333 458.379 228.631 458.379 231.454Z" fill="white"/>
<path d="M453.257 346.23H442.489C439.14 346.23 436.383 343.472 436.383 340.123V231.389C436.383 228.04 439.14 225.282 442.489 225.282H453.257C456.606 225.282 459.364 228.04 459.364 231.389V340.123C459.364 343.538 456.606 346.23 453.257 346.23ZM442.423 227.318C440.125 227.318 438.287 229.156 438.287 231.454V340.189C438.287 342.487 440.125 344.326 442.423 344.326H453.192C455.49 344.326 457.328 342.487 457.328 340.189V231.454C457.328 229.156 455.49 227.318 453.192 227.318H442.423Z" fill="#4D67CA"/>
<path d="M496.397 231.454V340.189C496.397 343.012 494.098 345.31 491.275 345.31H480.506C477.683 345.31 475.385 343.012 475.385 340.189V231.454C475.385 228.631 477.683 226.333 480.506 226.333H491.275C494.098 226.333 496.397 228.631 496.397 231.454Z" fill="white"/>
<path d="M491.275 346.23H480.506C477.158 346.23 474.4 343.472 474.4 340.123V231.389C474.4 228.04 477.158 225.282 480.506 225.282H491.275C494.624 225.282 497.381 228.04 497.381 231.389V340.123C497.381 343.538 494.624 346.23 491.275 346.23ZM480.506 227.318C478.208 227.318 476.37 229.156 476.37 231.454V340.189C476.37 342.487 478.208 344.326 480.506 344.326H491.275C493.573 344.326 495.412 342.487 495.412 340.189V231.454C495.412 229.156 493.573 227.318 491.275 227.318H480.506Z" fill="#4D67CA"/>
<path d="M533.626 231.454V340.189C533.626 343.012 531.328 345.31 528.504 345.31H517.736C514.913 345.31 512.615 343.012 512.615 340.189V231.454C512.615 228.631 514.913 226.333 517.736 226.333H528.504C531.328 226.333 533.626 228.631 533.626 231.454Z" fill="white"/>
<path d="M528.505 346.23H517.736C514.388 346.23 511.63 343.472 511.63 340.123V231.389C511.63 228.04 514.388 225.282 517.736 225.282H528.505C531.853 225.282 534.611 228.04 534.611 231.389V340.123C534.611 343.538 531.853 346.23 528.505 346.23ZM517.736 227.318C515.438 227.318 513.6 229.156 513.6 231.454V340.189C513.6 342.487 515.438 344.326 517.736 344.326H528.505C530.803 344.326 532.641 342.487 532.641 340.189V231.454C532.641 229.156 530.803 227.318 528.505 227.318H517.736Z" fill="#4D67CA"/>
<path d="M381.49 267.568V340.123C381.49 342.947 379.192 345.245 376.368 345.245H365.6C362.776 345.245 360.478 342.947 360.478 340.123V267.568H381.49Z" fill="#4D67CA"/>
<path d="M419.508 245.769V340.189C419.508 343.012 417.21 345.31 414.386 345.31H403.618C400.794 345.31 398.496 343.012 398.496 340.189V245.769H419.508Z" fill="#4D67CA"/>
<path d="M458.379 289.433V340.123C458.379 342.946 456.081 345.245 453.257 345.245H442.489C439.665 345.245 437.367 342.946 437.367 340.123V289.433H458.379Z" fill="#4D67CA"/>
<path d="M496.397 238.48V340.189C496.397 343.012 494.098 345.31 491.275 345.31H480.506C477.683 345.31 475.385 343.012 475.385 340.189V238.48H496.397Z" fill="#4D67CA"/>
<path d="M533.626 255.421V340.123C533.626 342.947 531.328 345.245 528.505 345.245H517.736C514.913 345.245 512.615 342.947 512.615 340.123V255.421H533.626Z" fill="#4D67CA"/>
<path d="M442.001 469.676H361.894C358.611 469.676 355.985 467.05 355.985 463.766V411.894C355.985 408.611 358.611 405.985 361.894 405.985H442.001C445.284 405.985 447.91 408.611 447.91 411.894V463.766C447.91 467.05 445.284 469.676 442.001 469.676Z" fill="white"/>
<path d="M442.001 470.661H361.894C358.086 470.661 355 467.575 355 463.767V411.894C355 408.086 358.086 405 361.894 405H442.001C445.809 405 448.895 408.086 448.895 411.894V463.767C448.895 467.575 445.809 470.661 442.001 470.661ZM361.894 406.97C359.202 406.97 356.97 409.202 356.97 411.894V463.767C356.97 466.459 359.202 468.691 361.894 468.691H442.001C444.693 468.691 446.925 466.459 446.925 463.767V411.894C446.925 409.202 444.693 406.97 442.001 406.97H361.894Z" fill="#4D67CA"/>
<path d="M402.67 419.971H366.819V423.91H402.67V419.971Z" fill="#4D67CA"/>
<path d="M437.011 430.805H366.819V434.745H437.011V430.805Z" fill="#4D67CA"/>
<path d="M437.011 441.639H366.819V445.579H437.011V441.639Z" fill="#4D67CA"/>
<path d="M437.011 452.538H366.819V456.478H437.011V452.538Z" fill="#4D67CA"/>
<path d="M566.001 469.676H485.894C482.611 469.676 479.985 467.05 479.985 463.766V411.894C479.985 408.611 482.611 405.985 485.894 405.985H566.001C569.284 405.985 571.91 408.611 571.91 411.894V463.766C571.91 467.05 569.284 469.676 566.001 469.676Z" fill="white"/>
<path d="M566.001 470.661H485.894C482.086 470.661 479 467.575 479 463.767V411.894C479 408.086 482.086 405 485.894 405H566.001C569.809 405 572.895 408.086 572.895 411.894V463.767C572.895 467.575 569.809 470.661 566.001 470.661ZM485.894 406.97C483.202 406.97 480.97 409.202 480.97 411.894V463.767C480.97 466.459 483.202 468.691 485.894 468.691H566.001C568.693 468.691 570.925 466.459 570.925 463.767V411.894C570.925 409.202 568.693 406.97 566.001 406.97H485.894Z" fill="#4D67CA"/>
<path d="M526.67 419.971H490.819V423.91H526.67V419.971Z" fill="#4D67CA"/>
<path d="M561.011 430.805H490.819V434.745H561.011V430.805Z" fill="#4D67CA"/>
<path d="M561.011 441.639H490.819V445.579H561.011V441.639Z" fill="#4D67CA"/>
<path d="M561.011 452.538H490.819V456.478H561.011V452.538Z" fill="#4D67CA"/>
<path d="M123.574 534.48L115.695 562.451L112.543 573.614H89.2333L91.5314 560.022L95.9308 534.086L123.574 534.48Z" fill="white"/>
<path d="M113.331 574.598H88.1172L95.1427 533.101L124.887 533.495L113.331 574.598ZM90.4153 572.629H111.821L122.261 535.465L96.7185 535.136L90.4153 572.629Z" fill="#191919"/>
<path d="M123.574 534.48L115.695 562.451L91.5312 560.022L95.9307 534.086L123.574 534.48Z" fill="#4D67CA"/>
<path d="M90.9403 565.603C92.9758 567.704 101.315 574.73 115.038 565.209C115.169 565.143 115.3 565.143 115.432 565.209L153.384 585.498C155.157 586.418 154.5 589.11 152.465 589.11H90.612C87.7886 589.11 85.6217 586.483 86.2783 583.66L90.2837 565.8C90.3494 565.538 90.7433 565.406 90.9403 565.603Z" fill="#4D67CA"/>
<path d="M182.669 534.48L177.613 561.926L175.446 573.614H152.137L153.187 559.891L155.091 534.086L182.669 534.48Z" fill="white"/>
<path d="M176.3 574.598H151.086L154.172 533.101L183.916 533.495L176.3 574.598ZM153.187 572.629H174.592L181.487 535.465L155.945 535.136L153.187 572.629Z" fill="#191919"/>
<path d="M182.669 534.48L177.613 561.926L153.187 559.891L155.091 534.086L182.669 534.48Z" fill="#4D67CA"/>
<path d="M152.596 565.603C154.631 567.704 162.97 574.73 176.694 565.209C176.825 565.143 176.956 565.143 177.088 565.209L215.039 585.498C216.812 586.418 216.156 589.11 214.12 589.11H152.268C149.444 589.11 147.277 586.483 147.934 583.66L151.939 565.8C152.005 565.538 152.333 565.406 152.596 565.603Z" fill="#4D67CA"/>
<path d="M171.112 76.2324C171.112 76.2324 187.331 73.606 186.74 89.8242C186.149 106.042 180.239 123.311 180.239 123.311C180.239 123.311 178.072 132.963 182.472 142.287C182.472 142.287 155.091 138.545 150.56 125.741L151.677 78.8588L171.112 76.2324Z" fill="#3F58B2"/>
<path d="M164.218 170.521L162.773 126.397C162.773 126.397 187.856 133.029 178.401 85.0308C178.401 85.0308 168.945 75.4443 156.798 81.4851C144.717 87.5259 144.126 98.951 144.126 98.951L131.519 166.647L164.218 170.521Z" fill="white"/>
<path d="M165.269 171.638L130.468 167.567L143.207 98.8853C143.272 97.769 144.257 86.6724 156.404 80.6316C169.011 74.3281 179.057 84.2429 179.123 84.3742L179.32 84.5712L179.386 84.8339C183.26 104.663 181.881 117.796 175.249 124.033C171.112 127.907 166.122 127.842 163.824 127.579L165.269 171.638ZM132.767 165.859L163.233 169.405L161.788 125.15L163.102 125.478C163.364 125.544 169.274 127.054 174.001 122.589C178.138 118.649 182.143 109.063 177.613 85.4905C176.168 84.1773 167.895 77.0859 157.389 82.3387C145.964 88.0512 145.307 98.8853 145.307 99.0166V99.1479L132.767 165.859Z" fill="#4D67CA"/>
<path d="M177.941 83.3237C177.941 83.3237 173.411 89.7585 167.83 93.1728C163.102 96.0619 157.455 95.9306 155.354 97.1125C155.354 97.1125 149.576 119.503 161.395 139.923C161.395 139.923 144.585 140.12 132.57 124.362C132.57 124.362 134.737 128.433 137.035 131.584C137.035 131.584 116.68 132.438 129.024 86.6068C137.035 56.928 172.36 71.3734 177.613 76.3637L177.941 83.3237Z" fill="#3F58B2"/>
<path d="M200.266 287.857L204.206 379.783L184.639 555.097H145.373L153.384 395.213L149.05 289.827L200.266 287.857Z" fill="#4D67CA"/>
<path d="M177.153 277.417L163.824 381.687L123.311 555.032H87.9857L112.083 376.172C112.083 376.172 103.416 317.668 108.669 286.15L177.153 277.417Z" fill="white"/>
<path d="M124.034 556.082H86.804L86.9351 554.966L111.033 376.237C110.573 373.02 102.562 316.617 107.684 286.085L107.815 285.362L178.269 276.301L164.743 381.949L124.034 556.082ZM89.1021 554.112H122.523L162.839 381.621L176.037 278.665L109.522 287.201C104.598 318.39 112.937 375.58 113.003 376.171V376.303V376.434L89.1021 554.112Z" fill="#4D67CA"/>
<path d="M201.908 230.404H192.058L201.908 291.469C201.908 291.469 200.726 293.439 197.705 296C193.109 299.939 184.179 305.258 168.749 306.899C168.158 306.965 167.632 307.031 167.041 307.096C166.648 307.096 166.319 307.162 165.925 307.162C136.509 309.46 104.729 298.035 104.729 298.035L109.391 233.622L110.639 210.706L79.7782 208.08L93.3701 169.208C96.4562 162.577 102.037 157.39 108.866 154.763L133.358 145.374C133.358 145.374 155.026 168.355 164.875 146.687L205.913 169.996L201.908 230.404Z" fill="#EAEEFF"/>
<path d="M157.98 308.475C131.125 308.475 104.664 299.085 104.401 299.02L103.679 298.757L108.406 233.556L109.588 211.625L78.3992 208.999L92.4505 168.814C95.6679 161.92 101.381 156.601 108.472 153.844L133.554 144.257L134.014 144.717C134.145 144.848 145.176 156.47 154.632 154.894C158.506 154.238 161.657 151.348 163.956 146.293L164.415 145.308L206.898 169.471L206.832 170.062L202.827 231.389H193.24L202.958 291.666L202.761 291.994C202.695 292.06 201.448 294.095 198.362 296.722C193.503 300.858 184.376 306.177 168.88 307.884C168.289 307.95 167.698 308.015 167.173 308.081H167.107C166.779 308.081 166.45 308.147 166.057 308.147C163.364 308.344 160.672 308.475 157.98 308.475ZM105.78 297.378C110.639 299.02 139.398 308.278 165.86 306.177C166.188 306.177 166.516 306.111 166.845 306.111H166.91C167.501 306.046 168.026 305.98 168.617 305.914C183.654 304.273 192.387 299.217 197.049 295.211C199.215 293.373 200.397 291.863 200.857 291.206L190.877 229.354H200.988L204.796 170.456L165.203 148C162.642 153.056 159.162 156.01 154.894 156.733C154.172 156.864 153.515 156.93 152.793 156.93C144.06 156.93 135.196 148.591 133.029 146.489L109.194 155.616C102.562 158.177 97.244 163.102 94.2892 169.537L81.1571 207.16L111.689 209.787L110.376 233.622L105.78 297.378Z" fill="#4D67CA"/>
<path d="M149.05 220.227L164.809 226.793C164.809 226.793 166.779 222.853 159.556 216.944L149.05 220.227Z" fill="#4D67CA"/>
<path d="M138.873 235.657V228.434L278.993 234.081L278.731 242.223L178.926 244.193L138.873 235.657Z" fill="#4D67CA"/>
<path d="M192.715 226.464L145.439 229.747L180.896 236.97H195.473L192.715 226.464Z" fill="white"/>
<path d="M196.72 237.955H180.699L138.151 229.288L193.437 225.414L196.72 237.955ZM181.027 235.985H194.225L191.992 227.515L152.727 230.207L181.027 235.985Z" fill="#4D67CA"/>
<path d="M182.866 225.151L173.673 223.181L160.016 220.686C159.491 220.621 159.031 220.621 158.505 220.818L87.0008 259.295C79.5811 261.921 73.0807 253.779 75.1818 246.163L83.7178 208.736L109.982 210.706L103.744 228.763L157.98 209.655C159.031 209.261 160.213 209.13 161.329 209.261C164.546 209.655 171.244 210.64 173.345 212.413L184.179 221.737C185.492 222.919 182.866 225.151 182.866 225.151Z" fill="white"/>
<path d="M84.1773 260.805C81.8136 260.805 79.5154 259.886 77.6113 258.113C74.3282 255.027 73.0149 250.299 74.2625 245.9L82.9953 207.685L111.361 209.786L105.386 227.121L157.652 208.67C158.834 208.211 160.147 208.079 161.46 208.211C165.991 208.736 171.9 209.786 174.001 211.559L184.835 220.883C185.295 221.277 185.558 221.868 185.558 222.459C185.558 224.035 183.85 225.479 183.522 225.808L183.128 226.136L173.476 224.035L159.819 221.54C159.49 221.474 159.228 221.54 158.899 221.605L87.3947 260.083H87.3289C86.2784 260.608 85.2279 260.805 84.1773 260.805ZM84.5056 209.786L76.1666 246.36C75.116 249.971 76.2978 254.108 78.9899 256.603C81.1567 258.638 83.9145 259.295 86.6066 258.376L158.111 219.898H158.177C158.834 219.636 159.49 219.57 160.213 219.701L173.87 222.196L182.603 224.035C183.128 223.51 183.588 222.853 183.588 222.525C183.588 222.459 183.588 222.459 183.522 222.459L172.688 213.135C171.375 212.019 167.107 210.903 161.197 210.246C160.213 210.115 159.228 210.246 158.308 210.574L102.168 230.404L108.669 211.625L84.5056 209.786Z" fill="#4D67CA"/>
<path d="M194.488 165.071H279.453C283.261 165.071 286.216 168.354 285.822 172.163L278.731 235.657L180.896 236.97L188.184 170.784C188.513 167.501 191.27 165.071 194.488 165.071Z" fill="white"/>
<path d="M179.78 237.955L187.134 170.653C187.528 166.91 190.68 164.086 194.488 164.086H279.453C281.554 164.086 283.524 165.006 284.968 166.516C286.347 168.092 287.004 170.127 286.807 172.228L279.584 236.576L179.78 237.955ZM194.488 166.056C191.73 166.056 189.432 168.092 189.104 170.85L181.947 235.985L277.811 234.672L284.837 172.031C285.034 170.521 284.509 169.011 283.458 167.829C282.408 166.647 280.963 166.056 279.453 166.056H194.488V166.056Z" fill="#4D67CA"/>
<path d="M224.232 243.733C224.232 243.733 227.909 246.556 231.127 243.733C231.127 243.733 234.213 246.556 236.839 243.733C236.839 243.733 239.466 245.965 241.698 243.733C241.698 243.733 244.521 245.965 246.229 243.733L258.048 227.974C258.048 227.974 251.285 226.858 245.638 235.854L245.047 226.267L242.223 218.388C242.223 218.388 239.4 222.327 240.516 227.383L239.859 233.03L237.693 227.383L233.753 219.504C233.753 219.504 231.521 224.035 233.753 229.09L234.213 235.591L230.339 229.681L225.283 223.509C225.283 223.509 223.575 228.565 226.399 231.98L228.96 239.334L224.232 243.733Z" fill="white"/>
<path d="M234.213 245.966C233.031 245.966 231.914 245.506 231.127 244.981C228.237 246.95 225.02 245.572 223.641 244.521L222.722 243.799L227.909 238.94L225.611 232.374C222.656 228.631 224.363 223.378 224.429 223.116L225.02 221.408L231.258 229.091L233.031 231.783L232.834 229.288C230.536 223.904 232.834 219.242 232.899 219.045L233.753 217.272L238.612 226.99L239.334 228.894L239.531 227.384C238.415 221.999 241.304 217.928 241.435 217.731L242.551 216.221L246.032 226.005L246.425 232.899C251.941 225.939 257.916 226.858 258.179 226.924L259.755 227.187L246.951 244.258C246.36 245.046 245.572 245.506 244.653 245.637C243.471 245.769 242.355 245.309 241.698 244.915C239.991 246.163 238.087 245.637 236.839 244.981C236.051 245.703 235.066 245.966 234.213 245.966ZM225.874 243.536C226.99 244.061 228.828 244.455 230.47 243.011L231.127 242.42L231.783 243.011C232.046 243.208 234.213 245.112 236.117 243.077L236.773 242.354L237.496 242.945C237.693 243.142 239.466 244.521 241.041 243.011L241.632 242.42L242.289 242.945C242.617 243.208 243.602 243.799 244.456 243.733C244.85 243.667 245.112 243.47 245.375 243.142L256.012 228.959C253.779 229.288 249.971 230.732 246.425 236.313L244.784 238.94L244.062 226.399L242.026 220.752C241.435 222.262 240.91 224.494 241.435 227.055L241.501 227.187L240.385 236.97L236.773 227.646L233.95 221.999C233.622 223.641 233.49 226.005 234.672 228.565L234.738 228.697L235.526 239.137L229.616 230.076L225.874 225.545C225.677 227.121 225.808 229.419 227.187 231.126L227.318 231.258L230.142 239.334L225.874 243.536Z" fill="#4D67CA"/>
<path d="M245.698 203.21C246.359 199.903 244.675 196.778 241.937 196.231C239.199 195.683 236.443 197.92 235.782 201.227C235.121 204.534 236.804 207.659 239.542 208.207C242.28 208.754 245.036 206.517 245.698 203.21Z" fill="white"/>
<path d="M240.385 209.392C240.057 209.392 239.728 209.392 239.4 209.261C237.758 208.933 236.445 207.882 235.591 206.306C234.803 204.796 234.541 202.958 234.869 201.119C235.263 199.281 236.183 197.705 237.496 196.588C238.875 195.472 240.516 195.013 242.157 195.341C245.441 195.997 247.476 199.675 246.688 203.483C246.032 206.897 243.274 209.392 240.385 209.392ZM241.173 197.245C240.319 197.245 239.531 197.573 238.743 198.164C237.758 198.952 237.036 200.134 236.773 201.513C236.511 202.892 236.708 204.271 237.299 205.387C237.89 206.438 238.743 207.16 239.794 207.357C242.026 207.816 244.259 205.912 244.784 203.155C245.309 200.397 243.996 197.77 241.829 197.311C241.567 197.245 241.37 197.245 241.173 197.245Z" fill="#4D67CA"/>
<path d="M914 589.241H0V591.867H914V589.241Z" fill="black"/>
<path d="M913.751 589.792H83V592.179H913.751V589.792Z" fill="#7590ED"/>
</svg>