
<svg xmlns="http://www.w3.org/2000/svg" viewBox="0 0 1869.5 886.14"><defs><style>.cls-1{fill:#06227a;}.cls-2{fill:#bc7622;}.cls-3,.cls-9{fill:none;stroke-miterlimit:10;stroke-width:3px;}.cls-3{stroke:#717a7f;}.cls-4{fill:#f8f8f8;}.cls-5{fill:#e8c56d;}.cls-6{fill:#3ea36e;}.cls-7{fill:#2560b7;}.cls-8{fill:#090928;}.cls-9{stroke:#090928;}</style></defs><g id="Layer_2" data-name="Layer 2"><g id="Layer"><path class="cls-1" d="M1363.79,23.85,1418,3.7a59.16,59.16,0,0,1,63.6,14.84L1626.3,171.88"/><path class="cls-1" d="M1471.28,111.49,1272.1,16.94a45.37,45.37,0,0,0-64.79,38.88l-11.53,247.4a18.32,18.32,0,0,0,28.83,15.88c76.55-53.59,62.1-187.57,62.1-187.57,47.62,41.71,122.16,38,122.16,38l73.44,99.36L1396,256.7s-140.35-105-225.32-53.52c-11.33,6.87-7.88,24.21,4.52,28.4l117.38,50.54s99,110.58,132.44,127.12,197,23.56,197,23.56L1758.61,495,1869.5,300,1367.18,15.48a89.3,89.3,0,0,0-95.26,4.57L1102.19,139a16.74,16.74,0,0,0,3.68,29.38c29.73,11.13,89,13.38,188.4-60.95"/><polygon class="cls-2" points="1184.9 171.88 1156.56 324.51 1225.13 302.34 1184.9 171.88"/><path class="cls-1" d="M1395.77,257s-140.35-105-225.31-53.51c-11.33,6.86-7.89,24.2,4.51,28.4l117.4,50.53"/><line class="cls-3" x1="1274.71" y1="18.17" x2="1474.63" y2="114.73"/><line class="cls-3" x1="1205.7" y1="66.45" x2="1202.41" y2="160.93"/><line class="cls-3" x1="1374.67" y1="19.72" x2="1590.02" y2="141.68"/><path class="cls-4" d="M1107,135.64s47.56,19.44,49.59-36.28"/><path class="cls-1" d="M536.2,88.37,485.87,59.86a59.14,59.14,0,0,0-65.18,4.55L253.48,192.82"/><path class="cls-1" d="M456,110.27l-54.29-20a59.18,59.18,0,0,0-63.58,15.07L193.92,259.21"/><path class="cls-1" d="M398.19,134.51,597.36,40a45.39,45.39,0,0,1,64.8,38.89l11.53,247.39a18.32,18.32,0,0,1-28.78,15.88c-76.55-53.59-62.1-187.57-62.1-187.57C535.19,196.27,468,200.4,468,200.4L387.21,292l86.23-12.26s140.35-105,225.31-53.51c11.33,6.86,7.89,24.2-4.51,28.4l-117.4,50.53s-99,110.58-132.44,127.14-197,23.57-197,23.57L110.89,518,0,323,494.44,43a49.23,49.23,0,0,1,72.17,31.36l37.83,158.29s-67.56,13.3-109.6-71.69"/><line class="cls-3" x1="594.76" y1="41.2" x2="394.84" y2="137.75"/><line class="cls-3" x1="494.8" y1="42.74" x2="279.46" y2="164.71"/><line class="cls-3" x1="670.83" y1="264.69" x2="604.4" y2="293.28"/><path class="cls-1" d="M425.55,174.2s61.74,73.12,121.06,42.65S495,105.14,495,105.14"/><polygon class="cls-2" points="938.71 886.14 1030.42 760.87 1061.28 826 938.71 886.14"/><path class="cls-3" d="M1201,191.43s33-8.64,84,9"/><path class="cls-4" d="M1180.19,231.7s-9.54-6.18,4.27-15.52,39.71-3.25,42.4,9.74-15.25,19.34-15.25,19.34"/><circle class="cls-5" cx="833.01" cy="466.31" r="73.73"/><circle class="cls-6" cx="722.06" cy="488.88" r="29.1"/><rect class="cls-6" x="647.76" y="242.31" width="73.12" height="152.93" transform="translate(-24.97 577.25) rotate(-45)"/><rect class="cls-5" x="727.18" y="346.95" width="73.12" height="102.49" transform="translate(-57.87 656.67) rotate(-45)"/><polygon class="cls-6" points="796.45 618.54 869.57 618.54 869.57 760.87 796.45 754.58 796.45 618.54"/><polygon class="cls-5" points="796.45 520.85 869.57 520.85 869.57 628.39 796.45 623.63 796.45 520.85"/><path class="cls-3" d="M468,200.4s77.86-5.42,114.79-45.85c0,0-.68,50.57,1.67,71.08"/><path class="cls-6" d="M799.19,733.7s-27.35,41.58-24,45.24,33.14-22.24,33.14-22.24,2.51,54.15,7.08,54.15,11.81-57.2,11.81-57.2,7.61,66.42,13.4,66.42,11.28-63,11.28-63,5.17,42.58,10.35,43.8,7.32-40,7.32-40"/><path class="cls-6" d="M655.44,247.83S645.07,199.15,640.12,199s-7.47,39.2-7.47,39.2-40.29-36.27-43.5-33,32.39,48.54,32.39,48.54-52.6-41.26-56.66-37.15,36.88,52.3,36.88,52.3-33.93-26.25-38.43-23.42,23.28,33.33,23.28,33.33"/><path class="cls-1" d="M473.44,279.78s140.35-105,225.31-53.52c11.33,6.87,7.89,24.21-4.51,28.4L576.84,305.2"/><path class="cls-3" d="M584.48,223.43c51-17.61,84-9,84-9"/><path class="cls-4" d="M684.28,258.9s9.54-6.18-4.27-15.53-39.71-3.25-42.4,9.75,15.21,19.32,15.21,19.32"/><polygon class="cls-6" points="1163.57 244.77 932.45 424.87 925.24 529.29 950.93 826.99 1085.5 777.94 1033.43 492.17 1207.51 414.39 1163.57 244.77"/><path class="cls-3" d="M778.71,361.47s-16.52,97.91,27.64,113.9C843.69,488.88,887,416.09,887,416.09"/><path class="cls-3" d="M802.71,385.47s-11.1,39.44,11.44,49.28,61-28.94,61-28.94"/><path class="cls-3" d="M825.24,393s-7.43,14.45.58,15.59,32.79-11.44,32.79-11.44"/><path class="cls-3" d="M906.73,459.79S823.61,517.56,765.05,495"/><path class="cls-3" d="M743.42,429.58s-1.44-68,15.77-87.63"/><path class="cls-3" d="M728.89,360.57s3.28,24.87-9.68,44.81"/><path class="cls-3" d="M895.23,505.89s-75.75,7.22-81.9,37.58c-8.27,40.77,56.28,64.82,56.28,64.82"/><path class="cls-3" d="M869.61,581.21s-30.21-12.3-30.72-28.72,30.72-23.79,30.72-23.79"/><path class="cls-3" d="M796.45,583.26s13.6,31.18,57.76,44.14"/><line class="cls-3" x1="1208.96" y1="245.73" x2="1265.19" y2="269.98"/><polygon class="cls-7" points="943.1 736.21 1069.42 689.71 1085.5 777.94 950.93 826.99 943.1 736.21"/><polygon class="cls-7" points="1207.51 414.39 1131.77 448.23 1087.38 304.14 1163.57 244.77 1207.51 414.39"/><circle class="cls-8" cx="714.49" cy="468.85" r="4.73"/><circle class="cls-8" cx="716.1" cy="487.26" r="4.73"/><line class="cls-9" x1="732.62" y1="449.59" x2="725.91" y2="475.69"/><path class="cls-6" d="M759.84,457.16h46.1L764.8,494.37S756.92,479.61,759.84,457.16Z"/></g></g></svg>