<?xml version="1.0" standalone="no"?>
<!DOCTYPE svg PUBLIC "-//W3C//DTD SVG 20010904//EN"
 "http://www.w3.org/TR/2001/REC-SVG-20010904/DTD/svg10.dtd">
<svg version="1.0" xmlns="http://www.w3.org/2000/svg"
 width="260.000000pt" height="260.000000pt" viewBox="0 0 260.000000 260.000000"
 preserveAspectRatio="xMidYMid meet">
<metadata>
Created by potrace 1.14, written by Peter Selinger 2001-2017
</metadata>
<g transform="translate(0.000000,260.000000) scale(0.100000,-0.100000)"
fill="#000000" stroke="none">
<path d="M329 2596 c-2 -3 -17 -7 -33 -10 -109 -20 -233 -137 -275 -261 -20
-59 -20 -79 -21 -1021 0 -1065 -3 -1016 66 -1120 46 -70 94 -110 172 -147 l67
-32 968 -3 c706 -1 980 1 1015 9 124 31 213 102 269 217 l38 76 0 996 0 996
-37 76 c-45 91 -103 147 -196 191 l-67 32 -981 3 c-539 1 -983 0 -985 -2z"/>
</g>
</svg>
