<svg width="1461" height="972" viewBox="0 0 1461 972" fill="none" xmlns="http://www.w3.org/2000/svg">
<circle cx="694.054" cy="220.164" r="116.211" fill="white"/>
<path d="M588.593 163.182C601.224 140.261 621.096 122.178 645.099 111.765C669.101 101.352 695.878 99.1968 721.236 105.637C746.594 112.077 769.101 126.749 785.232 147.355C798.671 164.523 807.052 185.001 809.575 206.492" stroke="#364EA5" stroke-width="4" stroke-miterlimit="10" stroke-linecap="round" stroke-linejoin="round"/>
<path d="M810.264 204.539C818.016 202.008 823.936 198.215 837.158 198.215C857.281 198.215 876.58 206.212 890.809 220.447C905.038 234.682 913.032 253.989 913.032 274.12C913.032 294.252 905.038 313.558 890.809 327.793C876.58 342.028 857.281 350.025 837.158 350.025H581.04C556.364 350.025 532.699 340.219 515.251 322.763C497.802 305.308 488 281.633 488 256.947C488 232.261 497.802 208.587 515.251 191.131C532.699 173.675 556.364 163.869 581.04 163.869C591.317 163.839 601.443 165.48 611.046 168.655" stroke="#4D67CA" stroke-width="4" stroke-miterlimit="10" stroke-linecap="round" stroke-linejoin="round"/>
<ellipse cx="839.561" cy="268.992" rx="60.5467" ry="65.4295" fill="white"/>
<ellipse cx="569.199" cy="234.871" rx="63.4827" ry="62.0064" fill="white"/>
<path d="M1428.9 642.9C1425.3 675.7 1417.6 715.8 1403 764L1391.9 762.6C1391.9 762.6 1392.3 747.1 1393.4 724C1396.1 662.6 1403.2 546.8 1418.3 519.6C1418.3 519.6 1438.5 555.2 1428.9 642.9Z" fill="white"/>
<path d="M1404.1 765.7L1390.4 764V762.6C1390.4 762.4 1390.8 746.9 1391.9 723.9C1394.8 659 1401.9 546 1417 518.8L1418.3 516.5L1419.6 518.8C1420.4 520.3 1440 555.9 1430.4 643C1426.4 679.8 1417.6 720.7 1404.4 764.4L1404.1 765.7ZM1393.4 761.3L1401.9 762.4C1414.9 719.3 1423.4 679 1427.4 642.7C1435.4 569.8 1422.5 532.8 1418.2 523C1404.3 553.8 1397.6 661.4 1394.8 724.1C1394 743.1 1393.6 757 1393.4 761.3Z" fill="#374FAC"/>
<path d="M1399 778.6H1396C1397.4 630.9 1416.7 519.7 1416.9 518.6L1419.9 519.1C1419.6 520.2 1400.3 631.1 1399 778.6Z" fill="#374FAC"/>
<path d="M1428.9 642.9C1425.3 675.7 1417.6 715.8 1403 764L1391.9 762.6C1391.9 762.6 1392.3 747.1 1393.4 724C1404.9 689.8 1419.2 660.8 1428.9 642.9Z" fill="#374FAC"/>
<path d="M1394 759.2C1394 759.2 1432.9 652.9 1457.2 626.6C1457.2 626.6 1473.2 691.9 1402.3 762.7L1394 759.2Z" fill="white"/>
<path d="M1402.7 764.4L1392.1 760L1392.6 758.7C1394.2 754.3 1431.9 651.9 1456.1 625.6L1458 623.5L1458.7 626.2C1458.9 626.9 1462.7 643.1 1457.8 668.3C1453.3 691.5 1440.3 726.8 1403.4 763.7L1402.7 764.4ZM1395.9 758.3L1402 760.8C1437.8 724.7 1450.5 690.3 1454.9 667.7C1458.5 649.3 1457.2 635.6 1456.3 629.8C1433.9 657.3 1400.4 746.3 1395.9 758.3Z" fill="#374FAC"/>
<path d="M1329.4 558.4C1329.4 558.4 1389.1 645.2 1394.7 762.6H1392.6C1392.6 762.6 1316.9 636.2 1329.4 558.4Z" fill="white"/>
<path d="M1396.2 764.1H1391.7L1391.3 763.4C1391.1 763.1 1372.1 731.2 1354.9 690.3C1339 652.4 1321.4 598.8 1327.9 558.2L1328.5 554.5L1330.6 557.6C1330.8 557.8 1345.8 579.8 1361.3 615.9C1375.6 649.2 1393.3 701.7 1396.1 762.5L1396.2 764.1ZM1330.3 562.6C1321.6 634.8 1385.1 746.7 1393 760.4C1387.6 658.7 1341 579.5 1330.3 562.6Z" fill="#374FAC"/>
<path d="M1391.1 762.9C1373.3 645.8 1328.5 560 1328.1 559.2L1330.8 557.8C1331.3 558.7 1376.3 644.8 1394.2 762.5L1391.1 762.9Z" fill="#374FAC"/>
<path d="M1393.7 775.3L1390.9 774.3C1421.8 686.3 1455.6 626.4 1455.9 625.8L1458.5 627.3C1458.1 627.8 1424.5 687.5 1393.7 775.3Z" fill="#374FAC"/>
<path d="M1436.3 755L1431.8 810.9L1419 967.5H1369.7L1352.3 755H1436.3Z" fill="white"/>
<path d="M1420.4 969H1368.3L1350.7 753.5H1438L1420.4 969ZM1371.1 966H1417.6L1434.7 756.5H1353.9L1371.1 966Z" fill="#374FAC"/>
<path d="M1431.8 810.9L1419 967.5H1384.7L1431.8 810.9Z" fill="#374FAC"/>
<path d="M1374.8 53.5H1245.4C1241.6 53.5 1238.5 56.6 1238.5 60.4V116.7C1238.5 120.5 1241.6 123.6 1245.4 123.6H1254.1V146.3L1274.9 123.6H1374.8C1378.6 123.6 1381.7 120.5 1381.7 116.7V60.4C1381.7 56.6 1378.6 53.5 1374.8 53.5Z" fill="white"/>
<path d="M1252.6 150.2V125.2H1245.4C1240.8 125.2 1237 121.4 1237 116.8V60.5C1237 55.9 1240.8 52.1 1245.4 52.1H1374.8C1379.4 52.1 1383.2 55.9 1383.2 60.5V116.8C1383.2 121.4 1379.4 125.2 1374.8 125.2H1275.6L1252.6 150.2ZM1245.4 55C1242.4 55 1240 57.4 1240 60.4V116.7C1240 119.7 1242.4 122.1 1245.4 122.1H1255.6V142.5L1274.3 122.2H1374.8C1377.8 122.2 1380.2 119.8 1380.2 116.8V60.5C1380.2 57.5 1377.8 55.1 1374.8 55.1H1245.4V55Z" fill="#4D67CA"/>
<path d="M1303 69.1H1252.7V74.9H1303V69.1Z" fill="white"/>
<path d="M1304 75.9H1251.7V68.1H1304V75.9ZM1253.7 73.9H1302V70.1H1253.7V73.9Z" fill="#4D67CA"/>
<path d="M1367.5 85.3H1252.7V91.1001H1367.5V85.3Z" fill="white"/>
<path d="M1368.5 92.1001H1251.7V84.3H1368.5V92.1001ZM1253.7 90.1001H1366.5V86.3H1253.7V90.1001Z" fill="#4D67CA"/>
<path d="M1367.5 101.6H1252.7V107.4H1367.5V101.6Z" fill="white"/>
<path d="M1368.5 108.4H1251.7V100.6H1368.5V108.4ZM1253.7 106.4H1366.5V102.6H1253.7V106.4Z" fill="#4D67CA"/>
<path d="M81.8999 267.6H211.3C215.1 267.6 218.2 270.7 218.2 274.5V330.8C218.2 334.6 215.1 337.7 211.3 337.7H202.6V360.5L181.8 337.8H81.8999C78.0999 337.8 75 334.7 75 330.9V274.6C75 270.7 78.0999 267.6 81.8999 267.6Z" fill="white"/>
<path d="M204.1 364.4L181.1 339.4H81.8999C77.2999 339.4 73.5 335.6 73.5 331V274.7C73.5 270.1 77.2999 266.3 81.8999 266.3H211.3C215.9 266.3 219.7 270.1 219.7 274.7V331C219.7 335.6 215.9 339.4 211.3 339.4H204.1V364.4ZM81.8999 269.1C78.8999 269.1 76.5 271.5 76.5 274.5V330.8C76.5 333.8 78.8999 336.2 81.8999 336.2H182.4L201.1 356.5V336.2H211.3C214.3 336.2 216.7 333.8 216.7 330.8V274.5C216.7 271.5 214.3 269.1 211.3 269.1H81.8999Z" fill="#4D67CA"/>
<path d="M116.5 309.4C120.2 309.4 123.2 306.4 123.2 302.7C123.2 299 120.2 296 116.5 296C112.8 296 109.8 299 109.8 302.7C109.8 306.4 112.8 309.4 116.5 309.4Z" fill="white"/>
<path d="M116.5 310.5C112.2 310.5 108.8 307 108.8 302.8C108.8 298.6 112.3 295.1 116.5 295.1C120.7 295.1 124.2 298.6 124.2 302.8C124.2 307 120.7 310.5 116.5 310.5ZM116.5 297C113.3 297 110.8 299.6 110.8 302.7C110.8 305.8 113.4 308.4 116.5 308.4C119.7 308.4 122.2 305.8 122.2 302.7C122.2 299.6 119.6 297 116.5 297Z" fill="#4D67CA"/>
<path d="M145.5 309.4C149.2 309.4 152.2 306.4 152.2 302.7C152.2 299 149.2 296 145.5 296C141.8 296 138.8 299 138.8 302.7C138.8 306.4 141.8 309.4 145.5 309.4Z" fill="white"/>
<path d="M145.5 310.5C141.2 310.5 137.8 307 137.8 302.8C137.8 298.6 141.3 295.1 145.5 295.1C149.7 295.1 153.2 298.6 153.2 302.8C153.2 307 149.8 310.5 145.5 310.5ZM145.5 297C142.3 297 139.8 299.6 139.8 302.7C139.8 305.8 142.4 308.4 145.5 308.4C148.6 308.4 151.2 305.8 151.2 302.7C151.2 299.6 148.7 297 145.5 297Z" fill="#4D67CA"/>
<path d="M175.3 309.4C179 309.4 182 306.4 182 302.7C182 299 179 296 175.3 296C171.599 296 168.6 299 168.6 302.7C168.6 306.4 171.599 309.4 175.3 309.4Z" fill="white"/>
<path d="M175.3 310.5C171 310.5 167.6 307 167.6 302.8C167.6 298.6 171.1 295.1 175.3 295.1C179.5 295.1 183 298.6 183 302.8C183 307 179.6 310.5 175.3 310.5ZM175.3 297C172.1 297 169.6 299.6 169.6 302.7C169.6 305.8 172.2 308.4 175.3 308.4C178.4 308.4 181 305.8 181 302.7C181 299.6 178.5 297 175.3 297Z" fill="#4D67CA"/>
<path d="M263.3 392.9C263.3 392.9 283.9 383.5 289 405.2C294.1 426.9 292.5 452.1 292.5 452.1C292.5 452.1 293.1 465.8 302.4 476.5C302.4 476.5 264.6 481.5 253.9 466.2L238.3 403.4L263.3 392.9Z" fill="#4D67CA"/>
<path d="M284.3 520.9L270.5 462.7C270.5 462.7 306.3 462.4 276.2 401.9C276.2 401.9 260.1 392.6 246.2 405.1C232.3 417.6 232.6 433 232.6 433L240.6 527.7L284.3 520.9Z" fill="white"/>
<path d="M239.1 529.5L231 433.2C231 432.4 230.9 416.9 245.1 404.1C259.6 391 276.7 400.6 276.9 400.7L277.3 400.9L277.5 401.3C289.9 426.3 292.9 444.4 286.3 455.1C282.2 461.8 275.5 463.6 272.3 464.1L286.1 522.2L239.1 529.5ZM262.8 400.1C258 400.1 252.4 401.5 247.1 406.3C233.9 418.2 234 432.9 234 433.1L241.8 526.1L282.4 519.8L268.5 461.4H270.4C270.8 461.4 279.1 461.2 283.7 453.7C287.8 447 289.6 432.8 275 403.2C273.6 402.3 268.8 400.1 262.8 400.1Z" fill="#4D67CA"/>
<path d="M274.9 399.9C274.9 399.9 271.2 410.1 265 416.7C259.8 422.3 252.2 424.1 249.8 426.5C249.8 426.5 250.3 458.4 273.5 481.3C273.5 481.3 251.2 487.7 229.5 471.1C229.5 471.1 233.9 475.7 238.1 479.1C238.1 479.1 211.3 487.7 211 422.1C210.8 379.7 263.1 386 271.9 390.7L274.9 399.9Z" fill="#4D67CA"/>
<path d="M560.7 953.8C560.7 953.8 553.5 954.9 540.5 956.6C540 956.7 539.5 956.7 539 956.8C486.5 963.2 345.9 976.3 200.9 953.9C200.9 953.9 29.9001 938.6 2.20006 710.8V710.7C1.50006 704.1 -5.30014 558.1 116 504.3C118.9 503 121.9 501.8 124.9 500.6C124.9 500.6 125.9 500.1 127.8 499.3C134.3 496.5 151.4 490.3 174.7 488.8C194.9 487.5 219.9 489.9 246.8 501.2C250.1 502.6 253.5 504.1 256.9 505.8C267.9 511.3 279.2 518.4 290.6 527.4C334.2 562 384.1 616.8 490.8 624.8C542.2 628.7 634.2 648.6 668.7 729.1C693.4 786.4 708.7 917.8 560.7 953.8Z" fill="white"/>
<path d="M375.7 968C322.3 968 261.9 964.8 200.7 955.4C200.4 955.4 157.1 951.2 111.1 919C84.1001 900.1 61.4002 875.4 43.7002 845.6C21.6002 808.4 7.09982 763.1 0.799825 710.9V710.7C0.699825 708.8 -1.89998 670.5 12 624.7C19.8 599.1 31.0998 576.5 45.7998 557.4C63.9998 533.7 87.4999 515.3 115.4 503C118.3 501.7 121.3 500.5 124.3 499.3C124.6 499.2 125.6 498.7 127.2 498C133.5 495.3 150.9 488.9 174.6 487.4C199.5 485.8 223.9 490.1 247.3 499.9C250.9 501.4 254.2 502.9 257.5 504.6C269.1 510.4 280.6 517.7 291.5 526.4C297.5 531.2 303.6 536.2 310 541.6C349.8 575 399.3 616.6 490.9 623.5C532.6 626.6 633.4 643.2 670.1 728.7C686 765.9 695.7 827 670.7 877.2C651.2 916.2 614.3 942.5 560.9 955.5H560.8C560.7 955.5 553.4 956.7 540.6 958.3H540.4C540 958.3 539.6 958.4 539.1 958.5C508.3 962.1 448.6 968 375.7 968ZM3.79982 710.6C17.9998 827.6 70.9002 887.1 112.7 916.4C158.1 948.2 200.7 952.3 201.1 952.4C345.6 974.8 485.5 961.9 538.9 955.3C539.3 955.2 539.8 955.2 540.2 955.1H540.4C552.6 953.6 559.7 952.5 560.4 952.4C612.8 939.6 649.1 913.8 668.1 875.7C692.7 826.5 683.1 766.3 667.4 729.8C631.4 645.8 531.8 629.5 490.7 626.4C398.2 619.4 348.2 577.5 308.1 543.8C301.7 538.4 295.7 533.4 289.7 528.6C279 520.1 267.7 512.9 256.3 507.2C253.1 505.6 249.8 504.1 246.3 502.6C223.3 492.9 199.3 488.8 174.9 490.3C151.6 491.8 134.7 498 128.5 500.6C126.7 501.4 125.7 501.9 125.7 501.9L125.6 502C122.6 503.2 119.6 504.4 116.7 505.7C66.5002 527.9 32.2999 568.3 14.8999 625.6C2.59992 666 3.09982 703.4 3.79982 710.5V710.6Z" fill="#4D67CA"/>
<path d="M669.6 870L690 843.4L676.1 827.6L652.1 800.4L627.5 831.6L656.9 858.5L669.6 870Z" fill="white"/>
<path d="M669.8 872.2L625.5 831.7L652.1 798L692 843.3L669.8 872.2ZM629.5 831.4L669.4 867.8L688 843.5L652.1 802.7L629.5 831.4Z" fill="#4D67CA"/>
<path d="M661.3 862C665.5 861.5 680.8 858.2 681.9 834.1C681.9 833.9 682 833.7 682.2 833.6L738.5 808.1C741.1 806.9 743.6 810 741.9 812.3L687.8 882.9C685.3 886.2 680.4 886.3 677.8 883.1L661 862.9C660.7 862.5 660.9 862 661.3 862Z" fill="#4D67CA"/>
<path d="M656.9 858.5L676.1 827.6L652.1 800.4L627.5 831.6L656.9 858.5Z" fill="#4D67CA"/>
<path d="M300.7 648.6H488.2C493.9 648.6 499.3 650.8 503.4 654.7L676.3 819.2L628.1 858.8L458.6 694.7L300.6 697V648.6H300.7Z" fill="#4D67CA"/>
<path d="M328.1 644L330.2 658.9L221.3 668.9L218.5 607.5L218.2 600.7H168.3L176.3 534.6C177.9 521.5 186.7 510.5 199.1 506L236.6 492.5C266.5 522.4 279.6 492.5 279.6 492.5L299.5 494.6C310.1 495.7 321.3 501.9 326.5 511.2L362.7 559.6L325.6 573.2C325.6 573.2 325.3 578.5 324.6 580.3C323.9 581.9 319.9 586.7 319.9 586.7L328.1 644Z" fill="#4D67CA"/>
<path d="M638.7 909.5L663 886.4L651.7 868.6L632.3 838L603.1 865L628 896.1L638.7 909.5Z" fill="white"/>
<path d="M638.6 911.7L601.1 864.8L632.6 835.6L664.9 886.6L638.6 911.7ZM605.2 865.1L638.9 907.3L661.1 886.2L632 840.3L605.2 865.1Z" fill="#4D67CA"/>
<path d="M631.9 900.2C636.1 900.4 651.7 899.5 656.6 875.9C656.6 875.7 656.8 875.5 657 875.5L716.6 859C719.4 858.2 721.3 861.7 719.3 863.7L654.9 925C651.9 927.8 647.1 927.2 645 923.6L631.5 901C631.1 900.7 631.4 900.2 631.9 900.2Z" fill="#4D67CA"/>
<path d="M628 896.1L651.7 868.6L632.3 838L603.1 865L628 896.1Z" fill="#4D67CA"/>
<path d="M224.3 655.9C224.3 655.9 202.1 734.9 238.9 755.6C238.9 755.6 293.4 780.9 428.3 749.5C428.3 749.5 453.6 744.1 462 748.7L594 900.5L651.5 861.4L490.8 670.4C487.1 666 481.8 663.4 476.1 663.1L313.3 655.8H224.3V655.9Z" fill="white"/>
<path d="M593.8 902.5L461.2 749.8C454.5 746.4 435.5 749.4 428.7 750.8C358.8 767.1 310.8 767.9 282.9 765.7C252.5 763.3 238.8 757.1 238.3 756.8L238.2 756.7C222.6 747.9 215.1 727.5 216.3 697.7C217.3 675.4 222.8 655.5 222.9 655.3L223.2 654.2H313.3L476.2 661.5C482.3 661.8 488.1 664.6 492 669.3L653.7 861.6L593.8 902.5ZM451 745.3C455.7 745.3 460.1 745.8 462.8 747.3L463 747.4L463.2 747.6L594.3 898.5L649.3 861.1L489.7 671.4C486.3 667.4 481.3 664.9 476 664.7L313.2 657.4H225.4C222.9 666.9 206.5 735.6 239.5 754.3C241.4 755.1 296.9 778.6 427.9 748C428.8 747.8 440.7 745.3 451 745.3Z" fill="#4D67CA"/>
<path d="M540.5 956.6C540 956.7 539.5 956.7 539 956.8C486.5 963.2 345.9 976.3 200.9 953.9C200.9 953.9 29.9001 938.6 2.20006 710.8V710.7C1.50006 704.1 -5.30014 558.1 116 504.3C162.4 513.9 143.1 561.9 138.4 588.5C130.9 630.5 148.1 665.3 172.9 689.4C191.5 707.5 215.1 719.5 230.9 724.1C257 731.6 273.2 734.4 293 739.1C464.8 779.8 481.7 798.2 504.4 819.5C540.5 853.2 542.8 918.1 540.5 956.6Z" fill="white"/>
<path d="M375.7 968C322.3 968 261.9 964.8 200.7 955.4C200.4 955.4 157.1 951.2 111.1 919C84.1001 900.1 61.4002 875.4 43.7002 845.6C21.6002 808.4 7.09982 763.1 0.799825 710.9V710.7C0.699825 708.8 -1.89998 670.5 12 624.7C19.8 599.1 31.0998 576.5 45.7998 557.4C63.9998 533.7 87.4999 515.3 115.4 503L115.8 502.8L116.3 502.9C128.3 505.4 137 510.7 142.1 518.6C152.2 534.3 146.9 557.5 142.6 576.2C141.6 580.7 140.6 585 139.9 588.8C131.1 638 157.5 672.3 173.9 688.4C193.1 707.1 216.8 718.5 231.3 722.7C249.5 727.9 263 730.9 276.1 733.8C281.7 735 287.4 736.3 293.4 737.7C462 777.6 481.5 795.9 504.1 817.1L505.5 818.4C542.3 852.9 544.2 919.9 542 956.7L541.9 958L540.5 958.2C540.1 958.2 539.7 958.3 539.2 958.4C508.3 962.1 448.6 968 375.7 968ZM3.79982 710.6C17.9998 827.6 70.9002 887.1 112.7 916.4C158.1 948.2 200.7 952.3 201.1 952.4C345.6 974.8 485.5 961.9 538.9 955.3C539 955.3 539 955.3 539.1 955.3C541.1 918.7 539 853.9 503.4 820.6L502 819.3C479.7 798.4 460.5 780.3 292.7 740.6C286.8 739.2 281 737.9 275.5 736.7C262.4 733.8 248.8 730.8 230.5 725.6C215.7 721.3 191.4 709.6 171.9 690.6C142.7 662.2 130.3 625.9 137 588.4C137.7 584.5 138.7 580.2 139.7 575.6C143.9 557.5 149.1 535 139.6 520.3C134.9 513 127.3 508.4 116.2 506C66.3002 528.3 32.1998 568.5 14.7998 625.7C2.49982 666.1 3.00022 703.5 3.70022 710.6H3.79982Z" fill="#4D67CA"/>
<path d="M369.1 566.7L341.5 592.7L334.5 584.5L324.8 573.1L345.6 537.3L346.9 538.9L369.1 566.7Z" fill="white"/>
<path d="M341.4 594.9L323 573.3L345.5 534.7L348.1 538L371.2 566.9L341.4 594.9ZM326.6 572.9L341.6 590.5L367 566.6L345.7 540L326.6 572.9Z" fill="#4D67CA"/>
<path d="M369.1 566.7L341.5 592.7L334.5 584.5C333 573.8 335.1 558.8 346.9 538.9L369.1 566.7Z" fill="#4D67CA"/>
<path d="M373.8 583.5C372.1 590.7 364.7 604.3 348.2 598.2C338 594.4 336.6 579.6 340.2 563.5C346 537.4 359.9 472.2 359.9 472.2C359.9 472.2 354.8 460.5 354.2 453C354.1 451.1 354.7 449.3 356 448C356.7 447.3 357.8 446 359.4 443.9L366.4 411.5C366.8 409.5 369.6 409.2 370.3 411.2C371.4 414.1 372.3 417.8 372 421.4L371.4 439.3C371.4 439.3 378.2 440.2 377.8 444.1C377.8 444.1 382.7 444.5 382.3 448.3C382.3 448.3 383.8 447.5 385 449.2C385.9 450.4 386 451.9 385.4 453.3C384.4 455.9 382.2 463.7 380.1 470.7L376.4 476.6C376.4 476.6 379.9 557 373.8 583.5Z" fill="white"/>
<path d="M356 601.3C353.4 601.3 350.6 600.8 347.6 599.7C337.7 596.1 334.4 582.4 338.7 563.3C344.2 538.7 357 478.4 358.3 472.5C357.3 470.2 353.2 460.1 352.7 453.3C352.5 451 353.3 448.8 354.9 447.1C355.6 446.3 356.7 445.1 358 443.4L364.9 411.4C365.2 409.8 366.5 408.7 368.1 408.6C369.7 408.5 371.1 409.4 371.7 410.9C373.2 414.9 373.8 418.5 373.5 421.8L372.9 438.3C375.5 438.9 378.6 440.3 379.2 443C380.3 443.3 381.7 443.8 382.7 445C383.2 445.5 383.5 446.2 383.6 446.9C384.4 447 385.4 447.5 386.2 448.5C387.3 450 387.6 452.1 386.8 454C386.1 455.8 384.7 460.4 383.3 465.2C382.7 467.2 382.1 469.3 381.5 471.2L381.4 471.4L377.9 477.1C378.2 484.4 381.1 558.3 375.2 584C374 589.2 370.5 596 364.3 599.3C361.8 600.6 359 601.3 356 601.3ZM368.4 411.5C368.2 411.5 367.9 411.6 367.8 412L360.8 444.7L360.6 445C359.1 446.9 358 448.4 357.1 449.3C356.1 450.3 355.6 451.7 355.7 453.2C356.3 460.3 361.2 471.8 361.2 471.9L361.4 472.3L361.3 472.8C361.2 473.5 347.4 538.3 341.6 564.1C337.7 581.7 340.3 594 348.6 597.1C354 599.1 358.8 599 362.8 596.8C368.1 593.9 371.2 587.8 372.2 583.4L373.7 583.7L372.2 583.4C378.2 557.3 374.8 477.6 374.8 476.8V476.3L378.6 470.2C379.2 468.3 379.8 466.3 380.3 464.4C381.8 459.3 383.1 454.9 383.9 453C384.3 452.1 384.2 451.1 383.6 450.4C383.1 449.8 382.8 450 382.8 450L380.4 451.2L380.7 448.5C380.8 447.9 380.6 447.5 380.3 447.1C379.6 446.2 378 446 377.6 445.9L376.1 445.8L376.2 444.3C376.4 442.3 372.2 441.3 371.1 441.2L369.7 441L370.4 421.8C370.7 418.9 370.1 415.6 368.8 412.2C368.8 411.5 368.6 411.5 368.4 411.5Z" fill="#4D67CA"/>
<path d="M375.6 653C364.3 649.2 350.1 661.2 350.1 661.2C346.3 667.3 327.1 666.6 327.1 666.6L197.1 672.8C177.9 669 178.7 652.1 178.7 652.1L178.3 605.4V600.6H220.5L221 610.1L222.1 632L329.5 644.3C337.9 636.6 347.1 632 347.1 632C361.7 628.2 372.4 635.1 372.4 635.1C376.2 637.4 376.2 641.2 376.2 641.2C380 643.5 378.5 647.3 378.5 647.3C380.4 649.6 380 651.1 379.2 652.1C378.3 653.2 376.9 653.4 375.6 653Z" fill="white"/>
<path d="M197 674.3H196.8C176.6 670.3 177.2 652.2 177.2 652.1L176.8 599.2H221.9L223.4 630.8L328.8 642.9C337.1 635.5 345.9 631 346.3 630.8L346.6 630.7C361.6 626.7 372.6 633.7 373.1 634C376.5 636 377.3 639.1 377.6 640.5C380.3 642.5 380.5 645.4 380.1 647.2C382.3 650.3 381 652.5 380.2 653.3C379 654.7 376.9 655.2 375 654.5C365.2 651.2 352.7 661.1 351.1 662.3C346.7 668.7 329.3 668.2 327 668.2L197 674.3ZM179.8 602.1L180.2 652.1C180.2 652.8 179.8 667.7 197.2 671.3L327.1 665.1H327.2C334.3 665.4 346.4 664.4 348.9 660.4L349 660.2L349.2 660C349.8 659.5 364.1 647.5 376.1 651.5C376.9 651.8 377.7 651.6 378.1 651.1C378.3 650.8 379 650.1 377.4 648.3L376.8 647.6L377.1 646.8C377.3 646.4 378 644 375.4 642.5L374.7 642.1V641.3C374.7 641.2 374.6 638.3 371.6 636.4C371.5 636.3 361.2 629.9 347.6 633.5C346.4 634.1 338.1 638.5 330.4 645.5L329.9 646L220.6 633.5L219.1 602.2H179.8V602.1Z" fill="#4D67CA"/>
<path d="M542.4 956.6L539.4 956.4C542.6 903.2 533.6 870 525.4 851.6C516.6 831.7 506.9 824.3 506.8 824.2L506.6 824.1L506.5 823.9C484.7 792.4 374.7 755.5 308.5 744C195.7 724.4 174.6 696.4 157.6 673.9C156.5 672.5 155.5 671.1 154.4 669.7C137.6 647.9 135.7 616.7 137.2 594.4C138.7 571.3 143.9 552.6 144.3 551C146.1 537.1 143.7 526 137.4 518C128.8 507.2 115.8 505.8 115.7 505.8L116 502.8C116.6 502.9 130.4 504.4 139.8 516.2C146.7 524.9 149.3 536.8 147.4 551.5V551.7C147.2 552.5 125.7 627.5 156.9 667.9C158 669.3 159 670.7 160.1 672.1C176.7 694.2 197.4 721.6 309.1 741C375.7 752.6 486.4 789.8 508.9 821.9C510.4 823.1 519.6 830.9 528.1 850.1C536.5 868.9 545.7 902.6 542.4 956.6Z" fill="#4D67CA"/>
<path d="M525.5 561.7L511.1 652.8C510.7 655.1 508.8 656.9 506.4 657L391.9 664.7C388.7 664.9 386.1 662.1 386.6 658.9L401 567.8C401.4 565.5 403.3 563.7 405.7 563.6L520.2 555.9C523.4 555.7 526 558.5 525.5 561.7Z" fill="#4D67CA"/>
<path d="M402.7 654.6L317.5 660.3C314.9 660.5 312.9 662.7 313.1 665.4C313.3 668 315.5 670 318.2 669.8L403.4 664.1L402.7 654.6Z" fill="#4D67CA"/>
<path d="M532.3 560.9L517.9 652.4C517.5 654.7 515.6 656.5 513.3 656.7L398.8 664.4C395.6 664.6 393 661.8 393.5 658.6L407.9 567.1C408.3 564.8 410.2 563 412.5 562.8L527 555.1C530.2 554.8 532.8 557.7 532.3 560.9Z" fill="white"/>
<path d="M398.4 665.8C396.6 665.8 394.8 665 393.6 663.7C392.2 662.2 391.7 660.2 392 658.3L406.4 566.8C406.9 563.8 409.4 561.5 412.4 561.3L526.9 553.6C528.9 553.5 530.8 554.2 532.2 555.7C533.6 557.2 534.1 559.2 533.8 561.1L519.4 652.6C518.9 655.6 516.4 657.9 513.4 658.1L398.9 665.8C398.7 665.8 398.6 665.8 398.4 665.8ZM527.3 556.6C527.2 556.6 527.1 556.6 527.1 556.6L412.6 564.3C410.9 564.4 409.6 565.6 409.3 567.3L394.9 658.8C394.7 659.9 395.1 660.9 395.8 661.7C396.5 662.5 397.6 662.9 398.7 662.8L513.2 655.1C514.9 655 516.2 653.8 516.5 652.1L530.9 560.6C531.1 559.5 530.7 558.5 530 557.7C529.3 557 528.3 556.6 527.3 556.6Z" fill="#4D67CA"/>
<path d="M472.545 611.5C473.342 606.538 470.982 602.033 467.274 601.437C463.567 600.842 459.915 604.381 459.118 609.343C458.321 614.305 460.68 618.811 464.388 619.406C468.096 620.002 471.748 616.462 472.545 611.5Z" fill="white"/>
<path d="M465.5 620.8C465.1 620.8 464.8 620.8 464.4 620.7C462.1 620.3 460.2 618.8 459 616.5C457.8 614.3 457.5 611.6 457.9 608.9C458.8 603.1 463.3 599 467.8 599.7C470.1 600.1 472 601.6 473.2 603.9C474.4 606.1 474.7 608.8 474.3 611.5C473.9 614.2 472.6 616.7 470.9 618.4C469.3 620 467.5 620.8 465.5 620.8ZM466.8 602.6C464.1 602.6 461.5 605.5 460.9 609.3C460.6 611.4 460.8 613.4 461.7 615.1C462.5 616.6 463.6 617.5 465 617.7C466.3 617.9 467.7 617.4 468.9 616.2C470.2 614.9 471.1 613.1 471.5 611C471.8 608.9 471.6 606.9 470.7 605.2C469.9 603.7 468.8 602.8 467.4 602.6C467.2 602.7 467 602.6 466.8 602.6Z" fill="#4D67CA"/>
<path d="M327.5 644.7L318.4 585.9L319 585.4C332.9 572.4 311 538.7 310.8 538.3L313.3 536.7C314.3 538.2 336.3 572.1 321.6 587.1L330.5 644.3L327.5 644.7Z" fill="#4D67CA"/>
<path d="M221 610.2L178.4 605.4L178.3 600.6H220.5L221 610.2Z" fill="#4D67CA"/>
<path d="M378.7 648.4C370.1 645.5 363.4 647.4 363.3 647.4L362.8 645.5C363.1 645.4 370.2 643.4 379.4 646.5L378.7 648.4Z" fill="#4D67CA"/>
<path d="M375.6 642.4C370.8 640.5 360.1 640.5 360 640.5V638.5C360.5 638.5 371.3 638.5 376.4 640.6L375.6 642.4Z" fill="#4D67CA"/>
<path d="M371.8 457.1L370.2 455.9L375.1 450L377.1 444.2L378.9 444.8L376.9 451L371.8 457.1Z" fill="#4D67CA"/>
<path d="M376.8 461.1L375.2 459.9L380.1 453.1L381.6 448L383.6 448.6L381.9 453.9L376.8 461.1Z" fill="#4D67CA"/>
<path d="M365.8 453.1L364.2 451.9L368.1 446.1L370 439.2L372 439.8L369.8 447.1L365.8 453.1Z" fill="#4D67CA"/>
<path d="M366.9 459.9C365 459.9 362.3 459.2 359.3 456.2L360.7 454.8C363.6 457.7 366 458 367.3 457.9L359.3 446.6L355.1 450.8L353.7 449.4L359.5 443.6L370.4 459L369.4 459.5C369.4 459.4 368.4 459.9 366.9 459.9Z" fill="#4D67CA"/>
<path d="M284 444.5L270 447.5C270 447.5 282 456.5 284 444.5Z" fill="#4D67CA"/>
<path d="M219.433 555.625L218.178 601.507L221.177 601.589L222.432 555.707L219.433 555.625Z" fill="#4D67CA"/>
<path d="M1219.9 945.2H1186.4L1182.3 924.6L1175.3 889L1215 888.4L1218.5 928.2L1219.9 945.2Z" fill="white"/>
<path d="M1221.6 946.7H1185.2L1173.5 887.5L1216.4 886.9L1221.6 946.7ZM1187.7 943.7H1218.3L1213.7 889.9L1177.2 890.4L1187.7 943.7Z" fill="#364EA5"/>
<path d="M1218.5 933.8C1215.6 936.9 1203.6 946.9 1183.9 933.2C1183.7 933.1 1183.5 933.1 1183.3 933.2L1128.8 962.3C1126.3 963.7 1127.2 967.5 1130.1 967.5H1219C1223.1 967.5 1226.1 963.7 1225.2 959.7L1219.4 934C1219.4 933.6 1218.9 933.5 1218.5 933.8Z" fill="#364EA5"/>
<path d="M1218.5 928.2L1182.3 924.6L1175.3 889L1215 888.4L1218.5 928.2Z" fill="#364EA5"/>
<path d="M1345.9 945.2H1312.4L1307.1 927.9L1306 924.2L1295.3 889L1335 888.4L1342.1 925.4L1342.8 929.1L1345.9 945.2Z" fill="white"/>
<path d="M1347.8 946.7H1311.4L1293.4 887.5L1336.4 886.9L1347.8 946.7ZM1313.5 943.7H1344.1L1333.8 889.9L1297.3 890.4L1313.5 943.7Z" fill="#364EA5"/>
<path d="M1343.5 933.8C1340.6 936.9 1328.6 946.9 1308.9 933.2C1308.7 933.1 1308.5 933.1 1308.3 933.2L1253.8 962.3C1251.3 963.7 1252.2 967.5 1255.1 967.5H1344C1348.1 967.5 1351.1 963.7 1350.2 959.7L1344.4 934C1344.4 933.6 1343.9 933.5 1343.5 933.8Z" fill="#364EA5"/>
<path d="M1342.1 925.4L1307.1 927.9L1306 924.2L1295.3 889L1335 888.4L1342.1 925.4Z" fill="#364EA5"/>
<path d="M1129.5 523V682L1176.5 918H1233.5L1205.5 682L1219.5 533L1129.5 523Z" fill="#364EA5"/>
<path d="M1019 353.8L1004.7 379.3L988.6 368.2L982.2 363.8C976.4 363.9 958.8 352 955.8 349.2C952.9 346.4 955.5 342.6 955.5 342.6C953.1 338.1 956.8 335.8 956.8 335.8C955.5 332.7 959.9 329.5 959.9 329.5C960 325.4 964.6 322.9 964.6 322.9L947.7 310.9C936.2 301.3 940.1 294.9 940.1 294.9L975 316.3C995.6 326 998.3 345 998.3 345L1004.5 347.6L1019 353.8Z" fill="white"/>
<path d="M1005.2 381.5L981.7 365.3C974.7 364.8 957.3 352.7 954.8 350.3C952.1 347.8 952.9 344.5 953.9 342.6C952.5 339.2 953.8 336.7 955.2 335.3C954.8 332.7 956.8 330.2 958.5 328.8C958.9 326.2 960.6 324.2 962 323L946.8 312.1C934.4 301.8 938.6 294.4 938.8 294.1L939.6 292.8L975.8 314.9C994.6 323.8 998.9 339.9 999.7 343.8L1021.2 352.9L1005.2 381.5ZM982.6 362.3L1004.2 377.2L1016.9 354.6L996.9 346.2L996.8 345.4C996.8 345.2 993.9 327.1 974.4 317.9L974.3 317.8L941 297.4C940.8 299.6 941.6 304 948.7 310L967.5 323.4L965.4 324.5C965.4 324.5 961.6 326.6 961.5 329.8V330.5L960.9 330.9C960 331.6 957.6 333.8 958.3 335.4L958.8 336.6L957.7 337.3C957.3 337.6 955.3 339.1 956.9 342.1L957.3 342.9L956.8 343.7C956.6 344 955 346.5 956.9 348.3C960.1 351.3 977.2 362.5 982.2 362.4L982.6 362.3Z" fill="#364EA5"/>
<path d="M1177 549.5L1211 675.5L1286 919.5H1347L1291 665.5L1277 544.5L1177 549.5Z" fill="white"/>
<path d="M1348.9 921H1284.9L1284.6 919.9L1209.6 675.9L1175.1 548.1L1278.4 542.9L1278.6 544.3L1292.6 665.2L1348.9 921ZM1287.1 918H1345.1L1289.5 665.7L1275.7 546L1179 550.8L1212.5 675L1287.1 918Z" fill="#364EA5"/>
<path d="M1241 256.2L1237.2 272C1237.2 272 1234.4 276 1231.3 276.8L1233.1 259.7L1241 256.2Z" fill="#364EA5"/>
<path d="M1195.2 287.9L1193.1 299.2L1189.4 319.2L1236.7 320.4L1234.2 275.2L1234.1 264.2C1236.5 262.7 1238.6 261.2 1240.2 259.7C1245.8 254.9 1247.2 250.8 1246.8 247.7V247.6C1246.1 242.9 1241.3 240.3 1241.3 240.3L1238.4 211.6L1181.3 216.4C1181 217.6 1180.8 218.7 1180.5 219.8V220C1179.2 225.9 1178.2 231.2 1177.5 236.1V236.3C1169.6 291.5 1195.2 287.9 1195.2 287.9Z" fill="white"/>
<path d="M1238.3 322L1187.6 320.7L1193.4 289.5C1191 289.3 1186.8 288.5 1182.9 284.6C1174.8 276.5 1172.4 260.2 1175.8 236.2V236C1176.5 231 1177.5 225.6 1178.8 219.8V219.7C1179.1 218.5 1179.3 217.4 1179.6 216.2L1179.9 215.1L1239.5 210.1L1242.5 239.5C1244 240.5 1247.4 243.2 1248.1 247.5V247.6C1248.7 251.9 1246.3 256.4 1241 260.9C1239.4 262.3 1237.5 263.7 1235.4 265L1235.5 275.2L1238.3 322ZM1191.2 317.8L1235.1 318.9L1232.7 275.3L1232.6 263.4L1233.3 263C1235.6 261.6 1237.5 260.1 1239.2 258.7C1243.6 254.9 1245.7 251.3 1245.3 248.1V248C1244.7 244 1240.6 241.8 1240.6 241.8L1239.9 241.4L1237 213.4L1182.5 218C1182.3 218.8 1182.1 219.6 1182 220.3V220.4C1180.7 226.2 1179.7 231.5 1179 236.5V236.7C1175 265.3 1180.2 277.4 1185.2 282.5C1189.9 287.2 1195 286.6 1195.2 286.6L1197.4 286.3L1196.9 288.5L1191.2 317.8Z" fill="#364EA5"/>
<path d="M1229.3 219L1226.1 250L1232.2 248.5C1232.2 248.5 1235.3 240.9 1241.2 241.5C1243.7 241.8 1247.3 246.1 1246.9 249.8C1246.9 249.8 1269 211.4 1249.2 209.4C1249.2 209.4 1217.8 159 1202.7 191.7C1202.7 191.7 1179.2 179.9 1184.1 200.4C1184.1 200.4 1165.9 193.8 1172.6 220.4L1177.2 237.6L1180.5 220C1180.5 220 1194.5 226.2 1216.4 219C1216.4 219 1211 225.5 1201.3 228.1C1201.2 227.9 1220.3 226.3 1229.3 219Z" fill="#364EA5"/>
<path d="M1019 353.8L1004.7 379.3L988.6 368.2L1004.5 347.6L1019 353.8Z" fill="#364EA5"/>
<path d="M1193.1 299.3C1214.2 296.5 1219.9 275.4 1220.1 274.7C1215.7 280.8 1203 285.5 1195.2 287L1193.1 299.3Z" fill="#364EA5"/>
<path d="M1311.4 503.4L1274.8 501V501.1L1276.5 514.2L1278.3 527.9L1281.1 549.4C1281.1 549.4 1203.9 581.2 1126 551.5L1135.1 441.1L1118.4 445.5C1110.8 454.3 1097.9 456.2 1088.1 450.1L988 384.2L1009.4 346.1L1091.6 396.6L1132 332.4C1135.9 326.1 1141.8 321.2 1148.7 318.5L1191.4 301.8C1191.4 301.8 1207.2 325.9 1237.8 300.9L1289.5 330.8C1298.3 335.6 1304.9 343.7 1307.9 353.3L1334.1 475.7C1336.9 494.7 1325.3 502 1311.4 503.4Z" fill="white"/>
<path d="M1198 565.6C1176.1 565.6 1150.8 562.5 1125.5 552.9L1124.4 552.5L1133.4 443.1L1119.2 446.9C1111 456 1097.7 457.9 1087.3 451.4L986 384.7L1008.8 344.1L1091.1 394.7L1130.7 331.8C1134.8 325.2 1141 320.1 1148.1 317.3L1191.9 300.2L1192.6 301.2C1192.7 301.3 1198 309.2 1208.1 310.7C1216.8 312 1226.5 308.4 1236.8 299.9L1237.6 299.2L1290.2 329.6C1299.4 334.6 1306.2 342.9 1309.3 353V353.1L1335.5 475.5C1336.8 483.8 1335.5 490.6 1331.6 495.6C1327.5 500.9 1320.6 504.1 1311.5 505H1311.4L1276.5 502.7L1282.7 550.5L1281.6 550.9C1281.4 551 1261.8 559 1232.9 563.2C1223 564.5 1211.1 565.6 1198 565.6ZM1127.6 550.5C1198.8 577.1 1270 552.1 1279.5 548.5L1273.1 499.4L1311.3 502C1317 501.4 1324.7 499.5 1329.2 493.7C1332.5 489.4 1333.7 483.4 1332.5 476L1306.3 353.8C1303.4 344.5 1297.2 336.9 1288.7 332.2L1237.8 302.8C1227 311.4 1216.8 315 1207.5 313.6C1198.2 312.2 1192.7 306.2 1190.8 303.8L1149.2 320.1C1142.6 322.7 1136.9 327.4 1133.2 333.4L1092 398.9L1009.8 348.4L989.9 383.9L1088.9 449C1098.2 454.8 1110.1 453 1117.3 444.7L1117.6 444.4L1136.8 439.3L1127.6 550.5Z" fill="#364EA5"/>
<path d="M1166.2 409.6L1184.4 463.4C1185.1 465.5 1183.5 467.7 1181.3 467.7H1068C1066.9 467.7 1065.8 467.1 1065.2 466.1L1032.1 412.3C1030.8 410.1 1032.3 407.3 1034.9 407.3H1163.1C1164.5 407.4 1165.8 408.3 1166.2 409.6Z" fill="#364EA5"/>
<path d="M1161.6 409.6L1179.8 463.4C1180.5 465.5 1178.9 467.7 1176.7 467.7H1063.4C1062.3 467.7 1061.2 467.1 1060.6 466.1L1027.5 412.3C1026.2 410.1 1027.7 407.3 1030.3 407.3H1158.5C1159.9 407.4 1161.1 408.3 1161.6 409.6Z" fill="white"/>
<path d="M1176.7 469.2H1063.4C1061.8 469.2 1060.2 468.3 1059.3 466.9L1026.2 413.1C1025.3 411.6 1025.2 409.8 1026.1 408.3C1027 406.8 1028.5 405.9 1030.3 405.9H1158.5C1160.5 405.9 1162.4 407.2 1163 409.1L1181.2 462.9C1181.7 464.4 1181.5 465.9 1180.6 467.2C1179.7 468.5 1178.3 469.2 1176.7 469.2ZM1030.3 408.9C1029.4 408.9 1028.9 409.5 1028.8 409.8C1028.6 410.1 1028.3 410.8 1028.8 411.6L1061.9 465.4C1062.2 465.9 1062.8 466.2 1063.4 466.2H1176.7C1177.3 466.2 1177.8 465.9 1178.1 465.5C1178.4 465 1178.5 464.4 1178.3 463.9L1160.1 410.1C1159.9 409.4 1159.2 408.9 1158.4 408.9H1030.3Z" fill="#364EA5"/>
<path d="M1202.8 473.6L1196 472.8L1188.5 471.9C1188.5 471.9 1175.7 475.1 1168.5 474C1168.1 473.9 1167.6 473.8 1167.2 473.6L1149.1 466.9C1147.8 466.4 1146.8 465.4 1146.5 464.1C1146.2 462.9 1146.5 461.6 1148.6 461L1145.4 459.9C1145.4 459.9 1140.1 455.6 1144.3 453.5C1144.3 453.5 1138.9 447.1 1146.4 446C1146.4 446 1144 443.6 1146.9 441.5C1147.8 440.9 1148.8 440.7 1149.9 440.9L1164.9 444.2L1176.2 446.3L1179.1 446.8L1175.1 434.6L1196.5 449.7L1199.8 450.6L1201.7 451.1L1202.8 473.6Z" fill="white"/>
<path d="M1171.8 475.8C1170.5 475.8 1169.3 475.7 1168.2 475.6C1167.7 475.5 1167.1 475.4 1166.6 475.2L1148.5 468.5C1146.7 467.8 1145.3 466.4 1144.9 464.6C1144.7 463.5 1144.8 462.5 1145.3 461.7L1144.6 461.5L1144.4 461.3C1143.8 460.8 1140.8 458.3 1141.1 455.5C1141.2 454.9 1141.4 454.1 1142.2 453.3C1141.4 451.9 1140.4 449.8 1141.2 447.8C1141.7 446.6 1142.6 445.7 1144.1 445.2C1144 444.7 1143.9 444.2 1143.9 443.7C1144 442.8 1144.4 441.6 1146 440.5C1147.2 439.7 1148.7 439.4 1150.1 439.7L1165.1 443L1176.7 445.2L1172.1 431.1L1197 448.6L1203.1 450.2L1204.3 475.3L1188.5 473.5C1186.9 473.9 1178.5 475.8 1171.8 475.8ZM1146.1 458.7L1153.9 461.3L1148.9 462.5C1147.6 462.8 1147.8 463.3 1147.9 463.8C1148.1 464.6 1148.7 465.2 1149.6 465.6L1167.7 472.3C1168.1 472.4 1168.4 472.5 1168.7 472.6C1175.5 473.6 1188 470.5 1188.1 470.5L1188.4 470.4L1201.2 471.9L1200.3 452.6L1195.8 451.4L1177.9 438.7L1181.2 449L1164.6 445.9L1149.6 442.6C1149 442.5 1148.3 442.6 1147.8 442.9C1147.4 443.1 1147 443.5 1147 443.9C1147 444.4 1147.4 445 1147.5 445.1L1149.6 447.2L1146.6 447.6C1145.8 447.7 1144.3 448 1144 448.9C1143.6 450 1144.8 451.9 1145.4 452.7L1146.6 454.2L1144.9 455C1144.5 455.2 1144.1 455.5 1144.1 455.8C1144 456.6 1145.2 458 1146.1 458.7Z" fill="#364EA5"/>
<path d="M1278.3 527.9L1203 495.5L1202 450.5L1205.5 492L1274.8 501.1L1276.5 514.2L1278.3 527.9Z" fill="#364EA5"/>
<path d="M960.893 328.841L959.564 330.336L968.533 338.308L969.862 336.814L960.893 328.841Z" fill="#364EA5"/>
<path d="M957.654 334.615L956.337 336.12L964.314 343.1L965.631 341.595L957.654 334.615Z" fill="#364EA5"/>
<path d="M955.915 342.535L954.732 344.148L960.54 348.404L961.722 346.791L955.915 342.535Z" fill="#364EA5"/>
<path d="M1146.16 445.399L1145.76 447.36L1160.77 450.361L1161.16 448.399L1146.16 445.399Z" fill="#364EA5"/>
<path d="M1144.06 451.805L1143.8 453.788L1155.6 455.337L1155.86 453.354L1144.06 451.805Z" fill="#364EA5"/>
<path d="M1147.92 459.91L1147.75 461.903L1154.93 462.488L1155.09 460.495L1147.92 459.91Z" fill="#364EA5"/>
<path d="M1202.8 473.6L1196 472.8L1199.7 450.9L1201.7 451.4L1202.8 473.6Z" fill="#364EA5"/>
<path d="M1204.8 492.3L1200.3 449.9L1275.6 453.4L1264 401.3L1267 400.7L1279.4 456.6L1203.7 453.1L1207.8 491.9L1204.8 492.3Z" fill="#364EA5"/>
<path d="M1092.37 394.451L1090.7 396.948L1099.69 402.938L1101.35 400.442L1092.37 394.451Z" fill="#364EA5"/>
<path d="M1197 266.5L1181 264.5C1181 264.5 1182 279.5 1197 266.5Z" fill="#364EA5"/>
<path d="M1100.5 440C1104.92 440 1108.5 437.985 1108.5 435.5C1108.5 433.015 1104.92 431 1100.5 431C1096.08 431 1092.5 433.015 1092.5 435.5C1092.5 437.985 1096.08 440 1100.5 440Z" fill="white"/>
<path d="M1100.5 441.5C1095.2 441.5 1091 438.9 1091 435.5C1091 432.1 1095.2 429.5 1100.5 429.5C1105.8 429.5 1110 432.1 1110 435.5C1110 438.9 1105.8 441.5 1100.5 441.5ZM1100.5 432.5C1096.8 432.5 1094 434.1 1094 435.5C1094 436.9 1096.8 438.5 1100.5 438.5C1104.2 438.5 1107 436.9 1107 435.5C1107 434.1 1104.2 432.5 1100.5 432.5Z" fill="#364EA5"/>
<path d="M1461 967.5H0V971.5H1461V967.5Z" fill="#4D67CA"/>
<path d="M92.6001 19.8V115.9C92.6001 125.4 100.3 133.2 109.9 133.2H462.4C471.9 133.2 479.7 125.5 479.7 115.9V19.8C479.7 10.3 472 2.5 462.4 2.5H109.9C100.3 2.6 92.6001 10.3 92.6001 19.8Z" fill="white"/>
<path d="M462.3 134.7H109.8C99.5003 134.7 91 126.3 91 115.9V19.8C91 9.50005 99.4003 1 109.8 1H462.3C472.6 1 481.1 9.40005 481.1 19.8V115.9C481 126.3 472.6 134.7 462.3 134.7ZM109.8 4.09998C101.1 4.09998 94 11.2 94 19.9V116C94 124.7 101.1 131.8 109.8 131.8H462.3C471 131.8 478.1 124.7 478.1 116V19.9C478.1 11.2 471 4.09998 462.3 4.09998H109.8Z" fill="#4D67CA"/>
<path d="M462.3 134.7H109.8C99.5003 134.7 91 126.3 91 115.9V19.8C91 9.50005 99.4003 1 109.8 1H462.3C472.6 1 481.1 9.40005 481.1 19.8V115.9C481 126.3 472.6 134.7 462.3 134.7ZM109.8 4.09998C101.1 4.09998 94 11.2 94 19.9V116C94 124.7 101.1 131.8 109.8 131.8H462.3C471 131.8 478.1 124.7 478.1 116V19.9C478.1 11.2 471 4.09998 462.3 4.09998H109.8Z" stroke="#4D67CA"/>
<path d="M182.5 102.4C201.554 102.4 217 86.9538 217 67.9C217 48.8462 201.554 33.4 182.5 33.4C163.446 33.4 148 48.8462 148 67.9C148 86.9538 163.446 102.4 182.5 102.4Z" fill="white"/>
<path d="M182.5 103.9C162.6 103.9 146.5 87.7 146.5 67.9C146.5 48 162.7 31.9 182.5 31.9C202.4 31.9 218.5 48.1 218.5 67.9C218.6 87.7 202.4 103.9 182.5 103.9ZM182.5 34.9C164.3 34.9 149.5 49.7 149.5 67.9C149.5 86.1 164.3 100.9 182.5 100.9C200.7 100.9 215.5 86.1 215.5 67.9C215.5 49.7 200.7 34.9 182.5 34.9Z" fill="#4D67CA"/>
<path d="M331.7 38.2001H247.9V48.2001H331.7V38.2001Z" fill="white"/>
<path d="M333.2 49.7001H246.4V36.7001H333.2V49.7001ZM249.4 46.7001H330.2V39.7001H249.4V46.7001Z" fill="#4D67CA"/>
<path d="M445.7 66H248.5V76H445.7V66Z" fill="white"/>
<path d="M447.2 77.5H247V64.5H447.2V77.5ZM250 74.5H444.2V67.5H250V74.5Z" fill="#4D67CA"/>
<path d="M445.7 93.1001H248.5V103.1H445.7V93.1001Z" fill="white"/>
<path d="M447.2 104.6H247V91.6001H447.2V104.6ZM250 101.6H444.2V94.6001H250V101.6Z" fill="#4D67CA"/>
<path d="M599.759 424.916V540.345C599.759 544.85 603.411 548.549 607.963 548.549H775.132C779.637 548.549 783.336 544.898 783.336 540.345V424.916C783.336 420.41 779.685 416.711 775.132 416.711H607.963C603.411 416.759 599.759 420.41 599.759 424.916Z" fill="white"/>
<path d="M784.5 540.35V540.345V424.916C784.5 419.706 780.243 415.5 775.084 415.5H607.916C602.706 415.5 598.5 419.757 598.5 424.916V540.345C598.5 545.555 602.757 549.761 607.916 549.761H775.084C780.248 549.761 784.45 545.552 784.5 540.35ZM600.923 424.963C600.923 421.113 604.066 417.97 607.916 417.97H775.084C778.934 417.97 782.077 421.113 782.077 424.963V540.392C782.077 544.242 778.934 547.385 775.084 547.385H607.916C604.066 547.385 600.923 544.242 600.923 540.392V424.963Z" fill="#4D67CA" stroke="#4D67CA"/>
<path d="M645.333 443.838V522.371C645.333 524.411 643.673 526.07 641.634 526.07H633.856C631.817 526.07 630.157 524.411 630.157 522.371V443.838C630.157 441.798 631.817 440.139 633.856 440.139H641.634C643.673 440.139 645.333 441.798 645.333 443.838Z" fill="white"/>
<path d="M641.634 526.734H633.856C631.438 526.734 629.446 524.743 629.446 522.324V443.79C629.446 441.372 631.438 439.38 633.856 439.38H641.634C644.053 439.38 646.044 441.372 646.044 443.79V522.324C646.044 524.79 644.053 526.734 641.634 526.734ZM633.856 440.85C632.197 440.85 630.869 442.178 630.869 443.838V522.371C630.869 524.031 632.197 525.359 633.856 525.359H641.634C643.294 525.359 644.622 524.031 644.622 522.371V443.838C644.622 442.178 643.294 440.85 641.634 440.85H633.856Z" fill="#4D67CA"/>
<path d="M672.791 443.838V522.371C672.791 524.411 671.132 526.07 669.092 526.07H661.315C659.276 526.07 657.616 524.411 657.616 522.371V443.838C657.616 441.798 659.276 440.139 661.315 440.139H669.092C671.132 440.139 672.791 441.798 672.791 443.838Z" fill="white"/>
<path d="M669.092 526.734H661.315C658.896 526.734 656.904 524.743 656.904 522.324V443.79C656.904 441.372 658.896 439.38 661.315 439.38H669.092C671.511 439.38 673.503 441.372 673.503 443.79V522.324C673.503 524.79 671.558 526.734 669.092 526.734ZM661.315 440.85C659.655 440.85 658.327 442.178 658.327 443.838V522.371C658.327 524.031 659.655 525.359 661.315 525.359H669.092C670.752 525.359 672.08 524.031 672.08 522.371V443.838C672.08 442.178 670.752 440.85 669.092 440.85H661.315Z" fill="#4D67CA"/>
<path d="M700.866 443.838V522.371C700.866 524.411 699.206 526.07 697.167 526.07H689.39C687.35 526.07 685.691 524.411 685.691 522.371V443.838C685.691 441.798 687.35 440.139 689.39 440.139H697.167C699.206 440.139 700.866 441.798 700.866 443.838Z" fill="white"/>
<path d="M697.167 526.734H689.39C686.971 526.734 684.979 524.743 684.979 522.324V443.79C684.979 441.372 686.971 439.38 689.39 439.38H697.167C699.586 439.38 701.578 441.372 701.578 443.79V522.324C701.578 524.79 699.586 526.734 697.167 526.734ZM689.342 440.85C687.682 440.85 686.355 442.178 686.355 443.838V522.371C686.355 524.031 687.682 525.359 689.342 525.359H697.12C698.78 525.359 700.107 524.031 700.107 522.371V443.838C700.107 442.178 698.78 440.85 697.12 440.85H689.342Z" fill="#4D67CA"/>
<path d="M728.325 443.838V522.371C728.325 524.411 726.665 526.07 724.626 526.07H716.848C714.809 526.07 713.149 524.411 713.149 522.371V443.838C713.149 441.798 714.809 440.139 716.848 440.139H724.626C726.665 440.139 728.325 441.798 728.325 443.838Z" fill="white"/>
<path d="M724.626 526.734H716.848C714.429 526.734 712.438 524.743 712.438 522.324V443.79C712.438 441.372 714.429 439.38 716.848 439.38H724.626C727.044 439.38 729.036 441.372 729.036 443.79V522.324C729.036 524.79 727.044 526.734 724.626 526.734ZM716.848 440.85C715.188 440.85 713.86 442.178 713.86 443.838V522.371C713.86 524.031 715.188 525.359 716.848 525.359H724.626C726.285 525.359 727.613 524.031 727.613 522.371V443.838C727.613 442.178 726.285 440.85 724.626 440.85H716.848Z" fill="#4D67CA"/>
<path d="M755.214 443.838V522.371C755.214 524.411 753.554 526.07 751.515 526.07H743.737C741.698 526.07 740.038 524.411 740.038 522.371V443.838C740.038 441.798 741.698 440.139 743.737 440.139H751.515C753.554 440.139 755.214 441.798 755.214 443.838Z" fill="white"/>
<path d="M751.515 526.734H743.737C741.319 526.734 739.327 524.743 739.327 522.324V443.79C739.327 441.372 741.319 439.38 743.737 439.38H751.515C753.933 439.38 755.925 441.372 755.925 443.79V522.324C755.925 524.79 753.933 526.734 751.515 526.734ZM743.737 440.85C742.077 440.85 740.75 442.178 740.75 443.838V522.371C740.75 524.031 742.077 525.359 743.737 525.359H751.515C753.175 525.359 754.503 524.031 754.503 522.371V443.838C754.503 442.178 753.175 440.85 751.515 440.85H743.737Z" fill="#4D67CA"/>
<path d="M645.333 469.921V522.324C645.333 524.363 643.673 526.023 641.634 526.023H633.856C631.817 526.023 630.157 524.363 630.157 522.324V469.921H645.333Z" fill="#4D67CA"/>
<path d="M672.791 454.176V522.371C672.791 524.411 671.132 526.07 669.092 526.07H661.315C659.276 526.07 657.616 524.411 657.616 522.371V454.176H672.791Z" fill="#4D67CA"/>
<path d="M700.866 485.713V522.324C700.866 524.363 699.206 526.023 697.167 526.023H689.39C687.35 526.023 685.691 524.363 685.691 522.324V485.713H700.866Z" fill="#4D67CA"/>
<path d="M728.325 448.912V522.371C728.325 524.411 726.665 526.07 724.626 526.07H716.848C714.809 526.07 713.149 524.411 713.149 522.371V448.912H728.325Z" fill="#4D67CA"/>
<path d="M755.214 461.147V522.324C755.214 524.363 753.554 526.023 751.515 526.023H743.737C741.698 526.023 740.038 524.363 740.038 522.324V461.147H755.214Z" fill="#4D67CA"/>
<path d="M291 137V243C291 259.569 304.431 273 321 273H471" stroke="#4D67CA" stroke-width="3" stroke-linecap="round" stroke-linejoin="round" stroke-dasharray="5 10"/>
<path d="M471 263L478.879 270.879C480.05 272.05 480.05 273.95 478.879 275.121L471 283" stroke="#4D67CA" stroke-width="3" stroke-linecap="round" stroke-linejoin="round"/>
<path d="M692 416L692 368" stroke="#4D67CA" stroke-width="3" stroke-linecap="round" stroke-linejoin="round" stroke-dasharray="5 10"/>
<path d="M1079.5 98.5H957.5C952.5 98.5 948.5 94.5 948.5 89.5V10.5C948.5 5.5 952.5 1.5 957.5 1.5H1079.5C1084.5 1.5 1088.5 5.5 1088.5 10.5V89.5C1088.5 94.5 1084.5 98.5 1079.5 98.5Z" fill="white"/>
<path d="M1079.5 100H957.5C951.7 100 947 95.3 947 89.5V10.5C947 4.7 951.7 0 957.5 0H1079.5C1085.3 0 1090 4.7 1090 10.5V89.5C1090 95.3 1085.3 100 1079.5 100ZM957.5 3C953.4 3 950 6.4 950 10.5V89.5C950 93.6 953.4 97 957.5 97H1079.5C1083.6 97 1087 93.6 1087 89.5V10.5C1087 6.4 1083.6 3 1079.5 3H957.5Z" fill="#4D67CA"/>
<path d="M1019.6 22.8H965V28.8H1019.6V22.8Z" fill="#4D67CA"/>
<path d="M1071.9 39.3H965V45.3H1071.9V39.3Z" fill="#4D67CA"/>
<path d="M1071.9 55.8H965V61.8H1071.9V55.8Z" fill="#4D67CA"/>
<path d="M1071.9 72.3999H965V78.3999H1071.9V72.3999Z" fill="#4D67CA"/>
<path d="M1021 102V243C1021 259.569 1007.57 273 991 273H929" stroke="#4D67CA" stroke-width="3" stroke-linecap="round" stroke-linejoin="round" stroke-dasharray="5 10"/>
</svg>