<svg width="1392" height="1218" viewBox="0 0 1392 1218" fill="none" xmlns="http://www.w3.org/2000/svg">
<path d="M1140.8 176.5H994.5C990.2 176.5 986.7 180 986.7 184.3V248C986.7 252.3 990.2 255.8 994.5 255.8H1004.3V281.4L1027.8 255.8H1140.7C1145 255.8 1148.5 252.3 1148.5 248V184.3C1148.6 180 1145.1 176.5 1140.8 176.5Z" fill="white"/>
<path d="M1002.9 285.4V257.4H994.6C989.5 257.4 985.3 253.2 985.3 248.1V184.4C985.3 179.3 989.5 175.1 994.6 175.1H1140.9C1146 175.1 1150.2 179.3 1150.2 184.4V248.1C1150.2 253.2 1146 257.4 1140.9 257.4H1028.7L1002.9 285.4ZM994.5 178C991 178 988.2 180.8 988.2 184.3V248C988.2 251.5 991 254.3 994.5 254.3H1005.8V277.6L1027.2 254.3H1140.8C1144.3 254.3 1147.1 251.5 1147.1 248V184.3C1147.1 180.8 1144.3 178 1140.8 178H994.5Z" fill="#3F58B2"/>
<path d="M1059.7 194.1H1002.8V200.6H1059.7V194.1Z" fill="white"/>
<path d="M1060.7 201.7H1001.8V193.2H1060.7V201.7ZM1003.8 199.7H1058.7V195.2H1003.8V199.7Z" fill="#3F58B2"/>
<path d="M1132.6 212.5H1002.8V219H1132.6V212.5Z" fill="white"/>
<path d="M1133.6 220H1001.8V211.5H1133.6V220ZM1003.8 218H1131.6V213.5H1003.8V218Z" fill="#3F58B2"/>
<path d="M1132.6 230.9H1002.8V237.4H1132.6V230.9Z" fill="white"/>
<path d="M1133.6 238.4H1001.8V229.9H1133.6V238.4ZM1003.8 236.4H1131.6V231.9H1003.8V236.4Z" fill="#3F58B2"/>
<path d="M205.8 167.5H352.1C356.4 167.5 359.9 171 359.9 175.3V239C359.9 243.3 356.4 246.8 352.1 246.8H342.3V272.4L318.8 246.8H205.9C201.6 246.8 198.1 243.3 198.1 239V175.3C198 171 201.5 167.5 205.8 167.5Z" fill="white"/>
<path d="M343.8 276.3L318.1 248.3H205.9C200.8 248.3 196.6 244.1 196.6 239V175.3C196.6 170.2 200.8 166 205.9 166H352.2C357.3 166 361.5 170.2 361.5 175.3V239C361.5 244.1 357.3 248.3 352.2 248.3H343.9V276.3H343.8ZM205.8 169C202.3 169 199.5 171.8 199.5 175.3V239C199.5 242.5 202.3 245.3 205.8 245.3H319.4L340.8 268.6V245.3H352.1C355.6 245.3 358.4 242.5 358.4 239V175.3C358.4 171.8 355.6 169 352.1 169H205.8Z" fill="#3F58B2"/>
<path d="M244.9 214.8C249.098 214.8 252.5 211.397 252.5 207.2C252.5 203.003 249.098 199.6 244.9 199.6C240.703 199.6 237.3 203.003 237.3 207.2C237.3 211.397 240.703 214.8 244.9 214.8Z" fill="white"/>
<path d="M244.9 215.8C240.1 215.8 236.3 211.9 236.3 207.2C236.3 202.4 240.2 198.6 244.9 198.6C249.6 198.6 253.5 202.5 253.5 207.2C253.5 211.9 249.6 215.8 244.9 215.8ZM244.9 200.6C241.3 200.6 238.3 203.6 238.3 207.2C238.3 210.8 241.3 213.8 244.9 213.8C248.5 213.8 251.5 210.8 251.5 207.2C251.5 203.6 248.5 200.6 244.9 200.6Z" fill="#3F58B2"/>
<path d="M277.7 214.8C281.897 214.8 285.3 211.397 285.3 207.2C285.3 203.003 281.897 199.6 277.7 199.6C273.503 199.6 270.1 203.003 270.1 207.2C270.1 211.397 273.503 214.8 277.7 214.8Z" fill="white"/>
<path d="M277.7 215.8C273 215.8 269.1 211.9 269.1 207.2C269.1 202.4 273 198.6 277.7 198.6C282.5 198.6 286.3 202.5 286.3 207.2C286.4 211.9 282.5 215.8 277.7 215.8ZM277.7 200.6C274.1 200.6 271.1 203.6 271.1 207.2C271.1 210.8 274.1 213.8 277.7 213.8C281.3 213.8 284.3 210.8 284.3 207.2C284.3 203.6 281.4 200.6 277.7 200.6Z" fill="#3F58B2"/>
<path d="M311.4 214.8C315.598 214.8 319 211.397 319 207.2C319 203.003 315.598 199.6 311.4 199.6C307.203 199.6 303.8 203.003 303.8 207.2C303.8 211.397 307.203 214.8 311.4 214.8Z" fill="white"/>
<path d="M311.4 215.8C306.6 215.8 302.8 211.9 302.8 207.2C302.8 202.4 306.7 198.6 311.4 198.6C316.1 198.6 320 202.5 320 207.2C320 211.9 316.2 215.8 311.4 215.8ZM311.4 200.6C307.8 200.6 304.8 203.6 304.8 207.2C304.8 210.8 307.8 213.8 311.4 213.8C315 213.8 318 210.8 318 207.2C318 203.6 315.1 200.6 311.4 200.6Z" fill="#3F58B2"/>
<path d="M422.7 362.1L427.3 381.2C427.3 381.2 430.7 386.1 434.4 387L432.3 366.4L422.7 362.1Z" fill="black"/>
<path d="M435 387.6L434.3 387.4C430.5 386.4 427.1 381.6 426.9 381.4L426.8 381.2L422 361.2L432.7 366L435 387.6ZM427.8 381C428.2 381.6 430.9 385.1 433.9 386.3L431.9 366.7L423.5 363L427.8 381Z" fill="black"/>
<path d="M478 400.4L480.6 414.1L485.1 438.2L428 439.7L431.1 385.2L431.3 372C428.3 370.1 425.9 368.3 423.9 366.6C417.1 360.8 415.5 355.9 416 352.1C416 352.1 416 352 416 351.9C416.8 346.2 422.6 343 422.6 343L426.2 308.4L495 314.1C495.3 315.5 495.7 316.9 496 318.2V318.4C497.6 325.5 498.8 331.9 499.6 337.9V338.1C508.9 404.8 478 400.4 478 400.4Z" fill="white"/>
<path d="M426.3 441.2L429.4 385L429.5 372.6C426.9 370.9 424.6 369.2 422.7 367.5C416.4 362.1 413.6 356.8 414.3 351.7H415.8L414.3 351.5C415.1 346.3 419.3 343.1 421 342L424.6 306.7L496 312.7L496.3 313.8C496.6 315.2 497 316.6 497.3 317.9L497.4 318.2C499 325.1 500.2 331.7 501 337.7V337.9C505 366.9 502.2 386.4 492.5 396.1C487.7 400.9 482.5 401.8 479.7 402L486.7 439.7L426.3 441.2ZM427.4 310L423.9 343.9L423.2 344.3C423.2 344.3 418.1 347.2 417.4 352V352.2C416.9 356.1 419.4 360.5 424.8 365.2C426.8 367 429.2 368.7 432 370.4L432.7 370.8L432.5 384.9L429.5 437.9L483.2 436.5L476.1 398.5L478.1 398.7C478.4 398.7 484.7 399.5 490.5 393.7C496.6 387.5 502.9 372.9 498.1 338.1V337.9C497.3 331.9 496 325.4 494.5 318.5L494.4 318.2C494.2 317.2 493.9 316.2 493.7 315.2L427.4 310Z" fill="black"/>
<path d="M436.9 317.3L440.7 354.7L433.4 352.8C433.4 352.8 429.6 343.6 422.6 344.3C419.6 344.6 415.3 349.9 415.7 354.3C415.7 354.3 389 308 413 305.5C413 305.5 450.9 244.7 469.1 284.1C469.1 284.1 497.5 269.8 491.5 294.6C491.5 294.6 513.4 286.7 505.4 318.8L499.9 339.5L495.9 318.3C495.9 318.3 479.1 325.8 452.6 317.1C452.6 317.1 459.1 325 470.8 328C470.7 328 447.8 326.1 436.9 317.3Z" fill="black"/>
<path d="M416.4 356.5L415.2 354.5C414.5 353.2 397.4 323.2 403.9 310.5C405.5 307.4 408.4 305.5 412.6 305C414.6 301.8 435.7 269.2 453.8 270.3C460.1 270.7 465.2 275.1 469.2 283.4C471.8 282.2 484.1 276.7 489.8 281.2C492.6 283.4 493.3 287.7 492 293.8C494.2 293.2 499.9 292.1 503.8 295.6C508 299.4 508.6 307.2 505.7 318.8L499.6 341.7L495.3 318.9C492.2 320.1 476.7 325 454.1 318.1C456.5 320.5 462.3 325.3 470.7 327.5L470.5 328.5C469.6 328.4 448.5 326.6 437.3 318.4L441.1 355.4L432.9 353.3L432.8 353.1C432.8 353 429.1 344.3 422.5 344.9C419.9 345.2 415.6 350.1 416 354.3L416.4 356.5ZM433.8 352.4L440.2 354L436.3 316.1L437.2 316.9C444.8 323.1 458.5 325.8 465.8 326.9C457 323.3 452.1 317.5 452.1 317.4L451 316.1L452.6 316.6C478.6 325.1 495.4 317.9 495.6 317.8L496.2 317.5L499.9 337.2L504.8 318.6C507.6 307.4 507.1 299.9 503.2 296.4C498.9 292.5 491.7 295 491.6 295L490.7 295.3L490.9 294.4C492.4 288.2 491.8 284 489.2 282C483.4 277.4 469.3 284.4 469.2 284.5L468.7 284.7L468.5 284.2C464.7 276 459.7 271.6 453.7 271.2C435.6 270.1 413.5 305.2 413.2 305.6L413.1 305.8H412.9C409 306.2 406.2 307.9 404.8 310.8C399.3 321.5 411.7 345.9 415.2 352.3C415.8 348.2 419.6 344 422.5 343.7C429.3 343.1 433.1 350.9 433.8 352.4Z" fill="black"/>
<path d="M480.5 414.1C455 410.7 448.1 385.3 447.9 384.5C453.1 391.9 468.3 397.4 477.9 400.5L480.5 414.1Z" fill="black"/>
<path d="M481.1 414.7L480.4 414.6C454.4 411.1 447.5 384.9 447.4 384.6L446.7 382L448.3 384.2C452.2 389.6 462.2 395 478.1 400L478.4 400.1L481.1 414.7ZM449.2 386.8C451.6 393.2 459.7 410.5 479.9 413.6L477.5 400.9C463.5 396.4 454 391.6 449.2 386.8Z" fill="black"/>
<path d="M961 370.9C966.3 366.9 972.1 358.9 970.2 351.1C969.2 347 967.1 345.3 964.7 345C965 328.2 960.1 311 940.5 307C899.5 298.6 881.9 328.9 885.8 360.9C889.7 392.9 887.1 406.5 914.1 412.1L912.8 454.2L968.3 451.1L958.1 381C958 381.2 959.5 377.1 961 370.9Z" fill="white"/>
<path d="M911.1 455.9L912.4 413.4C889.1 408.1 887.9 396.2 885.5 372.9C885.1 369.2 884.7 365.4 884.2 361.1C881.9 342.2 887.1 324.8 898.2 314.6C908.5 305.1 923.2 302 940.7 305.6C957.4 309 966.2 322.2 966.1 343.9C968.2 344.6 970.4 346.3 971.6 350.8C973.6 358.8 968.3 367.2 962.3 371.8C961.1 376.7 959.9 380.2 959.5 381.3L969.8 452.7L911.1 455.9ZM927.3 307.1C916.5 307.1 907.3 310.4 900.3 316.8C889.9 326.4 885 342.8 887.2 360.8C887.7 365.1 888.1 369.1 888.5 372.6C890.9 396.2 891.9 406 914.3 410.7L915.5 411L914.2 452.8L966.4 449.9L956.4 381.1L956.5 380.7C956.5 380.7 957.9 376.7 959.4 370.6L959.5 370.1L959.9 369.8C965.2 365.8 970.2 358.4 968.5 351.6C967.7 348.5 966.3 346.9 964.3 346.6L962.9 346.4V345C963.2 324 955.5 311.7 939.9 308.5C935.6 307.6 931.3 307.1 927.3 307.1Z" fill="black"/>
<path d="M954.1 373.2C951.1 371.2 952.5 360.2 954.1 352.2C954.8 348.8 962.2 342.9 966.9 345.9C970.8 329.3 971.1 310.1 954.1 305.8C949.1 292.1 936.4 295.2 929.2 296.6C906.8 301.1 899.8 301.3 890.6 295.8C883.9 291.8 877.5 293.3 876.4 297.8C874.4 305.9 878.8 310.3 878.8 310.3C870.4 312.6 870.1 318.3 870.4 321.8C871.3 331 876.6 334.9 883.7 335.7C884.4 341.3 886 346.7 885.8 348.4C885.8 348.4 886.4 342.3 888.7 335.8C906 335 929.3 321.7 929.3 321.7C926.6 329.2 941.4 332.8 947.1 333.9C948.4 343.5 950.1 367.3 938.2 384.6C938.2 384.6 906.2 371.3 887.4 379.9C887.4 379.9 885.2 414.3 918.3 412.7C918.3 412.7 930 411.5 937 404.5C937 404.5 948.4 394.5 957.6 372.7C956.1 373.5 954.9 373.7 954.1 373.2Z" fill="black"/>
<path d="M916 413.5C907.3 413.5 900.4 410.9 895.4 405.8C885.8 396.1 886.7 380.2 886.8 380.1V379.8L887.1 379.7C905 371.5 934.1 382.7 937.9 384.2C949.3 367.2 947.8 344.1 946.6 334.5C942 333.6 931.9 331.1 929.2 326.3C928.6 325.2 928.4 324.1 928.5 322.9C923.8 325.4 904.2 335.6 889.1 336.4C887 342.5 886.4 348.3 886.4 348.5L885.4 348.4C885.5 347.5 885.1 345.5 884.6 343.1C884.2 341 883.7 338.6 883.4 336.2C875.3 335.1 870.9 330.3 870.1 321.9C869.5 315.8 872.1 312 878.1 310.1C876.9 308.6 874.4 304.4 876.1 297.7C876.6 295.9 877.8 294.4 879.7 293.6C882.8 292.3 887 293 891 295.3C899.8 300.5 906.2 300.6 929.2 296L929.9 295.9C937.3 294.4 949.5 291.9 954.6 305.3C968.4 308.9 972.9 322.9 967.5 345.9L967.3 346.6L966.7 346.2C964.7 345 962.4 345.5 960.9 346.2C957.7 347.6 955.1 350.5 954.7 352.2C952.4 363.4 952.4 371.3 954.5 372.7C955.1 373.1 956.1 373 957.4 372.5L958.5 372.1L958 373.2C948.8 394.8 937.3 405.1 937.2 405.2C930.1 412.3 918.7 413.5 918.2 413.5C917.4 413.5 916.7 413.5 916 413.5ZM887.7 380.5C887.6 382.7 887.5 396.5 896.1 405.2C901.3 410.5 908.7 412.9 918.1 412.5C918.2 412.5 929.7 411.3 936.5 404.4C936.6 404.3 947.6 394.5 956.6 373.8C955.4 374.1 954.5 374 953.9 373.6C950.4 371.3 952.3 359.1 953.7 352C954.2 349.7 957.2 346.7 960.5 345.3C962.1 344.6 964.5 344 966.7 345.1C970.2 329.5 970.8 310.4 954.1 306.3L953.8 306.2L953.7 306C949 293.1 937.6 295.5 930.1 297L929.4 297.1C907.3 301.5 900 301.9 890.5 296.3C886.8 294.1 882.9 293.5 880.1 294.6C878.5 295.3 877.5 296.4 877.1 298C875.2 305.8 879.3 310 879.4 310.1L880 310.7L879.2 310.9C871.3 313.1 870.8 318.2 871.2 321.9C872 329.9 876.3 334.4 884 335.4H884.4L884.5 335.8C884.8 338.4 885.3 340.8 885.8 343C885.9 343.7 886.1 344.3 886.2 344.9C886.6 342.5 887.4 339.2 888.5 335.9L888.6 335.6H888.9C905.9 334.8 929 321.7 929.2 321.6L930.4 320.9L929.9 322.2C929.4 323.5 929.5 324.7 930.2 325.9C932.8 330.5 943 332.9 947.3 333.7L947.7 333.8V334.2C949 343.7 950.7 367.8 938.7 385.3L938.5 385.6L938.1 385.4C937.5 385.2 906.1 372.3 887.7 380.5Z" fill="black"/>
<path d="M380 1131.4L372.6 1161.9L370.5 1170.6L365.7 1190.2H330.7L333.9 1165.4L335.1 1156.6L338.5 1130.9L380 1131.4Z" fill="white"/>
<path d="M366.9 1191.7H329L337.2 1129.3L381.9 1129.9L366.9 1191.7ZM332.4 1188.7H364.5L378 1132.9L339.7 1132.4L332.4 1188.7Z" fill="#3F58B2"/>
<path d="M380 1131.4L372.6 1161.9L370.5 1170.6L333.9 1165.4L335.1 1156.6L338.5 1130.9L380 1131.4Z" fill="#3F58B2"/>
<path d="M370.9 1171.2L333.4 1165.9L338 1130.4L380.6 1131L370.9 1171.2ZM334.5 1165L370.1 1170.1L379.3 1132L338.8 1131.4L334.5 1165Z" fill="#3F58B2"/>
<path d="M332.2 1178.3C335.3 1181.5 347.7 1192 368.4 1177.7C368.6 1177.6 368.8 1177.6 369 1177.7L426 1208.2C428.7 1209.6 427.7 1213.7 424.6 1213.7H331.6C327.3 1213.7 324.1 1209.7 325.1 1205.5L331.2 1178.7C331.3 1178.1 331.9 1177.9 332.2 1178.3Z" fill="#3F58B2"/>
<path d="M424.6 1214H331.6C329.4 1214 327.4 1213 326 1211.3C324.6 1209.6 324.1 1207.4 324.6 1205.2L330.7 1178.4C330.8 1178 331.1 1177.7 331.5 1177.6C331.9 1177.5 332.3 1177.6 332.6 1177.9C335.8 1181.3 348 1191.2 368.2 1177.2C368.5 1177 369 1176.9 369.3 1177.1L426.3 1207.6C427.9 1208.5 428.3 1210.1 428 1211.4C427.7 1212.7 426.5 1214 424.6 1214ZM331.8 1178.6L325.7 1205.5C325.3 1207.3 325.7 1209.2 326.9 1210.7C328.1 1212.2 329.8 1213 331.7 1213H424.7C426.1 1213 426.8 1212 427 1211.2C427.2 1210.4 427 1209.1 425.8 1208.5L368.8 1178C347.9 1192.5 335.2 1182.1 331.8 1178.6Z" fill="#3F58B2"/>
<path d="M516.8 1130.9L512.3 1170.2L510.1 1190.2H475L475.1 1164.7L475.2 1130.4L516.8 1130.9Z" fill="white"/>
<path d="M511.4 1191.7H473.5L473.7 1128.8L518.4 1129.4L511.4 1191.7ZM476.5 1188.7H508.7L515.1 1132.4L476.7 1131.9L476.5 1188.7Z" fill="#3F58B2"/>
<path d="M516.8 1130.9L512.3 1170.2L475.1 1164.7L475.2 1130.4L516.8 1130.9Z" fill="#3F58B2"/>
<path d="M512.8 1170.8L474.7 1165.1L474.8 1129.8L517.4 1130.4L512.8 1170.8ZM475.6 1164.3L511.9 1169.7L516.2 1131.5L475.7 1130.9L475.6 1164.3Z" fill="#3F58B2"/>
<path d="M474.6 1178.3C477.7 1181.5 490.1 1192 510.8 1177.7C511 1177.6 511.2 1177.6 511.4 1177.7L568.4 1208.2C571.1 1209.6 570.1 1213.7 567 1213.7H474C469.7 1213.7 466.5 1209.7 467.5 1205.5L473.6 1178.7C473.7 1178.1 474.2 1177.9 474.6 1178.3Z" fill="#3F58B2"/>
<path d="M567 1214H474C471.8 1214 469.8 1213 468.4 1211.3C467 1209.6 466.5 1207.4 467 1205.2L473.1 1178.4C473.2 1178 473.5 1177.7 473.9 1177.6C474.3 1177.5 474.7 1177.6 475 1177.9C478.2 1181.3 490.4 1191.2 510.6 1177.2C510.9 1177 511.4 1176.9 511.7 1177.1L568.7 1207.6C570.3 1208.5 570.7 1210.1 570.4 1211.4C570 1212.7 568.8 1214 567 1214ZM474.1 1178.6L468 1205.5C467.6 1207.3 468 1209.2 469.2 1210.7C470.4 1212.2 472.1 1213 474 1213H567C568.4 1213 569.1 1212 569.3 1211.2C569.5 1210.4 569.3 1209.1 568.1 1208.5L511.1 1178C490.2 1192.5 477.6 1182.1 474.1 1178.6C474.2 1178.6 474.2 1178.6 474.1 1178.6Z" fill="#3F58B2"/>
<path d="M901.5 1130.9L905.9 1170.2L908.2 1190.2H943.2L943.1 1164.7L943 1130.4L901.5 1130.9Z" fill="white"/>
<path d="M944.7 1191.7H906.8L899.8 1129.4L944.5 1128.8L944.7 1191.7ZM909.5 1188.7H941.7L941.5 1131.9L903.1 1132.4L909.5 1188.7Z" fill="#3F58B2"/>
<path d="M901.5 1130.9L905.9 1170.2L943.1 1164.7L943 1130.4L901.5 1130.9Z" fill="#3F58B2"/>
<path d="M905.5 1170.8L900.9 1130.4L943.5 1129.8L943.6 1165.1L905.5 1170.8ZM902 1131.4L906.3 1169.6L942.6 1164.2L942.5 1130.8L902 1131.4Z" fill="#3F58B2"/>
<path d="M943.7 1178.3C940.6 1181.5 928.2 1192 907.5 1177.7C907.3 1177.6 907.1 1177.6 906.9 1177.7L849.9 1208.2C847.2 1209.6 848.2 1213.7 851.3 1213.7H944.3C948.6 1213.7 951.8 1209.7 950.8 1205.5L944.7 1178.7C944.6 1178.1 944 1177.9 943.7 1178.3Z" fill="#3F58B2"/>
<path d="M944.2 1214H851.2C849.4 1214 848.2 1212.7 847.9 1211.4C847.6 1210.1 848 1208.4 849.6 1207.6L906.6 1177.1C907 1176.9 907.4 1176.9 907.7 1177.2C927.9 1191.2 940 1181.3 943.3 1177.9C943.6 1177.6 944 1177.5 944.4 1177.6C944.8 1177.7 945.1 1178 945.2 1178.4L951.3 1205.2C951.8 1207.3 951.3 1209.6 949.9 1211.3C948.4 1213 946.4 1214 944.2 1214ZM907.2 1178L850.1 1208.4C848.9 1209.1 848.7 1210.3 848.9 1211.1C849.1 1211.9 849.8 1212.9 851.2 1212.9H944.2C946.1 1212.9 947.8 1212.1 949 1210.6C950.2 1209.1 950.6 1207.2 950.2 1205.4L944.1 1178.6H944C940.7 1182.1 928 1192.5 907.2 1178Z" fill="#3F58B2"/>
<path d="M1084.2 1190.2H1049.2L1044.4 1170.8L1034.5 1130.9L1076 1130.4L1080.8 1165.2L1084.2 1190.2Z" fill="white"/>
<path d="M1085.9 1191.7H1048L1032.6 1129.4L1077.3 1128.8L1085.9 1191.7ZM1050.3 1188.7H1082.4L1074.6 1131.8L1036.3 1132.3L1050.3 1188.7Z" fill="#3F58B2"/>
<path d="M1080.8 1165.2L1044.4 1170.8L1034.5 1130.9L1076 1130.4L1080.8 1165.2Z" fill="#3F58B2"/>
<path d="M1044 1171.4L1033.8 1130.5L1076.4 1129.9L1081.3 1165.7L1044 1171.4ZM1035.1 1131.4L1044.7 1170.2L1080.2 1164.7L1075.5 1130.8L1035.1 1131.4Z" fill="#3F58B2"/>
<path d="M1082.7 1178.3C1079.6 1181.5 1067.2 1192 1046.5 1177.7C1046.3 1177.6 1046.1 1177.6 1045.9 1177.7L988.9 1208.2C986.2 1209.6 987.2 1213.7 990.3 1213.7H1083.3C1087.6 1213.7 1090.8 1209.7 1089.8 1205.5L1083.7 1178.7C1083.6 1178.1 1083 1177.9 1082.7 1178.3Z" fill="#3F58B2"/>
<path d="M1083.2 1214H990.2C988.4 1214 987.2 1212.7 986.9 1211.4C986.6 1210.1 987 1208.4 988.6 1207.6L1045.6 1177.1C1046 1176.9 1046.4 1176.9 1046.7 1177.2C1066.9 1191.2 1079 1181.3 1082.3 1177.9C1082.6 1177.6 1083 1177.5 1083.4 1177.6C1083.8 1177.7 1084.1 1178 1084.2 1178.4L1090.3 1205.2C1090.8 1207.3 1090.3 1209.6 1088.9 1211.3C1087.4 1213 1085.4 1214 1083.2 1214ZM1046.2 1178L989.1 1208.4C987.9 1209.1 987.7 1210.3 987.9 1211.1C988.1 1211.9 988.8 1212.9 990.2 1212.9H1083.2C1085.1 1212.9 1086.8 1212.1 1088 1210.6C1089.2 1209.1 1089.6 1207.2 1089.2 1205.4L1083.1 1178.6H1083C1079.7 1182.1 1067 1192.5 1046.2 1178Z" fill="#3F58B2"/>
<path d="M882.5 780C879.5 783 876.5 780 876.5 780C874.5 783 870.5 780 870.5 780C866.5 783 864.5 779 864.5 779C857.5 784 858.5 765 858.5 765C857.5 754 862.5 747 862.5 747V730L879.5 735L880 743.1L882.5 780Z" fill="white"/>
<path d="M874.1 782.8C872.7 782.8 871.4 782.2 870.6 781.8C869.3 782.6 868 782.8 866.7 782.5C865.6 782.2 864.7 781.6 864.2 781C862.7 781.6 861.5 781.4 860.8 780.9C856.8 778.7 857 768.3 857.1 765C856.2 755 860 748.2 861.1 746.5V727.9L881 733.8L884.1 780.5L883.6 781C882 782.6 880 783.2 877.9 782.5C877.4 782.3 877 782.1 876.7 781.9C876.2 782.3 875.6 782.6 874.9 782.7C874.6 782.8 874.3 782.8 874.1 782.8ZM870.5 778.1L871.4 778.8C871.8 779.1 873.3 780 874.4 779.8C874.6 779.8 875 779.6 875.3 779.2L876.3 777.7L877.6 779C878 779.4 879.4 780.5 881 779.4L878.1 736.2L864 732.1V747.6L863.7 748C863.7 748.1 859 754.7 860 765V765.1V765.2C859.7 770.9 860.5 777.5 862.1 778.4C862.5 778.6 863.2 778.2 863.6 777.9L865 776.9L865.8 778.5C865.9 778.8 866.5 779.6 867.3 779.7C867.9 779.8 868.7 779.6 869.6 778.9L870.5 778.1Z" fill="#3F58B2"/>
<path d="M897.4 767.6C900.5 767.6 902.9 770.1 902.9 773.1V776.3V798.8H897.4V781.3C897.4 778.5 895.2 776.3 892.4 776.3H841.9C839.1 776.3 836.9 778.5 836.9 781.3V798.8H831.4V776.3V773.1C831.4 770 833.9 767.6 836.9 767.6H897.4Z" fill="#3F58B2"/>
<path d="M903.4 799.4H896.9V781.4C896.9 778.9 894.9 776.9 892.4 776.9H841.9C839.4 776.9 837.4 778.9 837.4 781.4V799.4H830.9V773.2C830.9 769.9 833.6 767.2 836.9 767.2H897.4C900.7 767.2 903.4 769.9 903.4 773.2V799.4ZM897.9 798.4H902.4V773.2C902.4 770.4 900.1 768.2 897.4 768.2H836.9C834.1 768.2 831.9 770.5 831.9 773.2V798.4H836.4V781.4C836.4 778.4 838.9 775.9 841.9 775.9H892.4C895.4 775.9 897.9 778.4 897.9 781.4V798.4Z" fill="#3F58B2"/>
<path d="M784 803.8V913.2C784 917.4 787.4 920.8 791.6 920.8H947.3C951.5 920.8 954.9 917.4 954.9 913.2V803.8C954.9 799.6 951.5 796.2 947.3 796.2H791.6C787.4 796.1 784 799.5 784 803.8Z" fill="white"/>
<path d="M947.4 922.3H791.7C786.7 922.3 782.6 918.2 782.6 913.2V803.8C782.6 798.8 786.7 794.7 791.7 794.7H947.4C952.4 794.7 956.5 798.8 956.5 803.8V913.2C956.5 918.2 952.4 922.3 947.4 922.3ZM791.6 797.6C788.2 797.6 785.5 800.4 785.5 803.7V913.1C785.5 916.5 788.3 919.2 791.6 919.2H947.3C950.7 919.2 953.4 916.4 953.4 913.1V803.7C953.4 800.3 950.6 797.6 947.3 797.6H791.6Z" fill="#3F58B2"/>
<path d="M801.3 839.8L879.7 867.9L955 840.9V834.2L879.7 861.1L803.4 833.8L801.3 839.8Z" fill="#3F58B2"/>
<path d="M879.7 868.4L879.5 868.3L800.7 840.1L803.2 833.2L879.7 860.6L955.5 833.4V841.2L879.7 868.4ZM801.9 839.5L879.6 867.3L954.4 840.5V834.8L879.6 861.6L879.4 861.5L803.6 834.4L801.9 839.5Z" fill="#3F58B2"/>
<path d="M784 803.8V913.2C784 917.4 787.4 920.8 791.6 920.8H796.7C800.9 920.8 804.3 917.4 804.3 913.2V803.8C804.3 799.6 800.9 796.2 796.7 796.2H791.6C787.4 796.1 784 799.5 784 803.8Z" fill="#3F58B2"/>
<path d="M796.7 921.3H791.6C787.1 921.3 783.5 917.7 783.5 913.2V803.8C783.5 799.3 787.1 795.7 791.6 795.7H796.7C801.2 795.7 804.8 799.3 804.8 803.8V913.2C804.8 917.6 801.2 921.3 796.7 921.3ZM791.6 796.6C787.7 796.6 784.5 799.8 784.5 803.7V913.1C784.5 917 787.7 920.2 791.6 920.2H796.7C800.6 920.2 803.8 917 803.8 913.1V803.7C803.8 799.8 800.6 796.6 796.7 796.6H791.6Z" fill="#3F58B2"/>
<path d="M535.5 705L551.5 900L531.5 1161.5H470.5L471.5 910L443.5 705H535.5Z" fill="#3F58B2"/>
<path d="M532 1162H470L471 910L442.9 704.5H535.9V705L551.9 900L532 1162ZM471 1161H531L551 900L535 705.5H444L471.9 909.9L471 1161Z" fill="#3F58B2"/>
<path d="M498 704.5L459 898.5L394.5 1161.5H329.5L370.5 911L367.5 700L498 704.5Z" fill="#4D67CA"/>
<path d="M395.7 1163H327.8L369.1 910.9L366.1 698.5L499.9 703.1L460.6 898.8L395.7 1163ZM331.3 1160H393.4L457.6 898.1L496.2 705.9L369 701.5L372 911.1V911.2L331.3 1160Z" fill="#3F58B2"/>
<path d="M795.5 569L792.5 595L780.5 594C780.2 594.2 779.9 594.4 779.6 594.6C769.3 601.2 734.5 620 734.5 620C712.5 624 700.5 614 700.5 614L720.5 583C720.5 583 709.5 577 715.5 571C721.5 565 763.5 566 763.5 566C772.4 566 779.4 566.5 784.7 567.1C791.8 568 795.5 569 795.5 569Z" fill="white"/>
<path d="M724.3 622.5C708.6 622.5 700 615.6 699.6 615.2L698.6 614.3L718.5 583.5C716.5 582.1 712.9 579.3 712.4 575.7C712.2 574.3 712.4 572.1 714.6 570C720.9 563.7 759.3 564.5 763.7 564.6C771.3 564.6 778.5 565 785 565.8C792.2 566.7 795.9 567.7 796 567.7L797.2 568L793.9 596.7L781 595.6C780.9 595.6 780.9 595.7 780.8 595.7L780.6 595.9C770.4 602.4 735.7 621.2 735.4 621.4L735.2 621.5H735C731 622.2 727.5 622.5 724.3 622.5ZM702.5 613.6C705.8 615.8 716.7 621.6 734 618.6C736.9 617 769.1 599.5 778.8 593.3L779.1 593.1C779.3 593 779.5 592.9 779.7 592.7L780.1 592.4L791.2 593.3L793.9 570.1C792.3 569.7 789.1 569.1 784.5 568.6C778.1 567.8 771.1 567.5 763.5 567.5C747.5 567.1 720.6 568 716.6 572.1C715.6 573.1 715.1 574.2 715.3 575.3C715.7 578.1 719.8 580.9 721.3 581.7L722.7 582.5L702.5 613.6Z" fill="#3F58B2"/>
<path d="M753.5 578C753.5 578 749.5 586 732.5 586L701.5 615H678.5V582L689.4 581.1L714.5 579L733.5 573L753.5 578Z" fill="white"/>
<path d="M702.1 616.5H677V580.6L714.2 577.5L733.4 571.4L755.6 577L754.8 578.7C754.6 579.1 750.3 587.3 733.1 587.5L702.1 616.5ZM680 613.5H700.9L731.9 584.5H732.5C743.6 584.5 748.8 581 750.9 578.9L733.5 574.6L714.6 580.5L680 583.4V613.5Z" fill="#3F58B2"/>
<path d="M695.1 615H678.5V582L689.4 581.1L695.1 615Z" fill="#3F58B2"/>
<path d="M695.7 615.5H678V581.5L689.8 580.5L695.7 615.5ZM679 614.5H694.5L689 581.6L679 582.4V614.5Z" fill="#3F58B2"/>
<path d="M683.5 577V625L600.6 621.7C588.4 621.2 576.9 615.9 568.6 606.8L531 555.5L540.4 731.7L540.5 733C447.5 768 360.5 732 360.5 732L369.4 555.2L369.5 553L344.5 581L344.1 603.2L342.5 708H294.5V578.1C294.5 570.1 296.3 562.3 299.7 555.1L343.4 464.2C351.7 446.9 367 433.9 385.5 428.6L427 416.5C472 455.5 482 415.5 482 415.5L502 418.9C516.9 421.5 530.1 430.4 538 443.3L618.5 574L683.5 577Z" fill="#E1E8FF"/>
<path d="M453.7 749.8C439.3 749.8 426.3 748.7 415.4 747.2C382.2 742.6 360.1 733.6 359.9 733.5L358.9 733.1L367.7 557.3L345.9 581.7L343.9 709.6H292.9V578.2C292.9 570.1 294.8 561.9 298.3 554.6L342 463.7C350.5 446 366.2 432.7 385 427.3L427.3 415L427.9 415.5C443.6 429.1 456.6 434.5 466.4 431.4C477.1 428 480.4 415.4 480.4 415.3L480.7 414L502 417.7C517.4 420.4 530.9 429.5 539.1 442.8L619.2 572.8L684.8 575.8V626.8L600.3 623.5C587.8 623 575.7 617.4 567.3 608.2L567.2 608.1L532.5 560.8L541.8 734.4L540.8 734.8C510 746.1 479.6 749.8 453.7 749.8ZM362.1 731C366.7 732.8 387.1 740.2 416 744.2C446 748.4 491.7 749.6 539 732V731.8L529.3 550.6L569.9 606C577.8 614.6 589 619.9 600.8 620.3L682.2 623.5V578.5L617.8 575.5L536.9 444.1C529.2 431.6 516.4 422.9 501.9 420.4L483.2 417.2C482 420.9 477.8 430.9 467.6 434.1C456.8 437.5 443.1 432.1 426.8 418.2L386.1 430C368.1 435.2 353.1 447.9 345 464.8L301.3 555.7C298 562.6 296.2 570.3 296.2 578V706.5H341.2L343.2 580.4L371.4 548.8L371.1 555.3L362.1 731Z" fill="#3F58B2"/>
<path d="M880 743.1L862.5 739.2V730L879.5 735L880 743.1Z" fill="#3F58B2"/>
<path d="M880.6 743.8L862 739.6V729.3L880 734.6L880.6 743.8ZM863 738.8L879.5 742.5L879 735.4L863 730.7V738.8Z" fill="#3F58B2"/>
<path d="M883 739.5L847 731.5L864 555.5L872 466.5L891 445.5L883 739.5Z" fill="#3F58B2"/>
<path d="M883.5 740.1L846.5 731.9L863.5 555.5L871.5 466.3L891.5 444.2L883.5 740.1ZM847.5 731.1L882.5 738.9L890.4 446.9L872.4 466.8L864.4 555.6L847.5 731.1Z" fill="#3F58B2"/>
<path d="M959.5 741L949.5 889L953.5 1156.5H884.5L868.5 884L874.5 659L977.5 648L959.5 741Z" fill="#3F58B2"/>
<path d="M954 1157H884V1156.5L868 884L874 658.5L978.1 647.4L978 648.1L960 741.1L950 889.1L954 1157ZM885 1156H953L949 889L959 740.9L976.9 648.6L875 659.5L869 884.1L885 1156Z" fill="#3F58B2"/>
<path d="M795.5 569L792.5 595L780.5 594C780.2 594.2 779.9 594.4 779.6 594.6L784.6 567.2C791.8 568 795.5 569 795.5 569Z" fill="#3F58B2"/>
<path d="M778.9 595.6L784.2 566.6L784.7 566.7C791.8 567.5 795.4 568.5 795.6 568.6L796 568.7L792.9 595.6L780.6 594.6C780.5 594.7 780.3 594.8 780.1 594.9L778.9 595.6ZM780.4 593.5L792.1 594.5L795 569.4C793.9 569.1 790.5 568.4 785.1 567.7L780.4 593.5Z" fill="#3F58B2"/>
<path d="M1041.5 653L1048.3 860.8L1082.5 1157L1019.5 1156.6L957.1 887.2L919.9 668.5L1041.5 653Z" fill="#4D67CA"/>
<path d="M1084.2 1158.5L1018.3 1158.1L955.6 887.6L918.1 667.2L1042.8 651.2L1049.6 860.6L1084.2 1158.5ZM1020.7 1155.1L1080.8 1155.5L1046.7 860.9V860.8L1040 654.6L921.6 669.7L958.5 886.9L1020.7 1155.1Z" fill="#3F58B2"/>
<path d="M1048 710.5C970 760.5 866 712.5 866 712.5V711.4L869.5 628L784.5 616L790.5 561L871.5 569V473.7C871.5 464.9 874.9 456.5 881.1 450.2L912.5 432C932 467.5 965.5 419 965.5 419L1012.9 433.7C1025.6 439.4 1034 451.7 1034.8 465.6L1038.2 527.8L1048 710.5Z" fill="#FFEED6"/>
<path d="M963.6 734.7C950.5 734.7 938.2 733.5 927.5 731.7C892 726 865.6 714 865.4 713.8L864.5 713.4L864.6 711.3L868 629.2L782.9 617.2L789.2 559.3L870 567.3V473.7C870 464.5 873.5 455.8 880 449.1L880.1 449L913 429.9L913.7 431.2C918 439 923.2 443.1 929.4 443.4C945.9 444.2 964 418.3 964.2 418.1L964.8 417.2L1013.4 432.3C1026.6 438.3 1035.4 451 1036.2 465.5L1049.5 711.3L1048.8 711.8C1021.4 729.4 990.7 734.7 963.6 734.7ZM867.5 711.5C872.4 713.6 896.6 723.7 928 728.7C960.1 733.9 1006.7 734.7 1046.4 709.6L1033.2 465.6C1032.5 452.2 1024.5 440.5 1012.3 435L966.1 420.7C962.6 425.5 945.8 447.3 929.3 446.4C922.4 446 916.6 441.9 911.9 434L881.9 451.3C876.1 457.3 872.9 465.2 872.9 473.6V570.6L791.7 562.6L786 614.7L870.9 626.7L867.5 711.5Z" fill="#3F58B2"/>
<path d="M732.5 625C732.5 625 739.5 631 743.5 622C743.5 622 751.5 624 753.5 616C753.5 616 760.5 617 761.5 610C761.5 610 768.5 611 769.5 604L765.5 587C765.5 587 757.5 586 756.5 594C756.5 594 747.5 591 746.5 600C746.5 600 738.5 600 738.5 607C738.5 607 730.5 605 729.5 614C729.5 614 729.5 620 732.5 625Z" fill="white"/>
<path d="M737.5 628.5C734.3 628.5 731.7 626.3 731.5 626.2L731.3 626L731.2 625.8C728 620.5 728 614.3 728 614V613.8C728.4 610.6 729.6 608.2 731.7 606.7C733.6 605.4 735.7 605.2 737.2 605.3C738 600.7 742.2 598.9 745.3 598.6C745.8 596.2 746.9 594.4 748.7 593.3C751 591.8 753.7 591.9 755.4 592.2C757 586.1 762.7 585.1 765.8 585.5L766.8 585.6L771.1 603.9V604.2C770.5 608.6 767.8 610.3 765.7 611C764.6 611.4 763.6 611.5 762.8 611.5C761.9 614.9 759.6 616.4 757.7 617C756.6 617.4 755.5 617.5 754.7 617.5C753.3 621.5 750.4 622.9 748.2 623.4C746.8 623.7 745.4 623.7 744.5 623.6C743.1 626.2 741.3 627.7 739.1 628.2C738.5 628.4 738 628.5 737.5 628.5ZM733.6 624C734.2 624.5 736.3 625.8 738.3 625.4C739.8 625.1 741.1 623.7 742.1 621.4L742.6 620.2L743.8 620.5C744.5 620.7 750.4 621.9 752 615.6L752.3 614.3L753.6 614.5C754.2 614.6 759.1 615.1 759.9 609.8L760.1 608.3L761.6 608.5C762.2 608.6 767 609.1 767.9 604L764.2 588.4C762.3 588.4 758.5 589.2 757.9 594.1L757.7 595.9L756 595.3C756 595.3 752.5 594.2 750.2 595.7C749 596.5 748.2 598 748 600.1L747.9 601.4H746.6C745.9 601.4 740.1 601.6 740.1 606.9V608.8L738.2 608.3C738.2 608.3 735.5 607.7 733.4 609.1C732.1 610 731.3 611.6 731 613.9C731 614.7 731.2 619.8 733.6 624Z" fill="#3F58B2"/>
<path d="M296.6 744.7C293.2 744.5 290.2 747.1 290 750.5L289.8 754L288.2 779.3L294.4 779.7L295.7 759.4C295.9 756.6 298.2 754.6 301 754.7L358.8 758.3C361.6 758.5 363.6 760.8 363.5 763.6L362.2 783.9L368.4 784.3L370 759L370.2 755.5C370.4 752.1 367.8 749.1 364.4 748.9L296.6 744.7Z" fill="#3F58B2"/>
<path d="M368.8 784.9L361.6 784.4L362.9 763.6C363 762.4 362.6 761.2 361.8 760.3C361 759.4 359.9 758.9 358.7 758.8L300.9 755.2C298.4 755 296.3 756.9 296.1 759.4L294.8 780.2L287.6 779.7L289.4 750.4C289.6 746.7 292.8 743.9 296.5 744.1L364.3 748.4C368 748.6 370.8 751.8 370.6 755.5L368.8 784.9ZM362.7 783.5L367.9 783.8L369.7 755.5C369.9 752.4 367.5 749.6 364.4 749.4L296.6 745.1C293.5 744.9 290.7 747.3 290.5 750.4L288.7 778.7L293.9 779L295.1 759.2C295.2 757.7 295.9 756.4 297 755.4C298.1 754.4 299.5 753.9 301 754L358.8 757.6C360.3 757.7 361.6 758.4 362.6 759.5C363.6 760.6 364.1 762 364 763.5L362.7 783.5Z" fill="#3F58B2"/>
<path d="M421.1 793.2L413.4 915.8C413.1 920.5 409 924.1 404.3 923.8L229.8 912.8C225.1 912.5 221.5 908.4 221.8 903.7L229.5 781.1C229.8 776.4 233.9 772.8 238.6 773.1L413.1 784.1C417.8 784.4 421.4 788.5 421.1 793.2Z" fill="white"/>
<path d="M404.8 925.3C404.6 925.3 404.4 925.3 404.2 925.3L229.7 914.3C227 914.1 224.6 912.9 222.8 910.9C221 908.9 220.1 906.3 220.3 903.6L228 781C228.2 778.3 229.4 775.9 231.4 774.1C233.4 772.3 236 771.4 238.7 771.6L413.2 782.6C418.7 782.9 423 787.7 422.6 793.3L414.9 915.9C414.7 918.6 413.5 921 411.5 922.8C409.6 924.4 407.3 925.3 404.8 925.3ZM238 774.6C236.3 774.6 234.6 775.2 233.3 776.4C231.9 777.6 231 779.4 230.9 781.3L223.2 903.9C223.1 905.8 223.7 907.6 225 909C226.2 910.4 228 911.3 229.9 911.4L404.4 922.4C406.3 922.5 408.1 921.9 409.5 920.6C410.9 919.4 411.8 917.6 411.9 915.7L419.6 793.1C419.8 789.2 416.9 785.8 413 785.6L238.5 774.6C238.3 774.6 238.1 774.6 238 774.6Z" fill="#3F58B2"/>
<path d="M399.2 832.4L309.3 858.3L226.8 822.7L227.3 815.2L309.8 850.8L397.2 825.5L399.2 832.4Z" fill="#3F58B2"/>
<path d="M309.3 858.8L309.1 858.7L226.3 823L226.8 814.4L309.8 850.2L397.5 824.9L399.7 832.7L309.3 858.8ZM227.3 822.4L309.3 857.7L398.5 832L396.8 826.1L309.7 851.2L309.5 851.1L227.6 815.8L227.3 822.4Z" fill="#3F58B2"/>
<path d="M375 757.5C363.1 763.4 354.8 752.7 354.8 752.7C354.2 761.6 350.5 767.9 350.5 767.9C344.4 773.3 338.2 764.9 338.2 764.9C330.9 768.4 325.7 758.8 325.7 758.8C316.1 763.1 314.7 749.6 314.7 749.6C314.8 726.9 314.8 719.4 314.8 719.4V717.2L314.6 708L341.4 707.3L341.9 712.6L342 712.8L348.4 722.8C354.7 729.4 366.5 746.2 366.5 746.2L375 757.5Z" fill="white"/>
<path d="M346.1 771.2C345.8 771.2 345.5 771.2 345.3 771.2C341.9 770.8 339.1 768.2 337.8 766.7C332.1 768.6 327.4 764.1 325.1 760.6C322.7 761.4 320.6 761.2 318.7 760.2C314.1 757.5 313.3 750.1 313.3 749.8V749.7V749.6C313.4 726.9 313.4 719.4 313.4 719.4L313.2 706.5L342.9 705.7L343.5 712L349.7 721.8C356 728.5 367.4 744.6 367.8 745.2L377.3 757.9L375.7 758.7C366.7 763.2 359.5 758.9 356 755.9C354.9 763.3 352 768.3 351.8 768.5L351.7 768.7L351.5 768.9C349.9 770.5 348 771.2 346.1 771.2ZM338.7 763L339.4 764C339.4 764 342.2 767.8 345.6 768.2C346.9 768.3 348.1 767.9 349.3 766.9C349.9 765.8 352.8 760.1 353.3 752.6L353.6 748.6L356 751.8C356.3 752.2 362.9 760.5 372.7 756.9L365.4 747.1C365.3 746.9 353.5 730.3 347.4 723.8L347.2 723.6L340.5 713.1L340.1 708.9L316.2 709.5L316.4 719.4C316.4 719.4 316.4 726.9 316.3 749.5C316.5 751.3 317.6 756 320.3 757.5C321.6 758.3 323.2 758.2 325.2 757.3L326.5 756.7L327.2 757.9C327.4 758.2 331.8 766.3 337.7 763.4L338.7 763Z" fill="#3F58B2"/>
<path d="M421.1 793.2L413.4 915.8C413.1 920.5 409 924.1 404.3 923.8L398.6 923.4C393.9 923.1 390.3 919 390.6 914.3L398.3 791.7C398.6 787 402.7 783.4 407.4 783.7L413.1 784.1C417.8 784.4 421.4 788.5 421.1 793.2Z" fill="#3F58B2"/>
<path d="M404.8 924.3C404.6 924.3 404.4 924.3 404.2 924.3L398.5 923.9C396.1 923.7 393.9 922.7 392.3 920.8C390.7 919 389.9 916.6 390.1 914.2L397.8 791.6C398 789.2 399 787 400.9 785.4C402.7 783.8 405.1 783 407.5 783.2L413.2 783.6C418.2 783.9 422 788.2 421.7 793.2L414 915.8C413.8 918.2 412.8 920.4 410.9 922C409.1 923.5 407 924.3 404.8 924.3ZM406.8 784.2C404.8 784.2 403 784.9 401.5 786.2C399.9 787.6 398.9 789.6 398.8 791.7L391.1 914.3C391 916.5 391.7 918.5 393.1 920.1C394.5 921.7 396.5 922.7 398.7 922.8L404.4 923.2C406.6 923.3 408.6 922.6 410.2 921.2C411.8 919.8 412.8 917.8 412.9 915.7L420.6 793.1C420.9 788.7 417.5 784.8 413 784.5L407.3 784.1C407.2 784.2 407 784.2 406.8 784.2Z" fill="#3F58B2"/>
<path d="M381.717 531.543L343.724 580.536L346.094 582.374L384.088 533.382L381.717 531.543Z" fill="#3F58B2"/>
<path d="M346.3 583.1L343.1 580.6L381.7 530.8L384.9 533.3L346.3 583.1ZM344.5 580.5L346.1 581.7L383.5 533.5L381.9 532.3L344.5 580.5Z" fill="#3F58B2"/>
<path d="M526.93 515.776L523.945 516.066L531.508 594.097L534.494 593.808L526.93 515.776Z" fill="#3F58B2"/>
<path d="M531.1 594.7L523.4 515.7L527.4 515.3L535.1 594.3L531.1 594.7ZM524.6 516.6L532.1 593.6L534.1 593.4L526.6 516.4L524.6 516.6Z" fill="#3F58B2"/>
<path d="M342.1 712.8L314.8 717.2L314.6 708L341.5 707.3L342 712.6L342.1 712.8Z" fill="#3F58B2"/>
<path d="M314.3 717.8L314.1 707.5L341.9 706.8L342.5 712.5L342.9 713.1L314.3 717.8ZM315.2 708.5L315.4 716.6L341.5 712.3L341.1 707.8L315.2 708.5Z" fill="#3F58B2"/>
<path d="M950.4 644.1C948.5 644.1 946.6 643.9 944.6 643.6L838.2 625.5L838.7 622.5L945.1 640.6C958 642.8 971.1 636.7 977.8 625.4L1006.6 576.6L1009.2 578.1L980.4 626.9C974.2 637.7 962.6 644.1 950.4 644.1Z" fill="#3F58B2"/>
<path d="M950.4 644.6C948.4 644.6 946.5 644.4 944.6 644.1L837.7 625.9L838.4 622L838.9 622.1L945.3 640.2C958 642.4 970.9 636.4 977.5 625.3L1006.6 576.1L1010 578.1L1009.7 578.5L980.9 627.3C974.6 638 962.9 644.6 950.4 644.6ZM838.8 625.1L944.7 643.2C946.6 643.5 948.5 643.7 950.4 643.7C962.5 643.7 973.9 637.3 980 626.9L1008.6 578.5L1006.9 577.5L978.3 625.9C971.5 637.3 958.2 643.5 945.1 641.3L839.2 623.2L838.8 625.1Z" fill="#3F58B2"/>
<path d="M475 374.5L495 376.5C495 376.5 488 391.5 475 374.5Z" fill="black"/>
<path d="M486.7 383.1C482.9 383.1 478.8 380.3 474.6 374.8L473.9 373.9L495.7 376.1L495.4 376.7C495.3 376.9 492.6 382.5 487.5 383.1C487.3 383.1 487 383.1 486.7 383.1ZM476.1 375.1C480.1 380.1 483.9 382.4 487.4 382.1C491 381.7 493.4 378.4 494.2 377L476.1 375.1Z" fill="black"/>
<path d="M911 386.5H892C892 386.5 895 400.5 911 386.5Z" fill="white"/>
<path d="M899 393.2C898.2 393.2 897.4 393.1 896.7 392.8C892.6 391.4 891.6 386.7 891.5 386.5L891.4 385.9H912.3L911.3 386.8C906.5 391.1 902.4 393.2 899 393.2ZM892.7 387C893.1 388.2 894.3 391 897.1 391.9C900.3 392.9 904.5 391.3 909.7 387H892.7Z" fill="black"/>
<path d="M928.9 574L870.9 571L871.1 568L927.1 571L952.7 522.8L955.3 524.2L928.9 574Z" fill="#3F58B2"/>
<path d="M1392 1213.5H0V1217.5H1392V1213.5Z" fill="#3F58B2"/>
<circle cx="702.054" cy="120.164" r="116.211" fill="white"/>
<path d="M596.593 63.1824C609.224 40.2614 629.096 22.1783 653.099 11.7652C677.101 1.35199 703.878 -0.803237 729.236 5.63701C754.594 12.0773 777.101 26.7493 793.232 47.3553C806.671 64.5225 815.052 85.0007 817.575 106.492" stroke="#364EA5" stroke-width="4" stroke-miterlimit="10" stroke-linecap="round" stroke-linejoin="round"/>
<path d="M818.264 104.538C826.016 102.008 831.936 98.2152 845.158 98.2152C865.281 98.2152 884.58 106.212 898.809 120.447C913.038 134.682 921.032 153.989 921.032 174.12C921.032 194.251 913.038 213.558 898.809 227.793C884.58 242.028 865.281 250.025 845.158 250.025H589.04C564.364 250.025 540.699 240.219 523.251 222.763C505.802 205.308 496 181.633 496 156.947C496 132.261 505.802 108.586 523.251 91.1309C540.699 73.6754 564.364 63.869 589.04 63.869C599.317 63.8388 609.443 65.4799 619.046 68.6545" stroke="#4D67CA" stroke-width="4" stroke-miterlimit="10" stroke-linecap="round" stroke-linejoin="round"/>
<ellipse cx="847.561" cy="168.992" rx="60.5467" ry="65.4295" fill="white"/>
<ellipse cx="577.199" cy="134.871" rx="63.4827" ry="62.0064" fill="white"/>
<path d="M739.429 151.376L719.806 160.485L700.011 151.118" stroke="#30479B" stroke-width="4" stroke-miterlimit="10"/>
<path d="M739.6 151.032V175.351L719.977 184.373L700.183 175.093V150.775L719.806 141.065L739.6 151.032Z" stroke="#30479B" stroke-width="4" stroke-miterlimit="10"/>
<path d="M720.415 183.787L720.415 159.223" stroke="#30479B" stroke-width="4" stroke-miterlimit="10"/>
<path d="M662.565 161.516L672.676 149.486C683.73 136.252 695.298 123.621 707.466 111.419L714.321 104.544C718.949 99.99 724.69 96.7246 730.945 95.092C732.745 94.6623 734.63 95.7794 735.058 97.5839C735.23 98.0995 735.23 98.701 735.058 99.2166C733.43 105.489 730.174 111.247 725.633 115.887L718.777 122.761C706.609 134.964 693.927 146.564 680.817 157.649L668.734 167.789C666.935 169.421 664.193 169.25 662.565 167.445C661.022 165.726 661.022 163.235 662.565 161.516Z" stroke="#30479B" stroke-width="4" stroke-miterlimit="10"/>
<path d="M707.123 111.676L661.193 100.677C660.165 100.42 659.051 100.763 658.28 101.537L656.223 103.599C655.024 104.802 655.024 106.778 656.223 108.067C656.395 108.239 656.652 108.411 656.909 108.583L692.127 126.972L707.123 111.676Z" stroke="#30479B" stroke-width="4" stroke-miterlimit="10"/>
<path d="M718.435 123.105L721.519 135.823" stroke="#30479B" stroke-width="4" stroke-miterlimit="10"/>
<path d="M670.877 165.898L676.789 176.897C677.646 178.358 679.446 178.874 680.902 178.014C681.16 177.843 681.331 177.757 681.502 177.499L683.73 175.265C684.501 174.491 684.759 173.46 684.501 172.429L680.731 157.649" stroke="#30479B" stroke-width="4" stroke-miterlimit="10"/>
<path d="M671.562 149.486L656.823 145.791C655.709 145.533 654.424 145.791 653.567 146.65L650.996 149.228C649.625 150.603 649.711 152.751 650.996 154.126C651.168 154.298 651.425 154.47 651.682 154.642L661.965 160.571" stroke="#30479B" stroke-width="4" stroke-miterlimit="10"/>
<path d="M685.615 106.521L688.358 101.794C689.214 100.248 691.185 99.7321 692.728 100.677C692.813 100.763 692.899 100.763 692.985 100.849H693.071C694.527 101.88 694.784 103.857 693.756 105.318C693.67 105.404 693.585 105.489 693.585 105.575L691.614 107.724" stroke="#30479B" stroke-width="4" stroke-miterlimit="10"/>
<path d="M704.467 136.596L707.123 143.213" stroke="#30479B" stroke-width="4" stroke-miterlimit="10"/>
</svg>