<svg width="174" height="47" viewBox="0 0 174 47" fill="none" xmlns="http://www.w3.org/2000/svg">
<path d="M61 43.6654V35H62.4118V38.6111H62.4241C62.905 38.0936 63.5565 37.8348 64.3785 37.8348C65.2334 37.8348 65.9444 38.1166 66.5116 38.6801C67.0788 39.2398 67.3624 39.9509 67.3624 40.8134C67.3624 41.6912 67.0809 42.4023 66.5178 42.9467C65.9547 43.4872 65.2375 43.7574 64.3662 43.7574C63.5113 43.7574 62.8475 43.4719 62.3748 42.9007H62.3502V43.6654H61ZM62.3502 40.8249C62.3502 41.3347 62.5228 41.7507 62.868 42.0727C63.2133 42.3947 63.6428 42.5557 64.1565 42.5557C64.6744 42.5557 65.0977 42.3947 65.4266 42.0727C65.7554 41.7468 65.9198 41.3309 65.9198 40.8249C65.9198 40.2844 65.7492 39.8493 65.4081 39.5196C65.0669 39.1899 64.6436 39.0251 64.138 39.0251C63.612 39.0251 63.1825 39.1957 62.8495 39.5369C62.5166 39.878 62.3502 40.3074 62.3502 40.8249Z" fill="#7483B9"/>
<path d="M68.7362 37.9211H70.2282L71.9298 41.8024L73.5204 37.9211H75L71.6154 46H70.1234L71.2331 43.3377L68.7362 37.9211Z" fill="#7483B9"/>
<path d="M90.7351 15.6855C90.7351 13.3403 91.4776 11.4355 92.9625 9.97103C94.4474 8.49634 96.3574 7.75899 98.6923 7.75899C99.9315 7.75899 101.13 8.0099 102.287 8.5117C103.444 9.00327 104.397 9.70989 105.144 10.6316L102.748 12.7054C101.765 11.5277 100.479 10.9388 98.892 10.9388C97.53 10.9388 96.4291 11.374 95.5893 12.2445C94.7496 13.115 94.3297 14.2517 94.3297 15.6547C94.3297 17.068 94.7496 18.2099 95.5893 19.0803C96.4393 19.9406 97.5402 20.3707 98.892 20.3707C99.6908 20.3707 100.428 20.2171 101.104 19.9099C101.78 19.6026 102.338 19.2135 102.778 18.7424L105.206 20.8776C104.499 21.6764 103.567 22.3267 102.41 22.8285C101.263 23.3303 99.9827 23.5812 98.5694 23.5812C96.2857 23.5812 94.4065 22.849 92.9318 21.3845C91.4673 19.9099 90.7351 18.0102 90.7351 15.6855Z" fill="#CD7E21"/>
<path d="M107.448 15.7162C107.448 13.412 108.15 11.5123 109.553 10.0171C110.966 8.5117 112.727 7.75899 114.837 7.75899C116.844 7.75899 118.432 8.45026 119.599 9.83278H119.661V7.98942H123.178V23.3354H119.814V21.2924H119.753C118.606 22.8183 116.977 23.5812 114.868 23.5812C112.717 23.5812 110.94 22.8592 109.537 21.4153C108.145 19.9611 107.448 18.0614 107.448 15.7162ZM111.043 15.7469C111.043 17.109 111.447 18.2201 112.256 19.0803C113.076 19.9406 114.136 20.3707 115.436 20.3707C116.665 20.3707 117.699 19.9406 118.539 19.0803C119.389 18.2099 119.814 17.0987 119.814 15.7469C119.814 14.3746 119.399 13.2328 118.57 12.3213C117.74 11.3996 116.696 10.9388 115.436 10.9388C114.177 10.9388 113.127 11.3792 112.287 12.2599C111.458 13.1304 111.043 14.2927 111.043 15.7469Z" fill="#CD7E21"/>
<path d="M127.633 23.3354V7.98942H131.151V10.309H131.182C131.786 9.48971 132.498 8.85989 133.317 8.41953C134.146 7.97917 135.027 7.75899 135.959 7.75899H136.405V11.6915C135.852 11.6505 135.493 11.6301 135.329 11.6301C134.029 11.6301 133.005 12.0448 132.257 12.8743C131.52 13.7039 131.151 14.7689 131.151 16.0695V23.3354H127.633Z" fill="#CD7E21"/>
<path d="M139.999 20.9851C138.596 19.5821 137.895 17.7541 137.895 15.5011C137.895 13.2481 138.581 11.3894 139.953 9.92495C141.325 8.4605 143.071 7.72827 145.191 7.72827C147.117 7.72827 148.709 8.35809 149.969 9.61772H150.045V7.98942H153.563V21.7686C153.563 22.9668 153.42 24.0421 153.133 24.9945C152.846 25.9469 152.401 26.7866 151.797 27.5137C151.192 28.2408 150.378 28.799 149.354 29.1881C148.33 29.5875 147.122 29.7872 145.729 29.7872C143.333 29.7872 141.243 29.2496 139.461 28.1743L140.322 25.102C141.315 25.6243 142.18 26.0032 142.918 26.2387C143.665 26.4845 144.541 26.6074 145.545 26.6074C146.999 26.6074 148.12 26.2439 148.909 25.5168C149.707 24.7999 150.107 23.9038 150.107 22.8285V21.2002H150.076C148.847 22.4598 147.28 23.0897 145.376 23.0897C143.204 23.0897 141.412 22.3882 139.999 20.9851ZM141.474 15.409C141.474 16.7505 141.883 17.8258 142.703 18.6349C143.532 19.4439 144.582 19.8484 145.852 19.8484C147.122 19.8484 148.161 19.4285 148.97 18.5888C149.789 17.7388 150.199 16.6584 150.199 15.3475C150.199 14.0572 149.784 13.0075 148.955 12.1984C148.135 11.3792 147.101 10.9695 145.852 10.9695C144.551 10.9695 143.496 11.3843 142.687 12.2138C141.878 13.0331 141.474 14.0981 141.474 15.409Z" fill="#CD7E21"/>
<path d="M157.066 15.6855C157.066 14.1801 157.393 12.8283 158.049 11.6301C158.714 10.4319 159.662 9.48971 160.891 8.80357C162.119 8.10719 163.528 7.75899 165.115 7.75899C167.481 7.75899 169.416 8.49634 170.922 9.97103C172.427 11.4355 173.18 13.3403 173.18 15.6855C173.18 18.0102 172.427 19.9099 170.922 21.3845C169.416 22.849 167.481 23.5812 165.115 23.5812C162.729 23.5812 160.788 22.8388 159.293 21.3538C157.808 19.8586 157.066 17.9692 157.066 15.6855ZM160.66 15.6855C160.66 17.0065 161.075 18.1177 161.904 19.0189C162.744 19.9201 163.814 20.3707 165.115 20.3707C166.375 20.3707 167.435 19.9303 168.295 19.0496C169.155 18.1689 169.585 17.0475 169.585 15.6855C169.585 14.2927 169.16 13.156 168.31 12.2752C167.46 11.3843 166.395 10.9388 165.115 10.9388C163.794 10.9388 162.719 11.3894 161.889 12.2906C161.07 13.1918 160.66 14.3234 160.66 15.6855Z" fill="#CD7E21"/>
<path d="M58 23.3355L66.3412 1H70.0587L78.4153 23.3355H74.452L72.7623 18.5273H63.6376L61.9632 23.3355H58ZM64.8051 15.2554H71.6256L68.2307 5.56233H68.1692L64.8051 15.2554Z" fill="#30479B"/>
<path d="M82.0098 23.3355V1H85.8195V23.3355H82.0098Z" fill="#30479B"/>
<path d="M45.2883 29.1669L35.7022 33.6166L26.0325 29.041" stroke="#30479B" stroke-width="2" stroke-miterlimit="10"/>
<path d="M45.372 28.999V40.8787L35.786 45.2864L26.1162 40.7528V28.8731L35.7023 24.1296L45.372 28.999Z" stroke="#30479B" stroke-width="2" stroke-miterlimit="10"/>
<path d="M36 45L36 33" stroke="#30479B" stroke-width="2" stroke-miterlimit="10"/>
<path d="M7.73943 34.1203L12.679 28.2435C18.079 21.7789 23.7301 15.6082 29.6743 9.64738L33.0231 6.28917C35.2836 4.06435 38.0883 2.46921 41.1441 1.67163C42.0231 1.46174 42.9441 2.00745 43.1534 2.88898C43.2371 3.14085 43.2371 3.43469 43.1534 3.68656C42.358 6.75092 40.7673 9.56342 38.5487 11.8302L35.1999 15.1884C29.2557 21.1492 23.0604 26.8162 16.6557 32.2313L10.7534 37.1847C9.87432 37.9823 8.53478 37.8983 7.73943 37.0168C6.98594 36.1772 6.98594 34.9599 7.73943 34.1203Z" stroke="#30479B" stroke-width="2" stroke-miterlimit="10"/>
<path d="M29.5068 9.77324L7.06959 4.40011C6.56727 4.27418 6.02308 4.44209 5.64633 4.81989L4.64168 5.82735C4.05564 6.41503 4.05564 7.38052 4.64168 8.01018C4.7254 8.09414 4.85099 8.17809 4.97657 8.26205L22.1812 17.2453L29.5068 9.77324Z" stroke="#30479B" stroke-width="2" stroke-miterlimit="10"/>
<path d="M35.0325 15.3563L36.5394 21.569" stroke="#30479B" stroke-width="2" stroke-miterlimit="10"/>
<path d="M11.8 36.2612L14.6884 41.6343C15.107 42.3479 15.9861 42.5998 16.6977 42.18C16.8233 42.0961 16.907 42.0541 16.9907 41.9281L18.0791 40.8367C18.4559 40.4589 18.5814 39.9552 18.4559 39.4515L16.614 32.2313" stroke="#30479B" stroke-width="2" stroke-miterlimit="10"/>
<path d="M12.1348 28.2435L4.93483 26.4384C4.39064 26.3125 3.76274 26.4384 3.34413 26.8582L2.08832 28.1175C1.41855 28.7892 1.46041 29.8386 2.08832 30.5103C2.17204 30.5942 2.29762 30.6782 2.4232 30.7621L7.44646 33.6586" stroke="#30479B" stroke-width="2" stroke-miterlimit="10"/>
<path d="M19 7.25469L20.3395 4.94592C20.7581 4.19032 21.7209 3.93846 22.4744 4.40021C22.5163 4.44219 22.5581 4.44219 22.6 4.48417H22.6419C23.3535 4.9879 23.4791 5.95338 22.9767 6.667C22.9349 6.70898 22.893 6.75096 22.893 6.79294L21.9302 7.84238" stroke="#30479B" stroke-width="2" stroke-miterlimit="10"/>
<path d="M28.2092 21.9468L29.5069 25.179" stroke="#30479B" stroke-width="2" stroke-miterlimit="10"/>
<path d="M89.6438 35.4478H90.9326V43.8651H89.6438V35.4478Z" fill="#30479B"/>
<path d="M84.5872 43.8651H85.8901L82.3899 35.4478H81.1645L77.6643 43.8651H78.9813L79.4813 42.6414L80.2137 40.7483H80.1997C80.7279 39.4367 81.2561 38.1251 81.7772 36.8135C82.1716 37.7803 82.5589 38.7539 82.9533 39.7342C83.0026 39.8559 83.0519 39.9776 83.1012 40.0993C83.1857 40.3156 83.2773 40.532 83.3618 40.7483H83.3477L84.0097 42.4724L84.5872 43.8651Z" fill="#30479B"/>
<path d="M97.4826 36.4822H94.7642V35.4478H101.497V36.4822H98.7785V43.8651H97.4897V36.4822H97.4826Z" fill="#30479B"/>
<path d="M106.659 43.4931C105.954 43.128 105.405 42.6142 105.004 41.9448C104.602 41.2755 104.405 40.5183 104.405 39.6596C104.405 38.801 104.602 38.037 105.004 37.3744C105.405 36.7051 105.954 36.1913 106.659 35.8194C107.363 35.4476 108.145 35.265 109.018 35.265C109.884 35.265 110.673 35.4476 111.377 35.8194C112.082 36.1913 112.631 36.7051 113.032 37.3744C113.434 38.0438 113.631 38.801 113.631 39.6596C113.631 40.5183 113.434 41.2822 113.032 41.9448C112.631 42.6142 112.082 43.128 111.377 43.4931C110.673 43.8582 109.891 44.0407 109.018 44.0407C108.145 44.0407 107.363 43.8582 106.659 43.4931ZM110.701 42.533C111.208 42.2626 111.61 41.884 111.898 41.3904C112.194 40.8969 112.335 40.3222 112.335 39.6596C112.335 39.0106 112.194 38.4359 111.905 37.9423C111.617 37.4488 111.222 37.0702 110.722 36.7997C110.222 36.5293 109.659 36.3941 109.039 36.3941C108.412 36.3941 107.849 36.5293 107.342 36.793C106.835 37.0567 106.433 37.442 106.138 37.9356C105.842 38.4359 105.694 39.0106 105.694 39.6596C105.694 40.3154 105.842 40.8969 106.13 41.3904C106.426 41.884 106.821 42.2626 107.328 42.533C107.835 42.8035 108.398 42.9387 109.018 42.9387C109.638 42.9319 110.194 42.8035 110.701 42.533Z" fill="#30479B"/>
<path d="M118.019 35.4478H119.3L122.42 42.0126L125.54 35.4478H126.822V43.8651H125.582V37.8749L122.737 43.8651H122.103L119.244 37.8817V43.8651H118.019V35.4478Z" fill="#30479B"/>
<path d="M137.147 43.8651H138.45L134.957 35.4478H133.724L130.224 43.8651H131.541L132.041 42.6414L132.773 40.7483H132.759C133.287 39.4367 133.816 38.1251 134.337 36.8135C134.731 37.787 135.119 38.7606 135.513 39.7409C135.562 39.8626 135.612 39.9843 135.661 40.106C135.745 40.3224 135.837 40.5387 135.921 40.7551H135.907L136.569 42.4791L137.147 43.8651Z" fill="#30479B"/>
<path d="M143.379 36.4822H140.661V35.4478H147.393V36.4822H144.675V43.8651H143.386V36.4822H143.379Z" fill="#30479B"/>
<path d="M151.218 35.4478H152.507V43.8651H151.218V35.4478Z" fill="#30479B"/>
<path d="M159.457 43.4998C158.753 43.1415 158.204 42.6277 157.816 41.9651C157.422 41.3025 157.225 40.5318 157.225 39.6596C157.225 38.7875 157.422 38.0167 157.816 37.3474C158.211 36.6781 158.76 36.1642 159.457 35.8059C160.162 35.4476 160.964 35.265 161.866 35.265C163.07 35.265 164.077 35.5557 164.887 36.1439V37.3271C164.162 36.7119 163.19 36.4009 161.979 36.4009C161.303 36.4009 160.704 36.5361 160.176 36.7997C159.655 37.0634 159.246 37.442 158.95 37.9356C158.655 38.4291 158.514 39.0038 158.514 39.6664C158.514 40.3222 158.662 40.9036 158.957 41.3972C159.253 41.8975 159.662 42.2761 160.19 42.5398C160.711 42.8035 161.31 42.9387 161.979 42.9387C162.598 42.9387 163.155 42.8575 163.641 42.702C164.127 42.5465 164.584 42.2964 165 41.9516V43.1415C164.246 43.7432 163.204 44.0475 161.866 44.0475C160.964 44.0407 160.162 43.8649 159.457 43.4998Z" fill="#30479B"/>
</svg>